<svg width="223" height="79" viewBox="0 0 223 79" fill="none" xmlns="http://www.w3.org/2000/svg">
<path d="M62.0996 1.28003V19.2205H22.5596V30.3796H58.7598V47.2H22.5596V59.6804H62.4199V77.6199H0.5V1.28003H62.0996Z" fill="#222222" stroke="#222222"/>
<path d="M104.752 1.28003L104.881 1.58569L125.841 51.2458L125.843 51.2507C126.142 51.9849 126.452 52.749 126.76 53.5281V1.28003H147.92V77.6199H113.75L113.62 77.3162L92.8799 28.6765L92.877 28.6677C92.4705 27.6671 92.0858 26.6933 91.7197 25.741V77.6199H70.5801V1.28003H104.752Z" fill="#222222" stroke="#222222"/>
<path d="M222.101 1.28003V19.2205H198.341V77.6199H176.301V19.2205H152.521V1.28003H222.101Z" fill="#222222" stroke="#222222"/>
</svg>
