<svg width="366" height="72" viewBox="0 0 366 72" fill="none" xmlns="http://www.w3.org/2000/svg">
<g clip-path="url(#clip0_7737_1200)">
<path d="M45.0114 48.0729L31.8542 1.71301H0V70.3782H19.1708V18.4419L34.1321 69.8861L34.2779 70.3782H55.2346L70.2324 18.7517V70.3782H89.4032V1.71301H58.2415L45.0114 48.0729Z" fill="#3A3A39"/>
<path d="M98.3508 17.1481H110.178V54.9431H98.3508V70.3782H141.194V54.9431H129.367V17.1481H141.194V1.71301H98.3508V17.1481Z" fill="#3A3A39"/>
<path d="M197.613 41.9134C196.884 52.0273 192.146 56.1458 181.212 56.1458C169.932 56.1458 164.811 49.9681 164.811 36.1002C164.811 22.2323 170.15 15.9271 181.631 15.9271C191.927 15.9271 196.465 19.918 197.339 29.6674V30.3052H217.13V29.5581C215.599 8.83827 204.939 0 181.431 0C154.515 0 144.984 18.6424 144.984 36.1002C144.984 58.5695 158.597 71.9818 181.431 71.9818C205.777 71.9818 215.927 63.5809 217.622 42.0228V41.2756H197.667L197.613 41.9134Z" fill="#3A3A39"/>
<path d="M269.85 27.918H243.08V1.71301H223.909V70.3782H243.08V43.1527H269.85V70.3782H289.021V1.71301H269.85V27.918Z" fill="#3A3A39"/>
<path d="M297.968 17.1481H309.813V54.9431H297.968V70.3782H340.829V54.9431H328.984V17.1481H340.829V1.71301H297.968V17.1481Z" fill="#3A3A39"/>
<path d="M365.613 53.8314H347.754V70.3781H365.613V53.8314Z" fill="#3A3A39"/>
</g>
<defs>
<clipPath id="clip0_7737_1200">
<rect width="365.613" height="72" fill="white"/>
</clipPath>
</defs>
</svg>
