<svg width="642" height="72" viewBox="0 0 642 72" fill="none" xmlns="http://www.w3.org/2000/svg">
<g clip-path="url(#clip0_7725_3231)">
<path d="M19.1466 42.6067H52.1072V28.1921H19.1466V17.1264H55.1284V1.71082H0V70.2892H55.4378V54.8736H19.1466V42.6067Z" fill="#3A3A39"/>
<path d="M100.811 28.0283L87.9798 26.7179C83.5572 26.1901 81.4096 24.2608 81.4096 20.821C81.4096 16.7623 85.2316 14.3235 91.6381 14.3235C98.445 14.3235 102.558 17.272 103.286 22.6229L103.377 23.2234H122.287V22.4955C121.65 14.1052 116.827 0.036377 91.6927 0.036377C72.8919 0.036377 62.0991 8.04451 62.0991 22.0405C62.0991 33.7068 69.1062 40.9322 81.81 42.4246L96.3701 44.0445C101.284 44.7179 103.468 46.7927 103.468 50.7421C103.468 55.4378 99.8282 57.731 92.3297 57.731C81.9192 57.731 79.808 51.4702 79.4622 47.7391V47.1203H60.8069V47.8483C61.2256 55.1284 65.1204 72.0364 92.0021 72.0364C112.441 72.0364 122.797 64.3559 122.797 49.2134C122.833 36.3458 115.626 29.4115 100.811 28.0283Z" fill="#3A3A39"/>
<path d="M123.689 17.1264H145.31V70.2892H164.457V17.1264H186.097V1.71082H123.689V17.1264Z" fill="#3A3A39"/>
<path d="M235.165 41.7149C235.165 53.7088 230.669 55.9838 222.425 55.9838C214.18 55.9838 209.685 53.7088 209.685 41.7149V1.67438H190.392V43.9899C190.392 62.4813 201.167 71.8544 222.406 71.8544C243.282 71.8544 254.311 62.2265 254.311 43.9899V1.71081H235.165V41.7149Z" fill="#3A3A39"/>
<path d="M297.683 1.71082H263.102V70.2891H297.683C321.689 70.2891 330.206 51.7249 330.206 35.8361C330.206 19.9474 321.689 1.71082 297.683 1.71082ZM282.194 17.1082H293.642C305.126 17.1082 310.241 22.8777 310.241 35.818C310.241 48.7584 305.126 54.8554 293.642 54.8554H282.194V17.1082Z" fill="#3A3A39"/>
<path d="M333.974 17.1264H345.804V54.8736H333.974V70.2892H376.781V54.8736H364.951V17.1264H376.781V1.71082H333.974V17.1264Z" fill="#3A3A39"/>
<path d="M417.221 0C390.121 0 380.457 18.6187 380.457 36.0545C380.457 58.4954 394.216 71.8907 417.221 71.8907C440.227 71.8907 454.095 58.4954 454.095 36.0545C454.095 27.5914 451.438 0 417.221 0ZM417.221 15.907C431.308 15.907 434.129 23.6238 434.129 36.0545C434.129 48.4853 431.308 56.0748 417.221 56.0748C403.135 56.0748 400.423 48.0667 400.423 36.0545C400.423 24.0424 403.28 15.907 417.221 15.907Z" fill="#3A3A39"/>
<path d="M526.259 28.2831C524.621 28.2831 523.329 28.2831 522.218 28.4469L542.712 16.6349V1.71082H488.111V16.9262H519.78L499.177 28.7199L506.111 40.6957L506.675 40.3862C509.732 38.6759 513.183 37.7974 516.686 37.8382C522.892 37.8382 526.914 41.733 526.914 47.7755C526.914 54.1091 522.983 57.6036 515.866 57.6036C510.861 57.6036 504.801 55.7836 504.328 47.6299V46.9929H485.035V47.6845C485.236 63.3003 496.247 71.8907 515.976 71.8907C535.705 71.8907 546.679 63.5186 546.679 48.2305C546.752 29.2477 529.68 28.2831 526.259 28.2831Z" fill="#3A3A39"/>
<path d="M591.252 48.0485C607.268 38.6026 614.111 30.3579 614.111 20.4752C614.111 11.1385 609.27 0 586.138 0C561.877 0 552.922 15.1607 552.613 29.3569V30.0667H571.85V29.3933C572.214 19.5834 576.619 14.8332 585.318 14.8332C591.325 14.8332 594.637 17.4722 594.637 22.2406C594.637 26.2083 592.562 29.3569 587.867 32.4874L553.668 55.3286V70.2346H615.549V55.0192H580.332L591.252 48.0485Z" fill="#3A3A39"/>
<path d="M641.12 53.7633H623.284V70.2891H641.12V53.7633Z" fill="#3A3A39"/>
</g>
<defs>
<clipPath id="clip0_7725_3231">
<rect width="641.12" height="72" fill="white"/>
</clipPath>
</defs>
</svg>
