<svg width="151" height="137" viewBox="0 0 151 137" fill="none" xmlns="http://www.w3.org/2000/svg">
<path d="M147.796 135H112.396L103.796 110H46.7963L37.9963 135H2.79626L48.1963 2H102.396L147.796 135ZM55.7963 83.4H94.7963L75.1963 26.8L55.7963 83.4Z" fill="#3A3A39"/>
<path d="M103.827 0L150.593 137H110.97L102.369 112H48.2119L39.4121 137H0L46.7656 0H103.827ZM48.1963 2L2.7959 135H37.9961L46.7959 110H103.796L112.396 135H147.796L102.396 2H48.1963ZM94.7959 83.4004H55.7959L75.1963 26.7998L94.7959 83.4004ZM58.5967 81.4004H91.9873L75.2051 32.9385L58.5967 81.4004Z" fill="#3A3A39"/>
</svg>
