<svg width="75" height="83" viewBox="0 0 75 83" fill="none" xmlns="http://www.w3.org/2000/svg">
<path d="M60.2 39.7C64.1505 38.4727 67.5722 35.9498 69.9128 32.5388C72.2533 29.1277 73.3762 25.0276 73.1 20.9C73.1 7.79996 63.7 0 47.8 0H0V82.2H46.8999C64.3999 82.2 74.3 73.7999 74.3 59.2999C74.7077 54.8819 73.5054 50.4656 70.9144 46.864C68.3234 43.2624 64.5183 40.7181 60.2 39.7ZM23.6 48.5001H41C47 48.5001 49.8 51 49.8 56.3C49.8 61.6 47.1999 63.9001 41.4999 63.9001H23.8L23.6 48.5001ZM41 32.2H23.8V18.2999H41.3C46.5 18.2999 48.8 20.3999 48.8 25.1999C48.8 29.9999 46.2 32.5 41 32.5V32.2Z" fill="#3A3A39"/>
</svg>
