<svg width="88" height="87" viewBox="0 0 88 87" fill="none" xmlns="http://www.w3.org/2000/svg">
<path d="M62.6435 50.2849C61.7435 62.1849 56.4435 66.7851 43.5435 66.7851C30.6435 66.7851 24.6435 59.5852 24.6435 43.3852C24.6435 27.1852 30.7436 19.9849 44.1436 19.9849C57.5436 19.9849 61.5435 26.2852 62.3435 35.8852V36.985H86.5435V35.685C84.7435 11.185 71.6436 0.185106 43.8436 0.185106C38.0081 -0.37822 32.12 0.347952 26.5963 2.31249C21.0726 4.27702 16.0483 7.43192 11.879 11.5535C7.70965 15.6751 4.49735 20.6628 2.46939 26.1635C0.441424 31.6642 -0.352646 37.5436 0.143492 43.3852C0.143492 70.3852 16.4435 86.3851 43.7435 86.3851C72.8435 86.3851 85.0435 76.3851 87.0435 50.4851V49.185H62.6435V50.2849Z" fill="#3A3A39"/>
</svg>
