<svg width="116" height="115" viewBox="0 0 116 115" fill="none" xmlns="http://www.w3.org/2000/svg">
<path d="M81.8053 66.2911C80.7166 81.4122 73.9121 87.2489 57.6115 87.2489C40.7061 87.2489 33.4177 78.1763 33.4177 57.3394C33.4177 36.5025 41.0992 27.2786 58.3373 27.2786C76.0593 27.2786 80.4142 35.3533 81.5029 47.5107L81.6843 49.5671H114.618L114.437 46.9965C112.048 14.5163 94.5977 0 57.8534 0C15.2118 0 0 29.577 0 57.2184C0 92.8438 21.5627 114.134 57.7022 114.134C96.2914 114.134 112.38 100.767 115.163 66.5028L115.344 64.0532H82.0775L81.8053 66.2911Z" fill="#3A3A39"/>
</svg>
