<svg width="145" height="144" viewBox="0 0 145 144" fill="none" xmlns="http://www.w3.org/2000/svg">
<path d="M72.6003 141.6C21.2003 141.6 2.00037 108.6 2.00037 72.0005C2.00037 36.4005 21.4004 2.00049 72.8004 2.00049C120.4 2.00049 139.2 21.0005 142 59.2005H105.8C104.2 41.2005 96.6004 30.8005 73.4004 30.8005C49.2004 30.8005 38.8004 44.6005 38.8004 72.0005C38.8004 99.0005 48.4004 113.001 72.4004 113.001C96.2004 113.001 104.8 103 106.2 83.6005H142.8C139.6 124.4 121.4 141.6 72.6003 141.6Z" fill="#3A3A39"/>
<path d="M38.8008 72C38.8009 44.6003 49.2005 30.8008 73.4004 30.8008L74.4766 30.8076C96.4816 31.1218 103.987 41.1555 105.721 58.3623L105.801 59.2002H142C139.244 21.5973 120.984 2.59921 75.0107 2.01465L72.8008 2C21.401 2 2.00014 36.4001 2 72C2 108.314 20.9015 141.085 71.4014 141.595L72.6006 141.601C121.4 141.601 139.601 124.4 142.801 83.6006H106.2C104.8 103 96.2003 113 72.4004 113V111C84.0666 111 91.5686 108.543 96.3389 104.11C101.104 99.6823 103.522 92.9314 104.206 83.4561L104.34 81.6006H144.964L144.794 83.7568C143.176 104.386 137.735 119.523 126.097 129.424C114.503 139.286 97.1635 143.601 72.6006 143.601C46.447 143.601 28.1994 135.186 16.5205 121.843C4.88317 108.547 0 90.6213 0 72C7.03057e-05 53.8651 4.94014 35.8525 16.6123 22.3428C28.3286 8.78212 46.6208 0 72.8008 0C96.8157 5.11152e-05 113.986 4.78522 125.51 14.7637C136.706 24.4588 142.224 38.7517 143.85 57.251L143.995 59.0537L144.152 61.2002H103.971L103.809 59.3779C103.026 50.5717 100.803 44.0457 96.3076 39.6855C91.8308 35.3433 84.7355 32.8008 73.4004 32.8008C61.686 32.8008 53.7008 36.1247 48.5732 42.3916C43.3758 48.744 40.8008 58.4901 40.8008 72L40.8076 73.2393C40.9521 85.936 43.3398 95.2362 48.1729 101.39C53.0794 107.636 60.8018 111 72.4004 111V113C48.7755 113 39.1042 99.4346 38.8076 73.2568L38.8008 72Z" fill="#3A3A39"/>
</svg>
