<svg width="135" height="137" viewBox="0 0 135 137" fill="none" xmlns="http://www.w3.org/2000/svg">
<path d="M2.00018 135V2H69.2002C112.4 2 132.2 33.6 132.2 68.2C132.2 102.8 112.4 135 69.2002 135H2.00018ZM37.2002 107.2H61.2002C85.4002 107.2 95.4002 93.8 95.4002 68.2C95.4002 42.2 85.2002 29.8 61.2002 29.8H37.2002V107.2Z" fill="#3A3A39"/>
<path d="M0 0H69.2002V2H2V135H69.2002C111.725 135 131.575 103.799 132.186 69.8203L132.2 68.2002C132.2 33.8704 112.708 2.49382 70.208 2.00586L69.2002 2V0C91.3337 0 107.663 8.1191 118.427 20.833C129.149 33.4982 134.2 50.5422 134.2 68.2002L134.186 69.8535C133.879 86.9267 128.816 103.446 118.435 115.858C107.676 128.722 91.3467 137 69.2002 137H0V0ZM93.4004 68.2002C93.4004 55.399 90.8777 46.383 85.7939 40.5664C80.7622 34.8094 72.8735 31.7998 61.2002 31.7998H39.2002V105.2H61.2002V107.2H37.2002V29.7998H61.2002C85.2002 29.7998 95.4004 42.2002 95.4004 68.2002L95.3926 69.3906C95.0841 94.2153 85.0222 107.2 61.2002 107.2V105.2C72.9337 105.2 80.8251 101.964 85.8467 96.0107C90.9289 89.9857 93.4004 80.8 93.4004 68.2002Z" fill="#3A3A39"/>
</svg>
