<svg width="1046" height="144" viewBox="0 0 1046 144" fill="none" xmlns="http://www.w3.org/2000/svg">
<path d="M819.944 0C843.959 5.11152e-05 861.13 4.78522 872.653 14.7637C883.85 24.4588 889.368 38.7517 890.993 57.251L891.139 59.0537L891.296 61.2002H851.114L850.952 59.3779C850.169 50.5717 847.946 44.0457 843.451 39.6855C838.974 35.3433 831.879 32.8008 820.544 32.8008C808.83 32.8008 800.844 36.1247 795.717 42.3916C790.519 48.744 787.944 58.4901 787.944 72L787.951 73.2393C788.096 85.936 790.483 95.2362 795.316 101.39C800.223 107.636 807.945 111 819.544 111C831.21 111 838.712 108.543 843.482 104.11C848.248 99.6823 850.666 92.9314 851.35 83.4561L851.483 81.6006H892.107L891.938 83.7568C890.32 104.386 884.879 119.523 873.24 129.424C861.647 139.286 844.307 143.601 819.744 143.601C793.591 143.601 775.343 135.186 763.664 121.843C752.027 108.547 747.144 90.6213 747.144 72C747.144 53.865 752.084 35.8525 763.756 22.3428C775.472 8.78212 793.764 0 819.944 0ZM971.521 0C998.399 0 1016.89 8.98108 1028.64 22.6465C1040.33 36.2579 1045.12 54.2705 1045.12 72C1045.12 90.0243 1040.34 107.946 1028.63 121.389C1016.88 134.882 998.381 143.601 971.521 143.601C944.86 143.601 926.414 134.932 914.663 121.466C902.955 108.049 898.12 90.1269 898.12 72C898.12 54.168 902.959 36.1558 914.655 22.5703C926.397 8.93194 944.841 9.04576e-07 971.521 0ZM822.009 141.588L819.744 141.601C821.269 141.601 822.764 141.584 824.229 141.55C823.497 141.567 822.756 141.579 822.009 141.588ZM816.643 141.558C817.272 141.574 817.906 141.588 818.545 141.595L817.358 141.576C817.119 141.571 816.88 141.564 816.643 141.558ZM815.043 141.505C815.057 141.505 815.072 141.506 815.086 141.507C815.072 141.506 815.057 141.505 815.043 141.505ZM811.618 141.311C811.976 141.337 812.336 141.361 812.697 141.384C812.336 141.361 811.976 141.337 811.618 141.311ZM809.396 141.122C810.06 141.186 810.732 141.243 811.409 141.294C810.732 141.243 810.06 141.186 809.396 141.122ZM808.344 141.017C808.665 141.051 808.988 141.083 809.312 141.114C808.988 141.083 808.665 141.051 808.344 141.017ZM806.188 140.762C806.758 140.836 807.333 140.904 807.913 140.969C807.333 140.904 806.758 140.836 806.188 140.762ZM837.604 140.676H837.605H837.604ZM805.143 140.62C805.224 140.632 805.306 140.643 805.388 140.654C805.306 140.643 805.224 140.632 805.143 140.62ZM956.604 140.586C956.771 140.61 956.937 140.631 957.104 140.654C956.937 140.631 956.771 140.61 956.604 140.586ZM109.4 35.2002H39.2002V58.8008H102.2V88.6006H39.2002V140.4H0V3.40039H109.4V35.2002ZM233.643 35.2002H162.442V55.8008H227.643V85.6006H162.442V108.601H234.242V140.4H123.242V3.40039H233.643V35.2002ZM318.614 3.40039C340.748 3.40039 357.077 11.5195 367.841 24.2334C378.563 36.8986 383.614 53.9426 383.614 71.6006L383.6 73.2539C383.293 90.3271 378.23 106.847 367.849 119.259C357.09 132.122 340.761 140.4 318.614 140.4H249.414V3.40039H318.614ZM506.494 35.2002H435.294V55.8008H500.494V85.6006H435.294V108.601H507.094V140.4H396.094V3.40039H506.494V35.2002ZM597.866 3.40039C613.191 3.40046 624.867 7.33513 632.738 14.2754C640.638 21.241 644.466 31.0254 644.466 42.2002C644.466 59.5046 634.8 71.9776 620.912 77.3555C625.421 78.9536 629.582 81.2245 632.947 84.5537C638.021 89.5728 641.065 96.7719 641.065 107V114.4L641.079 116.329C641.195 124.441 642.043 129.449 643.121 135.276L644.068 140.4H604.572L604.148 138.969C602.466 133.29 601.666 125.459 601.666 114.4V109C601.666 103.048 599.776 98.9391 596.81 96.293C593.806 93.6138 589.437 92.2002 584.065 92.2002H561.866V140.4H522.266V3.40039H597.866ZM741.245 35.2002H717.846V108.601H741.245V140.4H655.245V108.601H678.646V35.2002H655.245V3.40039H741.245V35.2002ZM801.989 140.117C802.52 140.212 803.056 140.301 803.596 140.387C803.056 140.301 802.52 140.212 801.989 140.117ZM800.963 139.927C801.203 139.973 801.443 140.018 801.685 140.062C801.443 140.018 801.203 139.973 800.963 139.927ZM952.479 139.896C952.543 139.908 952.607 139.919 952.671 139.932C952.607 139.919 952.543 139.908 952.479 139.896ZM799.969 139.731C800.235 139.786 800.503 139.838 800.771 139.89C800.503 139.838 800.235 139.786 799.969 139.731ZM845.824 139.418C845.246 139.531 844.661 139.64 844.069 139.744C844.661 139.64 845.246 139.531 845.824 139.418ZM799.003 139.528C799.223 139.576 799.445 139.622 799.667 139.668C799.445 139.622 799.223 139.576 799.003 139.528ZM798.025 139.311C798.184 139.347 798.344 139.382 798.504 139.418C798.344 139.382 798.184 139.347 798.025 139.311ZM949.421 139.249C949.55 139.279 949.68 139.307 949.811 139.337C949.68 139.307 949.55 139.279 949.421 139.249ZM797.014 139.071C797.234 139.125 797.455 139.177 797.677 139.229C797.455 139.177 797.234 139.125 797.014 139.071ZM796.105 138.844C796.334 138.902 796.564 138.96 796.795 139.017C796.564 138.96 796.334 138.902 796.105 138.844ZM795.145 138.591C795.315 138.637 795.486 138.682 795.657 138.727C795.486 138.682 795.315 138.637 795.145 138.591ZM794.205 138.331C794.387 138.383 794.57 138.433 794.753 138.483C794.57 138.433 794.387 138.383 794.205 138.331ZM322.566 138.308C321.718 138.348 320.859 138.374 319.991 138.388C320.859 138.374 321.718 138.348 322.566 138.308ZM793.273 138.06C793.472 138.119 793.672 138.176 793.872 138.234C793.672 138.176 793.472 138.119 793.273 138.06ZM325.08 138.148C325.202 138.139 325.323 138.129 325.444 138.119C325.323 138.129 325.202 138.139 325.08 138.148ZM325.745 138.093C325.97 138.073 326.194 138.054 326.417 138.032C326.194 138.054 325.97 138.073 325.745 138.093ZM852.446 137.84C852.184 137.915 851.919 137.989 851.653 138.062L852.447 137.84C852.71 137.765 852.971 137.689 853.23 137.611L852.446 137.84ZM327.077 137.965C327.138 137.958 327.199 137.952 327.26 137.945C327.199 137.952 327.138 137.958 327.077 137.965ZM792.477 137.818C792.637 137.868 792.799 137.916 792.96 137.965C792.739 137.898 792.518 137.831 792.299 137.762L792.477 137.818ZM327.909 137.871C328.016 137.859 328.123 137.847 328.229 137.834C328.123 137.847 328.016 137.859 327.909 137.871ZM328.651 137.781C328.827 137.759 329.003 137.736 329.178 137.713C329.003 137.736 328.827 137.759 328.651 137.781ZM943.723 137.7C943.803 137.725 943.883 137.75 943.963 137.774C943.883 137.75 943.803 137.725 943.723 137.7ZM791.488 137.502C791.75 137.588 792.013 137.672 792.277 137.755C792.013 137.672 791.75 137.588 791.488 137.502ZM329.493 137.669C329.69 137.642 329.886 137.614 330.081 137.585C329.886 137.614 329.69 137.642 329.493 137.669ZM605.792 137.429C605.806 137.48 605.821 137.532 605.835 137.583C605.815 137.509 605.795 137.436 605.775 137.361L605.792 137.429ZM330.5 137.521C330.648 137.499 330.797 137.476 330.944 137.452C330.797 137.476 330.648 137.499 330.5 137.521ZM942.825 137.411C942.911 137.439 942.996 137.466 943.082 137.494C942.996 137.466 942.911 137.439 942.825 137.411ZM790.549 137.188C790.72 137.246 790.893 137.304 791.065 137.361C790.893 137.304 790.72 137.246 790.549 137.188ZM331.639 137.337C331.688 137.329 331.737 137.32 331.786 137.312C331.737 137.32 331.688 137.329 331.639 137.337ZM332.349 137.212C332.479 137.188 332.61 137.165 332.74 137.141C332.61 137.165 332.479 137.188 332.349 137.212ZM941.892 137.097C941.98 137.127 942.069 137.157 942.157 137.188C942.069 137.157 941.98 137.127 941.892 137.097ZM789.662 136.876C789.856 136.945 790.051 137.014 790.246 137.082C790.051 137.014 789.856 136.945 789.662 136.876ZM333.226 137.047C333.346 137.023 333.466 137 333.586 136.976C333.466 137 333.346 137.023 333.226 137.047ZM940.978 136.775C941.12 136.827 941.262 136.876 941.405 136.927C941.262 136.876 941.12 136.827 940.978 136.775ZM334.181 136.854C334.261 136.837 334.34 136.82 334.42 136.803C334.34 136.82 334.261 136.837 334.181 136.854ZM788.855 136.582C789.028 136.646 789.201 136.709 789.375 136.772C789.201 136.709 789.028 136.646 788.855 136.582ZM335.086 136.656C335.15 136.642 335.214 136.629 335.277 136.614C335.214 136.629 335.15 136.642 335.086 136.656ZM335.83 136.484C335.953 136.455 336.075 136.427 336.197 136.397C336.075 136.427 335.953 136.455 335.83 136.484ZM605.527 136.369C605.532 136.387 605.536 136.405 605.54 136.423C605.536 136.405 605.532 136.387 605.527 136.369ZM787.98 136.249C788.108 136.299 788.236 136.348 788.364 136.396C788.236 136.348 788.108 136.299 787.98 136.249ZM336.528 136.315C336.717 136.269 336.905 136.221 337.093 136.173C336.905 136.221 336.717 136.269 336.528 136.315ZM939.286 136.142C939.335 136.161 939.385 136.179 939.435 136.198C939.385 136.179 939.335 136.161 939.286 136.142ZM337.303 136.117C337.508 136.063 337.713 136.01 337.917 135.954C337.713 136.01 337.508 136.063 337.303 136.117ZM860.544 134.945H860.545H860.544ZM787.112 135.905C787.271 135.969 787.43 136.032 787.59 136.095C787.43 136.032 787.271 135.969 787.112 135.905ZM938.347 135.767C938.481 135.821 938.616 135.876 938.751 135.93C938.616 135.876 938.481 135.821 938.347 135.767ZM338.269 135.856C338.394 135.821 338.52 135.787 338.646 135.751C338.52 135.787 338.394 135.821 338.269 135.856ZM786.279 135.562C786.443 135.631 786.608 135.699 786.773 135.767C786.608 135.699 786.443 135.631 786.279 135.562ZM339.173 135.598C339.284 135.565 339.396 135.532 339.507 135.498C339.396 135.532 339.284 135.565 339.173 135.598ZM937.535 135.43C937.669 135.486 937.804 135.542 937.938 135.598C937.804 135.542 937.669 135.486 937.535 135.43ZM785.414 135.19C785.593 135.269 785.773 135.346 785.953 135.423C785.773 135.346 785.593 135.269 785.414 135.19ZM339.916 135.373C340.04 135.335 340.163 135.297 340.286 135.258C340.163 135.297 340.04 135.335 339.916 135.373ZM936.697 135.068C936.799 135.113 936.901 135.157 937.003 135.201C936.901 135.157 936.799 135.113 936.697 135.068ZM340.803 135.092C340.892 135.063 340.981 135.033 341.069 135.004C340.981 135.033 340.892 135.063 340.803 135.092ZM784.656 134.853C784.777 134.907 784.898 134.961 785.02 135.016C784.898 134.961 784.777 134.907 784.656 134.853ZM341.529 134.85C341.66 134.805 341.789 134.761 341.919 134.716C341.789 134.761 341.66 134.805 341.529 134.85ZM935.896 134.71C935.979 134.747 936.061 134.784 936.144 134.821C936.061 134.784 935.979 134.747 935.896 134.71ZM605.036 134.023C605.081 134.265 605.128 134.502 605.175 134.736C605.128 134.502 605.081 134.265 605.036 134.023ZM783.833 134.473C783.968 134.536 784.104 134.598 784.24 134.661C784.104 134.598 783.968 134.536 783.833 134.473ZM342.303 134.581C342.427 134.537 342.55 134.493 342.674 134.448C342.55 134.493 342.427 134.537 342.303 134.581ZM935.045 134.313C935.146 134.361 935.248 134.409 935.35 134.457C935.248 134.409 935.146 134.361 935.045 134.313ZM783.019 134.082C783.163 134.153 783.309 134.222 783.455 134.292C783.309 134.222 783.163 134.153 783.019 134.082ZM343.109 134.288C343.225 134.245 343.339 134.203 343.454 134.159C343.339 134.203 343.225 134.245 343.109 134.288ZM343.865 134.002C343.991 133.953 344.116 133.905 344.241 133.855C344.116 133.905 343.991 133.953 343.865 134.002ZM782.207 133.678C782.384 133.767 782.561 133.856 782.739 133.944C782.561 133.856 782.384 133.767 782.207 133.678ZM344.63 133.7C344.743 133.655 344.856 133.609 344.969 133.562C344.856 133.609 344.743 133.655 344.63 133.7ZM933.447 133.529C933.523 133.568 933.6 133.606 933.676 133.645C933.6 133.606 933.523 133.568 933.447 133.529ZM604.829 132.828C604.868 133.065 604.909 133.298 604.949 133.529C604.909 133.299 604.868 133.065 604.829 132.828ZM781.416 133.27C781.582 133.357 781.749 133.443 781.917 133.529C781.749 133.443 781.582 133.357 781.416 133.27ZM345.399 133.384C345.521 133.333 345.642 133.281 345.763 133.229C345.642 133.281 345.521 133.333 345.399 133.384ZM932.673 133.128C932.763 133.176 932.854 133.222 932.945 133.27C932.854 133.222 932.763 133.176 932.673 133.128ZM780.71 132.893C780.856 132.972 781.002 133.05 781.149 133.128C781.002 133.05 780.856 132.972 780.71 132.893ZM346.079 133.094C346.244 133.022 346.408 132.949 346.571 132.876C346.408 132.949 346.244 133.022 346.079 133.094ZM931.845 132.684C931.975 132.755 932.106 132.825 932.237 132.896C932.106 132.825 931.975 132.755 931.845 132.684ZM346.796 132.775C346.954 132.704 347.112 132.632 347.269 132.56C347.112 132.632 346.954 132.704 346.796 132.775ZM779.914 132.452C780.067 132.538 780.22 132.623 780.374 132.708C780.22 132.623 780.067 132.538 779.914 132.452ZM347.575 132.418C347.708 132.355 347.84 132.292 347.973 132.229C347.84 132.292 347.708 132.355 347.575 132.418ZM604.634 131.538C604.669 131.784 604.705 132.027 604.742 132.268C604.705 132.027 604.669 131.784 604.634 131.538ZM779.24 132.067C779.356 132.135 779.473 132.201 779.59 132.268C779.473 132.201 779.356 132.135 779.24 132.067ZM348.364 132.039C348.452 131.996 348.539 131.953 348.627 131.909C348.539 131.953 348.452 131.996 348.364 132.039ZM778.46 131.607C778.581 131.68 778.702 131.751 778.823 131.823C778.702 131.751 778.581 131.68 778.46 131.607ZM349.021 131.713C349.161 131.642 349.3 131.571 349.438 131.5C349.3 131.571 349.161 131.642 349.021 131.713ZM929.577 131.379C929.673 131.437 929.77 131.495 929.866 131.553C929.77 131.495 929.673 131.437 929.577 131.379ZM777.773 131.188C777.877 131.252 777.98 131.316 778.084 131.379C777.98 131.316 777.877 131.252 777.773 131.188ZM349.719 131.354C349.848 131.287 349.977 131.218 350.105 131.149C349.977 131.218 349.848 131.287 349.719 131.354ZM928.937 130.986C928.996 131.023 929.056 131.06 929.115 131.097C929.056 131.06 928.996 131.023 928.937 130.986ZM604.456 130.189C604.49 130.469 604.526 130.745 604.562 131.017C604.526 130.745 604.49 130.469 604.456 130.189ZM350.416 130.983C350.585 130.892 350.753 130.8 350.921 130.707C350.753 130.8 350.585 130.892 350.416 130.983ZM777.026 130.717C777.136 130.787 777.247 130.857 777.357 130.927C777.247 130.857 777.136 130.787 777.026 130.717ZM351.104 130.605C351.244 130.527 351.383 130.448 351.522 130.368C351.383 130.448 351.244 130.527 351.104 130.605ZM776.287 130.234C776.428 130.328 776.57 130.421 776.712 130.514C776.57 130.421 776.428 130.328 776.287 130.234ZM351.793 130.213C351.953 130.121 352.111 130.027 352.27 129.934C352.111 130.027 351.953 130.121 351.793 130.213ZM927.421 130.011C927.523 130.079 927.625 130.146 927.728 130.213C927.625 130.146 927.523 130.079 927.421 130.011ZM775.612 129.781C775.751 129.876 775.89 129.97 776.03 130.063C775.89 129.97 775.751 129.876 775.612 129.781ZM352.525 129.781C352.612 129.729 352.698 129.677 352.784 129.625C352.698 129.677 352.612 129.729 352.525 129.781ZM926.69 129.517C926.819 129.605 926.949 129.693 927.079 129.781C926.949 129.693 926.819 129.605 926.69 129.517ZM604.299 128.805C604.328 129.082 604.359 129.355 604.39 129.625C604.359 129.355 604.328 129.082 604.299 128.805ZM774.946 129.319C775.062 129.401 775.179 129.482 775.296 129.562C775.179 129.482 775.062 129.401 774.946 129.319ZM353.202 129.368C353.279 129.321 353.355 129.273 353.431 129.226C353.355 129.273 353.279 129.321 353.202 129.368ZM926.101 129.104C926.159 129.146 926.218 129.188 926.277 129.229C926.218 129.188 926.159 129.146 926.101 129.104ZM774.229 128.806C774.34 128.886 774.451 128.966 774.562 129.046C774.451 128.966 774.34 128.886 774.229 128.806ZM353.858 128.956C353.921 128.916 353.983 128.874 354.046 128.834C353.983 128.874 353.921 128.916 353.858 128.956ZM773.596 128.337C773.719 128.43 773.843 128.521 773.968 128.613C773.843 128.521 773.719 128.43 773.596 128.337ZM354.547 128.509C354.587 128.482 354.627 128.454 354.667 128.428C354.627 128.454 354.587 128.482 354.547 128.509ZM924.688 128.074C924.784 128.147 924.881 128.218 924.978 128.29C924.881 128.218 924.784 128.147 924.688 128.074ZM604.15 127.256C604.178 127.574 604.207 127.887 604.237 128.196C604.207 127.887 604.178 127.574 604.15 127.256ZM355.14 128.11C355.269 128.023 355.397 127.934 355.525 127.846C355.397 127.934 355.269 128.023 355.14 128.11ZM772.875 127.786C772.999 127.883 773.124 127.979 773.249 128.074C773.124 127.979 772.999 127.883 772.875 127.786ZM924.034 127.574C924.107 127.631 924.18 127.687 924.253 127.743C924.18 127.687 924.107 127.631 924.034 127.574ZM355.703 127.722C355.853 127.617 356.003 127.511 356.151 127.405C356.003 127.511 355.853 127.617 355.703 127.722ZM772.267 127.308C772.413 127.425 772.561 127.541 772.709 127.657C772.561 127.541 772.413 127.425 772.267 127.308ZM873.95 126.078C873.627 126.392 873.298 126.7 872.964 127.004C873.298 126.7 873.627 126.392 873.95 126.078ZM356.361 127.256C356.491 127.163 356.619 127.068 356.747 126.974C356.619 127.068 356.491 127.163 356.361 127.256ZM923.389 127.065C923.468 127.129 923.549 127.192 923.629 127.256C923.549 127.192 923.468 127.129 923.389 127.065ZM771.652 126.81C771.756 126.895 771.861 126.98 771.966 127.065C771.861 126.98 771.756 126.895 771.652 126.81ZM357.001 126.787C357.109 126.707 357.216 126.626 357.323 126.545C357.216 126.626 357.109 126.707 357.001 126.787ZM922.748 126.545C922.833 126.615 922.918 126.684 923.003 126.753C922.918 126.684 922.833 126.615 922.748 126.545ZM604.04 125.881C604.059 126.143 604.079 126.403 604.1 126.659C604.079 126.403 604.059 126.143 604.04 125.881ZM771.021 126.283C771.134 126.379 771.247 126.474 771.361 126.569C771.247 126.474 771.134 126.379 771.021 126.283ZM357.627 126.313C357.691 126.265 357.754 126.215 357.817 126.166C357.754 126.215 357.691 126.265 357.627 126.313ZM922.146 126.041C922.203 126.09 922.261 126.139 922.319 126.188C922.261 126.139 922.203 126.09 922.146 126.041ZM770.38 125.732C770.503 125.84 770.627 125.947 770.752 126.054C770.627 125.947 770.503 125.84 770.38 125.732ZM358.232 125.843C358.365 125.738 358.496 125.634 358.627 125.528C358.496 125.634 358.365 125.738 358.232 125.843ZM921.51 125.494C921.571 125.548 921.633 125.601 921.694 125.654C921.633 125.601 921.571 125.548 921.51 125.494ZM769.803 125.22C769.918 125.323 770.033 125.426 770.148 125.528C770.033 125.426 769.918 125.323 769.803 125.22ZM358.774 125.409C358.895 125.311 359.016 125.212 359.136 125.113C359.016 125.212 358.895 125.311 358.774 125.409ZM603.921 124.087C603.941 124.434 603.962 124.776 603.984 125.113C603.962 124.776 603.941 124.434 603.921 124.087ZM920.845 124.903C920.923 124.974 921.001 125.043 921.079 125.113C921.001 125.043 920.923 124.974 920.845 124.903ZM769.158 124.632C769.288 124.752 769.418 124.871 769.549 124.99C769.418 124.871 769.288 124.752 769.158 124.632ZM359.42 124.878C359.476 124.831 359.532 124.784 359.588 124.736C359.532 124.784 359.476 124.831 359.42 124.878ZM920.194 124.307C920.311 124.416 920.429 124.524 920.547 124.632C920.429 124.524 920.311 124.416 920.194 124.307ZM768.58 124.087C768.71 124.211 768.84 124.333 768.971 124.456C768.84 124.333 768.71 124.211 768.58 124.087ZM359.986 124.397C360.088 124.31 360.188 124.223 360.289 124.135C360.188 124.223 360.088 124.31 359.986 124.397ZM919.663 123.806C919.773 123.911 919.885 124.015 919.996 124.12C919.885 124.015 919.773 123.911 919.663 123.806ZM768.037 123.562C768.156 123.679 768.276 123.795 768.396 123.911C768.276 123.795 768.156 123.679 768.037 123.562ZM360.564 123.894C360.642 123.825 360.719 123.756 360.796 123.687C360.719 123.756 360.642 123.825 360.564 123.894ZM603.834 122.406C603.852 122.797 603.87 123.182 603.891 123.562C603.87 123.182 603.852 122.797 603.834 122.406ZM919.095 123.254C919.16 123.318 919.225 123.382 919.29 123.445C919.225 123.382 919.16 123.318 919.095 123.254ZM361.116 123.397C361.258 123.268 361.4 123.138 361.54 123.008C361.4 123.138 361.258 123.268 361.116 123.397ZM767.48 123.008C767.572 123.101 767.665 123.193 767.758 123.285C767.665 123.193 767.572 123.101 767.48 123.008ZM361.645 122.91C361.796 122.769 361.946 122.626 362.096 122.483C361.946 122.626 361.796 122.769 361.645 122.91ZM918.548 122.709C918.603 122.764 918.658 122.819 918.713 122.874C918.658 122.819 918.603 122.764 918.548 122.709ZM766.951 122.465C767.007 122.523 767.064 122.582 767.12 122.64C767.064 122.582 767.007 122.523 766.951 122.465ZM362.188 122.397C362.343 122.248 362.497 122.097 362.651 121.945C362.497 122.097 362.343 122.248 362.188 122.397ZM917.89 122.031C917.994 122.14 918.098 122.248 918.203 122.356C918.098 122.248 917.994 122.14 917.89 122.031ZM766.361 121.843C766.447 121.934 766.532 122.025 766.618 122.116C766.532 122.025 766.447 121.934 766.361 121.843ZM362.732 121.866C362.867 121.733 363.001 121.6 363.134 121.466C363.001 121.6 362.867 121.733 362.732 121.866ZM603.771 120.795C603.783 121.148 603.794 121.498 603.809 121.843C603.794 121.498 603.783 121.148 603.771 120.795ZM917.42 121.533C917.476 121.593 917.532 121.654 917.589 121.714C917.532 121.654 917.476 121.593 917.42 121.533ZM765.763 121.191C765.885 121.327 766.009 121.462 766.133 121.597C766.009 121.462 765.885 121.327 765.763 121.191ZM364.117 120.448C363.874 120.706 363.629 120.962 363.381 121.216C363.629 120.962 363.874 120.706 364.117 120.448ZM916.778 120.834C916.886 120.954 916.995 121.073 917.104 121.191C916.995 121.073 916.886 120.954 916.778 120.834ZM765.288 120.66C765.395 120.782 765.503 120.902 765.611 121.022C765.503 120.902 765.395 120.782 765.288 120.66ZM879.58 119.315C879.325 119.696 879.065 120.071 878.8 120.44C879.065 120.071 879.325 119.696 879.58 119.315ZM916.306 120.303C916.397 120.406 916.488 120.509 916.58 120.612C916.488 120.509 916.397 120.406 916.306 120.303ZM764.79 120.086C764.852 120.158 764.914 120.231 764.977 120.303C764.914 120.231 764.852 120.158 764.79 120.086ZM603.675 116.423C603.687 117.691 603.711 118.911 603.746 120.086C603.711 118.911 603.687 117.691 603.675 116.423ZM915.806 119.726C915.876 119.807 915.945 119.889 916.016 119.971C915.945 119.889 915.876 119.807 915.806 119.726ZM764.181 119.363C764.305 119.513 764.43 119.663 764.556 119.812C764.43 119.663 764.305 119.513 764.181 119.363ZM915.291 119.116C915.36 119.199 915.429 119.281 915.498 119.363C915.429 119.281 915.36 119.199 915.291 119.116ZM763.741 118.826C763.846 118.956 763.952 119.086 764.059 119.215C763.952 119.086 763.846 118.956 763.741 118.826ZM639.12 118.221C639.127 118.449 639.138 118.675 639.146 118.898C639.136 118.638 639.125 118.374 639.117 118.107L639.12 118.221ZM763.312 118.288C763.373 118.365 763.434 118.442 763.495 118.519C763.434 118.442 763.373 118.365 763.312 118.288ZM914.281 117.866C914.341 117.942 914.401 118.017 914.461 118.093C914.401 118.017 914.341 117.942 914.281 117.866ZM762.763 117.577C762.836 117.674 762.909 117.77 762.983 117.866C762.909 117.77 762.836 117.674 762.763 117.577ZM913.76 117.19C913.847 117.305 913.935 117.42 914.023 117.534C913.935 117.42 913.847 117.305 913.76 117.19ZM762.308 116.972C762.393 117.087 762.479 117.203 762.565 117.317C762.479 117.203 762.393 117.087 762.308 116.972ZM913.299 116.576C913.373 116.676 913.447 116.776 913.521 116.875C913.447 116.776 913.373 116.676 913.299 116.576ZM761.899 116.414C761.938 116.468 761.977 116.522 762.017 116.576C761.977 116.522 761.938 116.468 761.899 116.414ZM912.84 115.946C912.908 116.041 912.977 116.137 913.046 116.231C912.977 116.137 912.908 116.041 912.84 115.946ZM761.326 115.605C761.408 115.722 761.489 115.84 761.571 115.956C761.489 115.84 761.408 115.722 761.326 115.605ZM760.943 115.05C761.015 115.155 761.087 115.26 761.159 115.364C761.087 115.26 761.015 115.155 760.943 115.05ZM911.834 114.503C911.934 114.651 912.034 114.798 912.135 114.945C912.034 114.798 911.934 114.651 911.834 114.503ZM760.498 114.384C760.569 114.491 760.64 114.599 760.712 114.706C760.64 114.599 760.569 114.491 760.498 114.384ZM911.41 113.865C911.506 114.011 911.602 114.157 911.699 114.302C911.602 114.157 911.506 114.011 911.41 113.865ZM760.024 113.652C760.107 113.782 760.19 113.912 760.273 114.041C760.19 113.912 760.107 113.782 760.024 113.652ZM911.05 113.309C911.123 113.423 911.197 113.538 911.271 113.652C911.197 113.538 911.123 113.423 911.05 113.309ZM759.607 112.99C759.689 113.122 759.771 113.253 759.854 113.384C759.771 113.253 759.689 113.122 759.607 112.99ZM369.828 113.309C369.863 113.257 369.899 113.205 369.934 113.153C369.899 113.205 369.863 113.257 369.828 113.309ZM883.337 112.567H883.338H883.337ZM823.83 112.883C822.459 112.961 821.031 113 819.544 113C818.526 113 817.535 112.973 816.568 112.923C817.535 112.973 818.526 113.001 819.544 113.001C821.031 113.001 822.459 112.961 823.83 112.883ZM971.521 113.001C974.127 113.001 976.55 112.868 978.802 112.607C978.051 112.694 977.281 112.767 976.492 112.825C975.703 112.883 974.895 112.927 974.066 112.956C973.238 112.985 972.389 113 971.521 113C969.873 113 968.298 112.945 966.793 112.837C968.298 112.945 969.872 113.001 971.521 113.001ZM813.636 112.684C814.497 112.78 815.38 112.857 816.286 112.909C815.38 112.857 814.497 112.78 813.636 112.684ZM910.63 112.643C910.68 112.723 910.73 112.804 910.78 112.884C910.73 112.804 910.68 112.723 910.63 112.643ZM842.723 107.309C842.347 107.578 841.959 107.838 841.561 108.089C840.563 108.716 839.492 109.283 838.345 109.791C836.968 110.4 835.48 110.923 833.876 111.359C833.609 111.432 833.338 111.502 833.064 111.57C831.969 111.842 830.82 112.075 829.617 112.27C828.715 112.415 827.783 112.539 826.818 112.642V112.643C833.568 111.927 838.775 110.142 842.723 107.309ZM370.225 112.716C370.265 112.655 370.306 112.594 370.346 112.532C370.306 112.594 370.265 112.655 370.225 112.716ZM759.227 112.366C759.284 112.462 759.341 112.557 759.399 112.652C759.341 112.557 759.284 112.462 759.227 112.366ZM370.528 112.25C370.603 112.134 370.679 112.019 370.753 111.902C370.679 112.019 370.603 112.134 370.528 112.25ZM910.224 111.979C910.263 112.043 910.301 112.108 910.341 112.173C910.301 112.108 910.263 112.043 910.224 111.979ZM758.758 111.575C758.843 111.722 758.93 111.869 759.017 112.016C758.93 111.869 758.843 111.722 758.758 111.575ZM994.748 106.883C992.981 108.219 990.969 109.344 988.687 110.25C988.401 110.363 988.111 110.473 987.817 110.579C987.23 110.792 986.625 110.991 986.002 111.177C985.691 111.269 985.376 111.359 985.056 111.444V111.445C988.897 110.417 992.097 108.887 994.748 106.883ZM909.776 111.226C909.844 111.341 909.911 111.456 909.979 111.571C909.911 111.456 909.844 111.341 909.776 111.226ZM758.445 111.03C758.492 111.112 758.538 111.195 758.585 111.276C758.538 111.195 758.492 111.112 758.445 111.03ZM971.521 32.8008C958.172 32.8008 950.255 36.3907 945.548 42.6963C940.732 49.1481 938.921 58.8807 938.921 72L938.926 73.2012C939.036 85.5159 940.881 94.8011 945.548 101.054C950.258 107.364 958.18 111 971.521 111C985.071 111 993.037 107.358 997.743 101.054C1002.56 94.6031 1004.32 84.9223 1004.32 72C1004.32 58.872 1002.56 49.1446 997.743 42.6963C993.041 36.3962 985.079 32.8008 971.521 32.8008ZM371.38 110.895C371.442 110.793 371.503 110.692 371.564 110.591C371.503 110.692 371.442 110.793 371.38 110.895ZM909.406 110.583C909.464 110.685 909.523 110.787 909.581 110.889C909.523 110.787 909.464 110.685 909.406 110.583ZM758.06 110.341C758.111 110.435 758.163 110.529 758.215 110.622C758.163 110.529 758.111 110.435 758.06 110.341ZM312.667 110.565C311.994 110.588 311.31 110.601 310.614 110.601C311.31 110.601 311.994 110.588 312.667 110.565ZM909.024 109.9C909.072 109.986 909.119 110.072 909.167 110.158C909.119 110.072 909.072 109.986 909.024 109.9ZM757.612 109.516C757.695 109.671 757.778 109.826 757.862 109.98C757.778 109.826 757.695 109.671 757.612 109.516ZM908.581 109.081C908.658 109.227 908.736 109.372 908.814 109.517C908.736 109.372 908.658 109.227 908.581 109.081ZM372.196 109.516C372.233 109.452 372.269 109.389 372.306 109.325C372.269 109.389 372.233 109.452 372.196 109.516ZM757.215 108.754C757.313 108.945 757.412 109.135 757.512 109.325C757.412 109.135 757.313 108.945 757.215 108.754ZM372.461 109.048C372.532 108.922 372.603 108.796 372.673 108.669C372.603 108.796 372.532 108.922 372.461 109.048ZM908.255 108.459C908.316 108.577 908.377 108.696 908.439 108.813C908.378 108.696 908.316 108.577 908.255 108.459ZM288.614 108.601H310.614C322.348 108.601 330.239 105.364 335.261 99.4111C340.343 93.3861 342.814 84.2004 342.814 71.6006C342.814 58.7994 340.292 49.7833 335.208 43.9668C330.176 38.2098 322.288 35.2002 310.614 35.2002H288.614V108.601ZM756.905 108.142C756.976 108.284 757.047 108.426 757.119 108.567C757.047 108.426 756.976 108.284 756.905 108.142ZM372.839 108.368C372.906 108.246 372.972 108.124 373.038 108.002C372.972 108.124 372.906 108.246 372.839 108.368ZM907.942 107.846C907.981 107.923 908.02 108.001 908.06 108.078C908.02 108.001 907.981 107.923 907.942 107.846ZM756.489 107.295C756.578 107.479 756.667 107.663 756.758 107.846C756.667 107.663 756.578 107.479 756.489 107.295ZM373.248 107.607C373.29 107.529 373.332 107.45 373.373 107.371C373.332 107.45 373.29 107.529 373.248 107.607ZM907.551 107.055C907.607 107.171 907.664 107.287 907.721 107.402C907.664 107.287 907.607 107.171 907.551 107.055ZM756.197 106.68C756.28 106.856 756.363 107.032 756.447 107.208C756.363 107.032 756.28 106.856 756.197 106.68ZM373.599 106.934C373.647 106.839 373.696 106.746 373.744 106.651C373.696 106.746 373.647 106.839 373.599 106.934ZM907.224 106.372C907.267 106.465 907.311 106.558 907.355 106.65C907.311 106.558 907.267 106.465 907.224 106.372ZM373.885 106.372C373.947 106.249 374.008 106.125 374.069 106.001C374.008 106.125 373.947 106.249 373.885 106.372ZM755.868 105.966C755.93 106.101 755.991 106.237 756.054 106.372C755.991 106.237 755.93 106.101 755.868 105.966ZM906.831 105.525C906.889 105.653 906.948 105.781 907.007 105.908C906.948 105.781 906.889 105.653 906.831 105.525ZM996.635 105.292V105.291V105.292ZM755.567 105.292C755.63 105.434 755.693 105.575 755.756 105.717C755.693 105.575 755.63 105.434 755.567 105.292ZM374.235 105.66C374.293 105.542 374.351 105.424 374.408 105.305C374.351 105.424 374.293 105.542 374.235 105.66ZM845.805 104.623C845.495 104.95 845.175 105.267 844.844 105.575C845.175 105.267 845.495 104.95 845.805 104.623ZM906.463 104.698C906.558 104.915 906.654 105.132 906.751 105.348C906.654 105.132 906.558 104.915 906.463 104.698ZM755.234 104.521C755.295 104.663 755.355 104.806 755.417 104.948C755.355 104.806 755.295 104.663 755.234 104.521ZM374.647 104.799C374.669 104.753 374.691 104.707 374.712 104.661C374.691 104.707 374.669 104.753 374.647 104.799ZM906.206 104.104C906.272 104.257 906.338 104.41 906.404 104.563C906.338 104.41 906.272 104.257 906.206 104.104ZM755.068 104.13C755.088 104.176 755.108 104.222 755.127 104.268C755.037 104.053 754.947 103.837 754.859 103.621L755.068 104.13ZM374.902 104.248C374.95 104.144 374.997 104.041 375.044 103.937C374.997 104.041 374.95 104.144 374.902 104.248ZM905.866 103.291C905.934 103.456 906.002 103.621 906.071 103.786C906.002 103.621 905.934 103.456 905.866 103.291ZM754.592 102.953C754.677 103.169 754.763 103.385 754.851 103.601C754.763 103.385 754.677 103.169 754.592 102.953ZM375.223 103.536C375.264 103.442 375.306 103.347 375.348 103.253C375.306 103.347 375.264 103.442 375.223 103.536ZM1000.29 100.899C999.985 101.362 999.672 101.812 999.346 102.25C999.182 102.469 999.016 102.684 998.846 102.896V102.897C999.356 102.26 999.835 101.594 1000.29 100.899ZM905.631 102.71C905.68 102.832 905.729 102.954 905.778 103.076C905.729 102.954 905.68 102.832 905.631 102.71ZM375.526 102.839C375.571 102.735 375.615 102.631 375.659 102.527C375.615 102.631 375.571 102.735 375.526 102.839ZM754.377 102.402C754.416 102.503 754.454 102.603 754.493 102.703C754.454 102.603 754.416 102.503 754.377 102.402ZM905.278 101.812C905.342 101.979 905.407 102.146 905.473 102.312C905.407 102.146 905.342 101.979 905.278 101.812ZM375.805 102.18C375.856 102.057 375.908 101.935 375.958 101.812C375.908 101.935 375.856 102.057 375.805 102.18ZM848.674 100.846C848.436 101.239 848.188 101.622 847.931 101.996L848.31 101.429C848.434 101.237 848.555 101.042 848.674 100.846ZM754.026 101.472C754.087 101.637 754.149 101.802 754.211 101.967C754.149 101.802 754.087 101.637 754.026 101.472ZM905.015 101.11C905.082 101.293 905.15 101.475 905.22 101.657C905.15 101.475 905.082 101.293 905.015 101.11ZM376.097 101.472C376.139 101.368 376.18 101.264 376.222 101.16C376.18 101.264 376.139 101.368 376.097 101.472ZM753.52 100.049C753.662 100.462 753.807 100.874 753.957 101.283C753.807 100.874 753.662 100.462 753.52 100.049ZM1001.15 99.4746V99.4736V99.4746ZM904.193 98.7734C904.25 98.945 904.308 99.1161 904.366 99.2871C904.308 99.1161 904.25 98.945 904.193 98.7734ZM376.96 99.2207C376.985 99.1524 377.01 99.084 377.034 99.0156C377.01 99.084 376.985 99.1524 376.96 99.2207ZM752.976 98.4033C753.04 98.6078 753.105 98.812 753.172 99.0156C753.105 98.812 753.04 98.6078 752.976 98.4033ZM903.915 97.915C903.992 98.1578 904.071 98.3999 904.15 98.6416C904.071 98.3999 903.992 98.1578 903.915 97.915ZM377.197 98.5576C377.234 98.4533 377.27 98.3487 377.307 98.2441C377.27 98.3487 377.234 98.4533 377.197 98.5576ZM752.785 97.793C752.834 97.9503 752.881 98.1078 752.931 98.2646C752.881 98.1078 752.834 97.9503 752.785 97.793ZM903.697 97.2168C903.762 97.4268 903.826 97.6365 903.893 97.8457C903.826 97.6365 903.762 97.4268 903.697 97.2168ZM377.713 97.041C377.729 96.9932 377.744 96.9453 377.76 96.8975C377.744 96.9453 377.729 96.9932 377.713 97.041ZM888.335 96.1494C888.283 96.4285 888.23 96.7062 888.176 96.9824C888.338 96.1538 888.492 95.3128 888.636 94.459L888.335 96.1494ZM752.267 96.0312C752.332 96.2651 752.398 96.4986 752.466 96.7314C752.398 96.4986 752.332 96.2651 752.267 96.0312ZM377.92 96.3994C377.957 96.2817 377.994 96.1639 378.031 96.0459C377.994 96.1639 377.957 96.2817 377.92 96.3994ZM378.117 95.7656C378.168 95.6018 378.217 95.4378 378.267 95.2734C378.217 95.4378 378.168 95.6018 378.117 95.7656ZM902.798 94.0352C902.924 94.5227 903.056 95.0083 903.191 95.4922C903.056 95.0083 902.924 94.5227 902.798 94.0352ZM378.343 95.0195C378.386 94.874 378.428 94.728 378.47 94.582C378.428 94.728 378.386 94.874 378.343 95.0195ZM1003.57 93.8994V93.9004V93.8994ZM751.655 93.7129C751.704 93.9102 751.753 94.1071 751.804 94.3037C751.753 94.1071 751.704 93.9102 751.655 93.7129ZM378.593 94.1562C378.624 94.0444 378.655 93.9324 378.687 93.8203C378.655 93.9324 378.624 94.0444 378.593 94.1562ZM902.653 93.4639C902.695 93.63 902.737 93.7962 902.779 93.9619C902.737 93.7962 902.695 93.63 902.653 93.4639ZM751.59 93.4492C751.597 93.4766 751.604 93.5039 751.61 93.5312C751.552 93.2928 751.495 93.0539 751.438 92.8145L751.59 93.4492ZM378.809 93.375C378.828 93.3015 378.848 93.2278 378.867 93.1543C378.848 93.2278 378.828 93.3015 378.809 93.375ZM751.27 92.0791C751.324 92.3198 751.378 92.5601 751.435 92.7998C751.378 92.5601 751.324 92.3198 751.27 92.0791ZM889.394 89.1826C889.321 89.7859 889.245 90.3836 889.165 90.9756C889.245 90.3839 889.321 89.7866 889.394 89.1836V89.1826ZM378.999 92.6582C379.033 92.5278 379.066 92.3973 379.1 92.2666C379.066 92.3973 379.033 92.5278 378.999 92.6582ZM902.109 91.1436C902.203 91.5712 902.299 91.9977 902.399 92.4229C902.299 91.9977 902.203 91.5712 902.109 91.1436ZM379.17 91.9893C379.206 91.8443 379.242 91.699 379.277 91.5537C379.242 91.699 379.206 91.8443 379.17 91.9893ZM751.085 91.2383C751.134 91.4698 751.185 91.7009 751.236 91.9316C751.185 91.7009 751.134 91.4698 751.085 91.2383ZM592.813 91.6416C593.003 91.7124 593.19 91.7872 593.376 91.8633C593.19 91.7872 593.003 91.7124 592.813 91.6416ZM379.36 91.21C379.388 91.0948 379.415 90.9796 379.442 90.8643C379.415 90.9796 379.388 91.0948 379.36 91.21ZM750.92 90.4463C750.97 90.6906 751.021 90.9343 751.072 91.1777C751.021 90.9343 750.97 90.6906 750.92 90.4463ZM379.528 90.4961C379.562 90.3501 379.595 90.204 379.628 90.0576C379.595 90.204 379.562 90.3501 379.528 90.4961ZM852.615 89.6279H852.616H852.615ZM1005.34 86.4482C1005.28 86.7822 1005.23 87.1133 1005.17 87.4414C1005.05 88.0979 1004.93 88.7428 1004.79 89.376C1005.06 88.1103 1005.3 86.7979 1005.49 85.4395V85.4385C1005.44 85.778 1005.39 86.1145 1005.34 86.4482ZM586.165 90.2705H586.164H586.165ZM750.618 88.8809C750.706 89.359 750.797 89.8356 750.893 90.3105C750.797 89.8356 750.706 89.359 750.618 88.8809ZM379.711 89.6787C379.742 89.5359 379.773 89.3931 379.804 89.25C379.773 89.3931 379.742 89.5359 379.711 89.6787ZM901.164 86.0596C901.348 87.256 901.559 88.445 901.793 89.626C901.559 88.445 901.348 87.256 901.164 86.0596ZM379.866 88.9541C379.896 88.81 379.926 88.6658 379.955 88.5215C379.926 88.6658 379.896 88.81 379.866 88.9541ZM750.3 87.0303C750.392 87.6067 750.491 88.1808 750.595 88.7529C750.449 87.9476 750.314 87.1379 750.19 86.3242L750.3 87.0303ZM380.18 87.3701C380.201 87.2569 380.221 87.1436 380.242 87.0303C380.221 87.1436 380.201 87.2569 380.18 87.3701ZM749.867 83.9785C749.928 84.4668 749.993 84.9538 750.062 85.4395C749.993 84.9538 749.928 84.4668 749.867 83.9785ZM900.606 81.6729C900.725 82.8345 900.865 83.9912 901.029 85.1416C900.865 83.9912 900.725 82.8345 900.606 81.6729ZM1005.75 83.3672C1005.99 81.2609 1006.15 79.0525 1006.24 76.7451C1006.19 77.8986 1006.13 79.0273 1006.05 80.1309C1005.97 81.2346 1005.87 82.3132 1005.75 83.3662V83.3672ZM786.665 83.7012C786.687 83.8608 786.712 84.0194 786.734 84.1777C786.704 83.9694 786.674 83.7603 786.646 83.5498L786.665 83.7012ZM786.513 82.4971C786.551 82.8189 786.591 83.1382 786.633 83.4551C786.591 83.1382 786.551 82.8189 786.513 82.4971ZM749.631 81.8691C749.669 82.2442 749.708 82.6186 749.75 82.9922C749.708 82.6186 749.669 82.2442 749.631 81.8691ZM381.097 81.165C381.102 81.1169 381.107 81.0687 381.112 81.0205C381.107 81.0687 381.102 81.1169 381.097 81.165ZM344.553 78.3965C344.508 78.946 344.456 79.4886 344.4 80.0244C344.456 79.4885 344.508 78.946 344.553 78.3965ZM381.255 79.5869C381.3 79.0889 381.341 78.5898 381.378 78.0898C381.341 78.5898 381.3 79.0889 381.255 79.5869ZM900.253 77.0889C900.28 77.5987 900.31 78.1078 900.345 78.6162C900.31 78.1078 900.28 77.5987 900.253 77.0889ZM786.122 78.0898C786.132 78.2594 786.145 78.4283 786.156 78.5967C786.143 78.4044 786.13 78.2114 786.118 78.0176L786.122 78.0898ZM381.381 78.0381C381.413 77.5909 381.442 77.1429 381.468 76.6943C381.442 77.1429 381.413 77.5909 381.381 78.0381ZM344.785 73.9463C344.76 74.9514 344.716 75.9364 344.657 76.9014C344.716 75.9423 344.76 74.9635 344.785 73.9648V73.9463ZM786.008 75.7119C786.014 75.8749 786.022 76.0373 786.028 76.1992C786.021 76.0247 786.013 75.8496 786.007 75.6738L786.008 75.7119ZM749.436 64.5195C749.37 65.3462 749.316 66.1748 749.272 67.0049C749.186 68.665 749.144 70.3312 749.144 72C749.144 73.1294 749.162 74.2553 749.199 75.377C749.162 74.2556 749.144 73.13 749.144 72.001C749.144 69.4976 749.239 66.9995 749.436 64.5195ZM900.12 72.001V72C900.12 72.8794 900.135 73.7578 900.158 74.6348C900.135 73.7581 900.12 72.8801 900.12 72.001ZM624.512 73.502C624.732 73.3826 624.951 73.2612 625.169 73.1377C624.951 73.2612 624.732 73.3826 624.512 73.502ZM786.321 63.498C786.104 65.7876 785.983 68.1968 785.952 70.7256C785.962 69.8825 785.983 69.0528 786.014 68.2363C786.06 67.0117 786.129 65.8171 786.222 64.6523C786.284 63.876 786.356 63.113 786.438 62.3633L786.321 63.498ZM1006.2 66.4619C1006.26 67.8666 1006.3 69.3094 1006.32 70.79V70.7715C1006.3 69.2974 1006.26 67.8607 1006.2 66.4619ZM937.056 66.0771C937.038 66.4443 937.023 66.8141 937.009 67.1865C937.023 66.8141 937.038 66.4443 937.056 66.0771ZM381.427 65.875C381.411 65.6375 381.398 65.4001 381.381 65.1631C381.398 65.4001 381.411 65.6375 381.427 65.875ZM900.633 62.1855C900.575 62.7277 900.523 63.2708 900.476 63.8145C900.547 62.999 900.63 62.185 900.724 61.373L900.633 62.1855ZM590.054 64.9668C589.539 64.989 589.009 65 588.466 65C589.009 65 589.539 64.989 590.054 64.9668ZM1005.79 60.791C1005.93 62.1399 1006.05 63.531 1006.13 64.9639C1006.05 63.531 1005.93 62.1399 1005.79 60.791ZM381.322 64.4443C381.298 64.1491 381.277 63.854 381.25 63.5596C381.277 63.854 381.298 64.1491 381.322 64.4443ZM750.766 54.7217C750.242 57.4025 749.85 60.124 749.582 62.8701C749.85 60.124 750.242 57.4025 750.766 54.7217ZM937.61 59.5449C937.456 60.7638 937.332 62.019 937.231 63.3096C937.332 62.019 937.456 60.7638 937.61 59.5449ZM561.866 63H588.466C594.302 63 597.971 61.6575 600.214 59.374C602.464 57.0838 603.666 53.4554 603.666 48C603.666 43.1093 602.446 39.8421 600.224 37.7598C598.114 35.7833 594.77 34.5602 589.702 34.415L588.666 34.4004H561.866V63ZM600.633 61.6826C600.695 61.6325 600.759 61.5835 600.82 61.5322L600.838 61.5166C600.771 61.573 600.702 61.6276 600.633 61.6826ZM901.039 58.9434C900.961 59.4817 900.889 60.0212 900.821 60.5615L900.927 59.752C900.963 59.4825 901 59.2133 901.039 58.9443V58.9434ZM901.718 54.9277C901.511 55.9921 901.325 57.0622 901.159 58.1367C901.325 57.0622 901.511 55.9921 901.718 54.9277ZM852.491 55.3701C852.618 56.2131 852.727 57.0755 852.821 57.957C852.727 57.0755 852.618 56.2131 852.491 55.3701ZM938.09 56.374C938.044 56.6293 938.003 56.8867 937.96 57.1455C938.058 56.5512 938.161 55.966 938.274 55.3906L938.09 56.374ZM1041.69 55.7949C1041.73 56.0609 1041.78 56.3272 1041.83 56.5938C1041.78 56.3268 1041.73 56.0602 1041.69 55.7939V55.7949ZM787.897 54.1992C787.762 54.7221 787.634 55.2536 787.514 55.7939C787.634 55.2536 787.762 54.7221 787.897 54.1992ZM1041.04 52.6182C1041.21 53.4079 1041.38 54.2009 1041.54 54.9971L1041.38 54.2012C1041.27 53.6717 1041.16 53.1437 1041.04 52.6172V52.6182ZM379.691 53.4785C379.77 53.835 379.846 54.1924 379.92 54.5508C379.846 54.1924 379.77 53.835 379.691 53.4785ZM852.092 53.0566C852.18 53.5069 852.264 53.9632 852.342 54.4258C852.264 53.9632 852.18 53.5069 852.092 53.0566ZM751.096 53.1191V53.1182V53.1191ZM902.22 52.5439C902.578 50.9607 902.982 49.3916 903.437 47.8408C903.285 48.3578 903.139 48.8767 902.998 49.3975C902.928 49.6577 902.86 49.9186 902.792 50.1797C902.657 50.7023 902.527 51.2268 902.402 51.7529C902.34 52.0159 902.278 52.2792 902.219 52.543L902.22 52.5439ZM939.367 50.9492C939.21 51.473 939.059 52.0059 938.919 52.5488C939.059 52.0059 939.21 51.473 939.367 50.9492ZM379.578 52.9756C379.556 52.8765 379.533 52.7776 379.51 52.6787C379.533 52.7776 379.556 52.8765 379.578 52.9756ZM888.474 52.6172C888.461 52.525 888.451 52.4327 888.438 52.3408C888.451 52.4327 888.461 52.525 888.474 52.6172ZM379.437 52.3672C379.401 52.217 379.366 52.0668 379.329 51.917C379.366 52.0668 379.401 52.217 379.437 52.3672ZM888.265 51.127C888.241 50.9646 888.219 50.8022 888.194 50.6406C888.219 50.8022 888.241 50.9646 888.265 51.127ZM379.068 50.8789C379.025 50.7108 378.982 50.5426 378.938 50.375C378.982 50.5426 379.025 50.7108 379.068 50.8789ZM751.852 49.9443V49.9434V49.9443ZM939.705 49.873H939.706H939.705ZM378.838 50.0068C378.814 49.9169 378.789 49.827 378.765 49.7373C378.789 49.827 378.814 49.9169 378.838 50.0068ZM888.004 49.457C887.982 49.3273 887.962 49.1976 887.94 49.0684C887.962 49.1976 887.982 49.3273 888.004 49.457ZM378.407 48.4854C378.382 48.4 378.357 48.3147 378.332 48.2295C378.357 48.3147 378.382 48.4 378.407 48.4854ZM887.779 48.1602C887.735 47.9159 887.693 47.672 887.647 47.4297C887.693 47.672 887.735 47.9159 887.779 48.1602ZM378.238 47.917C378.193 47.7661 378.146 47.6153 378.1 47.4648C378.146 47.6153 378.193 47.7661 378.238 47.917ZM377.704 46.2314C377.685 46.1751 377.667 46.1187 377.648 46.0625C377.667 46.1187 377.685 46.1751 377.704 46.2314ZM377.499 45.6191C377.453 45.4839 377.407 45.3487 377.36 45.2139C377.407 45.3487 377.453 45.4839 377.499 45.6191ZM887.229 45.3535C887.211 45.2743 887.194 45.1952 887.177 45.1162C887.194 45.1952 887.211 45.2743 887.229 45.3535ZM905.23 42.4941C905.135 42.7448 905.042 42.9962 904.949 43.248C905.134 42.7443 905.324 42.2429 905.521 41.7441L905.23 42.4941ZM886.912 43.9434C886.882 43.8138 886.851 43.6846 886.82 43.5557C886.851 43.6846 886.882 43.8138 886.912 43.9434ZM754.028 42.9863C754.121 42.7338 754.216 42.4817 754.312 42.2305C754.12 42.7328 753.934 43.2377 753.753 43.7451L754.028 42.9863ZM376.668 43.3105C376.641 43.2398 376.614 43.1692 376.587 43.0986C376.614 43.1692 376.641 43.2398 376.668 43.3105ZM886.585 42.6035C886.539 42.4203 886.492 42.2376 886.444 42.0557C886.492 42.2376 886.539 42.4203 886.585 42.6035ZM376.107 41.8887C376.088 41.8405 376.069 41.7922 376.049 41.7441C376.069 41.7922 376.088 41.8405 376.107 41.8887ZM886.341 41.6641C886.312 41.5564 886.283 41.449 886.254 41.3418C886.283 41.449 886.312 41.5564 886.341 41.6641ZM375.444 40.3145C375.605 40.6817 375.762 41.0509 375.916 41.4219C375.762 41.0509 375.605 40.6817 375.444 40.3145ZM886.107 40.8135C886.088 40.7444 886.069 40.6753 886.05 40.6064C886.069 40.6753 886.088 40.7444 886.107 40.8135ZM642.37 39.251C642.402 39.7448 642.425 40.2422 642.44 40.7432C642.425 40.2422 642.402 39.7448 642.37 39.251ZM795.259 39.877H795.26H795.259ZM906.766 38.7832C906.547 39.2713 906.334 39.7623 906.126 40.2559L906.442 39.5176C906.549 39.2722 906.656 39.0272 906.766 38.7832ZM885.907 40.1133C885.884 40.0344 885.861 39.9556 885.838 39.877C885.861 39.9556 885.884 40.0344 885.907 40.1133ZM755.855 38.5166C755.635 39.0049 755.421 39.4961 755.212 39.9902L755.529 39.252C755.637 39.0061 755.745 38.761 755.855 38.5166ZM375.294 39.9746C375.234 39.8394 375.174 39.7041 375.113 39.5693C375.174 39.7041 375.234 39.8394 375.294 39.9746ZM374.896 39.0947C374.875 39.0478 374.853 39.001 374.831 38.9541C374.853 39.001 374.875 39.0478 374.896 39.0947ZM946.652 38.4629H946.651H946.652ZM885.45 38.6133C885.434 38.5631 885.418 38.513 885.402 38.4629C885.418 38.513 885.434 38.5631 885.45 38.6133ZM642.314 38.5127C642.309 38.4436 642.304 38.3746 642.298 38.3057C642.304 38.3746 642.309 38.4436 642.314 38.5127ZM374.594 38.4492C374.57 38.3994 374.546 38.3496 374.522 38.2998C374.546 38.3496 374.57 38.3994 374.594 38.4492ZM374.337 37.9141C374.277 37.7908 374.217 37.6677 374.156 37.5449C374.217 37.6677 374.277 37.7908 374.337 37.9141ZM843.653 37.1836C843.901 37.3895 844.144 37.599 844.38 37.8145C844.144 37.599 843.901 37.3895 843.653 37.1836ZM884.987 37.2109C884.971 37.1627 884.954 37.1145 884.938 37.0664C884.954 37.1145 884.971 37.1627 884.987 37.2109ZM373.918 37.0693C373.894 37.0218 373.87 36.9743 373.846 36.9268C373.87 36.9743 373.894 37.0218 373.918 37.0693ZM1034.39 34.5596C1034.77 35.2646 1035.14 35.9765 1035.49 36.6953C1035.14 35.9765 1034.77 35.2646 1034.39 34.5596ZM642.123 36.6953C642.11 36.5924 642.099 36.4893 642.085 36.3867C642.099 36.4893 642.11 36.5924 642.123 36.6953ZM884.775 36.6025C884.74 36.5017 884.703 36.4012 884.667 36.3008C884.703 36.4012 884.74 36.5017 884.775 36.6025ZM908.519 35.1777V35.1787V35.1777ZM642.012 35.8877C641.99 35.7396 641.969 35.5917 641.945 35.4443C641.969 35.5917 641.99 35.7396 642.012 35.8877ZM884.512 35.876C884.492 35.8239 884.473 35.7717 884.454 35.7197C884.473 35.7717 884.492 35.8239 884.512 35.876ZM373.297 35.8711C373.234 35.7524 373.17 35.6338 373.106 35.5156C373.17 35.6338 373.234 35.7524 373.297 35.8711ZM757.614 34.9131V34.9141V34.9131ZM373 35.3203C372.912 35.1587 372.823 34.9976 372.733 34.8369C372.823 34.9976 372.912 35.1587 373 35.3203ZM801.796 34.8369V34.8379V34.8369ZM372.645 34.6777C372.557 34.5208 372.468 34.3641 372.379 34.208C372.468 34.3641 372.557 34.5208 372.645 34.6777ZM883.992 34.5195C883.968 34.4585 883.943 34.3977 883.919 34.3369C883.943 34.3977 883.968 34.4585 883.992 34.5195ZM883.758 33.9395C883.72 33.8462 883.681 33.753 883.643 33.6602C883.681 33.753 883.72 33.8462 883.758 33.9395ZM372.163 33.834C372.124 33.7671 372.085 33.7005 372.046 33.6338C372.085 33.7005 372.124 33.7671 372.163 33.834ZM641.653 33.834C641.64 33.7669 641.627 33.6997 641.613 33.6328C641.627 33.6997 641.64 33.7669 641.653 33.834ZM909.676 33.0703L909.677 33.0713L909.676 33.0703ZM1033.61 33.1582C1033.67 33.272 1033.74 33.3868 1033.8 33.501C1033.61 33.154 1033.41 32.8082 1033.21 32.4648L1033.61 33.1582ZM883.471 33.251C883.438 33.1746 883.405 33.0986 883.372 33.0225C883.405 33.0986 883.438 33.1746 883.471 33.251ZM371.789 33.2002C371.739 33.1163 371.688 33.0328 371.638 32.9492C371.688 33.0328 371.739 33.1163 371.789 33.2002ZM641.489 33.0703C641.462 32.9487 641.436 32.8271 641.407 32.7061C641.436 32.8271 641.462 32.9487 641.489 33.0703ZM883.2 32.6279C883.155 32.5255 883.11 32.4232 883.064 32.3213C883.11 32.4232 883.155 32.5255 883.2 32.6279ZM371.409 32.5742C371.361 32.4963 371.313 32.4185 371.265 32.3408C371.313 32.4185 371.361 32.4963 371.409 32.5742ZM641.288 32.2236C641.256 32.0952 641.225 31.9666 641.191 31.8389C641.225 31.9666 641.256 32.0952 641.288 32.2236ZM882.916 31.9922C882.877 31.907 882.838 31.8221 882.799 31.7373C882.838 31.8221 882.877 31.907 882.916 31.9922ZM910.915 31.0088V31.0078V31.0088ZM882.631 31.376C882.57 31.2466 882.508 31.1178 882.446 30.9893C882.508 31.1178 882.57 31.2466 882.631 31.376ZM370.608 31.3076C370.543 31.2075 370.478 31.1075 370.412 31.0078C370.478 31.1075 370.543 31.2075 370.608 31.3076ZM641.03 31.25C641.002 31.1503 640.975 31.0505 640.946 30.9512C640.975 31.0505 641.002 31.1503 641.03 31.25ZM816.167 30.9619V30.9629V30.9619ZM967.799 30.8975V30.8984V30.8975ZM975.273 30.8965C975.932 30.9314 976.577 30.9784 977.21 31.0322C976.577 30.9784 975.932 30.9314 975.273 30.8965ZM972.809 30.8115C973.527 30.8237 974.23 30.8481 974.92 30.8809C974.23 30.8481 973.527 30.8237 972.809 30.8115ZM882.355 30.8008C882.288 30.6626 882.221 30.5249 882.152 30.3877C882.221 30.5249 882.288 30.6626 882.355 30.8008ZM370.231 30.7363C370.172 30.6469 370.112 30.5578 370.052 30.4688C370.112 30.5578 370.172 30.6469 370.231 30.7363ZM640.777 30.3877C640.745 30.2841 640.714 30.1803 640.682 30.0771C640.714 30.1803 640.745 30.2841 640.777 30.3877ZM369.786 30.0771C369.729 29.9934 369.671 29.9096 369.613 29.8262C369.671 29.9096 369.729 29.9934 369.786 30.0771ZM881.974 30.0312C881.95 29.9846 881.926 29.9381 881.902 29.8916C881.926 29.9381 881.95 29.9846 881.974 30.0312ZM1031.5 29.7441V29.7432V29.7441ZM640.524 29.6025C640.481 29.4715 640.438 29.3402 640.393 29.21C640.438 29.3402 640.481 29.4715 640.524 29.6025ZM369.356 29.46C369.297 29.3764 369.238 29.2932 369.179 29.21C369.238 29.2932 369.297 29.3764 369.356 29.46ZM761.339 28.7441V28.7451V28.7441ZM881.37 28.8779C881.311 28.7689 881.252 28.6602 881.192 28.5518C881.252 28.6602 881.311 28.7689 881.37 28.8779ZM368.905 28.8301C368.863 28.7713 368.819 28.7129 368.776 28.6543C368.819 28.7129 368.863 28.7713 368.905 28.8301ZM640.257 28.8301C640.197 28.6639 640.138 28.4978 640.075 28.333C640.138 28.4978 640.197 28.6639 640.257 28.8301ZM1030.59 28.416C1030.65 28.4893 1030.7 28.5632 1030.75 28.6367C1030.54 28.343 1030.34 28.0501 1030.13 27.7598L1030.59 28.416ZM913.164 27.6787C913.479 27.244 913.8 26.8126 914.128 26.3857C913.8 26.8126 913.479 27.244 913.164 27.6787ZM368.479 28.251C368.425 28.1797 368.373 28.1081 368.319 28.0371C368.373 28.1081 368.425 28.1797 368.479 28.251ZM881.001 28.2061C880.938 28.0927 880.874 27.9798 880.81 27.8672C880.874 27.9798 880.938 28.0927 881.001 28.2061ZM639.893 27.8672C639.85 27.759 639.808 27.6506 639.764 27.543C639.808 27.6506 639.85 27.759 639.893 27.8672ZM880.72 27.71C880.634 27.5608 880.547 27.4125 880.46 27.2646C880.547 27.4125 880.634 27.5608 880.72 27.71ZM367.982 27.5947C367.948 27.5502 367.914 27.5054 367.88 27.4609C367.914 27.5054 367.948 27.5502 367.982 27.5947ZM764.745 24.2646C764.053 25.0892 763.386 25.9313 762.743 26.7891C763.386 25.9313 764.053 25.0892 764.745 24.2646ZM639.583 27.1133C639.522 26.9697 639.461 26.8261 639.398 26.6836C639.461 26.8261 639.522 26.9697 639.583 27.1133ZM880.37 27.1133C880.314 27.0182 880.256 26.9236 880.199 26.8291C880.256 26.9236 880.314 27.0182 880.37 27.1133ZM367.542 27.0293C367.501 26.9778 367.461 26.9264 367.42 26.875C367.461 26.9264 367.501 26.9778 367.542 27.0293ZM879.985 26.4775C879.94 26.4041 879.894 26.331 879.849 26.2578C879.894 26.331 879.94 26.4041 879.985 26.4775ZM367.063 26.4307C367.027 26.3857 366.991 26.3407 366.954 26.2959C366.991 26.3407 367.027 26.3857 367.063 26.4307ZM1027.65 24.5703C1028.14 25.1668 1028.63 25.7724 1029.1 26.3857C1028.79 25.9856 1028.48 25.5884 1028.16 25.1953C1027.99 24.9857 1027.82 24.7768 1027.65 24.5693V24.5703ZM639.237 26.3281C639.17 26.1812 639.103 26.0344 639.034 25.8887C639.103 26.0344 639.17 26.1812 639.237 26.3281ZM879.629 25.9082C879.578 25.8285 879.527 25.7493 879.476 25.6699C879.527 25.7493 879.578 25.8285 879.629 25.9082ZM366.618 25.8887C366.565 25.8251 366.512 25.7616 366.459 25.6982C366.512 25.7616 366.565 25.8251 366.618 25.8887ZM638.835 25.4775C638.775 25.3551 638.714 25.2329 638.652 25.1113C638.714 25.2329 638.775 25.3551 638.835 25.4775ZM879.293 25.3877C879.215 25.268 879.135 25.1491 879.056 25.0303C879.135 25.1491 879.215 25.268 879.293 25.3877ZM366.116 25.2939C366.064 25.2329 366.011 25.1721 365.959 25.1113C366.011 25.1721 366.064 25.2329 366.116 25.2939ZM878.915 24.8193C878.818 24.6759 878.72 24.5336 878.621 24.3916C878.72 24.5336 878.818 24.6759 878.915 24.8193ZM365.632 24.7354C365.583 24.6801 365.534 24.6254 365.485 24.5703C365.534 24.6254 365.583 24.6801 365.632 24.7354ZM638.426 24.6758C638.362 24.5541 638.298 24.4322 638.232 24.3115C638.298 24.4323 638.362 24.5541 638.426 24.6758ZM878.514 24.2373C878.429 24.1163 878.344 23.996 878.258 23.876C878.344 23.996 878.429 24.1163 878.514 24.2373ZM365.137 24.1807C365.09 24.1292 365.044 24.0777 364.997 24.0264C365.044 24.0777 365.09 24.1292 365.137 24.1807ZM638.022 23.9346C637.943 23.7938 637.864 23.6531 637.783 23.5137C637.864 23.6531 637.943 23.7938 638.022 23.9346ZM364.687 23.6885C364.597 23.592 364.508 23.4953 364.418 23.3994C364.508 23.4953 364.597 23.592 364.687 23.6885ZM878.124 23.6885C878.056 23.5936 877.986 23.4995 877.917 23.4053C877.986 23.4995 878.056 23.5936 878.124 23.6885ZM637.598 23.2012C637.506 23.0472 637.413 22.8936 637.318 22.7412C637.413 22.8936 637.506 23.0472 637.598 23.2012ZM364.221 23.1914C364.11 23.0751 363.999 22.9592 363.888 22.8438C363.999 22.9592 364.11 23.0751 364.221 23.1914ZM877.739 23.1641C877.634 23.0223 877.527 22.8815 877.42 22.7412C877.527 22.8815 877.634 23.0223 877.739 23.1641ZM766.345 22.4395C766.71 22.0404 767.081 21.6459 767.459 21.2559C767.081 21.6459 766.71 22.0404 766.345 22.4395ZM363.681 22.6309C363.583 22.5313 363.486 22.4319 363.388 22.333C363.486 22.4319 363.583 22.5313 363.681 22.6309ZM877.336 22.6309C877.261 22.5337 877.186 22.4373 877.11 22.3408C877.186 22.4373 877.261 22.5337 877.336 22.6309ZM1024.55 21.1504C1024.86 21.4741 1025.18 21.8 1025.49 22.1299C1025.18 21.8 1024.86 21.4741 1024.55 21.1504ZM637.103 22.4004C637.018 22.2686 636.933 22.1374 636.847 22.0068C636.933 22.1374 637.018 22.2686 637.103 22.4004ZM363.147 22.0918C363.043 21.9881 362.938 21.8852 362.833 21.7822C362.938 21.8852 363.043 21.9881 363.147 22.0918ZM636.623 21.6738C636.536 21.5461 636.449 21.4185 636.36 21.292C636.449 21.4185 636.536 21.5461 636.623 21.6738ZM876.522 21.6045C876.422 21.4813 876.32 21.3593 876.218 21.2373C876.32 21.3593 876.422 21.4813 876.522 21.6045ZM362.572 21.5283C362.496 21.4549 362.42 21.3816 362.344 21.3086C362.42 21.3816 362.496 21.4549 362.572 21.5283ZM918.939 20.8818C921.06 18.748 923.377 16.7529 925.901 14.9199C925.442 15.2532 924.99 15.5918 924.545 15.9355C924.1 16.2793 923.661 16.6284 923.229 16.9824C922.798 17.3365 922.373 17.6955 921.954 18.0596C921.745 18.2417 921.537 18.4248 921.331 18.6094C920.507 19.3475 919.711 20.1057 918.939 20.8818ZM362.072 21.0508C361.961 20.9463 361.849 20.8429 361.737 20.7393C361.849 20.8429 361.961 20.9463 362.072 21.0508ZM636.102 20.9297C636.014 20.808 635.925 20.6869 635.835 20.5664C635.925 20.6869 636.014 20.808 636.102 20.9297ZM361.531 20.5479C361.436 20.461 361.341 20.3753 361.245 20.2891C361.341 20.3753 361.436 20.461 361.531 20.5479ZM635.532 20.168C635.458 20.072 635.384 19.9761 635.309 19.8809C635.384 19.9761 635.458 20.072 635.532 20.168ZM360.904 19.9824C360.848 19.9322 360.791 19.882 360.734 19.832C360.791 19.882 360.848 19.9322 360.904 19.9824ZM635.004 19.5029C634.915 19.3944 634.826 19.2862 634.736 19.1787C634.826 19.2862 634.915 19.3944 635.004 19.5029ZM360.345 19.4922C360.267 19.4248 360.188 19.358 360.109 19.291C360.188 19.358 360.267 19.4248 360.345 19.4922ZM874.281 19.0703C874.149 18.932 874.015 18.7949 873.881 18.6582C874.015 18.7949 874.149 18.932 874.281 19.0703ZM359.734 18.9736C359.673 18.9223 359.611 18.8714 359.55 18.8203C359.611 18.8714 359.673 18.9223 359.734 18.9736ZM634.431 18.8203C634.339 18.7145 634.247 18.6087 634.154 18.5039C634.247 18.6087 634.339 18.7145 634.431 18.8203ZM1018.35 15.7002C1019.38 16.4811 1020.38 17.2872 1021.33 18.1211C1020.38 17.2871 1019.38 16.4811 1018.35 15.7002ZM359.166 18.5039C359.097 18.4476 359.027 18.3919 358.958 18.3359C359.027 18.3919 359.097 18.4476 359.166 18.5039ZM633.845 18.1611C633.745 18.0525 633.645 17.9444 633.544 17.8369C633.645 17.9444 633.745 18.0525 633.845 18.1611ZM873.341 18.1172L873.318 18.0947C873.223 18.0008 873.125 17.9085 873.028 17.8154C873.133 17.9159 873.238 18.0158 873.341 18.1172ZM358.59 18.041C358.525 17.9899 358.46 17.9395 358.396 17.8887C358.46 17.9395 358.525 17.9899 358.59 18.041ZM357.994 17.5762C357.91 17.5118 357.826 17.4478 357.742 17.3838C357.826 17.4478 357.91 17.5118 357.994 17.5762ZM633.211 17.4893C633.117 17.3924 633.022 17.296 632.927 17.2002C633.022 17.296 633.117 17.3924 633.211 17.4893ZM357.42 17.1406C357.323 17.0685 357.227 16.9964 357.13 16.9248C357.227 16.9964 357.323 17.0685 357.42 17.1406ZM632.552 16.8301C632.468 16.7485 632.383 16.6677 632.298 16.5869C632.383 16.6677 632.468 16.7485 632.552 16.8301ZM774.276 15.2607C773.637 15.7382 773.012 16.227 772.399 16.7256C773.012 16.227 773.637 15.7382 774.276 15.2607ZM356.785 16.6719C356.685 16.5994 356.585 16.5279 356.484 16.4561C356.585 16.5279 356.685 16.5994 356.785 16.6719ZM356.19 16.2471C356.042 16.1427 355.893 16.0396 355.744 15.9365C355.893 16.0396 356.042 16.1427 356.19 16.2471ZM631.908 16.2217C631.804 16.1258 631.699 16.0304 631.593 15.9355C631.699 16.0304 631.804 16.1258 631.908 16.2217ZM355.537 15.7939C355.449 15.7337 355.36 15.6741 355.271 15.6143C355.36 15.6741 355.449 15.7337 355.537 15.7939ZM631.228 15.6143C631.12 15.521 631.012 15.4281 630.903 15.3359C631.012 15.4281 631.12 15.521 631.228 15.6143ZM869.242 14.5664C869.602 14.841 869.956 15.1197 870.305 15.4033C869.956 15.1197 869.602 14.841 869.242 14.5664ZM354.853 15.333C354.796 15.2955 354.739 15.259 354.682 15.2217C354.739 15.259 354.796 15.2955 354.853 15.333ZM630.534 15.0283C630.417 14.9321 630.299 14.8371 630.18 14.7422C630.299 14.8371 630.417 14.9321 630.534 15.0283ZM354.197 14.9072C354.122 14.859 354.046 14.8115 353.971 14.7637C354.046 14.8115 354.122 14.859 354.197 14.9072ZM353.583 14.5195C353.5 14.4679 353.417 14.4165 353.333 14.3652C353.417 14.4165 353.5 14.4679 353.583 14.5195ZM629.821 14.46C629.689 14.3576 629.557 14.2561 629.423 14.1553C629.557 14.2561 629.689 14.3576 629.821 14.46ZM868.125 13.7393C868.4 13.9366 868.672 14.1376 868.941 14.3398C868.672 14.1376 868.4 13.9366 868.125 13.7393ZM779.987 11.4971C779.484 11.7881 778.988 12.0852 778.499 12.3877C778.254 12.539 778.011 12.6915 777.77 12.8457C777.287 13.1539 776.811 13.4678 776.342 13.7871C777.749 12.8292 779.218 11.9212 780.747 11.0654L779.987 11.4971ZM352.906 14.1045C352.823 14.0542 352.738 14.005 352.654 13.9551C352.738 14.005 352.823 14.0542 352.906 14.1045ZM629.081 13.9004C628.945 13.8009 628.809 13.7024 628.671 13.6045C628.809 13.7024 628.945 13.8009 629.081 13.9004ZM352.229 13.7051C352.144 13.6556 352.059 13.6067 351.974 13.5576C352.059 13.6067 352.144 13.6556 352.229 13.7051ZM931.741 11.1855C931.227 11.4739 930.719 11.7684 930.219 12.0684C929.718 12.3683 929.225 12.674 928.738 12.9854V12.9863C929.955 12.2079 931.214 11.4641 932.519 10.7578L931.741 11.1855ZM628.298 13.3418C628.167 13.2514 628.035 13.1623 627.902 13.0732C628.035 13.1623 628.167 13.2514 628.298 13.3418ZM351.569 13.3271C351.453 13.2613 351.335 13.196 351.218 13.1309C351.335 13.196 351.453 13.2613 351.569 13.3271ZM867.252 13.1309C867.158 13.067 867.065 13.0027 866.971 12.9395C867.065 13.0027 867.158 13.067 867.252 13.1309ZM350.85 12.9277C350.757 12.8772 350.664 12.8274 350.57 12.7773C350.664 12.8274 350.757 12.8772 350.85 12.9277ZM1013.8 12.5684V12.5674V12.5684ZM627.498 12.8047C627.375 12.7247 627.251 12.6462 627.127 12.5674C627.251 12.6462 627.375 12.7247 627.498 12.8047ZM866.726 12.7773C866.62 12.7073 866.514 12.6368 866.407 12.5674C866.514 12.6368 866.62 12.7072 866.726 12.7773ZM350.19 12.5742C350.1 12.5263 350.008 12.4791 349.917 12.4316C350.008 12.4791 350.1 12.5263 350.19 12.5742ZM626.653 12.2715C626.542 12.2031 626.429 12.1358 626.316 12.0684C626.429 12.1358 626.542 12.2031 626.653 12.2715ZM865.356 11.9033C865.315 11.8779 865.274 11.8524 865.232 11.8271C865.274 11.8524 865.315 11.8779 865.356 11.9033ZM348.757 11.8447C348.641 11.7878 348.524 11.7321 348.407 11.6758C348.524 11.7321 348.641 11.7878 348.757 11.8447ZM625.819 11.7754C625.709 11.7119 625.598 11.6496 625.487 11.5869C625.598 11.6496 625.709 11.7119 625.819 11.7754ZM864.776 11.5527C864.733 11.5268 864.689 11.5005 864.646 11.4746C864.689 11.5005 864.733 11.5268 864.776 11.5527ZM348.057 11.5068C347.937 11.4502 347.817 11.3948 347.696 11.3389C347.817 11.3948 347.937 11.4502 348.057 11.5068ZM624.979 11.3037C624.856 11.237 624.732 11.1712 624.608 11.1055C624.732 11.1712 624.856 11.237 624.979 11.3037ZM864.285 11.2646C864.185 11.2067 864.085 11.1483 863.984 11.0908C864.085 11.1483 864.185 11.2067 864.285 11.2646ZM1010.74 10.7969L1010.74 10.7959L1010.74 10.7969ZM347.32 11.1641C347.144 11.0835 346.966 11.0048 346.788 10.9258C346.966 11.0048 347.144 11.0835 347.32 11.1641ZM863.699 10.9307C863.593 10.8712 863.488 10.8109 863.381 10.752C863.488 10.8109 863.593 10.8712 863.699 10.9307ZM346.07 10.6133C346.311 10.7162 346.55 10.8201 346.788 10.9258C346.55 10.8201 346.311 10.7162 346.07 10.6133ZM624.089 10.834C623.972 10.7743 623.854 10.716 623.736 10.6572C623.854 10.716 623.972 10.7743 624.089 10.834ZM863.1 10.5986C862.962 10.5239 862.824 10.4497 862.686 10.376C862.824 10.4497 862.962 10.5239 863.1 10.5986ZM345.88 10.5312C345.755 10.4783 345.63 10.4262 345.504 10.374C345.63 10.4262 345.755 10.4783 345.88 10.5312ZM623.188 10.3887C623.064 10.3291 622.939 10.2705 622.813 10.2119C622.939 10.2705 623.064 10.3291 623.188 10.3887ZM940.881 6.98242C940.287 7.20218 939.7 7.42829 939.121 7.66113C938.542 7.89397 937.97 8.13325 937.405 8.37891C936.276 8.87013 935.176 9.38686 934.104 9.92773C936.248 8.84588 938.506 7.86133 940.881 6.98242ZM862.379 10.2148C862.291 10.1689 862.203 10.1227 862.115 10.0771C862.203 10.1227 862.291 10.1689 862.379 10.2148ZM622.276 9.96484C622.145 9.90577 622.013 9.84805 621.88 9.79004C622.013 9.84805 622.145 9.90577 622.276 9.96484ZM344.323 9.89844C344.183 9.84355 344.041 9.79029 343.899 9.73633C344.041 9.79029 344.183 9.84355 344.323 9.89844ZM343.566 9.60938C343.446 9.56419 343.324 9.5201 343.203 9.47559C343.324 9.5201 343.446 9.56419 343.566 9.60938ZM621.342 9.55762C621.201 9.49815 621.058 9.44109 620.915 9.38281C621.058 9.44109 621.201 9.49815 621.342 9.55762ZM861.061 9.54785C860.977 9.50689 860.893 9.46544 860.809 9.4248C860.893 9.46544 860.977 9.50689 861.061 9.54785ZM786.354 8.29004C785.517 8.6541 784.695 9.03277 783.889 9.4248L784.7 9.03809C785.517 8.65532 786.349 8.28615 787.197 7.93164L786.354 8.29004ZM860.458 9.25781C860.351 9.20713 860.244 9.1566 860.136 9.10645C860.244 9.1566 860.351 9.20713 860.458 9.25781ZM1006.68 8.78418C1006.96 8.91065 1007.24 9.03837 1007.52 9.16797L1006.68 8.7832C1006.4 8.65678 1006.12 8.53245 1005.84 8.40918L1006.68 8.78418ZM620.344 9.15332C620.224 9.10657 620.105 9.06058 619.984 9.01465C620.105 9.06059 620.224 9.10657 620.344 9.15332ZM342.026 9.05566C341.818 8.98398 341.608 8.91444 341.397 8.84473C341.608 8.91444 341.818 8.98398 342.026 9.05566ZM859.791 8.94727C859.67 8.89214 859.549 8.83767 859.428 8.7832C859.549 8.83767 859.67 8.89214 859.791 8.94727ZM341.236 8.79102C341.029 8.7229 340.82 8.65604 340.611 8.58984C340.82 8.65604 341.029 8.7229 341.236 8.79102ZM619.389 8.79102C619.211 8.72582 619.031 8.66304 618.851 8.59961C619.031 8.66304 619.211 8.72582 619.389 8.79102ZM859.143 8.65625C859.012 8.59863 858.881 8.54124 858.75 8.48438C858.881 8.54124 859.012 8.59863 859.143 8.65625ZM340.432 8.5332C340.31 8.49498 340.187 8.45749 340.064 8.41992C340.187 8.45749 340.31 8.49498 340.432 8.5332ZM618.416 8.44727C618.246 8.38937 618.075 8.33368 617.903 8.27734C618.075 8.33368 618.246 8.38937 618.416 8.44727ZM858.432 8.34766C858.295 8.28966 858.159 8.23201 858.021 8.1748C858.159 8.23201 858.295 8.28966 858.432 8.34766ZM617.335 8.09277C617.179 8.0438 617.022 7.99693 616.865 7.94922C617.022 7.99693 617.179 8.0438 617.335 8.09277ZM857.771 8.07129C857.628 8.01231 857.484 7.95362 857.34 7.89551C857.484 7.95362 857.628 8.01231 857.771 8.07129ZM338.743 8.03027C338.624 7.99653 338.504 7.9638 338.384 7.93066C338.504 7.9638 338.624 7.99653 338.743 8.03027ZM337.937 7.80859C337.83 7.77992 337.723 7.75182 337.615 7.72363C337.723 7.75182 337.83 7.77992 337.937 7.80859ZM616.321 7.78613C616.148 7.73572 615.974 7.68756 615.799 7.63867C615.974 7.68757 616.148 7.73572 616.321 7.78613ZM857.053 7.78125C856.919 7.72842 856.786 7.67613 856.651 7.62402C856.786 7.67613 856.919 7.72842 857.053 7.78125ZM788.915 7.24219V7.24121V7.24219ZM337.062 7.58008C337.007 7.56624 336.952 7.55277 336.897 7.53906C336.952 7.55277 337.007 7.56624 337.062 7.58008ZM615.201 7.47363C615.082 7.44175 614.961 7.41204 614.841 7.38086C614.961 7.41204 615.082 7.44175 615.201 7.47363ZM614.112 7.19531C613.963 7.15888 613.813 7.12522 613.662 7.08984C613.813 7.12522 613.963 7.15887 614.112 7.19531ZM855.514 7.19531C855.418 7.16023 855.322 7.12457 855.226 7.08984C855.322 7.12457 855.418 7.16023 855.514 7.19531ZM334.577 7.00098C334.383 6.95961 334.187 6.92069 333.991 6.88086C334.187 6.92069 334.383 6.95961 334.577 7.00098ZM854.85 6.95605C854.703 6.90425 854.556 6.85275 854.408 6.80176C854.556 6.85275 854.703 6.90424 854.85 6.95605ZM612.986 6.93359C612.857 6.9049 612.727 6.8785 612.597 6.85059C612.727 6.8785 612.857 6.9049 612.986 6.93359ZM333.67 6.81543C333.566 6.79487 333.462 6.77501 333.358 6.75488C333.462 6.77501 333.566 6.79487 333.67 6.81543ZM854.211 6.73438C854.038 6.67542 853.865 6.61645 853.691 6.55859C853.865 6.61645 854.038 6.67542 854.211 6.73438ZM611.855 6.69434C611.728 6.66884 611.601 6.64586 611.473 6.62109C611.601 6.64586 611.728 6.66884 611.855 6.69434ZM999.614 6.05859C1000.13 6.22524 1000.64 6.39822 1001.14 6.57422C1000.64 6.39821 1000.13 6.22524 999.614 6.05859ZM853.342 6.44336C853.226 6.40554 853.11 6.36839 852.993 6.33105C853.11 6.36839 853.226 6.40554 853.342 6.44336ZM331.03 6.34473C330.821 6.31146 330.61 6.27961 330.399 6.24805C330.61 6.27961 330.821 6.31146 331.03 6.34473ZM609.495 6.27051C609.416 6.25788 609.336 6.24674 609.257 6.23438C609.336 6.24674 609.416 6.25788 609.495 6.27051ZM330.126 6.20605C330.007 6.18869 329.887 6.17307 329.768 6.15625C329.887 6.17307 330.007 6.18869 330.126 6.20605ZM852.6 6.20605C852.445 6.15748 852.29 6.10926 852.134 6.06152C852.29 6.10926 852.445 6.15748 852.6 6.20605ZM793.174 5.75879C792.718 5.9013 792.266 6.04828 791.818 6.19824C792.266 6.04828 792.718 5.90129 793.174 5.75879ZM851.923 5.99707C851.74 5.9418 851.557 5.88713 851.373 5.83301C851.557 5.88713 851.74 5.9418 851.923 5.99707ZM326.674 5.78711C327.012 5.82037 327.349 5.8561 327.684 5.89355C327.349 5.8561 327.012 5.82037 326.674 5.78711ZM605.826 5.79199C605.733 5.78242 605.639 5.77388 605.545 5.76465C605.639 5.77388 605.733 5.78242 605.826 5.79199ZM851.026 5.73242C850.921 5.70204 850.816 5.67161 850.71 5.6416C850.816 5.67161 850.921 5.70204 851.026 5.73242ZM801.129 3.74219C800.455 3.87586 799.788 4.01684 799.129 4.16504C798.47 4.31318 797.818 4.46846 797.174 4.63086C796.208 4.87441 795.258 5.13427 794.324 5.40918C796.503 4.76757 798.771 4.20984 801.129 3.74219ZM850.174 5.49219C850.091 5.46925 850.007 5.44653 849.924 5.42383C850.007 5.44653 850.091 5.46925 850.174 5.49219ZM320.622 5.42383C321.243 5.43816 321.859 5.45877 322.47 5.48633C321.532 5.44403 320.583 5.41728 319.622 5.40625L320.622 5.42383ZM849.375 5.27637C849.306 5.25817 849.237 5.23973 849.168 5.22168C849.237 5.23973 849.306 5.25817 849.375 5.27637ZM949.35 4.42969C948.358 4.666 947.383 4.91919 946.426 5.1875L947.389 4.9248C948.035 4.75293 948.688 4.58727 949.35 4.42969ZM848.546 5.0625C848.486 5.04732 848.426 5.03167 848.365 5.0166C848.426 5.03167 848.486 5.04732 848.546 5.0625ZM847.771 4.87109C847.663 4.8452 847.556 4.81949 847.448 4.79395C847.556 4.81949 847.663 4.8452 847.771 4.87109ZM847.031 4.69531C846.901 4.66516 846.77 4.63609 846.64 4.60645C846.77 4.63609 846.901 4.66516 847.031 4.69531ZM984.39 2.75781C985.86 2.93866 987.3 3.15005 988.707 3.39258C988.003 3.27126 987.291 3.15778 986.571 3.05176C985.852 2.94582 985.125 2.84723 984.39 2.75684V2.75781ZM844.523 4.1543C844.358 4.12109 844.191 4.08908 844.024 4.05664C844.191 4.08908 844.358 4.12109 844.523 4.1543ZM842.69 3.80664C842.557 3.78278 842.424 3.75971 842.29 3.73633C842.424 3.75971 842.557 3.78278 842.69 3.80664ZM953.408 3.57324C954.792 3.31692 956.206 3.08901 957.651 2.89355C956.206 3.08901 954.792 3.31692 953.408 3.57324ZM841.888 3.66602C841.759 3.64415 841.631 3.62299 841.502 3.60156C841.631 3.62299 841.759 3.64415 841.888 3.66602ZM837.255 2.9873C837.142 2.9733 837.029 2.95902 836.916 2.94531C837.029 2.95902 837.142 2.9733 837.255 2.9873ZM836.38 2.88086C836.235 2.86399 836.089 2.84842 835.943 2.83203C836.089 2.84842 836.235 2.86399 836.38 2.88086ZM979.881 2.31055V2.30957V2.31055ZM815.219 2.09961C814.061 2.14923 812.92 2.21689 811.797 2.30273C813.295 2.18828 814.823 2.10645 816.383 2.05664L815.219 2.09961ZM828.534 2.22363C827.886 2.18869 827.232 2.15758 826.572 2.13086C827.232 2.15758 827.886 2.18869 828.534 2.22363ZM971.521 2C970.702 2 969.891 2.00941 969.089 2.02637C969.891 2.00941 970.702 2.00098 971.521 2.00098C973.17 2.00098 974.787 2.03391 976.371 2.10156C974.787 2.03391 973.17 2 971.521 2ZM826.442 2.125C825.812 2.10003 825.176 2.08097 824.534 2.06348C825.176 2.08097 825.812 2.10003 826.442 2.125ZM818.745 2.00586C819.143 2.00168 819.543 2.00098 819.944 2.00098C820.688 2.00098 821.425 2.00537 822.154 2.01465L819.944 2C819.543 2 819.143 2.00167 818.745 2.00586Z" fill="#3A3A39"/>
</svg>
