<svg width="1915" height="755" viewBox="0 0 1915 755" fill="none" xmlns="http://www.w3.org/2000/svg">
<g clip-path="url(#clip0_7714_3292)">
<g filter="url(#filter0_n_7714_3292)">
<path d="M2429.91 1282.44C2618.84 986.939 2251.67 596.713 2130.74 468.286C2037.58 369.067 1804.96 129.561 1374.06 34.9121C803.279 -90.8094 594.45 194.416 -36.699 94.6524C-536.998 15.5418 -653.162 -202.541 -999.495 -113.437C-1229.99 -54.2014 -1472.83 117.844 -1504.46 291.167C-1559.89 595.966 -943.251 800.458 -847.229 832.011C-407.436 977.741 -530.608 796.629 -313.245 1098.6C-203.246 1264.96 -84.5027 1524.25 -337.384 1682.05C-619.445 1858.02 -835.514 1714.47 -1194.53 1882.39C-1492.24 2021.69 -1769.14 2319.59 -1717.49 2512.7C-1645.65 2781.33 -926.44 2888.92 -350.045 2704.04C246.575 2512.63 216.197 2160.44 910.191 1809.02C1678.42 1420.11 2233.86 1588.94 2429.91 1282.44Z" fill="#FF6600" style="mix-blend-mode:multiply"/>
</g>
</g>
<defs>
<filter id="filter0_n_7714_3292" x="-1723.74" y="-134.458" width="4206.69" height="2930.82" filterUnits="userSpaceOnUse" color-interpolation-filters="sRGB">
<feFlood flood-opacity="0" result="BackgroundImageFix"/>
<feBlend mode="normal" in="SourceGraphic" in2="BackgroundImageFix" result="shape"/>
<feTurbulence type="fractalNoise" baseFrequency="1 1" stitchTiles="stitch" numOctaves="3" result="noise" seed="1954" />
<feColorMatrix in="noise" type="luminanceToAlpha" result="alphaNoise" />
<feComponentTransfer in="alphaNoise" result="coloredNoise1">
<feFuncA type="discrete" tableValues="1 1 1 1 1 1 1 1 1 1 1 1 1 1 1 1 1 1 1 1 1 1 1 1 1 1 1 1 1 1 1 1 1 1 1 1 1 1 1 1 1 1 1 1 1 1 1 1 1 1 1 0 0 0 0 0 0 0 0 0 0 0 0 0 0 0 0 0 0 0 0 0 0 0 0 0 0 0 0 0 0 0 0 0 0 0 0 0 0 0 0 0 0 0 0 0 0 0 0 0 "/>
</feComponentTransfer>
<feComposite operator="in" in2="shape" in="coloredNoise1" result="noise1Clipped" />
<feFlood flood-color="rgba(255, 255, 255, 0.25)" result="color1Flood" />
<feComposite operator="in" in2="noise1Clipped" in="color1Flood" result="color1" />
<feMerge result="effect1_noise_7714_3292">
<feMergeNode in="shape" />
<feMergeNode in="color1" />
</feMerge>
</filter>
<clipPath id="clip0_7714_3292">
<rect width="1915" height="755" fill="white"/>
</clipPath>
</defs>
</svg>
