<svg width="1909" height="109" viewBox="0 0 1909 109" fill="none" xmlns="http://www.w3.org/2000/svg">
<mask id="path-1-outside-1_7648_3723" maskUnits="userSpaceOnUse" x="-0.377869" y="-0.294189" width="1909" height="109" fill="black">
<rect fill="white" x="-0.377869" y="-0.294189" width="1909" height="109"/>
<path d="M1.98861 103.706V4.52403H28.5365V82.9746H73.131V103.706H1.98861ZM111.113 62.8399V82.9746H164.656V103.706H84.8634V4.52403H164.209V25.2553H111.113V43.6002H159.734V62.8399H111.113ZM204.308 103.706V25.2553H172.391V4.52403H262.475V25.2553H230.558V103.706H204.308ZM271.52 25.7027V4.52403H294.638V36.8886C294.638 46.4339 291.506 53.4438 277.188 53.4438H271.52V40.319H280.32V25.7027H271.52ZM329.788 71.4904C330.534 79.6934 335.903 87.1507 349.774 87.1507C362.451 87.1507 367.224 82.6763 367.224 75.8156C367.224 69.2532 363.346 65.972 355.889 64.928L334.263 62.5416C316.365 60.4536 306.074 50.3117 306.074 33.4583C306.074 14.8151 320.094 1.98856 348.73 1.98856C379.305 1.98856 391.535 16.6048 392.877 34.204H366.926C365.882 26.2993 359.916 21.0792 348.73 21.0792C338.588 21.0792 332.622 25.1061 332.622 31.6685C332.622 36.7395 335.605 40.4681 343.211 41.363L362.153 43.3019C383.928 45.3899 393.772 55.6809 393.772 73.5784C393.772 93.1165 381.542 106.241 349.326 106.241C316.664 106.241 305.328 89.2387 304.284 71.4904H329.788ZM444.91 103.706V4.52403H502.778C523.957 4.52403 532.757 15.5608 532.757 28.9839C532.757 43.6002 523.957 50.0134 512.026 52.5489C524.554 54.7861 534.248 60.4536 534.248 76.7105C534.248 93.7131 522.913 103.706 501.734 103.706H444.91ZM471.16 84.0186H495.023C503.972 84.0186 506.805 79.3951 506.805 72.9818C506.805 66.5686 503.673 61.7959 494.277 61.7959H471.16V84.0186ZM471.16 44.6442H494.277C502.778 44.6442 505.314 40.1698 505.314 34.3531C505.314 27.9399 502.182 24.2112 494.426 24.2112H471.16V44.6442ZM545.817 65.972V4.52403H572.216V62.5416C572.216 79.8425 578.48 84.6152 592.053 84.6152C605.625 84.6152 611.889 79.8425 611.889 62.5416V4.52403H638.139V65.972C638.139 92.3708 622.627 106.092 592.053 106.092C561.478 106.092 545.817 92.5199 545.817 65.972ZM650.984 103.706V82.9746H668.434V25.2553H650.984V4.52403H712.133V25.2553H694.683V82.9746H712.133V103.706H650.984ZM727.18 103.706V4.52403H753.727V82.9746H798.322V103.706H727.18ZM810.054 103.706V4.52403H860.167C892.383 4.52403 907.148 28.089 907.148 53.8912C907.148 79.6934 892.383 103.706 860.167 103.706H810.054ZM836.304 82.9746H854.201C872.248 82.9746 879.705 72.9818 879.705 53.8912C879.705 34.5023 872.099 25.2553 854.201 25.2553H836.304V82.9746ZM980.115 71.4904C980.861 79.6934 986.23 87.1507 1000.1 87.1507C1012.78 87.1507 1017.55 82.6763 1017.55 75.8156C1017.55 69.2532 1013.67 65.972 1006.22 64.928L984.59 62.5416C966.692 60.4536 956.401 50.3117 956.401 33.4583C956.401 14.8151 970.421 1.98856 999.057 1.98856C1029.63 1.98856 1041.86 16.6048 1043.2 34.204H1017.25C1016.21 26.2993 1010.24 21.0792 999.057 21.0792C988.915 21.0792 982.949 25.1061 982.949 31.6685C982.949 36.7395 985.932 40.4681 993.538 41.363L1012.48 43.3019C1034.26 45.3899 1044.1 55.6809 1044.1 73.5784C1044.1 93.1165 1031.87 106.241 999.653 106.241C966.99 106.241 955.655 89.2387 954.611 71.4904H980.115ZM1105.42 106.092C1066.35 106.092 1052.18 80.7374 1052.18 54.1895C1052.18 28.089 1066.35 1.98856 1105.42 1.98856C1144.8 1.98856 1158.82 28.2382 1158.82 54.1895C1158.82 80.5883 1144.8 106.092 1105.42 106.092ZM1079.62 54.1895C1079.62 73.5784 1084.99 84.7643 1105.42 84.7643C1126.16 84.7643 1131.38 73.5784 1131.38 54.1895C1131.38 34.5023 1126.16 23.4655 1105.42 23.4655C1084.99 23.4655 1079.62 34.5023 1079.62 54.1895ZM1300.88 4.52403V103.706H1274.63V21.5266L1250.76 103.706H1221.38L1197.37 21.0792V103.706H1171.12V4.52403H1216.31L1236.45 75.5173L1256.73 4.52403H1300.88ZM1343.17 62.8399V82.9746H1396.71V103.706H1316.92V4.52403H1396.26V25.2553H1343.17V43.6002H1391.79V62.8399H1343.17ZM1436.36 103.706V25.2553H1404.44V4.52403H1494.53V25.2553H1462.61V103.706H1436.36ZM1504.08 103.706V4.52403H1530.33V43.1527H1571.79V4.52403H1598.04V103.706H1571.79V63.5857H1530.33V103.706H1504.08ZM1613.29 103.706V82.9746H1630.74V25.2553H1613.29V4.52403H1674.44V25.2553H1656.99V82.9746H1674.44V103.706H1613.29ZM1764.96 82.5271V4.52403H1790.01V103.706H1746.91L1719.32 38.9767C1717.53 34.6514 1715.89 30.1771 1714.55 25.5535V103.706H1689.49V4.52403H1732.59L1760.48 70.5955C1761.97 74.175 1763.61 78.5002 1764.96 82.5271ZM1849.11 106.092C1816.74 106.092 1802.28 82.378 1802.28 54.1895C1802.28 25.4044 1818.24 1.98856 1856.86 1.98856C1891.17 1.98856 1904.59 17.9471 1905.93 37.336H1879.68C1878.49 28.6856 1871.18 22.2724 1857.01 22.2724C1839.26 22.2724 1829.72 31.8177 1829.72 54.1895C1829.72 75.219 1837.62 85.8083 1855.37 85.8083C1873.27 85.8083 1879.24 77.0088 1880.88 65.8228H1848.81V49.2677H1905.78V103.706H1883.86V85.5101C1879.98 96.0994 1870.88 106.092 1849.11 106.092Z"/>
</mask>
<path d="M1.98861 103.706V4.52403H28.5365V82.9746H73.131V103.706H1.98861ZM111.113 62.8399V82.9746H164.656V103.706H84.8634V4.52403H164.209V25.2553H111.113V43.6002H159.734V62.8399H111.113ZM204.308 103.706V25.2553H172.391V4.52403H262.475V25.2553H230.558V103.706H204.308ZM271.52 25.7027V4.52403H294.638V36.8886C294.638 46.4339 291.506 53.4438 277.188 53.4438H271.52V40.319H280.32V25.7027H271.52ZM329.788 71.4904C330.534 79.6934 335.903 87.1507 349.774 87.1507C362.451 87.1507 367.224 82.6763 367.224 75.8156C367.224 69.2532 363.346 65.972 355.889 64.928L334.263 62.5416C316.365 60.4536 306.074 50.3117 306.074 33.4583C306.074 14.8151 320.094 1.98856 348.73 1.98856C379.305 1.98856 391.535 16.6048 392.877 34.204H366.926C365.882 26.2993 359.916 21.0792 348.73 21.0792C338.588 21.0792 332.622 25.1061 332.622 31.6685C332.622 36.7395 335.605 40.4681 343.211 41.363L362.153 43.3019C383.928 45.3899 393.772 55.6809 393.772 73.5784C393.772 93.1165 381.542 106.241 349.326 106.241C316.664 106.241 305.328 89.2387 304.284 71.4904H329.788ZM444.91 103.706V4.52403H502.778C523.957 4.52403 532.757 15.5608 532.757 28.9839C532.757 43.6002 523.957 50.0134 512.026 52.5489C524.554 54.7861 534.248 60.4536 534.248 76.7105C534.248 93.7131 522.913 103.706 501.734 103.706H444.91ZM471.16 84.0186H495.023C503.972 84.0186 506.805 79.3951 506.805 72.9818C506.805 66.5686 503.673 61.7959 494.277 61.7959H471.16V84.0186ZM471.16 44.6442H494.277C502.778 44.6442 505.314 40.1698 505.314 34.3531C505.314 27.9399 502.182 24.2112 494.426 24.2112H471.16V44.6442ZM545.817 65.972V4.52403H572.216V62.5416C572.216 79.8425 578.48 84.6152 592.053 84.6152C605.625 84.6152 611.889 79.8425 611.889 62.5416V4.52403H638.139V65.972C638.139 92.3708 622.627 106.092 592.053 106.092C561.478 106.092 545.817 92.5199 545.817 65.972ZM650.984 103.706V82.9746H668.434V25.2553H650.984V4.52403H712.133V25.2553H694.683V82.9746H712.133V103.706H650.984ZM727.18 103.706V4.52403H753.727V82.9746H798.322V103.706H727.18ZM810.054 103.706V4.52403H860.167C892.383 4.52403 907.148 28.089 907.148 53.8912C907.148 79.6934 892.383 103.706 860.167 103.706H810.054ZM836.304 82.9746H854.201C872.248 82.9746 879.705 72.9818 879.705 53.8912C879.705 34.5023 872.099 25.2553 854.201 25.2553H836.304V82.9746ZM980.115 71.4904C980.861 79.6934 986.23 87.1507 1000.1 87.1507C1012.78 87.1507 1017.55 82.6763 1017.55 75.8156C1017.55 69.2532 1013.67 65.972 1006.22 64.928L984.59 62.5416C966.692 60.4536 956.401 50.3117 956.401 33.4583C956.401 14.8151 970.421 1.98856 999.057 1.98856C1029.63 1.98856 1041.86 16.6048 1043.2 34.204H1017.25C1016.21 26.2993 1010.24 21.0792 999.057 21.0792C988.915 21.0792 982.949 25.1061 982.949 31.6685C982.949 36.7395 985.932 40.4681 993.538 41.363L1012.48 43.3019C1034.26 45.3899 1044.1 55.6809 1044.1 73.5784C1044.1 93.1165 1031.87 106.241 999.653 106.241C966.99 106.241 955.655 89.2387 954.611 71.4904H980.115ZM1105.42 106.092C1066.35 106.092 1052.18 80.7374 1052.18 54.1895C1052.18 28.089 1066.35 1.98856 1105.42 1.98856C1144.8 1.98856 1158.82 28.2382 1158.82 54.1895C1158.82 80.5883 1144.8 106.092 1105.42 106.092ZM1079.62 54.1895C1079.62 73.5784 1084.99 84.7643 1105.42 84.7643C1126.16 84.7643 1131.38 73.5784 1131.38 54.1895C1131.38 34.5023 1126.16 23.4655 1105.42 23.4655C1084.99 23.4655 1079.62 34.5023 1079.62 54.1895ZM1300.88 4.52403V103.706H1274.63V21.5266L1250.76 103.706H1221.38L1197.37 21.0792V103.706H1171.12V4.52403H1216.31L1236.45 75.5173L1256.73 4.52403H1300.88ZM1343.17 62.8399V82.9746H1396.71V103.706H1316.92V4.52403H1396.26V25.2553H1343.17V43.6002H1391.79V62.8399H1343.17ZM1436.36 103.706V25.2553H1404.44V4.52403H1494.53V25.2553H1462.61V103.706H1436.36ZM1504.08 103.706V4.52403H1530.33V43.1527H1571.79V4.52403H1598.04V103.706H1571.79V63.5857H1530.33V103.706H1504.08ZM1613.29 103.706V82.9746H1630.74V25.2553H1613.29V4.52403H1674.44V25.2553H1656.99V82.9746H1674.44V103.706H1613.29ZM1764.96 82.5271V4.52403H1790.01V103.706H1746.91L1719.32 38.9767C1717.53 34.6514 1715.89 30.1771 1714.55 25.5535V103.706H1689.49V4.52403H1732.59L1760.48 70.5955C1761.97 74.175 1763.61 78.5002 1764.96 82.5271ZM1849.11 106.092C1816.74 106.092 1802.28 82.378 1802.28 54.1895C1802.28 25.4044 1818.24 1.98856 1856.86 1.98856C1891.17 1.98856 1904.59 17.9471 1905.93 37.336H1879.68C1878.49 28.6856 1871.18 22.2724 1857.01 22.2724C1839.26 22.2724 1829.72 31.8177 1829.72 54.1895C1829.72 75.219 1837.62 85.8083 1855.37 85.8083C1873.27 85.8083 1879.24 77.0088 1880.88 65.8228H1848.81V49.2677H1905.78V103.706H1883.86V85.5101C1879.98 96.0994 1870.88 106.092 1849.11 106.092Z" fill="#3A3A39"/>
<path d="M1.98861 103.706H4.76837e-06V105.694H1.98861V103.706ZM1.98861 4.52403V2.53543H4.76837e-06V4.52403H1.98861ZM28.5365 4.52403H30.5251V2.53543H28.5365V4.52403ZM28.5365 82.9746H26.5479V84.9632H28.5365V82.9746ZM73.131 82.9746H75.1196V80.986H73.131V82.9746ZM73.131 103.706V105.694H75.1196V103.706H73.131ZM1.98861 103.706H3.97722V4.52403H1.98861H4.76837e-06V103.706H1.98861ZM1.98861 4.52403V6.51264H28.5365V4.52403V2.53543H1.98861V4.52403ZM28.5365 4.52403H26.5479V82.9746H28.5365H30.5251V4.52403H28.5365ZM28.5365 82.9746V84.9632H73.131V82.9746V80.986H28.5365V82.9746ZM73.131 82.9746H71.1424V103.706H73.131H75.1196V82.9746H73.131ZM73.131 103.706V101.717H1.98861V103.706V105.694H73.131V103.706ZM111.113 62.8399V60.8513H109.124V62.8399H111.113ZM111.113 82.9746H109.124V84.9632H111.113V82.9746ZM164.656 82.9746H166.645V80.986H164.656V82.9746ZM164.656 103.706V105.694H166.645V103.706H164.656ZM84.8634 103.706H82.8748V105.694H84.8634V103.706ZM84.8634 4.52403V2.53543H82.8748V4.52403H84.8634ZM164.209 4.52403H166.197V2.53543H164.209V4.52403ZM164.209 25.2553V27.2439H166.197V25.2553H164.209ZM111.113 25.2553V23.2667H109.124V25.2553H111.113ZM111.113 43.6002H109.124V45.5888H111.113V43.6002ZM159.734 43.6002H161.723V41.6116H159.734V43.6002ZM159.734 62.8399V64.8285H161.723V62.8399H159.734ZM111.113 62.8399H109.124V82.9746H111.113H113.102V62.8399H111.113ZM111.113 82.9746V84.9632H164.656V82.9746V80.986H111.113V82.9746ZM164.656 82.9746H162.668V103.706H164.656H166.645V82.9746H164.656ZM164.656 103.706V101.717H84.8634V103.706V105.694H164.656V103.706ZM84.8634 103.706H86.852V4.52403H84.8634H82.8748V103.706H84.8634ZM84.8634 4.52403V6.51264H164.209V4.52403V2.53543H84.8634V4.52403ZM164.209 4.52403H162.22V25.2553H164.209H166.197V4.52403H164.209ZM164.209 25.2553V23.2667H111.113V25.2553V27.2439H164.209V25.2553ZM111.113 25.2553H109.124V43.6002H111.113H113.102V25.2553H111.113ZM111.113 43.6002V45.5888H159.734V43.6002V41.6116H111.113V43.6002ZM159.734 43.6002H157.746V62.8399H159.734H161.723V43.6002H159.734ZM159.734 62.8399V60.8513H111.113V62.8399V64.8285H159.734V62.8399ZM204.308 103.706H202.319V105.694H204.308V103.706ZM204.308 25.2553H206.297V23.2667H204.308V25.2553ZM172.391 25.2553H170.402V27.2439H172.391V25.2553ZM172.391 4.52403V2.53543H170.402V4.52403H172.391ZM262.475 4.52403H264.463V2.53543H262.475V4.52403ZM262.475 25.2553V27.2439H264.463V25.2553H262.475ZM230.558 25.2553V23.2667H228.569V25.2553H230.558ZM230.558 103.706V105.694H232.546V103.706H230.558ZM204.308 103.706H206.297V25.2553H204.308H202.319V103.706H204.308ZM204.308 25.2553V23.2667H172.391V25.2553V27.2439H204.308V25.2553ZM172.391 25.2553H174.379V4.52403H172.391H170.402V25.2553H172.391ZM172.391 4.52403V6.51264H262.475V4.52403V2.53543H172.391V4.52403ZM262.475 4.52403H260.486V25.2553H262.475H264.463V4.52403H262.475ZM262.475 25.2553V23.2667H230.558V25.2553V27.2439H262.475V25.2553ZM230.558 25.2553H228.569V103.706H230.558H232.546V25.2553H230.558ZM230.558 103.706V101.717H204.308V103.706V105.694H230.558V103.706ZM271.52 25.7027H269.532V27.6913H271.52V25.7027ZM271.52 4.52403V2.53543H269.532V4.52403H271.52ZM294.638 4.52403H296.626V2.53543H294.638V4.52403ZM271.52 53.4438H269.532V55.4324H271.52V53.4438ZM271.52 40.319V38.3304H269.532V40.319H271.52ZM280.32 40.319V42.3076H282.308V40.319H280.32ZM280.32 25.7027H282.308V23.7141H280.32V25.7027ZM271.52 25.7027H273.509V4.52403H271.52H269.532V25.7027H271.52ZM271.52 4.52403V6.51264H294.638V4.52403V2.53543H271.52V4.52403ZM294.638 4.52403H292.649V36.8886H294.638H296.626V4.52403H294.638ZM294.638 36.8886H292.649C292.649 41.5214 291.872 45.0476 289.784 47.4375C287.745 49.7728 284.061 51.4552 277.188 51.4552V53.4438V55.4324C284.632 55.4324 289.674 53.6098 292.78 50.0538C295.838 46.5525 296.626 41.8012 296.626 36.8886H294.638ZM277.188 53.4438V51.4552H271.52V53.4438V55.4324H277.188V53.4438ZM271.52 53.4438H273.509V40.319H271.52H269.532V53.4438H271.52ZM271.52 40.319V42.3076H280.32V40.319V38.3304H271.52V40.319ZM280.32 40.319H282.308V25.7027H280.32H278.331V40.319H280.32ZM280.32 25.7027V23.7141H271.52V25.7027V27.6913H280.32V25.7027ZM329.788 71.4904L331.769 71.3103L331.604 69.5018H329.788V71.4904ZM355.889 64.928L356.165 62.9586L356.136 62.9545L356.107 62.9514L355.889 64.928ZM334.263 62.5416L334.032 64.5169L334.045 64.5182L334.263 62.5416ZM392.877 34.204V36.1926H395.023L394.86 34.0528L392.877 34.204ZM366.926 34.204L364.954 34.4644L365.182 36.1926H366.926V34.204ZM343.211 41.363L342.979 43.338L342.994 43.3397L343.009 43.3413L343.211 41.363ZM362.153 43.3019L361.95 45.2802L361.963 45.2814L362.153 43.3019ZM304.284 71.4904V69.5018H302.175L302.299 71.6071L304.284 71.4904ZM329.788 71.4904L327.808 71.6704C328.214 76.1408 329.899 80.5653 333.519 83.8661C337.146 87.1725 342.481 89.1393 349.774 89.1393V87.1507V85.162C343.196 85.162 338.911 83.4002 336.199 80.9271C333.481 78.4486 332.108 75.043 331.769 71.3103L329.788 71.4904ZM349.774 87.1507V89.1393C356.285 89.1393 361.137 88.0014 364.406 85.6763C367.801 83.2608 369.212 79.766 369.212 75.8156H367.224H365.235C365.235 78.7259 364.26 80.8987 362.1 82.4355C359.813 84.0627 355.94 85.162 349.774 85.162V87.1507ZM367.224 75.8156H369.212C369.212 72.1126 368.1 69.0748 365.708 66.8472C363.383 64.6819 360.087 63.5078 356.165 62.9586L355.889 64.928L355.613 66.8974C359.148 67.3922 361.519 68.3807 362.997 69.7576C364.409 71.0722 365.235 72.9562 365.235 75.8156H367.224ZM355.889 64.928L356.107 62.9514L334.481 60.565L334.263 62.5416L334.045 64.5182L355.671 66.9046L355.889 64.928ZM334.263 62.5416L334.493 60.5664C325.856 59.5588 319.282 56.6354 314.876 52.1444C310.494 47.6769 308.063 41.4612 308.063 33.4583H306.074H304.086C304.086 42.3088 306.8 49.5907 312.037 54.9296C317.252 60.2449 324.772 63.4365 334.032 64.5169L334.263 62.5416ZM306.074 33.4583H308.063C308.063 24.6824 311.336 17.4202 317.888 12.299C324.504 7.12843 334.676 3.97717 348.73 3.97717V1.98856V-4.57764e-05C334.148 -4.57764e-05 322.992 3.26195 315.439 9.1654C307.822 15.1183 304.086 23.591 304.086 33.4583H306.074ZM348.73 1.98856V3.97717C363.717 3.97717 373.914 7.55925 380.495 13.0263C387.051 18.4723 390.256 25.984 390.894 34.3552L392.877 34.204L394.86 34.0528C394.156 24.8248 390.574 16.2288 383.036 9.9669C375.523 3.726 364.317 -4.57764e-05 348.73 -4.57764e-05V1.98856ZM392.877 34.204V32.2154H366.926V34.204V36.1926H392.877V34.204ZM366.926 34.204L368.897 33.9436C368.315 29.5335 366.328 25.7469 362.833 23.0935C359.37 20.4641 354.617 19.0906 348.73 19.0906V21.0792V23.0678C354.029 23.0678 357.851 24.3043 360.428 26.2611C362.974 28.194 364.493 30.9697 364.954 34.4644L366.926 34.204ZM348.73 21.0792V19.0906C343.435 19.0906 338.975 20.1357 335.775 22.2549C332.488 24.4311 330.633 27.6863 330.633 31.6685H332.622H334.611C334.611 29.0884 335.739 27.0489 337.971 25.571C340.289 24.0362 343.883 23.0678 348.73 23.0678V21.0792ZM332.622 31.6685H330.633C330.633 34.6118 331.512 37.3656 333.666 39.4957C335.784 41.5908 338.912 42.8595 342.979 43.338L343.211 41.363L343.444 39.388C339.904 38.9716 337.737 37.9285 336.463 36.6679C335.223 35.4422 334.611 33.7962 334.611 31.6685H332.622ZM343.211 41.363L343.009 43.3413L361.95 45.2801L362.153 43.3019L362.355 41.3236L343.414 39.3847L343.211 41.363ZM362.153 43.3019L361.963 45.2814C372.603 46.3016 380.001 49.2985 384.737 53.933C389.435 58.5298 391.783 65.0023 391.783 73.5784H393.772H395.76C395.76 64.2571 393.186 56.6353 387.519 51.0902C381.89 45.5828 373.478 42.3902 362.343 41.3223L362.153 43.3019ZM393.772 73.5784H391.783C391.783 82.9092 388.884 90.4353 382.38 95.6898C375.797 101.008 365.214 104.253 349.326 104.253V106.241V108.23C365.654 108.23 377.294 104.912 384.88 98.7835C392.545 92.591 395.76 83.7857 395.76 73.5784H393.772ZM349.326 106.241V104.253C333.333 104.253 322.871 100.094 316.293 94.0565C309.717 88.0194 306.769 79.8691 306.27 71.3736L304.284 71.4904L302.299 71.6071C302.844 80.86 306.086 90.0852 313.604 96.9864C321.12 103.887 332.657 108.23 349.326 108.23V106.241ZM304.284 71.4904V73.479H329.788V71.4904V69.5018H304.284V71.4904ZM444.91 103.706H442.921V105.694H444.91V103.706ZM444.91 4.52403V2.53543H442.921V4.52403H444.91ZM512.026 52.5489L511.612 50.6037L511.676 54.5065L512.026 52.5489ZM471.16 84.0186H469.171V86.0072H471.16V84.0186ZM471.16 61.7959V59.8073H469.171V61.7959H471.16ZM471.16 44.6442H469.171V46.6328H471.16V44.6442ZM471.16 24.2112V22.2226H469.171V24.2112H471.16ZM444.91 103.706H446.899V4.52403H444.91H442.921V103.706H444.91ZM444.91 4.52403V6.51264H502.779V4.52403V2.53543H444.91V4.52403ZM502.779 4.52403V6.51264C513.036 6.51264 519.992 9.18282 524.367 13.1871C528.725 17.1762 530.768 22.715 530.768 28.9839H532.757H534.745C534.745 21.8297 532.389 15.1386 527.052 10.2535C521.732 5.38364 513.699 2.53543 502.779 2.53543V4.52403ZM532.757 28.9839H530.768C530.768 35.8591 528.715 40.585 525.449 43.9011C522.133 47.2667 517.371 49.38 511.612 50.6037L512.026 52.5489L512.439 54.4941C518.612 53.1823 524.215 50.8213 528.282 46.6922C532.398 42.5138 534.745 36.7249 534.745 28.9839H532.757ZM512.026 52.5489L511.676 54.5065C517.787 55.5978 522.898 57.4799 526.477 60.8252C529.984 64.1022 532.26 69.0115 532.26 76.7105H534.248H536.237C536.237 68.1526 533.666 62.0996 529.193 57.9194C524.793 53.8074 518.792 51.7372 512.375 50.5913L512.026 52.5489ZM534.248 76.7105H532.26C532.26 84.7428 529.602 90.8879 524.651 95.0641C519.65 99.2831 512.041 101.717 501.734 101.717V103.706V105.694C512.606 105.694 521.255 103.132 527.216 98.1041C533.227 93.0333 536.237 85.6807 536.237 76.7105H534.248ZM501.734 103.706V101.717H444.91V103.706V105.694H501.734V103.706ZM471.16 84.0186V86.0072H495.023V84.0186V82.03H471.16V84.0186ZM495.023 84.0186V86.0072C499.82 86.0072 503.389 84.764 505.724 82.2621C508.035 79.7856 508.794 76.4391 508.794 72.9818H506.805H504.817C504.817 75.9379 504.159 78.1097 502.816 79.5483C501.497 80.9615 499.175 82.03 495.023 82.03V84.0186ZM506.805 72.9818H508.794C508.794 69.4801 507.939 66.0926 505.484 63.5911C503.023 61.0828 499.29 59.8073 494.277 59.8073V61.7959V63.7845C498.661 63.7845 501.192 64.8954 502.646 66.3767C504.106 67.8649 504.817 70.0703 504.817 72.9818H506.805ZM494.277 61.7959V59.8073H471.16V61.7959V63.7845H494.277V61.7959ZM471.16 61.7959H469.171V84.0186H471.16H473.148V61.7959H471.16ZM471.16 44.6442V46.6328H494.277V44.6442V42.6556H471.16V44.6442ZM494.277 44.6442V46.6328C498.86 46.6328 502.246 45.4212 504.448 43.0257C506.621 40.6616 507.303 37.5067 507.303 34.3531H505.314H503.325C503.325 37.0162 502.74 39.0069 501.52 40.3342C500.328 41.63 498.196 42.6556 494.277 42.6556V44.6442ZM505.314 34.3531H507.303C507.303 30.8511 506.447 27.7092 504.177 25.4636C501.912 23.2227 498.591 22.2226 494.426 22.2226V24.2112V26.1998C498.018 26.1998 500.14 27.0641 501.38 28.2909C502.615 29.5129 503.325 31.442 503.325 34.3531H505.314ZM494.426 24.2112V22.2226H471.16V24.2112V26.1998H494.426V24.2112ZM471.16 24.2112H469.171V44.6442H471.16H473.148V24.2112H471.16ZM545.818 4.52403V2.53543H543.829V4.52403H545.818ZM572.216 4.52403H574.205V2.53543H572.216V4.52403ZM611.889 4.52403V2.53543H609.9V4.52403H611.889ZM638.139 4.52403H640.127V2.53543H638.139V4.52403ZM545.818 65.972H547.806V4.52403H545.818H543.829V65.972H545.818ZM545.818 4.52403V6.51264H572.216V4.52403V2.53543H545.818V4.52403ZM572.216 4.52403H570.228V62.5416H572.216H574.205V4.52403H572.216ZM572.216 62.5416H570.228C570.228 71.335 571.799 77.5235 575.619 81.4525C579.462 85.4049 585.122 86.6038 592.053 86.6038V84.6152V82.6266C585.411 82.6266 581.153 81.4392 578.471 78.68C575.765 75.8974 574.205 71.0491 574.205 62.5416H572.216ZM592.053 84.6152V86.6038C598.983 86.6038 604.644 85.4049 608.486 81.4525C612.306 77.5235 613.878 71.335 613.878 62.5416H611.889H609.9C609.9 71.0491 608.34 75.8974 605.635 78.68C602.952 81.4392 598.694 82.6266 592.053 82.6266V84.6152ZM611.889 62.5416H613.878V4.52403H611.889H609.9V62.5416H611.889ZM611.889 4.52403V6.51264H638.139V4.52403V2.53543H611.889V4.52403ZM638.139 4.52403H636.15V65.972H638.139H640.127V4.52403H638.139ZM638.139 65.972H636.15C636.15 78.7753 632.402 88.1848 625.252 94.4343C618.054 100.726 607.082 104.104 592.053 104.104V106.092V108.081C607.598 108.081 619.669 104.597 627.87 97.4288C636.119 90.218 640.127 79.5674 640.127 65.972H638.139ZM592.053 106.092V104.104C577.018 104.104 566.008 100.762 558.773 94.4854C551.589 88.2541 547.806 78.8471 547.806 65.972H545.818H543.829C543.829 79.6447 547.876 90.2978 556.166 97.4897C564.405 104.637 576.512 108.081 592.053 108.081V106.092ZM650.984 103.706H648.995V105.694H650.984V103.706ZM650.984 82.9746V80.986H648.995V82.9746H650.984ZM668.434 82.9746V84.9632H670.422V82.9746H668.434ZM668.434 25.2553H670.422V23.2667H668.434V25.2553ZM650.984 25.2553H648.995V27.2439H650.984V25.2553ZM650.984 4.52403V2.53543H648.995V4.52403H650.984ZM712.133 4.52403H714.122V2.53543H712.133V4.52403ZM712.133 25.2553V27.2439H714.122V25.2553H712.133ZM694.683 25.2553V23.2667H692.695V25.2553H694.683ZM694.683 82.9746H692.695V84.9632H694.683V82.9746ZM712.133 82.9746H714.122V80.986H712.133V82.9746ZM712.133 103.706V105.694H714.122V103.706H712.133ZM650.984 103.706H652.972V82.9746H650.984H648.995V103.706H650.984ZM650.984 82.9746V84.9632H668.434V82.9746V80.986H650.984V82.9746ZM668.434 82.9746H670.422V25.2553H668.434H666.445V82.9746H668.434ZM668.434 25.2553V23.2667H650.984V25.2553V27.2439H668.434V25.2553ZM650.984 25.2553H652.972V4.52403H650.984H648.995V25.2553H650.984ZM650.984 4.52403V6.51264H712.133V4.52403V2.53543H650.984V4.52403ZM712.133 4.52403H710.145V25.2553H712.133H714.122V4.52403H712.133ZM712.133 25.2553V23.2667H694.683V25.2553V27.2439H712.133V25.2553ZM694.683 25.2553H692.695V82.9746H694.683H696.672V25.2553H694.683ZM694.683 82.9746V84.9632H712.133V82.9746V80.986H694.683V82.9746ZM712.133 82.9746H710.145V103.706H712.133H714.122V82.9746H712.133ZM712.133 103.706V101.717H650.984V103.706V105.694H712.133V103.706ZM727.18 103.706H725.191V105.694H727.18V103.706ZM727.18 4.52403V2.53543H725.191V4.52403H727.18ZM753.727 4.52403H755.716V2.53543H753.727V4.52403ZM753.727 82.9746H751.739V84.9632H753.727V82.9746ZM798.322 82.9746H800.311V80.986H798.322V82.9746ZM798.322 103.706V105.694H800.311V103.706H798.322ZM727.18 103.706H729.168V4.52403H727.18H725.191V103.706H727.18ZM727.18 4.52403V6.51264H753.727V4.52403V2.53543H727.18V4.52403ZM753.727 4.52403H751.739V82.9746H753.727H755.716V4.52403H753.727ZM753.727 82.9746V84.9632H798.322V82.9746V80.986H753.727V82.9746ZM798.322 82.9746H796.333V103.706H798.322H800.311V82.9746H798.322ZM798.322 103.706V101.717H727.18V103.706V105.694H798.322V103.706ZM810.054 103.706H808.066V105.694H810.054V103.706ZM810.054 4.52403V2.53543H808.066V4.52403H810.054ZM836.304 82.9746H834.315V84.9632H836.304V82.9746ZM836.304 25.2553V23.2667H834.315V25.2553H836.304ZM810.054 103.706H812.043V4.52403H810.054H808.066V103.706H810.054ZM810.054 4.52403V6.51264H860.167V4.52403V2.53543H810.054V4.52403ZM860.167 4.52403V6.51264C875.745 6.51264 886.914 12.1863 894.221 20.8167C901.568 29.4955 905.16 41.3462 905.16 53.8912H907.148H909.137C909.137 40.6341 905.345 27.8011 897.256 18.2469C889.126 8.64422 876.805 2.53543 860.167 2.53543V4.52403ZM907.148 53.8912H905.16C905.16 66.4374 901.568 78.4051 894.213 87.1985C886.901 95.9414 875.732 101.717 860.167 101.717V103.706V105.694C876.818 105.694 889.14 99.464 897.264 89.7501C905.346 80.0868 909.137 67.1472 909.137 53.8912H907.148ZM860.167 103.706V101.717H810.054V103.706V105.694H860.167V103.706ZM836.304 82.9746V84.9632H854.201V82.9746V80.986H836.304V82.9746ZM854.201 82.9746V84.9632C863.589 84.9632 870.62 82.3521 875.241 76.8741C879.801 71.4676 881.694 63.6355 881.694 53.8912H879.705H877.717C877.717 63.2375 875.881 69.9471 872.201 74.3097C868.581 78.6007 862.86 80.986 854.201 80.986V82.9746ZM879.705 53.8912H881.694C881.694 43.9991 879.765 36.2595 875.162 30.9937C870.508 25.6687 863.475 23.2667 854.201 23.2667V25.2553V27.2439C862.825 27.2439 868.544 29.4653 872.168 33.6111C875.843 37.816 877.717 44.3944 877.717 53.8912H879.705ZM854.201 25.2553V23.2667H836.304V25.2553V27.2439H854.201V25.2553ZM836.304 25.2553H834.315V82.9746H836.304H838.293V25.2553H836.304ZM980.115 71.4904L982.096 71.3103L981.931 69.5018H980.115V71.4904ZM1006.22 64.928L1006.49 62.9586L1006.46 62.9545L1006.43 62.9514L1006.22 64.928ZM984.59 62.5416L984.359 64.5169L984.372 64.5182L984.59 62.5416ZM1043.2 34.204V36.1926H1045.35L1045.19 34.0528L1043.2 34.204ZM1017.25 34.204L1015.28 34.4644L1015.51 36.1926H1017.25V34.204ZM993.538 41.363L993.306 43.338L993.321 43.3397L993.336 43.3413L993.538 41.363ZM1012.48 43.3019L1012.28 45.2802L1012.29 45.2814L1012.48 43.3019ZM954.611 71.4904V69.5018H952.502L952.626 71.6071L954.611 71.4904ZM980.115 71.4904L978.135 71.6704C978.541 76.1408 980.226 80.5653 983.846 83.8661C987.473 87.1725 992.808 89.1393 1000.1 89.1393V87.1507V85.162C993.523 85.162 989.238 83.4002 986.526 80.9271C983.808 78.4486 982.435 75.043 982.096 71.3103L980.115 71.4904ZM1000.1 87.1507V89.1393C1006.61 89.1393 1011.46 88.0014 1014.73 85.6763C1018.13 83.2608 1019.54 79.766 1019.54 75.8156H1017.55H1015.56C1015.56 78.7259 1014.59 80.8987 1012.43 82.4355C1010.14 84.0627 1006.27 85.162 1000.1 85.162V87.1507ZM1017.55 75.8156H1019.54C1019.54 72.1126 1018.43 69.0748 1016.04 66.8472C1013.71 64.6819 1010.41 63.5078 1006.49 62.9586L1006.22 64.928L1005.94 66.8974C1009.47 67.3922 1011.85 68.3807 1013.32 69.7576C1014.74 71.0722 1015.56 72.9562 1015.56 75.8156H1017.55ZM1006.22 64.928L1006.43 62.9514L984.808 60.565L984.59 62.5416L984.372 64.5182L1006 66.9046L1006.22 64.928ZM984.59 62.5416L984.82 60.5664C976.183 59.5588 969.609 56.6354 965.203 52.1444C960.821 47.6769 958.39 41.4612 958.39 33.4583H956.401H954.413C954.413 42.3088 957.127 49.5907 962.364 54.9296C967.579 60.2449 975.099 63.4365 984.359 64.5169L984.59 62.5416ZM956.401 33.4583H958.39C958.39 24.6824 961.663 17.4202 968.215 12.299C974.831 7.12843 985.003 3.97717 999.057 3.97717V1.98856V-4.57764e-05C984.474 -4.57764e-05 973.319 3.26195 965.766 9.1654C958.149 15.1183 954.413 23.591 954.413 33.4583H956.401ZM999.057 1.98856V3.97717C1014.04 3.97717 1024.24 7.55925 1030.82 13.0263C1037.38 18.4723 1040.58 25.984 1041.22 34.3552L1043.2 34.204L1045.19 34.0528C1044.48 24.8248 1040.9 16.2288 1033.36 9.9669C1025.85 3.726 1014.64 -4.57764e-05 999.057 -4.57764e-05V1.98856ZM1043.2 34.204V32.2154H1017.25V34.204V36.1926H1043.2V34.204ZM1017.25 34.204L1019.22 33.9436C1018.64 29.5335 1016.66 25.7469 1013.16 23.0935C1009.7 20.4641 1004.94 19.0906 999.057 19.0906V21.0792V23.0678C1004.36 23.0678 1008.18 24.3043 1010.76 26.2611C1013.3 28.194 1014.82 30.9697 1015.28 34.4644L1017.25 34.204ZM999.057 21.0792V19.0906C993.762 19.0906 989.302 20.1357 986.102 22.2549C982.815 24.4311 980.96 27.6863 980.96 31.6685H982.949H984.938C984.938 29.0884 986.066 27.0489 988.298 25.571C990.615 24.0362 994.209 23.0678 999.057 23.0678V21.0792ZM982.949 31.6685H980.96C980.96 34.6118 981.839 37.3656 983.993 39.4957C986.111 41.5908 989.239 42.8595 993.306 43.338L993.538 41.363L993.771 39.388C990.231 38.9716 988.064 37.9285 986.79 36.6679C985.55 35.4422 984.938 33.7962 984.938 31.6685H982.949ZM993.538 41.363L993.336 43.3413L1012.28 45.2801L1012.48 43.3019L1012.68 41.3236L993.741 39.3847L993.538 41.363ZM1012.48 43.3019L1012.29 45.2814C1022.93 46.3016 1030.33 49.2985 1035.06 53.933C1039.76 58.5298 1042.11 65.0023 1042.11 73.5784H1044.1H1046.09C1046.09 64.2571 1043.51 56.6353 1037.85 51.0902C1032.22 45.5828 1023.81 42.3902 1012.67 41.3223L1012.48 43.3019ZM1044.1 73.5784H1042.11C1042.11 82.9092 1039.21 90.4353 1032.71 95.6898C1026.12 101.008 1015.54 104.253 999.653 104.253V106.241V108.23C1015.98 108.23 1027.62 104.912 1035.21 98.7835C1042.87 92.591 1046.09 83.7857 1046.09 73.5784H1044.1ZM999.653 106.241V104.253C983.66 104.253 973.197 100.094 966.62 94.0565C960.044 88.0194 957.096 79.8691 956.597 71.3736L954.611 71.4904L952.626 71.6071C953.17 80.86 956.413 90.0852 963.93 96.9864C971.447 103.887 982.984 108.23 999.653 108.23V106.241ZM954.611 71.4904V73.479H980.115V71.4904V69.5018H954.611V71.4904ZM1105.42 106.092V104.104C1086.34 104.104 1073.63 97.9327 1065.65 88.7888C1057.63 79.5961 1054.17 67.1384 1054.17 54.1895H1052.18H1050.19C1050.19 67.7885 1053.82 81.2821 1062.65 91.4037C1071.52 101.574 1085.43 108.081 1105.42 108.081V106.092ZM1052.18 54.1895H1054.17C1054.17 41.4695 1057.62 28.9286 1065.66 19.5988C1073.64 10.3218 1086.36 3.97717 1105.42 3.97717V1.98856V-4.57764e-05C1085.41 -4.57764e-05 1071.51 6.70558 1062.64 17.0039C1053.82 27.2495 1050.19 40.809 1050.19 54.1895H1052.18ZM1105.42 1.98856V3.97717C1124.64 3.97717 1137.39 10.3595 1145.38 19.6533C1153.41 29.0008 1156.83 41.5415 1156.83 54.1895H1158.82H1160.81C1160.81 40.8861 1157.22 27.3264 1148.39 17.0612C1139.53 6.74238 1125.59 -4.57764e-05 1105.42 -4.57764e-05V1.98856ZM1158.82 54.1895H1156.83C1156.83 67.0663 1153.41 79.5239 1145.39 88.7343C1137.41 97.895 1124.65 104.104 1105.42 104.104V106.092V108.081C1125.57 108.081 1139.51 101.537 1148.39 91.3464C1157.22 81.2052 1160.81 67.7114 1160.81 54.1895H1158.82ZM1079.62 54.1895H1077.63C1077.63 63.9696 1078.97 72.1745 1083.27 77.9373C1087.68 83.8431 1094.85 86.7529 1105.42 86.7529V84.7643V82.7757C1095.57 82.7757 1089.84 80.0926 1086.45 75.5582C1082.96 70.8808 1081.61 63.7983 1081.61 54.1895H1079.62ZM1105.42 84.7643V86.7529C1116.14 86.7529 1123.36 83.8486 1127.77 77.9373C1132.07 72.1709 1133.36 63.961 1133.36 54.1895H1131.38H1129.39C1129.39 63.8069 1128.07 70.8844 1124.58 75.5582C1121.2 80.0871 1115.44 82.7757 1105.42 82.7757V84.7643ZM1131.38 54.1895H1133.36C1133.36 44.2745 1132.07 36.0239 1127.77 30.2553C1123.35 24.3393 1116.13 21.4769 1105.42 21.4769V23.4655V25.4541C1115.45 25.4541 1121.2 28.1101 1124.58 32.6343C1128.07 37.3059 1129.39 44.4173 1129.39 54.1895H1131.38ZM1105.42 23.4655V21.4769C1094.86 21.4769 1087.68 24.3448 1083.27 30.2553C1078.96 36.0204 1077.63 44.2658 1077.63 54.1895H1079.62H1081.61C1081.61 44.426 1082.96 37.3094 1086.45 32.6343C1089.84 28.1046 1095.56 25.4541 1105.42 25.4541V23.4655ZM1300.88 4.52403H1302.87V2.53543H1300.88V4.52403ZM1300.88 103.706V105.694H1302.87V103.706H1300.88ZM1274.63 103.706H1272.64V105.694H1274.63V103.706ZM1274.63 21.5266H1276.62L1272.72 20.9721L1274.63 21.5266ZM1250.76 103.706V105.694H1252.26L1252.67 104.26L1250.76 103.706ZM1221.38 103.706L1219.47 104.261L1219.89 105.694H1221.38V103.706ZM1197.37 21.0792L1199.28 20.5242L1195.38 21.0792H1197.37ZM1197.37 103.706V105.694H1199.36V103.706H1197.37ZM1171.12 103.706H1169.13V105.694H1171.12V103.706ZM1171.12 4.52403V2.53543H1169.13V4.52403H1171.12ZM1216.31 4.52403L1218.22 3.98144L1217.81 2.53543H1216.31V4.52403ZM1236.45 75.5173L1234.53 76.0599L1236.44 82.7806L1238.36 76.0636L1236.45 75.5173ZM1256.73 4.52403V2.53543H1255.23L1254.82 3.97772L1256.73 4.52403ZM1300.88 4.52403H1298.89V103.706H1300.88H1302.87V4.52403H1300.88ZM1300.88 103.706V101.717H1274.63V103.706V105.694H1300.88V103.706ZM1274.63 103.706H1276.62V21.5266H1274.63H1272.64V103.706H1274.63ZM1274.63 21.5266L1272.72 20.9721L1248.85 103.151L1250.76 103.706L1252.67 104.26L1276.54 22.0812L1274.63 21.5266ZM1250.76 103.706V101.717H1221.38V103.706V105.694H1250.76V103.706ZM1221.38 103.706L1223.29 103.151L1199.28 20.5242L1197.37 21.0792L1195.46 21.6341L1219.47 104.261L1221.38 103.706ZM1197.37 21.0792H1195.38V103.706H1197.37H1199.36V21.0792H1197.37ZM1197.37 103.706V101.717H1171.12V103.706V105.694H1197.37V103.706ZM1171.12 103.706H1173.11V4.52403H1171.12H1169.13V103.706H1171.12ZM1171.12 4.52403V6.51264H1216.31V4.52403V2.53543H1171.12V4.52403ZM1216.31 4.52403L1214.4 5.06663L1234.53 76.0599L1236.45 75.5173L1238.36 74.9747L1218.22 3.98144L1216.31 4.52403ZM1236.45 75.5173L1238.36 76.0636L1258.64 5.07035L1256.73 4.52403L1254.82 3.97772L1234.53 74.971L1236.45 75.5173ZM1256.73 4.52403V6.51264H1300.88V4.52403V2.53543H1256.73V4.52403ZM1343.17 62.8399V60.8513H1341.18V62.8399H1343.17ZM1343.17 82.9746H1341.18V84.9632H1343.17V82.9746ZM1396.71 82.9746H1398.7V80.986H1396.71V82.9746ZM1396.71 103.706V105.694H1398.7V103.706H1396.71ZM1316.92 103.706H1314.93V105.694H1316.92V103.706ZM1316.92 4.52403V2.53543H1314.93V4.52403H1316.92ZM1396.26 4.52403H1398.25V2.53543H1396.26V4.52403ZM1396.26 25.2553V27.2439H1398.25V25.2553H1396.26ZM1343.17 25.2553V23.2667H1341.18V25.2553H1343.17ZM1343.17 43.6002H1341.18V45.5888H1343.17V43.6002ZM1391.79 43.6002H1393.78V41.6116H1391.79V43.6002ZM1391.79 62.8399V64.8285H1393.78V62.8399H1391.79ZM1343.17 62.8399H1341.18V82.9746H1343.17H1345.15V62.8399H1343.17ZM1343.17 82.9746V84.9632H1396.71V82.9746V80.986H1343.17V82.9746ZM1396.71 82.9746H1394.72V103.706H1396.71H1398.7V82.9746H1396.71ZM1396.71 103.706V101.717H1316.92V103.706V105.694H1396.71V103.706ZM1316.92 103.706H1318.9V4.52403H1316.92H1314.93V103.706H1316.92ZM1316.92 4.52403V6.51264H1396.26V4.52403V2.53543H1316.92V4.52403ZM1396.26 4.52403H1394.27V25.2553H1396.26H1398.25V4.52403H1396.26ZM1396.26 25.2553V23.2667H1343.17V25.2553V27.2439H1396.26V25.2553ZM1343.17 25.2553H1341.18V43.6002H1343.17H1345.15V25.2553H1343.17ZM1343.17 43.6002V45.5888H1391.79V43.6002V41.6116H1343.17V43.6002ZM1391.79 43.6002H1389.8V62.8399H1391.79H1393.78V43.6002H1391.79ZM1391.79 62.8399V60.8513H1343.17V62.8399V64.8285H1391.79V62.8399ZM1436.36 103.706H1434.37V105.694H1436.36V103.706ZM1436.36 25.2553H1438.35V23.2667H1436.36V25.2553ZM1404.44 25.2553H1402.45V27.2439H1404.44V25.2553ZM1404.44 4.52403V2.53543H1402.45V4.52403H1404.44ZM1494.53 4.52403H1496.52V2.53543H1494.53V4.52403ZM1494.53 25.2553V27.2439H1496.52V25.2553H1494.53ZM1462.61 25.2553V23.2667H1460.62V25.2553H1462.61ZM1462.61 103.706V105.694H1464.6V103.706H1462.61ZM1436.36 103.706H1438.35V25.2553H1436.36H1434.37V103.706H1436.36ZM1436.36 25.2553V23.2667H1404.44V25.2553V27.2439H1436.36V25.2553ZM1404.44 25.2553H1406.43V4.52403H1404.44H1402.45V25.2553H1404.44ZM1404.44 4.52403V6.51264H1494.53V4.52403V2.53543H1404.44V4.52403ZM1494.53 4.52403H1492.54V25.2553H1494.53H1496.52V4.52403H1494.53ZM1494.53 25.2553V23.2667H1462.61V25.2553V27.2439H1494.53V25.2553ZM1462.61 25.2553H1460.62V103.706H1462.61H1464.6V25.2553H1462.61ZM1462.61 103.706V101.717H1436.36V103.706V105.694H1462.61V103.706ZM1504.08 103.706H1502.09V105.694H1504.08V103.706ZM1504.08 4.52403V2.53543H1502.09V4.52403H1504.08ZM1530.33 4.52403H1532.31V2.53543H1530.33V4.52403ZM1530.33 43.1527H1528.34V45.1413H1530.33V43.1527ZM1571.79 43.1527V45.1413H1573.78V43.1527H1571.79ZM1571.79 4.52403V2.53543H1569.8V4.52403H1571.79ZM1598.04 4.52403H1600.03V2.53543H1598.04V4.52403ZM1598.04 103.706V105.694H1600.03V103.706H1598.04ZM1571.79 103.706H1569.8V105.694H1571.79V103.706ZM1571.79 63.5857H1573.78V61.5971H1571.79V63.5857ZM1530.33 63.5857V61.5971H1528.34V63.5857H1530.33ZM1530.33 103.706V105.694H1532.31V103.706H1530.33ZM1504.08 103.706H1506.06V4.52403H1504.08H1502.09V103.706H1504.08ZM1504.08 4.52403V6.51264H1530.33V4.52403V2.53543H1504.08V4.52403ZM1530.33 4.52403H1528.34V43.1527H1530.33H1532.31V4.52403H1530.33ZM1530.33 43.1527V45.1413H1571.79V43.1527V41.1641H1530.33V43.1527ZM1571.79 43.1527H1573.78V4.52403H1571.79H1569.8V43.1527H1571.79ZM1571.79 4.52403V6.51264H1598.04V4.52403V2.53543H1571.79V4.52403ZM1598.04 4.52403H1596.05V103.706H1598.04H1600.03V4.52403H1598.04ZM1598.04 103.706V101.717H1571.79V103.706V105.694H1598.04V103.706ZM1571.79 103.706H1573.78V63.5857H1571.79H1569.8V103.706H1571.79ZM1571.79 63.5857V61.5971H1530.33V63.5857V65.5743H1571.79V63.5857ZM1530.33 63.5857H1528.34V103.706H1530.33H1532.31V63.5857H1530.33ZM1530.33 103.706V101.717H1504.08V103.706V105.694H1530.33V103.706ZM1613.29 103.706H1611.3V105.694H1613.29V103.706ZM1613.29 82.9746V80.986H1611.3V82.9746H1613.29ZM1630.74 82.9746V84.9632H1632.73V82.9746H1630.74ZM1630.74 25.2553H1632.73V23.2667H1630.74V25.2553ZM1613.29 25.2553H1611.3V27.2439H1613.29V25.2553ZM1613.29 4.52403V2.53543H1611.3V4.52403H1613.29ZM1674.44 4.52403H1676.43V2.53543H1674.44V4.52403ZM1674.44 25.2553V27.2439H1676.43V25.2553H1674.44ZM1656.99 25.2553V23.2667H1655V25.2553H1656.99ZM1656.99 82.9746H1655V84.9632H1656.99V82.9746ZM1674.44 82.9746H1676.43V80.986H1674.44V82.9746ZM1674.44 103.706V105.694H1676.43V103.706H1674.44ZM1613.29 103.706H1615.28V82.9746H1613.29H1611.3V103.706H1613.29ZM1613.29 82.9746V84.9632H1630.74V82.9746V80.986H1613.29V82.9746ZM1630.74 82.9746H1632.73V25.2553H1630.74H1628.75V82.9746H1630.74ZM1630.74 25.2553V23.2667H1613.29V25.2553V27.2439H1630.74V25.2553ZM1613.29 25.2553H1615.28V4.52403H1613.29H1611.3V25.2553H1613.29ZM1613.29 4.52403V6.51264H1674.44V4.52403V2.53543H1613.29V4.52403ZM1674.44 4.52403H1672.45V25.2553H1674.44H1676.43V4.52403H1674.44ZM1674.44 25.2553V23.2667H1656.99V25.2553V27.2439H1674.44V25.2553ZM1656.99 25.2553H1655V82.9746H1656.99H1658.98V25.2553H1656.99ZM1656.99 82.9746V84.9632H1674.44V82.9746V80.986H1656.99V82.9746ZM1674.44 82.9746H1672.45V103.706H1674.44H1676.43V82.9746H1674.44ZM1674.44 103.706V101.717H1613.29V103.706V105.694H1674.44V103.706ZM1764.96 82.5271L1763.07 83.156L1766.94 82.5271H1764.96ZM1764.96 4.52403V2.53543H1762.97V4.52403H1764.96ZM1790.01 4.52403H1792V2.53543H1790.01V4.52403ZM1790.01 103.706V105.694H1792V103.706H1790.01ZM1746.91 103.706L1745.08 104.486L1745.6 105.694H1746.91V103.706ZM1719.32 38.9767L1717.48 39.737L1717.48 39.7467L1717.49 39.7564L1719.32 38.9767ZM1714.55 25.5536L1716.45 24.9991L1712.56 25.5536H1714.55ZM1714.55 103.706V105.694H1716.53V103.706H1714.55ZM1689.49 103.706H1687.5V105.694H1689.49V103.706ZM1689.49 4.52403V2.53543H1687.5V4.52403H1689.49ZM1732.59 4.52403L1734.42 3.75068L1733.91 2.53543H1732.59V4.52403ZM1760.48 70.5955L1762.32 69.8306L1762.31 69.8221L1760.48 70.5955ZM1764.96 82.5271H1766.94V4.52403H1764.96H1762.97V82.5271H1764.96ZM1764.96 4.52403V6.51264H1790.01V4.52403V2.53543H1764.96V4.52403ZM1790.01 4.52403H1788.02V103.706H1790.01H1792V4.52403H1790.01ZM1790.01 103.706V101.717H1746.91V103.706V105.694H1790.01V103.706ZM1746.91 103.706L1748.74 102.926L1721.15 38.1969L1719.32 38.9767L1717.49 39.7564L1745.08 104.486L1746.91 103.706ZM1719.32 38.9767L1721.16 38.2163C1719.39 33.9411 1717.77 29.5368 1716.45 24.9991L1714.55 25.5536L1712.64 26.108C1714 30.8173 1715.67 35.3618 1717.48 39.737L1719.32 38.9767ZM1714.55 25.5536H1712.56V103.706H1714.55H1716.53V25.5536H1714.55ZM1714.55 103.706V101.717H1689.49V103.706V105.694H1714.55V103.706ZM1689.49 103.706H1691.48V4.52403H1689.49H1687.5V103.706H1689.49ZM1689.49 4.52403V6.51264H1732.59V4.52403V2.53543H1689.49V4.52403ZM1732.59 4.52403L1730.76 5.29739L1758.65 71.3689L1760.48 70.5955L1762.31 69.8221L1734.42 3.75068L1732.59 4.52403ZM1760.48 70.5955L1758.65 71.3604C1760.12 74.8989 1761.74 79.1787 1763.07 83.156L1764.96 82.5271L1766.84 81.8983C1765.48 77.8217 1763.83 73.4511 1762.32 69.8307L1760.48 70.5955ZM1905.93 37.3361V39.3247H1908.06L1907.92 37.1987L1905.93 37.3361ZM1879.68 37.3361L1877.71 37.6078L1877.95 39.3247H1879.68V37.3361ZM1880.88 65.8228L1882.84 66.1114L1883.18 63.8342H1880.88V65.8228ZM1848.81 65.8228H1846.82V67.8115H1848.81V65.8228ZM1848.81 49.2677V47.2791H1846.82V49.2677H1848.81ZM1905.78 49.2677H1907.77V47.2791H1905.78V49.2677ZM1905.78 103.706V105.694H1907.77V103.706H1905.78ZM1883.86 103.706H1881.87V105.694H1883.86V103.706ZM1883.86 85.5101H1885.85L1881.99 84.8262L1883.86 85.5101ZM1849.11 106.092V104.104C1833.46 104.104 1822.35 98.3982 1815.1 89.4592C1807.8 80.4596 1804.27 67.9728 1804.27 54.1895H1802.28H1800.29C1800.29 68.5947 1803.98 82.0592 1812.01 91.9638C1820.09 101.929 1832.39 108.081 1849.11 108.081V106.092ZM1802.28 54.1895H1804.27C1804.27 40.1461 1808.16 27.6359 1816.54 18.6512C1824.9 9.69305 1837.96 3.97717 1856.86 3.97717V1.98856V-4.57764e-05C1837.14 -4.57764e-05 1822.91 5.99198 1813.63 15.9381C1804.38 25.8576 1800.29 39.4478 1800.29 54.1895H1802.28ZM1856.86 1.98856V3.97717C1873.73 3.97717 1885.16 7.90097 1892.5 13.9284C1899.81 19.9292 1903.31 28.2133 1903.95 37.4734L1905.93 37.3361L1907.92 37.1987C1907.22 27.0699 1903.33 17.6802 1895.02 10.8545C1886.74 4.05543 1874.3 -4.57764e-05 1856.86 -4.57764e-05V1.98856ZM1905.93 37.3361V35.3474H1879.68V37.3361V39.3247H1905.93V37.3361ZM1879.68 37.3361L1881.65 37.0643C1880.99 32.2253 1878.58 27.9617 1874.37 24.9437C1870.19 21.9504 1864.38 20.2837 1857.01 20.2837V22.2724V24.261C1863.81 24.261 1868.74 25.8009 1872.06 28.1768C1875.34 30.5281 1877.19 33.7963 1877.71 37.6078L1879.68 37.3361ZM1857.01 22.2724V20.2837C1847.79 20.2837 1840.33 22.7722 1835.22 28.5207C1830.16 34.2205 1827.73 42.7703 1827.73 54.1895H1829.72H1831.71C1831.71 43.2369 1834.05 35.8281 1838.2 31.1623C1842.3 26.5452 1848.49 24.261 1857.01 24.261V22.2724ZM1829.72 54.1895H1827.73C1827.73 64.8914 1829.73 73.3332 1834.33 79.1226C1839.01 85.0067 1846.09 87.797 1855.37 87.797V85.8083V83.8197C1846.91 83.8197 1841.16 81.3154 1837.45 76.6474C1833.66 71.8847 1831.71 64.5171 1831.71 54.1895H1829.72ZM1855.37 85.8083V87.797C1864.64 87.797 1871.15 85.5151 1875.56 81.4777C1879.96 77.4533 1881.99 71.9496 1882.84 66.1114L1880.88 65.8228L1878.91 65.5343C1878.12 70.882 1876.35 75.3711 1872.88 78.543C1869.42 81.7018 1864 83.8197 1855.37 83.8197V85.8083ZM1880.88 65.8228V63.8342H1848.81V65.8228V67.8115H1880.88V65.8228ZM1848.81 65.8228H1850.8V49.2677H1848.81H1846.82V65.8228H1848.81ZM1848.81 49.2677V51.2563H1905.78V49.2677V47.2791H1848.81V49.2677ZM1905.78 49.2677H1903.79V103.706H1905.78H1907.77V49.2677H1905.78ZM1905.78 103.706V101.717H1883.86V103.706V105.694H1905.78V103.706ZM1883.86 103.706H1885.85V85.5101H1883.86H1881.87V103.706H1883.86ZM1883.86 85.5101L1881.99 84.8262C1880.16 89.8332 1877.13 94.6045 1872.06 98.1409C1866.98 101.679 1859.69 104.104 1849.11 104.104V106.092V108.081C1860.3 108.081 1868.44 105.509 1874.33 101.403C1880.22 97.2959 1883.68 91.7763 1885.73 86.1939L1883.86 85.5101Z" fill="#3A3A39" mask="url(#path-1-outside-1_7648_3723)"/>
</svg>
