<svg width="86" height="87" viewBox="0 0 86 87" fill="none" xmlns="http://www.w3.org/2000/svg">
<path d="M45.3 19.2001C55.3 19.2001 61.4 23.3 62.3 30.3V31.3H85.8V30C85.1 19 78.6999 0 45.0999 0C16.7999 0 0 16.2001 0 43.2001C0 64.0001 9.99999 86.2 38.9 86.2C44.0438 86.7257 49.2346 85.8619 53.9308 83.6984C58.6271 81.535 62.6568 78.1514 65.6 73.9001V83.9001H85.6V37.6001H37.3V53.4H63.3C61.5 62.8 55.6001 67.0001 44.3001 67.0001C31.1001 67.0001 24.9001 59.3 24.9001 42.8C24.9001 26.3 31.2 19.2001 45.3 19.2001Z" fill="#3A3A39"/>
</svg>
