<svg width="1054" height="804" viewBox="0 0 1054 804" fill="none" xmlns="http://www.w3.org/2000/svg">
<path d="M1051.29 375.853C1024.55 263.275 776.634 294.436 713.209 139.553C698.279 103.101 693.423 55.9719 646.48 24.7369C640.713 20.8961 588.451 -12.7383 533.155 5.26447C492.625 18.4619 471.621 52.5199 446.629 93.0739C419.579 136.943 422.36 152.659 407.7 178.132C365.781 250.957 274.29 241.924 179.186 294.514C97.391 339.794 7.94445 433.445 0.506998 538.105C-9.0885 673.489 119.501 813.55 222.602 803.046C342.535 790.841 337.685 584.018 501.963 528.788C663.086 474.599 781.879 635.212 927.29 565.777C1002.61 529.855 1066.72 440.912 1051.29 375.853Z" fill="url(#paint0_linear_7137_4490)" style="mix-blend-mode:plus-lighter"/>
<defs>
<linearGradient id="paint0_linear_7137_4490" x1="97.5173" y1="296.402" x2="930.826" y2="685.885" gradientUnits="userSpaceOnUse">
<stop stop-color="#FF6600" stop-opacity="0.5"/>
<stop offset="1" stop-color="#FF6600" stop-opacity="0"/>
</linearGradient>
</defs>
</svg>
