<svg width="771" height="91" viewBox="0 0 771 91" fill="none" xmlns="http://www.w3.org/2000/svg">
<g filter="url(#filter0_n_7472_3198)">
<g clip-path="url(#clip0_7472_3198)">
<path d="M24.52 2.15H0V88.29H62.35V68.7H24.52V2.15Z" fill="#3A3A39"/>
<path d="M94.61 53.62H135.86V35.3H94.61V21.74H139.66V2.15H70.35V88.29H140.04V68.7H94.61V53.62Z" fill="#3A3A39"/>
<path d="M144.61 21.74H171.69V88.29H195.96V21.74H223.03V2.15H144.61V21.74Z" fill="#3A3A39"/>
<path d="M228.74 22.12H236.21V32.52H228.74V45.65H234.55C248.55 45.65 250.36 37.65 250.36 30.65V2.15001H228.74V22.12Z" fill="#3A3A39"/>
<path d="M306.77 35.05L290.77 33.41C285.32 32.77 282.67 30.41 282.67 26.18C282.67 21.18 287.4 18.18 295.33 18.18C303.77 18.18 308.9 21.82 309.78 28.44L309.89 29.31H333.89L333.8 28.24C333 17.68 326.93 -0.0200073 295.35 -0.0200073C272.07 -0.0200073 258.17 10.34 258.17 27.68C258.17 42.36 266.97 51.48 282.97 53.35L301.29 55.35C307.34 56.19 310.04 58.74 310.04 63.59C310.04 69.39 305.53 72.21 296.24 72.21C283.33 72.21 280.7 64.45 280.24 59.83L280.16 58.92H256.52L256.58 59.98C257.12 69.13 262.02 90.4 295.79 90.4C321.47 90.4 334.49 80.75 334.49 61.69C334.46 45.57 325.46 36.84 306.77 35.05Z" fill="#3A3A39"/>
<path d="M438.03 43.8C447.7 40.62 452.41 34.07 452.41 23.9C452.41 10.28 442.53 2.15001 425.98 2.15001H375.89V88.29H425.09C443.26 88.29 453.68 79.58 453.68 64.39C453.68 50.75 445.62 45.89 438.03 43.8ZM400.16 52.74H418.77C425.25 52.74 428.4 55.52 428.4 61.23C428.4 66.94 425.62 69.59 419.4 69.59H400.16V52.74ZM418.77 36.19H400.16V20.85H418.89C424.59 20.85 427.13 23.2 427.13 28.46C427.13 33.72 424.46 36.19 418.77 36.19Z" fill="#3A3A39"/>
<path d="M517.59 52.37C517.59 67.27 512.03 70.1 501.76 70.1C491.49 70.1 485.94 67.27 485.94 52.37V2.15001H461.54V55.28C461.54 78.2 475.45 90.28 501.76 90.28C528.07 90.28 541.86 78.16 541.86 55.28V2.15001H517.59V52.37Z" fill="#3A3A39"/>
<path d="M550.74 21.74H565.55V68.7H550.74V88.29H604.62V68.7H589.82V21.74H604.62V2.15H550.74V21.74Z" fill="#3A3A39"/>
<path d="M639.92 2.15H615.39V88.29H677.75V68.7H639.92V2.15Z" fill="#3A3A39"/>
<path d="M729.25 2.15001H685.74V88.29H729.25C759.41 88.29 770.11 64.99 770.11 45.03C770.11 25.25 759.46 2.15001 729.25 2.15001ZM710 21.74H724.19C738.46 21.74 744.82 28.92 744.82 45.03C744.82 61.41 738.46 68.71 724.19 68.71H710V21.74Z" fill="#3A3A39"/>
</g>
</g>
<defs>
<filter id="filter0_n_7472_3198" x="0" y="0" width="770.11" height="90.44" filterUnits="userSpaceOnUse" color-interpolation-filters="sRGB">
<feFlood flood-opacity="0" result="BackgroundImageFix"/>
<feBlend mode="normal" in="SourceGraphic" in2="BackgroundImageFix" result="shape"/>
<feTurbulence type="fractalNoise" baseFrequency="2 2" stitchTiles="stitch" numOctaves="3" result="noise" seed="1954" />
<feColorMatrix in="noise" type="luminanceToAlpha" result="alphaNoise" />
<feComponentTransfer in="alphaNoise" result="coloredNoise1">
<feFuncA type="discrete" tableValues="1 1 1 1 1 1 1 1 1 1 1 1 1 1 1 1 1 1 1 1 1 1 1 1 1 1 1 1 1 1 1 1 1 1 1 1 1 1 1 1 1 1 1 1 1 1 1 1 1 1 1 0 0 0 0 0 0 0 0 0 0 0 0 0 0 0 0 0 0 0 0 0 0 0 0 0 0 0 0 0 0 0 0 0 0 0 0 0 0 0 0 0 0 0 0 0 0 0 0 0 "/>
</feComponentTransfer>
<feComposite operator="in" in2="shape" in="coloredNoise1" result="noise1Clipped" />
<feFlood flood-color="rgba(255, 255, 255, 0.05)" result="color1Flood" />
<feComposite operator="in" in2="noise1Clipped" in="color1Flood" result="color1" />
<feMerge result="effect1_noise_7472_3198">
<feMergeNode in="shape" />
<feMergeNode in="color1" />
</feMerge>
</filter>
<clipPath id="clip0_7472_3198">
<rect width="770.11" height="90.44" fill="white"/>
</clipPath>
</defs>
</svg>
