<svg width="771" height="91" viewBox="0 0 771 91" fill="none" xmlns="http://www.w3.org/2000/svg">
<g clip-path="url(#clip0_7469_3607)">
<path d="M24.52 2.1499H0V88.2899H62.35V68.6999H24.52V2.1499Z" fill="#231F20"/>
<path d="M94.6101 53.6199H135.86V35.2999H94.6101V21.7399H139.66V2.1499H70.3501V88.2899H140.04V68.6999H94.6101V53.6199Z" fill="#231F20"/>
<path d="M144.61 21.7399H171.69V88.2899H195.96V21.7399H223.03V2.1499H144.61V21.7399Z" fill="#231F20"/>
<path d="M228.74 22.1199H236.21V32.5199H228.74V45.6499H234.55C248.55 45.6499 250.36 37.6499 250.36 30.6499V2.1499H228.74V22.1199Z" fill="#231F20"/>
<path d="M306.77 35.05L290.77 33.41C285.32 32.77 282.67 30.41 282.67 26.18C282.67 21.18 287.4 18.18 295.33 18.18C303.77 18.18 308.9 21.82 309.78 28.44L309.89 29.31H333.89L333.8 28.24C333 17.68 326.93 -0.0200195 295.35 -0.0200195C272.07 -0.0200195 258.17 10.34 258.17 27.68C258.17 42.36 266.97 51.48 282.97 53.35L301.29 55.35C307.34 56.19 310.04 58.74 310.04 63.59C310.04 69.39 305.53 72.21 296.24 72.21C283.33 72.21 280.7 64.45 280.24 59.83L280.16 58.92H256.52L256.58 59.98C257.12 69.13 262.02 90.4 295.79 90.4C321.47 90.4 334.49 80.75 334.49 61.69C334.46 45.57 325.46 36.84 306.77 35.05Z" fill="#231F20"/>
<path d="M438.03 43.7999C447.7 40.6199 452.41 34.0699 452.41 23.8999C452.41 10.2799 442.53 2.1499 425.98 2.1499H375.89V88.2899H425.09C443.26 88.2899 453.68 79.5799 453.68 64.3899C453.68 50.7499 445.62 45.8899 438.03 43.7999ZM400.16 52.7399H418.77C425.25 52.7399 428.4 55.5199 428.4 61.2299C428.4 66.9399 425.62 69.5899 419.4 69.5899H400.16V52.7399ZM418.77 36.1899H400.16V20.8499H418.89C424.59 20.8499 427.13 23.1999 427.13 28.4599C427.13 33.7199 424.46 36.1899 418.77 36.1899Z" fill="#231F20"/>
<path d="M517.59 52.3699C517.59 67.2699 512.03 70.0999 501.76 70.0999C491.49 70.0999 485.94 67.2699 485.94 52.3699V2.1499H461.54V55.2799C461.54 78.1999 475.45 90.2799 501.76 90.2799C528.07 90.2799 541.86 78.1599 541.86 55.2799V2.1499H517.59V52.3699Z" fill="#231F20"/>
<path d="M550.74 21.7399H565.55V68.6999H550.74V88.2899H604.62V68.6999H589.82V21.7399H604.62V2.1499H550.74V21.7399Z" fill="#231F20"/>
<path d="M639.92 2.1499H615.39V88.2899H677.75V68.6999H639.92V2.1499Z" fill="#231F20"/>
<path d="M729.25 2.1499H685.74V88.2899H729.25C759.41 88.2899 770.11 64.9899 770.11 45.0299C770.11 25.2499 759.46 2.1499 729.25 2.1499ZM710 21.7399H724.19C738.46 21.7399 744.82 28.9199 744.82 45.0299C744.82 61.4099 738.46 68.7099 724.19 68.7099H710V21.7399Z" fill="#231F20"/>
</g>
<defs>
<clipPath id="clip0_7469_3607">
<rect width="770.11" height="90.44" fill="white"/>
</clipPath>
</defs>
</svg>
