<svg width="147" height="144" viewBox="0 0 147 144" fill="none" xmlns="http://www.w3.org/2000/svg">
<path d="M73.4004 141.6C21.0004 141.6 2.00037 107.6 2.00037 72.0005C2.00037 37.0005 21.0004 2.00049 73.4004 2.00049C126.2 2.00049 145 37.2005 145 72.0005C145 107.4 126.2 141.6 73.4004 141.6ZM38.8004 72.0005C38.8004 98.0005 46.0004 113.001 73.4004 113.001C101.2 113.001 108.2 98.0005 108.2 72.0005C108.2 45.6005 101.2 30.8005 73.4004 30.8005C46.0004 30.8005 38.8004 45.6005 38.8004 72.0005Z" fill="#3A3A39"/>
<path d="M145 72C145 37.2001 126.2 2 73.4004 2C21.0006 2 2.00014 37.0001 2 72C2 107.322 20.7048 141.069 72.1787 141.594L73.4004 141.601C126.2 141.601 145 107.4 145 72ZM106.2 72C106.2 58.872 104.436 49.1446 99.623 42.6963C94.9204 36.3962 86.9588 32.8008 73.4004 32.8008C60.0519 32.8008 52.1345 36.3907 47.4277 42.6963C42.6119 49.1481 40.8008 58.8807 40.8008 72L40.8057 73.2012C40.9164 85.5159 42.7609 94.8011 47.4277 101.054C52.138 107.364 60.0601 111 73.4004 111V113C46.4285 113 39.0303 98.4654 38.8057 73.2109L38.8008 72C38.8008 45.6002 46.0005 30.8008 73.4004 30.8008L74.6885 30.8115C101.417 31.2661 108.2 46.0128 108.2 72C108.2 98 101.2 113 73.4004 113V111C86.9506 111 94.917 107.358 99.623 101.054C104.438 94.6031 106.2 84.9223 106.2 72ZM147 72C147 90.0243 142.216 107.946 130.509 121.389C118.758 134.882 100.26 143.601 73.4004 143.601C46.7396 143.601 28.2934 134.932 16.543 121.466C4.83536 108.049 0 90.1269 0 72C7.00268e-05 54.168 4.83871 36.1558 16.5352 22.5703C28.2773 8.93194 46.7209 9.04576e-07 73.4004 0C100.279 0 118.775 8.98108 130.518 22.6465C142.214 36.2579 147 54.2705 147 72Z" fill="#3A3A39"/>
</svg>
