<svg width="89" height="87" viewBox="0 0 89 87" fill="none" xmlns="http://www.w3.org/2000/svg">
<path d="M44.2017 0.169552C38.3536 -0.367222 32.4588 0.374095 26.9258 2.3424C21.3928 4.31071 16.354 7.4589 12.1588 11.5685C7.96364 15.6781 4.71244 20.6509 2.63048 26.1421C0.548516 31.6334 -0.314303 37.5117 0.101791 43.3696C0.101791 70.3696 16.6017 86.3695 44.2017 86.3695C71.8017 86.3695 88.4017 70.3696 88.4017 43.3696C88.8024 37.5067 87.9256 31.6264 85.8318 26.1354C83.738 20.6445 80.4771 15.6736 76.2744 11.566C72.0718 7.45844 67.0275 4.31217 61.49 2.34454C55.9526 0.376911 50.0539 -0.365206 44.2017 0.169552ZM44.2017 20.1696C58.5017 20.1696 64.2017 26.4695 64.2017 43.5695C64.2017 60.6695 58.9017 66.9695 44.2017 66.9695C29.5017 66.9695 24.7017 60.6695 24.7017 43.5695C24.7017 26.4695 30.0017 19.9694 44.2017 19.9694V20.1696Z" fill="#3A3A39"/>
</svg>
