<svg width="74" height="83" viewBox="0 0 74 83" fill="none" xmlns="http://www.w3.org/2000/svg">
<path d="M45.9001 0.104178H0V82.3042H23.9001V56.3041H45.9001C49.6511 56.5754 53.4153 56.007 56.9189 54.6403C60.4226 53.2737 63.5776 51.1432 66.1542 48.4037C68.7308 45.6643 70.6642 42.3849 71.8138 38.8041C72.9635 35.2234 73.3005 31.4316 72.8001 27.7043C73.2327 24.0361 72.8404 20.3174 71.6519 16.8202C70.4634 13.323 68.5088 10.1355 65.9308 7.49035C63.3528 4.84524 60.2165 2.80938 56.7509 1.53149C53.2854 0.253587 49.5782 -0.234001 45.9001 0.104178ZM23.9001 18.7043H39.0001C40.2455 18.5007 41.5214 18.5944 42.7235 18.9781C43.9257 19.3617 45.02 20.0243 45.9172 20.9117C46.8144 21.7991 47.4888 22.8861 47.8856 24.084C48.2823 25.2819 48.3901 26.5566 48.2001 27.8041C48.4462 29.1185 48.3788 30.4727 48.0032 31.7561C47.6277 33.0395 46.9546 34.2162 46.0387 35.1905C45.1228 36.1649 43.9898 36.9092 42.7321 37.3634C41.4743 37.8176 40.1271 37.9685 38.8 37.8041H23.9001V18.7043Z" fill="#3A3A39"/>
</svg>
