<svg width="91" height="85" viewBox="0 0 91 85" fill="none" xmlns="http://www.w3.org/2000/svg">
<path d="M87.3999 38.2001C87.3999 20.6001 76 0 43.8 0C16.4 0 0 16.0999 0 42.9999C0 58.3999 5.70005 84.2999 43.8 84.2999H90.1999V66.0999H74.0001C78.4461 62.9959 82.0156 58.7971 84.3631 53.9093C86.7106 49.0215 87.7565 43.6106 87.3999 38.2001ZM43.8 19.7998C60 19.7998 63.2001 28 63.2001 42.2C63.2001 56.4 60 64.4998 43.8 64.4998C27.6 64.4998 24.6001 56 24.6001 42.2C24.6001 28.4 27.8 19.7998 43.8 19.7998Z" fill="#3A3A39"/>
</svg>
