<svg width="74" height="83" viewBox="0 0 74 83" fill="none" xmlns="http://www.w3.org/2000/svg">
<path d="M73.4 23.3002C73.4 8.70017 62.9001 0 45.4001 0H0V82.2H23.8V53.3002H37.2C38.5792 53.1157 39.9821 53.243 41.3055 53.6728C42.629 54.1026 43.8392 54.8238 44.8468 55.7834C45.8544 56.743 46.6339 57.9166 47.1277 59.2175C47.6215 60.5184 47.8169 61.9136 47.6999 63.3002V66.6C47.5252 71.5456 48.0302 76.4917 49.2001 81.3V82.2H72.9001V79.7C71.9399 75.4003 71.4701 71.0056 71.4999 66.6V62.0999C71.839 58.2215 70.8445 54.3434 68.6807 51.1069C66.517 47.8703 63.3135 45.469 59.5999 44.2999C63.7774 42.6392 67.3429 39.7332 69.8117 35.9763C72.2805 32.2193 73.5332 27.7937 73.4 23.3002ZM23.4 18.6002H39.5001C45.7001 18.6002 48.4 21.0999 48.4 26.7999C48.4 32.4999 45.7999 35.7001 39.2999 35.7001H23.4V18.6002Z" fill="#3A3A39"/>
</svg>
