<svg width="98" height="109" viewBox="0 0 98 109" fill="none" xmlns="http://www.w3.org/2000/svg">
<path d="M97.3196 31.1495C97.3196 11.6432 83.378 0 60.0612 0H0V108.872H32.4802V71.0995H49.2042C54.1035 71.0995 62.3293 72.7023 62.3293 83.5593V87.8234C62.0832 94.3768 62.755 100.932 64.3253 107.299L64.8091 108.933H97.1381L96.4123 104.941C95.2264 99.3126 94.6385 93.575 94.6583 87.8234V82.017C94.6583 70.5249 89.8498 62.8434 79.9908 58.7304C85.2838 56.3632 89.7556 52.479 92.8403 47.5694C95.9249 42.6597 97.4837 36.9454 97.3196 31.1495ZM32.4802 25.7059H52.8332C60.6962 25.7059 63.9019 28.7301 63.9019 35.6858C63.9019 43.6698 60.8777 46.7545 52.6821 46.7545H32.4802V25.7059Z" fill="#3A3A39"/>
</svg>
