<svg width="123" height="137" viewBox="0 0 123 137" fill="none" xmlns="http://www.w3.org/2000/svg">
<path d="M116.8 111C116.8 121.8 118 127.4 119.4 135H83.8002C82.2002 129.6 81.4001 122 81.4001 111V105.6C81.4001 92.8 73.2002 86.8 61.8002 86.8H37.6002V135H2.00024V2H75.6002C105.6 2 120.2 17.4 120.2 38.8C120.2 57.8 108 70.6 91.4001 74C105.2 77 116.8 84 116.8 103.6V111ZM37.6002 61.6H66.2002C78.4002 61.6 83.4001 56 83.4001 44.6C83.4001 34.2 78.2001 29 66.4001 29H37.6002V61.6Z" fill="#3A3A39"/>
<path d="M79.4004 105.6C79.4003 99.6479 77.5101 95.5387 74.5439 92.8926C71.5407 90.2134 67.171 88.7998 61.7998 88.7998H39.6006V137H0V0H75.6006V2H2V135H37.6006V86.7998H61.7998C73.1997 86.7998 81.4002 92.7999 81.4004 105.6V111L81.4092 113.022C81.5029 122.941 82.2998 129.937 83.7998 135H119.4C118.088 127.875 116.951 122.508 116.814 112.966L116.8 111V103.6C116.8 84 105.2 77 91.4004 74C108 70.5999 120.2 57.7997 120.2 38.7998C120.2 17.7343 106.053 2.48317 76.9951 2.01172L75.6006 2V0C90.9251 6.61546e-05 102.602 3.93474 110.473 10.875C118.372 17.8407 122.2 27.625 122.2 38.7998C122.2 56.1042 112.534 68.5773 98.6465 73.9551C103.155 75.5532 107.316 77.8241 110.682 81.1533C115.755 86.1724 118.8 93.3715 118.8 103.6V111L118.813 112.929C118.929 121.041 119.777 126.049 120.855 131.876L121.803 137H82.3066L81.8828 135.568C80.2001 129.889 79.4004 122.059 79.4004 111V105.6ZM81.4004 44.5996C81.4003 39.7089 80.1804 36.4417 77.958 34.3594C75.8486 32.383 72.5042 31.1598 67.4365 31.0146L66.4004 31H39.6006V59.5996H66.2002V61.5996H37.6006V29H66.4004C78.2001 29.0001 83.4003 34.1999 83.4004 44.5996L83.3857 45.6514C83.081 56.3444 78.0191 61.5996 66.2002 61.5996V59.5996C72.0364 59.5996 75.7051 58.2571 77.9482 55.9736C80.1979 53.6835 81.4004 50.055 81.4004 44.5996Z" fill="#3A3A39"/>
</svg>
