<svg width="75" height="87" viewBox="0 0 75 87" fill="none" xmlns="http://www.w3.org/2000/svg">
<path d="M47.5 33.2001L32.2 31.6998C27.3 31.0998 24.7998 28.9998 24.7998 25.0998C24.7998 21.1998 29.1999 17.9001 36.4999 17.9001C43.7999 17.9001 49.0999 21.1998 49.8999 27.2998V28.4H72.9999V27.0999C72.1999 17.0999 66.4 0 36.2 0C14 0 0.699768 10 0.699768 26.6C0.563945 29.7993 1.08066 32.9925 2.21832 35.9857C3.35599 38.9789 5.09101 41.7093 7.3175 44.0106C9.544 46.312 12.2154 48.136 15.1694 49.3719C18.1233 50.6079 21.2979 51.23 24.4998 51.2L41.7999 53.1C47.4999 53.9 49.8999 56.2 49.8999 60.6C49.8999 62.6 49.8999 68.5001 37.0999 68.5001C24.2999 68.5001 22.9999 61.4998 22.9999 56.9998V55.9H0V57.2C0 66 5.0999 86.3998 37.3999 86.3998C61.9999 86.3998 74.4 77.1 74.4 58.8C74 43.3 65.3 35.0001 47.5 33.2001Z" fill="#3A3A39"/>
</svg>
