<svg width="1308" height="134" viewBox="0 0 1308 134" fill="none" xmlns="http://www.w3.org/2000/svg">
<path d="M475.96 0C497.81 0 513.891 4.34372 524.839 13.8232C535.51 23.0635 540.606 36.5701 542.097 53.5352L542.229 55.1875L542.544 59.4795H502L501.676 55.834C500.99 48.1215 499.075 42.8814 495.585 39.4961C492.131 36.1461 486.411 33.9199 476.5 33.9199C466.381 33.92 459.926 36.7736 455.858 41.7451C451.651 46.8876 449.36 55.0499 449.36 67L449.366 68.0967C449.495 79.3208 451.613 87.1112 455.525 92.0918C459.398 97.0228 465.603 99.8994 475.601 99.8994C485.843 99.8994 491.937 97.735 495.647 94.2871C499.348 90.8485 501.433 85.4319 502.03 77.1514L502.299 73.4395H543.286L542.948 77.7529C541.472 96.5712 536.473 110.895 525.352 120.356C514.319 129.741 498.066 133.64 475.78 133.64C451.743 133.64 434.663 125.886 423.652 113.307C412.725 100.822 408.24 84.1124 408.24 67C408.24 50.3101 412.784 33.5346 423.726 20.8701C434.756 8.10365 451.87 5.37335e-05 475.96 0ZM587.219 77.0801L587.225 78.0176C587.338 87.5619 589.187 92.6349 591.915 95.4414C594.686 98.2911 599.26 99.7197 607.159 99.7197C615.058 99.7197 619.633 98.2912 622.403 95.4414C625.22 92.5444 627.099 87.2323 627.099 77.0801V3.05957H666.779V81.2197L666.765 82.7783C666.465 98.7767 661.513 111.583 651.439 120.389C641.139 129.392 626.128 133.64 607.159 133.64C588.2 133.64 573.148 129.442 562.801 120.467C552.35 111.401 547.359 98.0418 547.359 81.2197V3.05957H587.219V77.0801ZM116.72 36.0801H78.2002V130.76H38.5205V36.0801H0V3.05957H116.72V36.0801ZM159.925 49.6797H201.965V3.05957H241.645V130.76H201.965V82.3398H159.925V130.76H120.244V3.05957H159.925V49.6797ZM356.896 36.0801H292.815V50.2197H351.495V81.4395H292.815V97.7402H357.435V130.76H253.135V3.05957H356.896V36.0801ZM747.008 3.05957C761.157 3.05957 772.246 6.69422 779.849 13.3975C787.508 20.1513 791.147 29.6002 791.147 40.1797C791.147 54.7587 783.921 65.7926 773.128 71.7354C775.668 73.0403 778.044 74.6716 780.128 76.7334C785.188 81.7391 788.088 88.8234 788.088 98.5V105.16L788.1 106.855C788.2 113.982 788.939 118.351 789.902 123.559L791.232 130.76H751.401L750.553 127.896C748.947 122.478 748.228 115.178 748.228 105.16V100.3C748.228 95.436 746.703 92.3874 744.593 90.5049C742.545 88.6783 739.474 87.5299 735.413 87.3936L734.588 87.3799H716.808V130.76H676.768V3.05957H747.008ZM870.055 3.05957C884.204 3.05957 895.293 6.69422 902.896 13.3975C910.555 20.1513 914.194 29.6002 914.194 40.1797C914.194 54.7587 906.968 65.7926 896.175 71.7354C898.715 73.0403 901.09 74.6716 903.175 76.7334C908.235 81.7391 911.135 88.8234 911.135 98.5V105.16L911.146 106.855C911.247 113.982 911.986 118.351 912.949 123.559L914.279 130.76H874.448L873.6 127.896C871.994 122.478 871.274 115.178 871.274 105.16V100.3C871.274 95.436 869.75 92.3874 867.64 90.5049C865.592 88.6783 862.521 87.5299 858.46 87.3936L857.635 87.3799H839.854V130.76H799.814V3.05957H870.055ZM1026.62 36.0801H962.542V50.2197H1021.22V81.4395H962.542V97.7402H1027.16V130.76H922.861V3.05957H1026.62V36.0801ZM1127.5 79.8301V3.05957H1165.74V130.76H1107.07L1074.66 54.7119V130.76H1036.42V3.05957H1095.09L1127.5 79.8301ZM1286.02 36.0801H1247.5V130.76H1207.82V36.0801H1169.3V3.05957H1286.02V36.0801ZM1307.64 130.76H1270.3V95.7598H1307.64V130.76ZM471.562 129.555C472.593 129.597 473.639 129.624 474.701 129.635C473.639 129.624 472.593 129.597 471.562 129.555ZM477.819 129.628C477.146 129.636 476.467 129.64 475.78 129.64C476.467 129.64 477.146 129.636 477.819 129.628ZM602.174 129.535C603.247 129.581 604.336 129.612 605.442 129.628C604.336 129.612 603.247 129.581 602.174 129.535ZM612.224 129.53C611.349 129.569 610.462 129.594 609.564 129.612C610.462 129.594 611.349 129.569 612.224 129.53ZM469.469 129.446C470.084 129.485 470.705 129.517 471.331 129.544C470.705 129.517 470.084 129.485 469.469 129.446ZM612.246 129.529C612.771 129.506 613.292 129.479 613.809 129.448C613.292 129.479 612.771 129.506 612.246 129.529ZM600.531 129.452C600.776 129.466 601.022 129.477 601.269 129.489C601.022 129.477 600.776 129.466 600.531 129.452ZM468.471 129.379C468.792 129.402 469.114 129.424 469.438 129.444C469.114 129.424 468.792 129.402 468.471 129.379ZM598.881 129.342C599.245 129.369 599.612 129.393 599.98 129.416C599.612 129.393 599.245 129.369 598.881 129.342ZM614.449 129.406C614.78 129.385 615.108 129.364 615.436 129.339C615.108 129.364 614.78 129.385 614.449 129.406ZM465.508 129.112C466.439 129.212 467.384 129.298 468.344 129.369C467.384 129.298 466.439 129.212 465.508 129.112ZM597.355 129.216C597.749 129.251 598.145 129.283 598.544 129.314C598.145 129.283 597.749 129.251 597.355 129.216ZM615.94 129.298C616.294 129.269 616.645 129.241 616.994 129.209C616.645 129.241 616.294 129.269 615.94 129.298ZM595.818 129.064C596.14 129.099 596.464 129.13 596.79 129.161C596.464 129.13 596.14 129.099 595.818 129.064ZM617.602 129.148C617.916 129.117 618.23 129.088 618.541 129.054C618.23 129.088 617.916 129.117 617.602 129.148ZM464.512 129C464.775 129.031 465.039 129.061 465.304 129.09C465.039 129.061 464.775 129.031 464.512 129ZM594.292 128.888C594.613 128.928 594.936 128.964 595.261 129.001C594.936 128.964 594.613 128.928 594.292 128.888ZM462.626 128.755C463.223 128.839 463.827 128.918 464.437 128.991C463.827 128.918 463.223 128.839 462.626 128.755ZM619.306 128.965C619.544 128.937 619.782 128.911 620.019 128.881C619.782 128.911 619.544 128.937 619.306 128.965ZM592.87 128.697C593.135 128.735 593.401 128.77 593.668 128.806C593.401 128.77 593.135 128.735 592.87 128.697ZM621.123 128.732C621.241 128.716 621.36 128.701 621.478 128.684C621.36 128.701 621.241 128.716 621.123 128.732ZM461.73 128.623C461.952 128.657 462.175 128.69 462.398 128.723C462.175 128.69 461.952 128.657 461.73 128.623ZM591.382 128.473C591.63 128.512 591.879 128.55 592.129 128.588C591.879 128.55 591.63 128.512 591.382 128.473ZM460.87 128.487C461.022 128.512 461.174 128.536 461.326 128.561C461.174 128.536 461.022 128.512 460.87 128.487ZM622.438 128.538C622.623 128.509 622.808 128.481 622.992 128.451C622.808 128.481 622.623 128.509 622.438 128.538ZM459.851 128.312C460.034 128.345 460.218 128.377 460.402 128.408C460.218 128.377 460.034 128.345 459.851 128.312ZM589.944 128.228C590.205 128.274 590.468 128.319 590.731 128.363C590.468 128.319 590.205 128.274 589.944 128.228ZM623.761 128.319C623.986 128.28 624.21 128.243 624.433 128.202C624.21 128.243 623.986 128.28 623.761 128.319ZM458.91 128.14C459.158 128.187 459.406 128.232 459.656 128.277C459.406 128.232 459.158 128.187 458.91 128.14ZM458.023 127.965C458.27 128.015 458.518 128.064 458.767 128.112C458.518 128.064 458.27 128.015 458.023 127.965ZM588.559 127.965C588.797 128.012 589.036 128.058 589.276 128.104C589.036 128.058 588.797 128.012 588.559 127.965ZM625.172 128.061C625.401 128.016 625.629 127.974 625.856 127.928C625.629 127.974 625.401 128.016 625.172 128.061ZM457.127 127.777C457.36 127.828 457.595 127.876 457.83 127.925C457.595 127.876 457.36 127.828 457.127 127.777ZM587.124 127.664C587.386 127.722 587.65 127.778 587.915 127.833C587.65 127.778 587.386 127.722 587.124 127.664ZM626.6 127.771C626.808 127.726 627.015 127.683 627.222 127.637C627.015 127.683 626.808 127.726 626.6 127.771ZM456.261 127.584C456.5 127.639 456.739 127.692 456.98 127.745C456.739 127.692 456.5 127.639 456.261 127.584ZM455.444 127.393C455.644 127.441 455.845 127.488 456.046 127.535C455.845 127.488 455.644 127.441 455.444 127.393ZM585.792 127.355C586.045 127.417 586.3 127.476 586.556 127.535C586.3 127.476 586.045 127.417 585.792 127.355ZM627.946 127.468C628.172 127.415 628.397 127.363 628.62 127.308C628.397 127.363 628.172 127.415 627.946 127.468ZM454.519 127.162C454.726 127.215 454.935 127.268 455.145 127.319C454.935 127.268 454.726 127.215 454.519 127.162ZM584.419 127.008C584.681 127.077 584.945 127.145 585.211 127.212C584.945 127.145 584.681 127.077 584.419 127.008ZM629.224 127.154C629.466 127.092 629.707 127.03 629.947 126.966C629.707 127.03 629.466 127.092 629.224 127.154ZM453.71 126.949C453.919 127.006 454.13 127.062 454.341 127.116C454.13 127.062 453.919 127.006 453.71 126.949ZM452.927 126.733C453.101 126.783 453.276 126.832 453.452 126.88C453.276 126.832 453.101 126.783 452.927 126.733ZM754.142 125.885L754.388 126.76C754.299 126.46 754.213 126.153 754.13 125.838C754.134 125.853 754.137 125.869 754.142 125.885ZM877.188 125.885L877.435 126.76C877.346 126.46 877.26 126.153 877.177 125.838C877.181 125.853 877.184 125.869 877.188 125.885ZM631.017 126.669C631.061 126.656 631.106 126.644 631.15 126.631C631.106 126.644 631.061 126.656 631.017 126.669ZM452.014 126.469C452.197 126.523 452.38 126.578 452.564 126.631C452.38 126.578 452.197 126.523 452.014 126.469ZM451.256 126.239C451.449 126.299 451.643 126.358 451.838 126.417C451.643 126.358 451.449 126.299 451.256 126.239ZM632.289 126.288C632.343 126.271 632.397 126.254 632.45 126.237C632.397 126.254 632.343 126.271 632.289 126.288ZM450.545 126.014C450.668 126.054 450.792 126.094 450.916 126.133C450.792 126.094 450.668 126.054 450.545 126.014ZM633.561 125.876C633.629 125.853 633.698 125.829 633.767 125.806C633.698 125.829 633.629 125.853 633.561 125.876ZM449.717 125.739C449.841 125.781 449.966 125.824 450.091 125.865C449.966 125.824 449.841 125.781 449.717 125.739ZM634.071 125.701C634.244 125.641 634.415 125.58 634.586 125.519C634.415 125.58 634.244 125.641 634.071 125.701ZM579.716 125.559C579.774 125.579 579.833 125.599 579.892 125.62C579.833 125.599 579.774 125.579 579.716 125.559ZM448.82 125.429C448.993 125.49 449.167 125.551 449.341 125.611C449.167 125.551 448.993 125.49 448.82 125.429ZM753.892 124.883C753.942 125.098 753.997 125.31 754.05 125.519C753.997 125.31 753.942 125.098 753.892 124.883ZM876.938 124.883C876.989 125.098 877.044 125.31 877.097 125.519C877.044 125.31 876.989 125.098 876.938 124.883ZM634.653 125.494C634.807 125.439 634.959 125.384 635.111 125.327C634.959 125.384 634.807 125.439 634.653 125.494ZM448.029 125.141C448.214 125.209 448.4 125.278 448.586 125.345C448.4 125.278 448.214 125.209 448.029 125.141ZM635.347 125.238C635.412 125.214 635.477 125.19 635.542 125.165C635.477 125.19 635.412 125.214 635.347 125.238ZM578.511 125.113C578.583 125.141 578.655 125.168 578.728 125.195C578.655 125.168 578.583 125.141 578.511 125.113ZM447.241 124.842C447.427 124.914 447.614 124.985 447.802 125.056C447.614 124.985 447.427 124.914 447.241 124.842ZM636.006 124.985C636.054 124.966 636.102 124.948 636.15 124.929C636.102 124.948 636.054 124.966 636.006 124.985ZM636.501 124.789C636.62 124.741 636.738 124.693 636.855 124.645C636.738 124.693 636.62 124.741 636.501 124.789ZM446.479 124.541C446.669 124.618 446.86 124.694 447.053 124.77C446.86 124.694 446.669 124.618 446.479 124.541ZM577.295 124.631C577.382 124.667 577.469 124.701 577.557 124.736C577.469 124.701 577.382 124.667 577.295 124.631ZM576.736 124.396C576.884 124.459 577.032 124.521 577.181 124.583C577.032 124.521 576.884 124.459 576.736 124.396ZM637.097 124.544C637.194 124.503 637.291 124.462 637.388 124.421C637.291 124.462 637.194 124.503 637.097 124.544ZM753.663 123.849C753.708 124.064 753.756 124.275 753.803 124.484C753.756 124.275 753.708 124.064 753.663 123.849ZM876.71 123.849C876.755 124.064 876.803 124.275 876.85 124.484C876.803 124.275 876.755 124.064 876.71 123.849ZM445.793 124.259C445.956 124.327 446.12 124.396 446.285 124.463C446.12 124.396 445.956 124.327 445.793 124.259ZM576.166 124.15C576.297 124.208 576.429 124.264 576.562 124.321C576.429 124.264 576.297 124.208 576.166 124.15ZM637.757 124.263C637.804 124.242 637.851 124.222 637.897 124.201C637.851 124.222 637.804 124.242 637.757 124.263ZM444.178 123.556C444.611 123.753 445.05 123.946 445.493 124.134C445.05 123.946 444.611 123.753 444.178 123.556ZM575.615 123.903C575.724 123.953 575.834 124.002 575.943 124.051C575.834 124.002 575.724 123.953 575.615 123.903ZM638.305 124.021C638.389 123.983 638.473 123.944 638.557 123.906C638.473 123.944 638.389 123.983 638.305 124.021ZM638.809 123.79C638.97 123.715 639.13 123.64 639.289 123.563C639.13 123.64 638.97 123.715 638.809 123.79ZM575.103 123.666C575.157 123.691 575.21 123.717 575.265 123.742C575.21 123.717 575.157 123.691 575.103 123.666ZM639.376 123.522C639.488 123.469 639.6 123.414 639.712 123.359C639.6 123.414 639.488 123.469 639.376 123.522ZM753.459 122.806C753.503 123.047 753.551 123.285 753.598 123.519C753.551 123.285 753.503 123.047 753.459 122.806ZM876.506 122.806C876.55 123.047 876.598 123.285 876.645 123.519C876.598 123.285 876.55 123.047 876.506 122.806ZM443.496 123.241C443.692 123.333 443.888 123.424 444.086 123.515C443.888 123.424 443.692 123.333 443.496 123.241ZM574.443 123.351C574.554 123.404 574.664 123.458 574.775 123.511C574.664 123.458 574.554 123.404 574.443 123.351ZM573.916 123.089C574.054 123.158 574.192 123.228 574.331 123.296C574.192 123.228 574.054 123.158 573.916 123.089ZM639.955 123.241C640.082 123.178 640.209 123.114 640.335 123.05C640.209 123.114 640.082 123.178 639.955 123.241ZM442.967 122.988C443.082 123.044 443.197 123.1 443.312 123.155C443.197 123.1 443.082 123.044 442.967 122.988ZM573.403 122.827C573.509 122.882 573.616 122.936 573.723 122.99C573.616 122.936 573.509 122.882 573.403 122.827ZM640.471 122.98C640.59 122.919 640.709 122.858 640.827 122.796C640.709 122.858 640.59 122.919 640.471 122.98ZM572.792 122.503C572.923 122.574 573.054 122.644 573.187 122.714C573.054 122.644 572.923 122.574 572.792 122.503ZM641.036 122.686C641.145 122.628 641.254 122.569 641.362 122.511C641.254 122.569 641.145 122.628 641.036 122.686ZM441.379 122.19C441.556 122.283 441.734 122.376 441.913 122.467C441.734 122.376 441.556 122.283 441.379 122.19ZM572.357 122.266C572.469 122.328 572.582 122.389 572.694 122.45C572.582 122.389 572.469 122.328 572.357 122.266ZM753.274 121.741C753.312 121.974 753.353 122.203 753.393 122.43C753.353 122.203 753.312 121.974 753.274 121.741ZM876.321 121.741C876.359 121.974 876.4 122.203 876.439 122.43C876.4 122.203 876.359 121.974 876.321 121.741ZM641.588 122.388C641.669 122.343 641.75 122.298 641.831 122.253C641.75 122.298 641.669 122.343 641.588 122.388ZM571.8 121.951C571.887 122.001 571.975 122.051 572.063 122.101C571.975 122.051 571.887 122.001 571.8 121.951ZM642.117 122.094C642.201 122.047 642.283 121.999 642.366 121.951C642.283 121.999 642.201 122.047 642.117 122.094ZM571.252 121.632C571.366 121.699 571.48 121.766 571.595 121.833C571.48 121.766 571.366 121.699 571.252 121.632ZM642.628 121.8C642.72 121.746 642.812 121.692 642.903 121.638C642.812 121.692 642.72 121.746 642.628 121.8ZM439.18 120.976C439.622 121.234 440.071 121.487 440.525 121.735C440.074 121.489 439.629 121.238 439.19 120.981L439.18 120.976ZM570.691 121.294C570.826 121.377 570.962 121.459 571.098 121.54C570.962 121.459 570.826 121.377 570.691 121.294ZM643.145 121.493C643.229 121.442 643.313 121.391 643.396 121.34C643.313 121.391 643.229 121.442 643.145 121.493ZM570.305 121.054C570.393 121.109 570.481 121.164 570.569 121.219C570.481 121.164 570.393 121.109 570.305 121.054ZM753.097 120.567C753.127 120.785 753.16 121 753.192 121.212C753.16 121 753.127 120.785 753.097 120.567ZM876.144 120.567C876.174 120.785 876.207 121 876.239 121.212C876.207 121 876.174 120.785 876.144 120.567ZM643.645 121.187C643.707 121.148 643.768 121.109 643.83 121.07C643.768 121.109 643.707 121.148 643.645 121.187ZM569.716 120.677C569.822 120.746 569.929 120.815 570.036 120.884C569.929 120.815 569.822 120.746 569.716 120.677ZM569.182 120.321C569.314 120.411 569.446 120.5 569.58 120.588C569.446 120.5 569.314 120.411 569.182 120.321ZM437.263 119.8C437.56 119.991 437.861 120.179 438.164 120.365C438.067 120.305 437.969 120.246 437.872 120.186L437.263 119.8ZM568.762 120.034C568.882 120.118 569.003 120.201 569.124 120.283C569.003 120.201 568.882 120.118 568.762 120.034ZM752.948 119.444C752.973 119.649 753 119.851 753.026 120.051C753 119.851 752.973 119.649 752.948 119.444ZM875.995 119.444C876.02 119.649 876.047 119.851 876.073 120.051C876.047 119.851 876.02 119.649 875.995 119.444ZM568.337 119.736C568.424 119.798 568.511 119.86 568.599 119.922C568.511 119.86 568.424 119.798 568.337 119.736ZM645.612 119.885C645.744 119.792 645.874 119.698 646.004 119.604C645.874 119.698 645.744 119.792 645.612 119.885ZM434.74 118.068C435.449 118.587 436.176 119.089 436.922 119.577C436.176 119.089 435.449 118.587 434.74 118.068ZM567.818 119.36C567.917 119.433 568.016 119.505 568.115 119.577C568.016 119.505 567.917 119.433 567.818 119.36ZM566.88 118.647C567.135 118.848 567.393 119.045 567.654 119.239C567.393 119.045 567.135 118.848 566.88 118.647ZM647.256 118.66C647.069 118.807 646.879 118.952 646.688 119.097C646.879 118.952 647.069 118.807 647.256 118.66ZM752.806 118.192C752.827 118.393 752.848 118.591 752.87 118.787C752.848 118.591 752.827 118.393 752.806 118.192ZM875.853 118.192C875.874 118.393 875.895 118.591 875.917 118.787C875.895 118.591 875.874 118.393 875.853 118.192ZM648.367 117.755C648.509 117.635 648.649 117.513 648.789 117.391C648.649 117.513 648.509 117.635 648.367 117.755ZM434.184 117.655C434.348 117.779 434.514 117.902 434.681 118.024C434.514 117.902 434.348 117.779 434.184 117.655ZM752.669 116.791C752.692 117.056 752.717 117.318 752.742 117.577C752.717 117.318 752.692 117.056 752.669 116.791ZM875.716 116.791C875.739 117.056 875.764 117.318 875.789 117.577C875.764 117.318 875.739 117.056 875.716 116.791ZM433.592 117.203C433.714 117.298 433.838 117.391 433.961 117.485C433.838 117.391 433.714 117.298 433.592 117.203ZM648.789 117.391C648.792 117.388 648.796 117.386 648.8 117.383L648.807 117.377C648.801 117.382 648.795 117.386 648.789 117.391ZM649.664 116.604C649.459 116.794 649.251 116.982 649.041 117.169C649.244 116.988 649.446 116.807 649.645 116.622L649.664 116.604ZM433.034 116.764C433.13 116.841 433.227 116.917 433.324 116.993C433.227 116.917 433.13 116.841 433.034 116.764ZM432.46 116.298C432.543 116.367 432.628 116.435 432.712 116.503C432.628 116.435 432.543 116.367 432.46 116.298ZM752.569 115.566C752.586 115.783 752.603 115.997 752.62 116.209C752.603 115.997 752.586 115.783 752.569 115.566ZM875.616 115.566C875.632 115.783 875.65 115.997 875.667 116.209C875.65 115.997 875.632 115.783 875.616 115.566ZM431.895 115.825C431.994 115.91 432.095 115.993 432.195 116.077C432.095 115.993 431.994 115.91 431.895 115.825ZM563.337 115.492C563.395 115.551 563.455 115.61 563.514 115.669C563.455 115.61 563.395 115.551 563.337 115.492ZM431.363 115.367C431.448 115.441 431.532 115.514 431.617 115.587C431.532 115.514 431.448 115.441 431.363 115.367ZM650.765 115.537C650.81 115.491 650.855 115.446 650.9 115.4C650.855 115.446 650.81 115.491 650.765 115.537ZM562.991 115.139C563.077 115.228 563.164 115.316 563.251 115.404C563.139 115.29 563.027 115.176 562.917 115.061L562.991 115.139ZM430.778 114.849C430.885 114.945 430.993 115.04 431.101 115.136C430.993 115.04 430.885 114.945 430.778 114.849ZM752.468 114.042C752.483 114.29 752.496 114.536 752.513 114.779C752.496 114.536 752.483 114.29 752.468 114.042ZM875.515 114.042C875.529 114.29 875.543 114.536 875.56 114.779C875.543 114.536 875.53 114.29 875.515 114.042ZM430.366 114.475C430.45 114.552 430.535 114.627 430.619 114.704C430.474 114.573 430.33 114.441 430.188 114.308L430.366 114.475ZM562.171 114.257C562.22 114.311 562.268 114.364 562.317 114.418C562.268 114.364 562.22 114.311 562.171 114.257ZM651.928 114.308C651.973 114.258 652.018 114.207 652.062 114.157C652.018 114.207 651.973 114.258 651.928 114.308ZM429.723 113.869C429.863 114.003 430.004 114.136 430.146 114.269C430.004 114.136 429.863 114.003 429.723 113.869ZM652.229 113.967C652.292 113.896 652.355 113.826 652.417 113.755C652.355 113.826 652.292 113.896 652.229 113.967ZM429.234 113.396C429.311 113.471 429.388 113.545 429.465 113.62C429.388 113.545 429.311 113.471 429.234 113.396ZM561.455 113.438C561.486 113.475 561.517 113.512 561.549 113.549C561.517 113.512 561.486 113.475 561.455 113.438ZM752.375 112.268C752.391 112.635 752.409 112.997 752.428 113.354C752.409 112.997 752.391 112.635 752.375 112.268ZM875.422 112.268C875.438 112.635 875.455 112.997 875.475 113.354C875.455 112.997 875.438 112.635 875.422 112.268ZM428.677 112.839C428.78 112.944 428.884 113.049 428.989 113.153C428.884 113.049 428.78 112.944 428.677 112.839ZM653.016 113.047C653.073 112.978 653.13 112.909 653.187 112.839C653.13 112.909 653.073 112.978 653.016 113.047ZM428.159 112.306C428.285 112.437 428.411 112.567 428.538 112.697C428.411 112.567 428.285 112.437 428.159 112.306ZM653.429 112.537C653.45 112.511 653.47 112.484 653.491 112.458C653.47 112.484 653.45 112.511 653.429 112.537ZM560.342 112.062C560.395 112.131 560.448 112.199 560.501 112.268C560.448 112.199 560.395 112.131 560.342 112.062ZM427.677 111.795C427.796 111.923 427.916 112.05 428.036 112.177C427.916 112.05 427.796 111.923 427.677 111.795ZM653.8 112.062C653.819 112.037 653.838 112.012 653.857 111.986C653.838 112.012 653.819 112.037 653.8 112.062ZM560.006 111.619C560.086 111.727 560.167 111.834 560.249 111.941C560.167 111.834 560.086 111.727 560.006 111.619ZM752.324 110.977C752.335 111.295 752.346 111.611 752.359 111.922C752.346 111.611 752.335 111.295 752.324 110.977ZM875.371 110.977C875.382 111.295 875.393 111.611 875.406 111.922C875.393 111.611 875.382 111.295 875.371 110.977ZM653.992 111.808C654.067 111.708 654.143 111.61 654.217 111.51C654.143 111.61 654.067 111.708 653.992 111.808ZM427.199 111.274C427.316 111.403 427.433 111.531 427.551 111.659C427.433 111.531 427.316 111.403 427.199 111.274ZM559.705 111.21C559.756 111.28 559.807 111.349 559.857 111.418C559.807 111.349 559.756 111.28 559.705 111.21ZM654.364 111.309C654.436 111.21 654.507 111.111 654.578 111.012C654.507 111.111 654.436 111.21 654.364 111.309ZM426.9 110.942C426.956 111.005 427.012 111.067 427.068 111.129C426.932 110.977 426.797 110.825 426.663 110.672L426.9 110.942ZM559.367 110.736C559.423 110.816 559.479 110.895 559.535 110.974C559.479 110.895 559.423 110.816 559.367 110.736ZM654.642 110.921C654.723 110.806 654.804 110.691 654.885 110.575C654.804 110.691 654.723 110.806 654.642 110.921ZM426.242 110.185C426.374 110.34 426.508 110.494 426.643 110.647C426.508 110.494 426.374 110.34 426.242 110.185ZM655.09 110.277C655.12 110.233 655.151 110.188 655.181 110.144C655.151 110.188 655.12 110.233 655.09 110.277ZM558.683 109.726C558.755 109.836 558.828 109.946 558.901 110.056C558.828 109.946 558.755 109.836 558.683 109.726ZM425.823 109.687C425.924 109.808 426.026 109.93 426.128 110.051C426.026 109.93 425.924 109.808 425.823 109.687ZM655.344 109.896C655.413 109.792 655.482 109.688 655.55 109.583C655.482 109.688 655.413 109.792 655.344 109.896ZM655.626 109.464C655.698 109.352 655.769 109.239 655.84 109.126C655.769 109.239 655.698 109.352 655.626 109.464ZM425.41 109.183C425.483 109.272 425.556 109.362 425.629 109.451C425.556 109.362 425.483 109.272 425.41 109.183ZM655.926 108.989C655.989 108.887 656.052 108.785 656.114 108.683C656.052 108.785 655.989 108.887 655.926 108.989ZM424.918 108.564C425.002 108.672 425.086 108.778 425.171 108.885C425.086 108.778 425.002 108.672 424.918 108.564ZM557.779 108.273C557.837 108.371 557.895 108.468 557.953 108.564C557.895 108.468 557.837 108.371 557.779 108.273ZM656.269 108.425C656.317 108.344 656.366 108.262 656.414 108.181C656.366 108.262 656.317 108.344 656.269 108.425ZM424.415 107.911C424.529 108.062 424.644 108.212 424.76 108.361C424.644 108.212 424.529 108.062 424.415 107.911ZM656.581 107.893C656.615 107.833 656.649 107.773 656.684 107.713C656.649 107.773 656.615 107.833 656.581 107.893ZM424.099 107.489C424.188 107.61 424.278 107.73 424.368 107.85C424.278 107.73 424.188 107.61 424.099 107.489ZM656.89 107.348C656.923 107.288 656.956 107.229 656.988 107.169C656.956 107.229 656.923 107.288 656.89 107.348ZM556.92 106.741C556.981 106.856 557.042 106.97 557.104 107.084C557.042 106.97 556.981 106.856 556.92 106.741ZM657.118 106.929C657.177 106.82 657.235 106.711 657.293 106.602C657.235 106.711 657.177 106.82 657.118 106.929ZM423.214 106.258C423.315 106.403 423.417 106.549 423.52 106.693C423.417 106.549 423.315 106.403 423.214 106.258ZM556.604 106.138C556.685 106.296 556.768 106.454 556.851 106.611C556.768 106.454 556.685 106.296 556.604 106.138ZM657.41 106.377C657.454 106.293 657.497 106.209 657.54 106.124C657.497 106.209 657.454 106.293 657.41 106.377ZM556.547 106.025C556.566 106.063 556.585 106.1 556.604 106.138C556.513 105.958 556.422 105.777 556.333 105.596L556.547 106.025ZM657.694 105.817C657.721 105.764 657.746 105.711 657.772 105.657C657.746 105.711 657.721 105.764 657.694 105.817ZM422.48 105.177C422.549 105.28 422.616 105.384 422.686 105.487C422.616 105.384 422.549 105.28 422.48 105.177ZM657.971 105.252C658.001 105.189 658.031 105.125 658.062 105.062C658.031 105.125 658.001 105.189 657.971 105.252ZM555.871 104.622C555.937 104.766 556.004 104.91 556.071 105.053C556.004 104.91 555.937 104.766 555.871 104.622ZM658.138 104.898C658.203 104.758 658.268 104.618 658.332 104.477C658.268 104.618 658.203 104.758 658.138 104.898ZM422.021 104.468C422.106 104.602 422.192 104.736 422.278 104.869C422.192 104.736 422.106 104.602 422.021 104.468ZM421.682 103.93C421.768 104.069 421.855 104.207 421.942 104.346C421.855 104.207 421.768 104.069 421.682 103.93ZM658.399 104.326C658.457 104.198 658.515 104.07 658.571 103.94C658.515 104.07 658.457 104.198 658.399 104.326ZM474.597 103.891L475.601 103.899L474.598 103.891C474.59 103.89 474.581 103.89 474.573 103.89C474.581 103.89 474.589 103.89 474.597 103.891ZM478.523 103.84C479.153 103.814 479.77 103.778 480.374 103.734C479.77 103.778 479.153 103.814 478.523 103.84ZM658.636 103.79C658.691 103.662 658.747 103.535 658.801 103.406C658.747 103.535 658.691 103.662 658.636 103.79ZM421.303 103.31C421.391 103.456 421.48 103.602 421.569 103.748C421.48 103.602 421.391 103.456 421.303 103.31ZM607.909 103.716L607.159 103.72C607.481 103.72 607.8 103.716 608.115 103.712C608.047 103.713 607.978 103.715 607.909 103.716ZM658.896 103.18C658.941 103.07 658.986 102.961 659.03 102.851C658.986 102.961 658.941 103.07 658.896 103.18ZM659.11 102.65C659.157 102.533 659.203 102.415 659.249 102.297C659.203 102.415 659.157 102.533 659.11 102.65ZM488.499 102.424C488.981 102.293 489.451 102.152 489.909 102.004C489.451 102.152 488.981 102.293 488.499 102.424ZM659.309 102.145C659.357 102.02 659.404 101.894 659.451 101.769C659.404 101.894 659.357 102.02 659.309 102.145ZM418.923 98.9131C419.415 99.9283 419.936 100.927 420.486 101.907C419.936 100.927 419.415 99.9283 418.923 98.9131ZM659.568 101.451C659.588 101.399 659.606 101.346 659.625 101.293C659.606 101.346 659.588 101.399 659.568 101.451ZM493.133 100.73C492.932 100.826 492.728 100.92 492.521 101.012L493.133 100.731C493.334 100.636 493.532 100.537 493.728 100.438L493.133 100.73ZM659.755 100.93C659.794 100.82 659.831 100.709 659.869 100.599C659.831 100.709 659.794 100.82 659.755 100.93ZM659.971 100.3C660.005 100.197 660.039 100.094 660.073 99.9902C660.039 100.094 660.005 100.197 659.971 100.3ZM660.134 99.8027C660.178 99.6648 660.222 99.5265 660.266 99.3877C660.222 99.5265 660.178 99.6648 660.134 99.8027ZM660.312 99.2373C660.362 99.0761 660.412 98.9144 660.46 98.752C660.412 98.9144 660.362 99.0761 660.312 99.2373ZM660.504 98.6016C660.545 98.4614 660.585 98.3207 660.625 98.1797C660.585 98.3207 660.545 98.4614 660.504 98.6016ZM553.525 98.2295C553.556 98.336 553.587 98.4419 553.618 98.5479C553.587 98.4419 553.556 98.336 553.525 98.2295ZM417.125 94.8115C417.571 95.9423 418.049 97.0558 418.56 98.1504C418.049 97.0558 417.571 95.9423 417.125 94.8115ZM660.656 98.0674C660.695 97.9304 660.733 97.7931 660.771 97.6553C660.733 97.7931 660.695 97.9304 660.656 98.0674ZM553.366 97.6553C553.399 97.7754 553.431 97.8952 553.465 98.0146C553.431 97.8952 553.399 97.7754 553.366 97.6553ZM660.85 97.3613C660.883 97.2354 660.916 97.1091 660.948 96.9824C660.916 97.1091 660.883 97.2354 660.85 97.3613ZM553.198 97.0205C553.223 97.1158 553.247 97.2108 553.272 97.3057C553.247 97.2108 553.223 97.1158 553.198 97.0205ZM660.986 96.833C661.026 96.6759 661.066 96.5185 661.104 96.3604C661.066 96.5185 661.026 96.6759 660.986 96.833ZM751.802 95.8008C751.864 96.1074 751.92 96.4198 751.969 96.7383L751.891 96.2646C751.863 96.1085 751.833 95.954 751.802 95.8008ZM874.849 95.8008C874.911 96.1074 874.967 96.4198 875.016 96.7383L874.938 96.2646C874.91 96.1085 874.88 95.954 874.849 95.8008ZM661.152 96.1621C661.189 96.01 661.224 95.8572 661.259 95.7041C661.224 95.8572 661.189 96.01 661.152 96.1621ZM500.043 95.4521V95.4531V95.4521ZM661.292 95.5596C661.321 95.4307 661.35 95.3014 661.378 95.1719C661.35 95.3014 661.321 95.4307 661.292 95.5596ZM661.438 94.8984C661.461 94.7867 661.485 94.6747 661.508 94.5625C661.485 94.6747 661.461 94.7867 661.438 94.8984ZM552.644 94.6348C552.656 94.6938 552.669 94.7526 552.682 94.8115C552.669 94.7526 552.656 94.6938 552.644 94.6348ZM416.895 94.2188C416.925 94.2993 416.957 94.3795 416.988 94.46C416.944 94.3445 416.899 94.2291 416.854 94.1133L416.895 94.2188ZM661.566 94.2783C661.6 94.11 661.633 93.941 661.665 93.7715C661.633 93.941 661.6 94.11 661.566 94.2783ZM416.607 93.4502C416.647 93.5575 416.687 93.6645 416.727 93.7715C416.687 93.6645 416.647 93.5575 416.607 93.4502ZM661.676 93.7148C661.693 93.6268 661.708 93.5385 661.725 93.4502C661.708 93.5385 661.693 93.6268 661.676 93.7148ZM416.363 92.7764C416.407 92.9008 416.453 93.0244 416.498 93.1484C416.453 93.0244 416.407 92.9008 416.363 92.7764ZM416.131 92.1084C416.19 92.2807 416.25 92.4524 416.311 92.624C416.25 92.4524 416.19 92.2807 416.131 92.1084ZM661.911 92.3896C661.927 92.2932 661.942 92.1965 661.958 92.0996C661.942 92.1965 661.927 92.2932 661.911 92.3896ZM552.174 92.0674C552.186 92.1463 552.199 92.2251 552.212 92.3037C552.199 92.2251 552.186 92.1463 552.174 92.0674ZM415.905 91.4336C415.95 91.5683 415.995 91.7026 416.04 91.8369C415.995 91.7026 415.95 91.5683 415.905 91.4336ZM415.688 90.7617C415.717 90.853 415.747 90.9441 415.776 91.0352C415.747 90.9441 415.717 90.853 415.688 90.7617ZM749.794 90.5596H749.795H749.794ZM872.841 90.5596H872.842H872.841ZM906.252 90.3701H906.253H906.252ZM1126.78 88.459H1126.78H1126.78ZM749.118 89.5586H749.117H749.118ZM872.165 89.5586H872.164H872.165ZM662.291 89.7236C662.335 89.3602 662.374 88.9943 662.412 88.626C662.374 88.9943 662.335 89.3602 662.291 89.7236ZM551.737 88.7334C551.77 89.0473 551.803 89.3596 551.84 89.6699C551.803 89.3596 551.77 89.0473 551.737 88.7334ZM415.076 88.7188C415.097 88.7927 415.119 88.8665 415.14 88.9404C415.119 88.8665 415.097 88.7927 415.076 88.7188ZM551.62 87.4912C551.645 87.7892 551.67 88.0859 551.699 88.3809C551.67 88.0859 551.645 87.7892 551.62 87.4912ZM662.618 86.1543C662.569 86.9053 662.511 87.6469 662.438 88.3789C662.511 87.6469 662.569 86.9053 662.618 86.1543ZM414.861 87.9385C414.891 88.0486 414.921 88.1586 414.951 88.2686C414.921 88.1586 414.891 88.0486 414.861 87.9385ZM414.709 87.3643C414.736 87.4689 414.764 87.5733 414.792 87.6777C414.764 87.5733 414.736 87.4689 414.709 87.3643ZM414.342 85.8848C414.363 85.9747 414.385 86.0645 414.406 86.1543C414.385 86.0645 414.363 85.9747 414.342 85.8848ZM744.678 85.6953V85.6963V85.6953ZM867.725 85.6953V85.6963V85.6953ZM551.454 85.002C551.463 85.1867 551.47 85.3711 551.48 85.5547C551.47 85.3711 551.463 85.1867 551.454 85.002ZM861.339 83.6348V83.6338V83.6348ZM413.644 82.5869C413.695 82.8585 413.746 83.1299 413.8 83.4004C413.746 83.1299 413.695 82.8585 413.644 82.5869ZM413.399 81.2197C413.441 81.4622 413.481 81.7046 413.524 81.9463C413.481 81.7046 413.441 81.4622 413.399 81.2197ZM413.165 79.7549C413.201 79.9941 413.235 80.2333 413.273 80.4717C413.235 80.2333 413.201 79.9941 413.165 79.7549ZM775.443 77.9287C775.81 78.217 776.168 78.5152 776.517 78.8262C776.168 78.5152 775.81 78.217 775.443 77.9287ZM898.49 77.9287C898.857 78.2172 899.215 78.5161 899.563 78.8271C899.215 78.5161 898.857 78.2172 898.49 77.9287ZM412.912 77.9287C412.958 78.2937 413.005 78.6582 413.056 79.0215C413.005 78.6582 412.958 78.2937 412.912 77.9287ZM631.099 77.0801H631.1V7.05957H631.099V77.0801ZM412.751 76.5576C412.789 76.903 412.826 77.2478 412.868 77.5918C412.826 77.2478 412.789 76.903 412.751 76.5576ZM771.545 75.4189C771.873 75.5914 772.197 75.769 772.516 75.9531C772.197 75.769 771.873 75.5914 771.545 75.4189ZM894.592 75.4189C894.92 75.5914 895.244 75.769 895.562 75.9531C895.244 75.769 894.92 75.5914 894.592 75.4189ZM412.589 74.9229C412.622 75.294 412.655 75.6645 412.693 76.0342C412.655 75.6645 412.622 75.294 412.589 74.9229ZM412.476 73.5244C412.501 73.8801 412.527 74.2354 412.558 74.5898C412.527 74.2354 412.501 73.8801 412.476 73.5244ZM891.527 74.0146V74.0156V74.0146ZM762.386 72.124C763.154 72.3073 763.913 72.5046 764.661 72.7197C763.913 72.5046 763.154 72.3073 762.386 72.124ZM885.433 72.124C886.2 72.3073 886.96 72.5046 887.708 72.7197C886.96 72.5046 886.2 72.3073 885.433 72.124ZM412.312 70.5615C412.325 70.9051 412.337 71.2482 412.354 71.5908C412.337 71.2482 412.325 70.9051 412.312 70.5615ZM445.422 63.6123H445.423H445.422ZM716.808 56.7002H738.548C743.511 56.7002 746.118 55.5534 747.552 54.0938C748.998 52.6209 750.028 50.04 750.028 45.3994C750.028 41.3378 749.017 39.0937 747.625 37.7891C746.177 36.4328 743.543 35.3594 738.728 35.3594H716.808V56.7002ZM839.854 56.7002H861.595C866.557 56.7002 869.165 55.5534 870.599 54.0938C872.045 52.6209 873.075 50.04 873.075 45.3994C873.075 41.3378 872.064 39.0937 870.672 37.7891C869.224 36.4328 866.59 35.3594 861.774 35.3594H839.854V56.7002ZM446.736 52.5762C446.604 53.1791 446.481 53.794 446.368 54.4209C446.481 53.794 446.604 53.1791 446.736 52.5762ZM538.074 53.4893C538.039 53.1092 538.005 52.7311 537.967 52.3555L537.961 52.3076C538.001 52.6991 538.038 53.093 538.074 53.4893ZM537.39 47.7988C537.507 48.5723 537.612 49.3564 537.712 50.1504C537.612 49.3564 537.507 48.5723 537.39 47.7988ZM753.791 49.1562C753.801 49.0862 753.81 49.016 753.819 48.9453C753.81 49.016 753.801 49.0862 753.791 49.1562ZM876.838 49.1562C876.847 49.0862 876.857 49.016 876.866 48.9453C876.857 49.016 876.847 49.0862 876.838 49.1562ZM537.245 46.8984C537.214 46.7062 537.184 46.5142 537.151 46.3232C537.184 46.5142 537.214 46.7062 537.245 46.8984ZM537.001 45.4775C536.967 45.2905 536.934 45.1038 536.899 44.918C536.934 45.1038 536.967 45.2905 537.001 45.4775ZM536.761 44.2119C536.712 43.9641 536.663 43.7172 536.612 43.4717C536.663 43.7172 536.712 43.9641 536.761 44.2119ZM450.588 42.3389C450.324 42.7856 450.07 43.244 449.827 43.7148C450.07 43.244 450.324 42.7856 450.588 42.3389ZM536.385 42.4258C536.363 42.329 536.342 42.2322 536.32 42.1357C536.342 42.2322 536.363 42.329 536.385 42.4258ZM536.147 41.4072C536.089 41.1621 536.032 40.9175 535.971 40.6748C536.032 40.9175 536.089 41.1621 536.147 41.4072ZM535.79 39.9814C535.739 39.7865 535.689 39.5918 535.637 39.3984C535.689 39.5918 535.739 39.7865 535.79 39.9814ZM535.325 38.2949C535.307 38.2327 535.289 38.1705 535.271 38.1084C535.289 38.1705 535.307 38.2327 535.325 38.2949ZM534.919 36.9609C534.895 36.8859 534.871 36.8111 534.847 36.7363C534.871 36.8111 534.895 36.8859 534.919 36.9609ZM457.076 35.1494V35.1504V35.1494ZM534.783 36.5381C534.732 36.38 534.68 36.2224 534.627 36.0654C534.68 36.2224 534.732 36.38 534.783 36.5381ZM534.55 35.8369C534.511 35.7233 534.472 35.6101 534.433 35.4971C534.472 35.6101 534.511 35.7233 534.55 35.8369ZM534.335 35.2168C534.298 35.113 534.261 35.0096 534.224 34.9062C534.261 35.0096 534.298 35.113 534.335 35.2168ZM534.079 34.5098C534.056 34.4469 534.033 34.384 534.01 34.3213C534.033 34.384 534.056 34.4469 534.079 34.5098ZM748.235 33.334C748.335 33.3889 748.433 33.4447 748.529 33.502C748.336 33.3877 748.138 33.278 747.935 33.1729L748.235 33.334ZM871.282 33.334C871.381 33.3889 871.48 33.4447 871.576 33.502C871.383 33.3877 871.185 33.278 870.981 33.1729L871.282 33.334ZM533.626 33.3223C533.581 33.2099 533.536 33.098 533.491 32.9863C533.536 33.098 533.581 33.2099 533.626 33.3223ZM462.446 32.2461C461.954 32.4398 461.473 32.6454 461.003 32.8633C461.473 32.6454 461.954 32.4398 462.446 32.2461ZM533.419 32.8076C533.374 32.6986 533.329 32.5899 533.284 32.4814C533.329 32.5899 533.374 32.6986 533.419 32.8076ZM464.739 31.4551V31.4561V31.4551ZM532.922 31.6357C532.862 31.4996 532.803 31.3636 532.742 31.2285C532.803 31.3636 532.862 31.4996 532.922 31.6357ZM865.48 31.5791H865.481H865.48ZM532.672 31.0732C532.606 30.9285 532.54 30.7842 532.474 30.6406C532.54 30.7842 532.606 30.9285 532.672 31.0732ZM532.409 30.502C532.341 30.3558 532.271 30.2104 532.201 30.0654C532.271 30.2104 532.341 30.3558 532.409 30.502ZM480.991 30.0791C480.747 30.061 480.501 30.0434 480.253 30.0283L480.211 30.0264C480.474 30.0421 480.734 30.06 480.991 30.0791ZM532.116 29.8896C532.068 29.791 532.019 29.6928 531.971 29.5947C532.019 29.6928 532.068 29.791 532.116 29.8896ZM531.809 29.2695C531.773 29.2 531.738 29.1308 531.702 29.0615C531.738 29.1308 531.773 29.2 531.809 29.2695ZM531.527 28.7236C531.494 28.66 531.46 28.5966 531.427 28.5332C531.46 28.5966 531.494 28.66 531.527 28.7236ZM531.231 28.167C531.193 28.0958 531.154 28.025 531.115 27.9541C531.154 28.025 531.193 28.0958 531.231 28.167ZM530.972 27.6924C530.901 27.5652 530.83 27.4386 530.758 27.3125C530.83 27.4386 530.901 27.5652 530.972 27.6924ZM530.661 27.1426C530.605 27.0458 530.549 26.9497 530.492 26.8535C530.549 26.9497 530.605 27.0458 530.661 27.1426ZM530.317 26.5566C530.248 26.4403 530.178 26.3245 530.107 26.209C530.178 26.3245 530.248 26.4403 530.317 26.5566ZM530.036 26.0918C529.962 25.9714 529.887 25.8518 529.812 25.7324C529.887 25.8518 529.962 25.9714 530.036 26.0918ZM529.707 25.5645C529.622 25.4297 529.535 25.2956 529.448 25.1621C529.535 25.2956 529.622 25.4297 529.707 25.5645ZM529.359 25.0254C529.293 24.925 529.227 24.8253 529.16 24.7256C529.227 24.8253 529.293 24.925 529.359 25.0254ZM529.05 24.5596C528.961 24.4285 528.871 24.2987 528.781 24.1689C528.871 24.2987 528.961 24.4285 529.05 24.5596ZM528.699 24.0498C528.612 23.9254 528.525 23.8019 528.437 23.6787C528.525 23.8019 528.612 23.9254 528.699 24.0498ZM528.334 23.5361C528.269 23.4457 528.204 23.3554 528.138 23.2656C528.204 23.3554 528.269 23.4457 528.334 23.5361ZM527.972 23.041C527.881 22.9193 527.789 22.7983 527.697 22.6777C527.789 22.7983 527.881 22.9193 527.972 23.041ZM527.593 22.541C527.514 22.439 527.435 22.3375 527.355 22.2363C527.435 22.3375 527.514 22.439 527.593 22.541ZM527.264 22.1191C527.189 22.0245 527.113 21.9308 527.037 21.8369C527.113 21.9308 527.189 22.0245 527.264 22.1191ZM526.485 21.167C526.375 21.0366 526.264 20.9072 526.152 20.7783C526.264 20.9072 526.375 21.0366 526.485 21.167ZM781.09 20.5859C781.123 20.6298 781.155 20.6747 781.188 20.7188C780.994 20.4589 780.797 20.2009 780.594 19.9473L781.09 20.5859ZM904.137 20.5859C904.17 20.6298 904.202 20.6747 904.234 20.7188C904.041 20.4589 903.844 20.2009 903.641 19.9473L904.137 20.5859ZM526.09 20.7061C526.003 20.6067 525.916 20.5086 525.828 20.4102C525.916 20.5086 526.003 20.6067 526.09 20.7061ZM520.118 15.1504C520.015 15.0727 519.912 14.9949 519.808 14.918C519.912 14.9949 520.015 15.0727 520.118 15.1504ZM771.573 12.4609C772.095 12.7486 772.604 13.0463 773.1 13.3545C772.604 13.0463 772.095 12.7486 771.573 12.4609ZM894.62 12.4609C895.142 12.7486 895.651 13.0463 896.146 13.3545C895.651 13.0463 895.142 12.7486 894.62 12.4609ZM518.891 14.2598C518.864 14.2409 518.837 14.2219 518.81 14.2031C518.837 14.2219 518.864 14.2409 518.891 14.2598ZM517.446 13.2969C517.384 13.2571 517.321 13.2172 517.259 13.1777C517.321 13.2173 517.384 13.2571 517.446 13.2969ZM439.729 12.7061C439.453 12.8679 439.18 13.0315 438.908 13.1973C439.18 13.0315 439.453 12.8679 439.729 12.7061ZM516.883 12.9443C516.826 12.9095 516.77 12.8745 516.713 12.8398C516.77 12.8745 516.826 12.9095 516.883 12.9443ZM516.418 12.6621C516.338 12.6142 516.258 12.566 516.178 12.5186C516.258 12.566 516.338 12.6142 516.418 12.6621ZM515.776 12.2852C515.735 12.2611 515.693 12.2368 515.651 12.2129C515.693 12.2368 515.735 12.2611 515.776 12.2852ZM515.248 11.9854C515.189 11.9525 515.13 11.9194 515.071 11.8867C515.13 11.9194 515.189 11.9525 515.248 11.9854ZM514.721 11.6953C514.642 11.6525 514.563 11.6088 514.483 11.5664C514.563 11.6088 514.642 11.6525 514.721 11.6953ZM514.173 11.4033C514.085 11.357 513.996 11.3105 513.907 11.2646C513.996 11.3105 514.085 11.357 514.173 11.4033ZM512.964 10.792C512.884 10.7528 512.803 10.7127 512.723 10.6738C512.803 10.7127 512.884 10.7528 512.964 10.792ZM512.372 10.5078C512.305 10.4763 512.239 10.4443 512.172 10.4131C512.239 10.4443 512.305 10.4763 512.372 10.5078ZM508.632 8.9209C508.543 8.88695 508.453 8.85293 508.363 8.81934C508.453 8.85293 508.543 8.88695 508.632 8.9209ZM507.975 8.67578C507.899 8.64829 507.824 8.62002 507.749 8.59277C507.824 8.62003 507.899 8.64829 507.975 8.67578ZM507.284 8.42773C507.229 8.40829 507.174 8.38845 507.118 8.36914C507.174 8.38845 507.229 8.40829 507.284 8.42773ZM506.004 7.99414C505.898 7.9596 505.792 7.92472 505.686 7.89062C505.792 7.92472 505.898 7.9596 506.004 7.99414ZM505.348 7.78418C505.213 7.74182 505.077 7.69985 504.941 7.6582C505.077 7.69985 505.213 7.74182 505.348 7.78418ZM504.691 7.58203C504.569 7.54499 504.446 7.50815 504.322 7.47168C504.446 7.50815 504.569 7.54499 504.691 7.58203ZM503.259 7.16699C503.136 7.13297 503.013 7.0989 502.89 7.06543C503.013 7.0989 503.136 7.13297 503.259 7.16699ZM502.501 6.96094C502.376 6.92786 502.251 6.8958 502.125 6.86328C502.251 6.8958 502.376 6.92786 502.501 6.96094ZM501.819 6.78516C501.707 6.75652 501.594 6.72741 501.48 6.69922C501.594 6.72741 501.707 6.75652 501.819 6.78516ZM455.467 6.36816C455.021 6.48059 454.579 6.59788 454.141 6.71777C454.579 6.59787 455.021 6.48059 455.467 6.36816ZM500.268 6.40918C500.165 6.38544 500.061 6.36226 499.958 6.33887C500.061 6.36226 500.165 6.38544 500.268 6.40918ZM499.565 6.25098C499.447 6.22483 499.328 6.19855 499.209 6.17285C499.328 6.19855 499.447 6.22483 499.565 6.25098ZM498.77 6.0791C498.683 6.06107 498.597 6.04416 498.511 6.02637C498.597 6.04416 498.683 6.06107 498.77 6.0791ZM498 5.92188C497.873 5.89659 497.746 5.87244 497.618 5.84766C497.746 5.87244 497.873 5.89659 498 5.92188ZM497.315 5.78906C497.205 5.76798 497.094 5.74727 496.982 5.72656C497.094 5.74727 497.205 5.76798 497.315 5.78906ZM459.025 5.56836H459.026H459.025ZM494.085 5.23828C493.812 5.19698 493.538 5.15935 493.263 5.12012C493.538 5.15935 493.812 5.19698 494.085 5.23828ZM492.381 4.99609C492.191 4.97079 491.999 4.94817 491.808 4.92383C491.999 4.94817 492.191 4.97079 492.381 4.99609ZM462.744 4.92676H462.745H462.744ZM490.709 4.78809C490.516 4.76574 490.322 4.74601 490.128 4.72461C490.322 4.74601 490.516 4.76574 490.709 4.78809ZM464.664 4.66699H464.665H464.664Z" fill="#3A3A39"/>
</svg>
