<svg width="310" height="112" viewBox="0 0 310 112" fill="none" xmlns="http://www.w3.org/2000/svg">
<path d="M222.616 67.5084C237.281 66.608 251.986 66.5582 266.656 67.3591C273.112 67.7039 279.55 68.5327 285.979 69.281C289.001 69.6321 290.74 71.4712 290.824 73.8848C290.901 76.1925 289.362 77.6905 287.088 77.4096C270.286 75.3383 253.441 75.5295 236.582 76.3802C220.398 77.1913 204.253 78.5321 188.205 80.7166C173.219 82.7549 158.279 85.1494 143.362 87.6606C133.747 89.2803 124.186 91.2603 114.651 93.3176C106.119 95.1601 97.6384 97.2613 89.1674 99.3713C77.4221 102.294 65.832 105.809 54.4417 109.902C53.3056 110.308 52.2142 110.777 51.1053 111.219C49.9964 111.66 48.8446 111.693 47.7786 111.06C46.8306 110.522 45.9981 109.802 45.3287 108.941C44.6593 108.081 44.1663 107.097 43.8777 106.046C43.3202 104.073 43.9793 102.5 45.907 101.686C50.8426 99.5983 55.7684 97.4491 60.8321 95.7163C81.3645 88.6927 102.5 84.0161 123.817 80.1791C139.268 77.3994 154.761 74.798 170.315 72.6744C183.757 70.8376 197.305 69.7539 210.812 68.4086C214.734 68.0159 218.678 67.8047 222.616 67.5084Z" fill="#FF6600"/>
<path d="M276.096 19.9003C277.642 18.4066 279.226 16.941 280.733 15.4121C285.263 10.8405 289.776 6.2558 294.272 1.65805C294.773 1.1409 295.386 0.744512 296.063 0.49888C296.74 0.253248 297.464 0.1648 298.18 0.240237C298.896 0.315674 299.586 0.553017 300.197 0.934305C300.808 1.31559 301.324 1.83084 301.706 2.44107C302.596 3.81961 302.154 5.05208 301.289 6.09694C298.943 8.93289 296.63 11.8158 294.063 14.429C289.171 19.3848 284.105 24.1688 279.108 29.0188C278.948 29.1503 278.779 29.2712 278.603 29.3806C278.809 29.7029 279.033 30.0139 279.272 30.3121C284.085 35.5415 289.1 40.5601 294.718 44.9371C295.77 45.7577 295.984 46.6996 295.494 47.8581C294.621 49.9181 292.351 51.2642 290.278 50.4536C287.828 49.497 285.376 48.3072 283.274 46.7491C279.541 43.9799 276.072 40.8561 272.491 37.8808C272.096 37.5532 271.71 37.2136 271.129 36.7169C270.485 39.2212 269.889 41.4757 269.33 43.7378C268.585 46.7484 267.885 49.773 267.131 52.7841C266.573 55.0137 265.083 55.7791 262.901 55.0153C261.272 54.4468 260.15 53.5301 258.329 51.2882C258.067 51.6476 257.825 52.0059 257.557 52.3424C255.656 54.7456 253.567 55.3479 250.733 54.2273C245.801 52.2742 241.659 49.0557 237.517 45.851C236.751 45.2569 236.02 44.6196 235.11 43.8615C234.518 45.9703 233.908 47.9297 233.386 49.9172C232.758 52.3189 232.198 54.7382 231.602 57.1499C230.987 59.6389 229.504 60.3669 227.134 59.3487C224.174 58.077 223.078 56.4288 223.792 53.2694C225.316 46.5254 227.014 39.8191 228.76 33.129C229.689 29.5733 230.884 26.0925 231.888 22.5493C231.984 22.2072 231.665 21.6656 231.403 21.3177C230.679 20.3472 229.698 19.5208 229.159 18.4651C228.489 17.1685 228.92 15.7539 230.112 14.9313C237.257 10.0055 245.034 6.9351 253.857 7.23043C256.887 7.33149 259.58 8.43117 261.581 10.8494C263.709 13.4232 263.812 17.1348 261.737 20.7066C259.663 24.2783 256.877 27.1817 253.614 29.5951C250.455 31.9433 247.095 34.0285 243.822 36.2251C243.421 36.494 243.005 36.7268 242.348 37.1468C247.186 41.8644 252.573 45.9835 258.394 49.4152C258.662 48.131 258.851 46.9709 259.146 45.8426C261.557 36.8045 263.952 27.7602 266.429 18.7374C267.626 14.3782 268.943 10.0503 270.288 5.7325C271.261 2.61609 273.769 1.5358 276.798 2.79493C279.14 3.77053 279.957 5.51084 279.214 8.07069C278.201 11.5611 277.153 15.0394 276.124 18.526C276.013 18.9012 275.93 19.2843 275.832 19.6657L276.096 19.9003ZM238.941 29.9103C239.313 29.7538 239.675 29.5734 240.024 29.3703C242.949 27.2253 245.981 25.209 248.746 22.8729C250.618 21.294 252.175 19.3167 253.733 17.4017C254.191 16.8387 254.552 15.6333 254.254 15.1738C253.92 14.6607 252.758 14.3862 252.021 14.4888C250.062 14.7613 248.145 15.3023 246.205 15.7218C243.956 16.207 242.587 17.3895 242.029 19.7971C241.256 23.0934 240.07 26.2894 238.941 29.9103Z" fill="#FF6600"/>
<path d="M168.996 46.9297C168.288 48.4432 167.578 49.9559 166.867 51.468C164.745 55.9619 162.7 60.4868 160.469 64.9213C158.687 68.4743 155.157 69.2595 151.843 67.085C150.003 65.8748 149.497 63.9623 149.46 61.9949C149.389 58.1846 149.26 54.3494 149.601 50.5631C150.348 42.0838 151.347 33.6269 152.305 25.1697C152.601 22.539 154.378 21.0896 156.769 21.3047C159.522 21.5532 161.458 23.496 161.31 26.0849C161.188 28.3398 160.834 30.5804 160.586 32.8228C160.078 37.4977 159.575 42.1724 159.077 46.8468C159.064 46.9722 159.103 47.1021 159.331 47.3292C159.586 46.7622 159.824 46.1844 160.097 45.628C162.97 39.7758 165.826 33.9151 168.727 28.0799C169.968 25.5931 171.65 24.9156 174.589 25.5481C176.805 26.0236 178.154 27.5949 178.249 30.1236C178.428 35.1328 178.501 40.1472 178.621 45.1593C178.605 45.5214 178.711 45.8782 178.922 46.1734C179.089 45.8209 179.279 45.4766 179.421 45.1138C183.235 35.3685 187.05 25.6216 190.865 15.8732C191.921 13.1873 194.117 12.3232 196.8 13.4233C199.305 14.4581 200.083 16.2096 199.137 18.7445C196.15 26.6709 193.139 34.587 190.163 42.5221C188.115 47.9624 186.129 53.4206 184.106 58.8666C183.797 59.6974 183.451 60.5162 183.087 61.3242C182.144 63.4199 180.773 65.1016 178.289 65.1637C175.628 65.2298 173.343 64.152 172.086 61.765C171.236 60.1557 170.724 58.299 170.405 56.4931C169.928 53.791 169.754 51.0351 169.453 48.3014C169.405 47.8716 169.368 47.4411 169.326 47.0109L168.996 46.9297Z" fill="#FF6600"/>
<path d="M48.6073 57.3118C51.3558 56.3124 53.8585 55.4404 56.3146 54.4644C56.6932 54.312 56.9701 53.6792 57.1208 53.2097C59.2325 46.2963 61.3067 39.3708 63.4068 32.4556C64.0068 30.5221 65.1664 29.5971 67.0184 29.4661C69.0109 29.326 71.377 30.4114 71.9045 32.0039C72.1796 32.9641 72.1783 33.9824 71.9007 34.9418C70.4842 40.0258 68.953 45.0783 67.4708 50.1423C67.3498 50.5572 67.2805 50.9882 67.1577 51.5581C69.1379 51.4972 70.3376 52.4563 71.0177 54.1454C71.5711 55.5055 71.1042 56.7507 69.7564 57.3196C68.6239 57.7996 67.4634 58.2739 66.287 58.6589C65.377 58.9594 64.9552 59.5599 64.7558 60.4571C63.1991 67.4246 61.5723 74.377 60.0718 81.358C59.2751 85.0622 57.5327 85.8836 54.2735 83.9145C52.2999 82.7224 51.4449 81.0024 51.8355 78.7508C52.5908 74.3829 53.4089 70.0235 54.2085 65.6627C54.335 64.9794 54.5058 64.3032 54.7429 63.2285C52.9964 63.9669 51.6055 64.7436 50.1136 65.1508C46.8421 66.0414 45.2789 68.0375 44.7302 71.4201C44.0214 75.7926 42.7221 80.0481 41.7753 84.3767C41.1719 87.1032 39.8094 87.8461 37.2629 86.6608C34.3613 85.3031 33.4518 83.7938 33.9265 80.6506C34.3576 77.803 34.947 74.9778 35.525 72.1555C35.6826 71.3968 35.5949 71.1121 34.8331 70.6542C33.6815 69.9429 32.6912 68.9987 31.9258 67.8823C31.0005 66.5262 31.6018 64.9532 33.0645 64.18C34.1796 63.5425 35.3313 62.9714 36.5137 62.4696C37.671 62.0254 38.2093 61.3014 38.5352 60.1046C39.8907 55.0975 41.3703 50.1238 42.8008 45.1385C43.2658 43.519 44.1706 42.3427 45.9488 42.1205C47.9547 41.8735 49.8825 42.2127 51.0092 44.0074C51.5113 44.8314 51.6171 46.1623 51.3917 47.1439C50.701 50.1196 49.76 53.0356 48.9219 55.9768C48.8156 56.3125 48.7583 56.6573 48.6073 57.3118Z" fill="#FF6600"/>
<path d="M90.1009 61.2447C87.8233 62.2792 85.814 63.1735 83.8127 64.0906C83.0483 64.4396 82.3329 64.941 81.5353 65.176C79.3612 65.8171 78.2643 67.3216 77.5784 69.3933C76.675 72.1296 75.5837 74.8056 74.5604 77.4992C73.6316 79.9501 72.2496 80.479 69.8975 79.3005C66.8185 77.7618 66.1776 76.2627 67.207 72.9286C67.6789 71.4034 68.282 69.9159 68.6768 68.3737C68.8324 67.7231 68.7569 67.0387 68.4632 66.4378C67.4351 64.5806 67.5526 63.1835 69.4641 62.1783C71.3305 61.196 72.0715 59.644 72.8828 57.8737C76.6465 49.6532 80.5257 41.4803 84.4312 33.3247C85.1534 31.8152 86.1689 30.4418 87.1041 29.0353C88.5248 26.9119 90.5982 26.2918 93.0309 26.6043C95.6451 26.9404 97.726 28.1043 98.5306 30.7443C99.0337 32.3506 99.311 34.019 99.3546 35.7016C99.3997 40.3221 99.2798 44.9275 99.1465 49.5404C99.116 50.6328 99.4606 50.8288 100.449 50.6632C102.141 50.3759 103.274 50.973 104.082 52.4386C104.89 53.9043 104.478 55.1377 102.992 55.845C102.473 56.1012 101.929 56.2938 101.406 56.5202C98.6886 57.6753 99.0421 57.1474 99.0405 60.1776C99.0324 64.8007 99.1229 69.4051 99.1422 74.0199C99.1557 76.9339 97.5489 78.0261 94.8022 77.0978C92.3987 76.2892 90.9671 74.7404 90.7548 72.2082C90.5064 69.2154 90.3557 66.1902 90.1689 63.1806C90.1344 62.6576 90.1298 62.1309 90.1009 61.2447ZM89.8532 42.7036L89.663 42.5949L83.124 55.5673L83.4514 55.8381C84.3023 55.5105 85.156 55.1919 86.0042 54.8551C87.2743 54.3523 89.0292 54.1729 89.6772 53.2333C90.3598 52.2434 90.0595 50.5221 90.0566 49.1216C90.0416 46.9912 89.9241 44.8428 89.8532 42.7036Z" fill="#FF6600"/>
<path d="M225.853 25.6742C225.774 33.2685 223.76 39.7796 220.633 46.0047C218.236 50.7824 215.171 55.0514 210.898 58.3247C207.098 61.2424 202.969 62.1744 198.449 60.0812C195.139 58.5537 193.58 55.7975 193.169 52.318C192.608 47.5444 193.563 42.9404 195.024 38.4391C197.345 31.2798 200.74 24.665 205.792 19.0404C207.327 17.3253 209.268 15.8818 211.244 14.67C213.06 13.5562 215.146 13.6311 217.082 14.7696C217.422 14.9752 217.799 15.1139 218.191 15.1784C222.088 15.7161 224.184 18.1944 225.173 21.7754C225.58 23.212 225.694 24.7273 225.853 25.6742ZM216.872 26.0244C216.787 25.2727 216.78 24.4109 216.571 23.6075C216.426 23.0459 216.002 22.5555 215.704 22.0313C215.239 22.3173 214.69 22.5241 214.325 22.9046C211.592 25.8254 209.312 29.1391 207.56 32.7352C204.852 38.1589 202.585 43.7346 202.31 49.8984C202.29 50.8682 202.396 51.8365 202.624 52.7793C202.82 53.6667 203.374 53.9542 204.169 53.271C204.637 52.8648 205.137 52.4893 205.575 52.0475C208.284 49.3743 210.379 46.2268 212.096 42.8573C214.782 37.608 216.664 32.0971 216.872 26.0244Z" fill="#FF6600"/>
<path d="M19.673 50.0985C15.5691 51.8914 11.7169 53.5843 7.85435 55.2546C4.76391 56.5918 1.65532 54.9667 0.867916 51.6302C0.539455 50.2361 1.0901 49.0978 2.71328 48.3445C7.77945 45.9921 12.822 43.5807 17.9716 41.4253C26.0777 38.0294 34.3784 35.1718 42.9575 33.1953C44.0765 32.9198 45.2146 32.7282 46.3621 32.6219C48.6025 32.4444 50.4317 33.7083 51.1645 35.8178C51.7466 37.4862 51.1855 38.5049 49.5149 39.0894C44.1161 40.9679 38.7425 42.9353 33.336 44.798C31.6353 45.3816 30.7366 46.2039 30.2635 48.1821C28.0241 57.7667 25.462 67.2743 23.0941 76.8281C22.1273 80.7416 21.3454 84.704 20.498 88.6488C20.064 90.6713 18.7224 91.6074 16.8086 90.9371C13.658 89.8295 11.6747 88.1986 12.4043 84.4468C13.8623 76.9177 15.353 69.3963 16.9277 61.8917C17.6786 58.2937 18.6628 54.7422 19.5328 51.1685C19.6012 50.911 19.605 50.6542 19.673 50.0985Z" fill="#FF6600"/>
<path d="M114.617 37.8151C112.417 38.6401 110.434 39.4037 108.441 40.124C105.698 41.1301 102.529 39.0756 102.267 36.139C102.143 34.7582 102.681 33.7823 104.232 33.1781C109.723 31.0456 115.172 28.7648 120.773 26.9667C125.699 25.3884 130.792 24.3221 135.843 23.1468C138.586 22.5106 140.698 23.837 141.529 26.4365C141.967 27.8022 141.375 28.8477 139.98 29.3034C135.599 30.7328 131.233 32.2033 126.852 33.635C125.969 33.9227 125.503 34.4167 125.26 35.3553C122.499 45.5382 119.671 55.7036 116.894 65.8827C116.324 67.9765 115.896 70.1097 115.387 72.2214C114.694 75.1024 113.308 75.7887 110.646 74.5604C107.69 73.2077 106.718 71.7453 107.353 68.5851C108.642 62.1528 110.083 55.741 111.589 49.3676C112.434 45.7905 113.54 42.2724 114.52 38.7281C114.571 38.4261 114.604 38.1211 114.617 37.8151Z" fill="#FF6600"/>
<ellipse cx="303.801" cy="41.6803" rx="4.95027" ry="5.59686" transform="rotate(11.8713 303.801 41.6803)" fill="#FF6600"/>
</svg>
