<svg width="474" height="112" viewBox="0 0 474 112" fill="none" xmlns="http://www.w3.org/2000/svg">
<path d="M48.7956 86.9741C47.823 90.5274 46.8991 93.8933 45.9822 97.2613C45.6092 98.6314 45.262 100.01 44.8867 101.38C44.3836 103.216 42.9921 103.981 41.1721 103.434C37.7246 102.4 36.4373 100.489 37.3651 97.0115C39.602 88.622 42.0075 80.2753 44.3684 71.9168C44.9015 70.0305 45.514 68.1634 46.1223 66.3035C46.3075 65.7352 46.209 65.4187 45.6796 65.0813C45.1364 64.7292 44.6607 64.2825 44.2754 63.7623C42.948 61.9773 43.2257 60.3067 45.013 58.9792C48.9897 56.0601 53.4053 53.792 58.0944 52.2598C61.7634 51.0334 65.4944 50.086 69.4056 50.5744C70.7026 50.7278 71.9711 51.065 73.1729 51.576C77.1467 53.3119 78.7421 57.3468 77.1826 61.4784C75.7488 65.2943 73.0554 68.2025 70.128 70.9047C66.3264 74.4119 62.0628 77.3035 57.6756 80.0276C57.321 80.2458 56.9762 80.4774 56.4225 80.8346C61.2074 84.8624 66.3307 88.4701 71.7355 91.6176C71.9176 91.361 72.0754 91.0879 72.2069 90.8021C72.5988 89.6783 72.9082 88.5216 73.3543 87.4207C73.7676 86.4069 73.7139 85.582 73.0742 84.6352C72.1087 83.2118 72.35 81.7463 73.8671 80.9982C76.0775 79.9115 76.9781 78.0744 77.8203 75.9374C81.7593 65.9865 86.2253 56.276 91.6807 47.0448C93.5159 43.933 95.5561 43.0556 98.8932 43.8121C101.251 44.3478 102.82 45.7791 103.033 48.1772C103.314 51.3094 103.376 54.4683 103.366 57.6168C103.355 60.7284 103.137 63.8407 103.017 66.9552C103.005 67.2863 103.049 67.6217 103.074 68.1313C105.761 67.4862 107.366 68.569 107.959 71.3117C109.283 70.5035 110.533 69.7752 111.736 68.9822C111.985 68.8199 112.137 68.4243 112.216 68.1061C113.264 64.0061 114.298 59.9036 115.32 55.7987C115.343 55.6392 115.349 55.4778 115.339 55.317C113.131 55.5022 111.738 54.319 110.765 52.5908C110.006 51.2406 110.38 50.067 111.684 49.2158C117.374 45.5354 123.47 42.5229 129.85 40.2379C133.356 38.987 136.95 37.986 140.524 36.9353C142.664 36.3073 144.563 36.7796 146.044 38.5341C147.677 40.4708 147.184 42.1425 144.776 42.8551C138.93 44.5818 133.374 47.0295 127.842 49.5501C126.63 50.1032 125.92 50.9025 125.581 52.2178C124.724 55.5297 123.745 58.8105 122.822 62.1071C122.714 62.496 122.667 62.9028 122.543 63.5444C123.817 63.0391 124.862 62.5981 125.922 62.2094C127.619 61.5913 129.315 60.964 131.036 60.421C133.238 59.7253 135.015 60.5271 136.015 62.5729C136.728 64.034 136.258 65.1245 134.787 65.8681C130.225 68.1685 125.678 70.5051 121.171 72.916C120.54 73.3062 120.087 73.9279 119.908 74.6481C118.842 79.7683 117.879 84.9159 116.895 90.0483C116.516 92.0243 115.334 92.7655 113.382 92.2125C109.762 91.1854 108.596 89.5359 109.02 85.778C109.323 83.1053 109.752 80.4451 110.176 77.7874C110.291 77.0653 110.204 76.5957 109.562 76.1228C108.318 75.2098 107.422 74.0234 107.385 72.2986C106.063 72.9402 104.758 73.4862 103.561 74.2097C103.191 74.4333 102.913 75.1401 102.923 75.6273C102.903 80.8195 102.948 86.0132 102.981 91.2052C102.994 91.4727 103.007 91.7425 102.997 92.0111C102.968 94.34 101.406 95.541 99.1512 94.894C97.0563 94.3017 95.3803 93.0998 95.1325 90.7912C94.7443 87.2019 94.5539 83.5916 94.2924 79.9916C94.2729 79.5881 94.2533 79.1822 94.2226 78.5458C92.4671 79.384 90.9019 80.0928 89.3793 80.8713C87.5753 81.8043 85.7729 82.7719 84.0178 83.8089C83.5088 84.1236 83.111 84.5897 82.8802 85.1419C81.5844 88.512 80.3523 91.909 79.1179 95.3062C78.422 97.2165 77.2666 97.797 75.3709 97.1673C73.7735 96.6342 72.5567 95.6552 71.8231 94.1512C71.6728 94.1978 71.5687 94.1959 71.5363 94.2437C69.3058 97.6426 66.0612 97.0781 63.2638 95.8194C58.3614 93.6152 53.8871 90.7016 49.5863 87.5069C49.3852 87.3617 49.1946 87.2438 48.7956 86.9741ZM52.6895 74.1247C53.4991 73.6118 54.0378 73.327 54.517 72.9594C57.4457 70.7148 60.4722 68.5787 63.2418 66.1498C65.16 64.4694 66.7932 62.4375 68.3978 60.437C68.9013 59.8071 68.9023 58.7739 69.1317 57.9238C68.2549 57.7651 67.354 57.3925 66.5033 57.4844C63.2843 57.8339 60.3225 59.0123 57.4876 60.5198C57.1583 60.6994 56.9018 60.988 56.762 61.336C55.668 64.5785 54.6092 67.8308 53.5599 71.0872C53.2702 71.9818 53.0392 72.8944 52.6895 74.1247ZM87.6107 73.2945L87.8553 73.574C89.614 72.8512 91.3595 72.0943 93.1395 71.4283C93.9045 71.1417 94.2011 70.7252 94.2079 69.909C94.2305 66.8801 94.3177 63.8503 94.3679 60.8201C94.3518 60.5875 94.3128 60.3571 94.2515 60.1323L93.9785 60.0784L87.6107 73.2945Z" fill="#FF6600"/>
<path d="M236.873 71.2543C235.645 72.3028 234.655 73.1919 233.611 74.0258C230.705 76.3526 227.65 78.3861 223.856 78.9829C217.752 79.9409 212.633 75.8865 212.209 69.7288C211.905 65.3519 212.985 61.2411 214.593 57.255C218.377 47.871 223.855 39.6417 231.552 32.9973C233.68 31.1611 235.966 29.4883 238.878 29.0843C243.063 28.5055 246.484 31.6688 246.257 35.8771C246.084 39.1329 244.964 42.1177 243.538 44.9925C242.805 46.4748 240.922 46.9262 238.953 46.2516C237.042 45.5949 236.139 44.2656 236.455 42.3897C236.658 41.1941 237.018 40.0234 237.116 38.6989C236.644 39.1632 236.147 39.6078 235.699 40.0963C229.613 46.7301 224.915 54.1912 222.294 62.8558C221.852 64.3171 221.707 65.8704 221.494 67.39C221.426 68.0049 221.442 68.6262 221.541 69.2368C221.836 71.4114 222.966 72.0364 224.906 71.039C226.029 70.4501 227.115 69.7917 228.157 69.0677C231.066 67.0783 236.372 62.0816 238.14 59.6272C236.326 60.3573 234.766 60.985 233.202 61.6267C231.124 62.4828 229.579 62.0327 228.28 60.2025C227.18 58.6376 227.4 57.1963 229.113 56.3601C232.39 54.7574 235.706 53.2197 239.079 51.8343C241.23 50.9952 243.436 50.3057 245.682 49.7705C246.651 49.5427 247.66 49.5423 248.629 49.7693C250.618 50.228 251.719 51.9107 251.402 53.923C251.187 55.1337 250.866 56.3233 250.443 57.4779C247.945 64.7066 245.428 71.93 242.893 79.1481C242.755 79.5477 242.676 79.9676 242.526 80.3608C242.149 81.3498 241.424 81.9441 240.364 82.0068C237.543 82.1776 235.219 79.6664 235.689 76.9002C235.997 75.0917 236.436 73.3116 236.873 71.2543Z" fill="#FF6600"/>
<path d="M189.708 61.0217C188.825 64.0691 187.888 67.119 187.07 70.184C185.97 74.3051 184.963 78.4539 183.915 82.5864C183.333 84.898 181.959 85.6 179.677 84.7648C176.632 83.6497 175.622 82.173 176.408 79.0171C178.403 70.9213 180.54 62.8579 182.689 54.8009C183.431 52.0169 184.4 49.2959 185.226 46.5333C185.79 44.6362 187.023 43.4626 188.959 43.2467C190.174 43.1176 191.402 43.1737 192.601 43.413C194.89 43.8757 195.735 45.7256 196.244 47.7373C197.193 51.5006 198.076 55.2764 199.011 59.0495C199.373 60.5758 199.862 62.0691 200.472 63.5138C200.703 62.6314 200.916 61.7427 201.167 60.8639C203.29 53.4391 205.42 46.0171 207.558 38.5978C207.848 37.6038 208.363 36.6798 208.676 35.694C209.83 32.0765 213.445 32.1285 215.736 33.518C217.074 34.3294 217.359 35.3465 216.863 36.9977C215.072 42.9965 213.102 48.9554 211.543 55.0147C209.772 61.9001 208.347 68.8728 206.821 75.8135C206.393 77.7641 206.129 79.8223 203.839 80.4506C201.369 81.1269 199.181 80.2848 197.358 78.6185C195.583 76.9961 194.609 74.8219 193.831 72.6012C192.585 69.0511 191.487 65.4476 190.323 61.8703C190.228 61.5814 190.11 61.3004 190.006 61.0142L189.708 61.0217Z" fill="#FF6600"/>
<path d="M409.111 30.731C409.854 30.6489 410.379 30.5704 410.909 30.5356C412.291 30.4411 413.272 31.1311 413.915 32.2835C414.586 33.49 414.157 34.7703 412.909 35.3899C411.959 35.8917 410.976 36.3298 409.968 36.7014C409.113 36.9946 408.876 37.5099 408.873 38.3398C408.844 42.5317 408.815 46.7235 408.763 50.9142C408.751 51.9132 408.76 52.9159 408.707 53.9216C408.586 56.2041 407.06 57.2924 404.854 56.694C401.941 55.91 400.714 54.5408 400.493 51.4982C400.282 48.5476 400.24 45.5841 400.123 42.6244C400.099 42.1355 400.076 41.6489 400.045 41.0102C399.577 41.183 399.226 41.2808 398.898 41.4376C395.656 42.937 392.404 44.416 389.19 45.9787C388.625 46.2756 388.173 46.7497 387.903 47.3283C386.363 50.8072 384.882 54.311 383.427 57.8275C382.52 60.0231 381.165 60.5739 379.05 59.511C375.916 57.9357 375.342 56.5951 376.466 53.2888C376.998 51.7261 377.669 50.2075 378.155 48.6285C378.308 48.0752 378.242 47.4841 377.971 46.9779C376.784 45.0775 377.025 43.6051 379.06 42.6216C380.731 41.8129 381.65 40.6036 382.392 38.9221C386.54 29.5251 391.141 20.3513 396.634 11.6545C397.708 9.9639 398.792 8.24509 400.972 7.77008C404.451 7.01509 409.082 8.19226 409.305 13.1C409.519 17.5413 409.344 22.0037 409.311 26.4569C409.301 27.8211 409.182 29.1882 409.111 30.731ZM400.428 22.367L400.068 22.2826L392.84 35.7807L393.116 35.9985C395.262 35.2015 397.421 34.4317 399.538 33.5667C399.821 33.4514 400.028 32.8497 400.051 32.4557C400.166 30.3884 400.207 28.3178 400.28 26.2456C400.324 24.9422 400.377 23.6591 400.428 22.3762L400.428 22.367Z" fill="#FF6600"/>
<path d="M353.361 54.8546C353.805 54.4703 354.351 54.1527 354.691 53.6902C357.027 50.5959 359.538 47.604 361.571 44.3186C363.948 40.4985 366.073 36.527 367.931 32.4295C369.743 28.4128 371.059 24.1681 372.59 20.0216C373.083 18.6873 373.533 17.3365 374.055 16.0217C374.818 14.0733 376.638 13.2274 378.77 13.7832C381.254 14.4284 382.501 15.9353 381.986 18.1513C381.31 21.1077 380.419 24.0052 379.543 26.9228C376.881 35.8344 373.98 44.6881 372.404 53.8893C372.184 55.1781 372.018 56.4759 371.879 57.7746C371.657 59.8655 370.096 60.8654 368.092 60.2016C365.743 59.4159 365.046 58.6221 363.973 55.438C363.386 56.1158 362.855 56.747 362.302 57.3677C360.624 59.2308 358.87 61.0004 356.581 62.144C351.2 64.8167 345.089 61.7117 344.091 55.7804C343.444 51.9471 344.033 48.1743 344.855 44.4527C346.567 36.6684 349.174 29.1083 352.624 21.9236C353.851 19.3682 355.955 18.5778 358.432 19.6602C360.515 20.5697 361.211 22.0685 360.488 24.2391C359.564 27.0111 358.535 29.7488 357.653 32.5372C355.863 38.2194 353.919 43.8696 353.106 49.8051C352.885 51.4129 352.911 53.0504 352.823 54.6726L353.361 54.8546Z" fill="#FF6600"/>
<path d="M29.7285 64.3996C28.6666 65.4331 27.5468 66.4163 26.5502 67.5092C20.3719 74.2585 15.7632 82.2911 13.0547 91.0311C12.3002 93.4528 12.175 96.0776 11.8679 98.6234C11.7784 99.3558 11.9699 100.162 12.1898 100.887C12.7034 102.572 13.7849 103.239 15.3596 102.488C17.8112 101.323 20.2554 100.054 22.4636 98.4911C25.6264 96.2582 28.5699 93.6962 31.6156 91.2887C33.5972 89.7254 35.9343 90.306 36.5499 92.6223C36.7394 93.3389 36.5879 94.414 36.1509 94.9852C34.1941 97.5435 32.2394 100.143 29.9847 102.418C26.5461 105.88 22.5833 108.681 17.8807 110.234C14.8216 111.283 11.4794 111.14 8.52125 109.833C4.40241 108.06 2.5696 104.709 2.16779 100.407C1.74729 95.9083 2.64112 91.5846 4.08112 87.3708C7.65421 77.0216 13.4472 68.0352 21.3391 60.4407C24.1268 57.7637 27.1921 55.4269 31.1183 54.5972C35.7789 53.6095 39.5566 56.7439 39.385 61.4743C39.2319 65.7715 37.6156 69.6378 35.6905 73.378C34.8558 74.9992 33.0144 75.3978 31.0326 74.6591C29.0508 73.9203 28.0242 72.4282 28.3936 70.6006C28.703 69.0602 29.2152 67.5562 29.6415 66.0448C29.7737 65.5762 29.9129 65.1072 30.0474 64.6384L29.7285 64.3996Z" fill="#FF6600"/>
<path d="M273.438 59.6179C274.475 57.1502 275.511 54.6779 276.562 52.2165C281.23 41.3313 286.114 30.549 292.003 20.2521C292.817 18.826 293.962 18.0334 295.583 18.2949C297.205 18.5564 298.616 19.2511 299.355 20.8218C299.852 21.8772 299.551 22.918 299.077 23.9301C296.493 29.4703 293.802 34.9671 291.368 40.5739C286.944 50.7655 282.675 61.0258 278.338 71.2501C278.039 71.958 277.727 72.6664 277.376 73.3444C276.258 75.5086 274.672 76.3271 272.256 75.926C268.994 75.39 266.551 73.6172 265.816 70.4099C264.815 65.9506 264.049 61.4419 263.521 56.9023C262.648 49.6383 262.33 42.3359 262.856 35.0206C262.916 34.1764 263.005 33.3331 263.129 32.4973C263.191 32.0387 263.325 31.5929 263.528 31.1768C264.336 29.5915 266.633 28.8196 268.941 29.3115C270.882 29.7286 272.229 31.1636 272.269 33.0524C272.326 35.7054 272.202 38.3717 272.295 41.0114C272.511 47.0104 272.812 53.0054 273.08 58.9904C273.097 59.1723 273.125 59.353 273.164 59.5318L273.438 59.6179Z" fill="#FF6600"/>
<path d="M333.215 26.0153C331.973 26.9582 330.689 27.8522 329.494 28.8529C326.242 31.5801 323.272 34.5895 320.835 38.0793C319.086 40.5837 319.375 41.3418 322.378 41.7885C326.103 42.3437 329.864 42.6407 333.566 43.2941C335.301 43.5956 336.963 44.2253 338.463 45.1495C341.892 47.3254 342.382 51.3165 339.844 54.9384C337.074 58.8881 333.313 61.7577 329.301 64.302C325.61 66.6771 321.624 68.5594 317.446 69.9013C314.317 70.882 311.677 70.1034 310.025 67.6175C308.753 65.7027 309.497 64.1159 311.673 63.4585C313.875 62.7908 316.019 61.9469 318.085 60.9348C322.39 58.8613 326.365 56.1656 329.885 52.9344C330.462 52.398 330.939 51.7532 331.465 51.1569L331.396 50.7304C330.26 50.5541 329.128 50.3776 327.989 50.2407C324.518 49.8373 321.025 49.6199 317.582 49.0233C314.857 48.5492 312.487 47.1775 311.197 44.5516C309.831 41.77 310.301 39.0061 311.617 36.3423C313.363 32.8119 315.945 29.9113 318.711 27.166C321.918 23.9834 325.41 21.1406 329.413 19.0221C330.903 18.2313 332.501 17.6606 334.155 17.3279C338.759 16.4238 342.47 19.9521 342.012 24.6292C341.676 28.0662 340.424 31.1938 338.753 34.1659C337.876 35.7268 336.281 36.199 334.574 35.5372C332.397 34.6969 331.494 33.3583 331.94 31.4392C332.225 30.2096 332.669 29.0187 333.033 27.8061C333.195 27.276 333.336 26.7422 333.488 26.2102L333.215 26.0153Z" fill="#FF6600"/>
<path d="M462.733 8.87343C460.773 10.4588 458.67 11.9009 456.888 13.665C454.478 16.0823 452.192 18.6203 450.039 21.2693C448.927 22.6219 449.304 23.3849 451.079 23.6645C453.545 24.0424 456.046 24.1967 458.518 24.5443C460.759 24.8591 463.017 25.1569 465.203 25.7217C469.001 26.6941 471.074 29.4023 470.769 32.7245C470.599 34.5957 469.639 36.1305 468.504 37.5605C466.282 40.3582 463.555 42.6232 460.648 44.6426C455.994 47.8719 451.052 50.609 445.713 52.5701C442.436 53.7753 439.853 52.9384 438.494 50.2628C437.751 48.7963 438.245 47.3972 439.786 46.812C446.025 44.4307 451.602 40.9257 456.873 36.8876C458.12 35.9353 459.23 34.8 460.37 33.7141C460.624 33.4707 460.742 33.0837 460.923 32.7629C460.556 32.5957 460.207 32.3121 459.824 32.2774C456.992 32.0234 454.146 31.8996 451.324 31.569C449.313 31.3332 447.25 31.0721 445.351 30.4219C440.554 28.7673 438.725 24.6305 440.802 20.0093C441.788 17.8844 443.049 15.898 444.552 14.1008C448.546 9.19389 453.489 5.14272 459.084 2.18948C460.749 1.32009 462.539 0.713667 464.39 0.391764C468.715 -0.350919 472.021 2.85718 471.626 7.22847C471.324 10.5575 470.026 13.5463 468.323 16.3674C467.449 17.8102 465.702 18.1557 463.914 17.4076C462.19 16.6842 461.342 15.2597 461.766 13.552C462.134 12.0781 462.647 10.6388 463.097 9.18408L462.733 8.87343Z" fill="#FF6600"/>
<path d="M149.15 55.6684C147.432 56.4239 145.87 57.1163 144.304 57.7975C143.247 58.2553 142.203 58.7564 141.121 59.1392C138.706 59.9954 135.608 57.5354 135.835 54.9658C135.924 53.889 136.585 53.2608 137.51 52.8047C145.823 48.7012 154.436 45.2344 163.273 42.4339C167.551 41.0718 171.941 40.0371 176.305 38.9943C178.195 38.5403 179.661 39.4195 180.494 41.0735C181.304 42.6777 180.848 43.9456 179.153 44.5543C175.645 45.8123 172.105 46.9908 168.6 48.2625C165.927 49.2329 163.27 50.2556 160.646 51.3507C160.073 51.6128 159.627 52.0892 159.402 52.6773C157.245 59.9003 155.097 67.1252 153.076 74.3833C151.849 78.7901 150.825 83.2519 149.746 87.6978C149.136 90.2096 147.704 90.9814 145.324 89.9914C142.565 88.8534 141.564 87.3345 142.221 84.3628C143.832 77.0853 145.604 69.8416 147.355 62.5942C147.852 60.5409 148.504 58.5263 149.076 56.4901C149.12 56.2183 149.145 55.9437 149.15 55.6684Z" fill="#FF6600"/>
<path d="M423.252 43.905C424.139 43.5155 424.785 43.2093 425.45 42.9461C429.272 41.4395 433.075 39.8877 436.931 38.4627C438.83 37.7632 440.4 38.501 441.409 40.2551C442.148 41.53 441.811 42.9238 440.543 43.6091C434.01 47.1417 427.475 50.619 420.97 54.1989C417.942 55.8682 415.279 54.425 413.516 52.3606C412.447 51.1109 412.564 49.6537 412.949 48.1952C414.252 43.2507 415.452 38.2766 416.903 33.3782C419.413 24.8993 422.078 16.4661 424.693 8.01441C425.375 5.80425 427.664 4.72992 430.087 5.46125C432.815 6.28187 433.828 7.97572 433.01 10.7495C431.061 17.3523 429.002 23.9211 427.03 30.5157C425.796 34.6432 424.637 38.7902 423.448 42.9387C423.38 43.1546 423.351 43.3779 423.252 43.905Z" fill="#FF6600"/>
<path d="M292.791 65.0909C293.27 62.4074 293.594 59.6852 294.252 57.0463C296.632 47.5011 299.11 37.979 301.584 28.4571C302.124 26.374 304.437 25.3147 306.944 25.9172C309.194 26.4604 310.551 28.304 310.02 30.4122C308.776 35.3261 307.347 40.2003 306.126 45.1223C304.371 52.208 302.664 59.3076 301.087 66.4356C300.374 69.6596 299.412 70.0412 298.123 70.0456C295.779 70.0501 293.381 68.0186 293.02 65.8079C292.981 65.5786 292.97 65.348 292.945 65.1181L292.791 65.0909Z" fill="#FF6600"/>
<path d="M160.986 81.044C161.388 79.1756 161.832 76.3089 162.624 73.5525C164.631 66.5772 166.783 59.6433 168.9 52.6995C169.407 51.041 170.66 50.1808 172.325 50.0611C174.041 49.939 175.616 50.3807 176.674 51.8968C177.329 52.8382 177.196 53.8616 176.894 54.8909C175.22 60.5651 173.512 66.2248 171.889 71.915C170.745 75.9411 169.737 80.0068 168.666 84.0548C168.08 86.2835 166.757 86.9807 164.608 86.1714C162.666 85.44 161.091 84.3742 160.986 81.044Z" fill="#FF6600"/>
</svg>
