<svg width="1106" height="134" viewBox="0 0 1106 134" fill="none" xmlns="http://www.w3.org/2000/svg">
<path d="M261.282 0C280.335 1.15903e-05 294.266 4.55427 303.708 12.3975C312.904 20.0366 317.39 30.421 318.458 41.501L318.551 42.5752L318.879 46.8799H279.735L279.276 43.4033C278.768 39.5543 277.124 36.6111 274.434 34.5684C271.68 32.4773 267.44 31.0401 261.282 31.04C255.612 31.04 251.623 32.1777 249.181 33.7949C246.911 35.2975 245.842 37.2697 245.842 39.8193C245.842 42.0591 246.475 43.6005 247.603 44.7158C248.801 45.9015 251.03 47.0693 255.09 47.5469L277.863 49.8779C291.502 51.1858 302.063 55.1174 309.215 62.1152C316.445 69.1889 319.643 78.8502 319.643 90.3994L319.63 91.583C319.386 103.764 315.33 114.458 305.916 122.063C296.358 129.786 281.884 133.819 262.002 133.819C241.612 133.819 227.257 128.504 217.808 119.829C208.651 111.424 204.582 100.306 203.723 89.1904L203.649 88.1143L203.4 83.8799H242.075L242.405 87.5176C242.788 91.7256 244.319 95.4264 247.237 98.0869C250.143 100.736 254.891 102.779 262.542 102.779C269.845 102.779 274.125 101.468 276.491 99.7852C278.601 98.2839 279.603 96.1934 279.603 93.0996C279.603 89.9881 278.72 88.1782 277.411 86.959C275.972 85.6191 273.494 84.5038 269.41 83.9268L243.384 81.0557L243.371 81.0547L243.358 81.0527C231.932 79.7196 222.475 75.7602 215.856 69.0137C209.192 62.2198 205.802 53.002 205.802 41.9795C205.802 29.632 210.499 18.9194 220.119 11.4004C229.612 3.98098 243.471 0 261.282 0ZM803.971 0C828.688 0 845.989 8.28158 857.045 21.1475C868.008 33.9055 872.411 50.6809 872.411 67L872.398 68.5547C872.13 84.6187 867.669 100.675 857.027 112.895C845.955 125.608 828.651 133.64 803.971 133.64C779.469 133.64 762.212 125.652 751.142 112.965C740.157 100.376 735.711 83.6737 735.711 67C735.711 50.5858 740.162 33.8108 751.125 21.0771C762.179 8.23781 779.432 4.45286e-05 803.971 0ZM70.2402 3.05957C84.3897 3.05957 95.4789 6.69422 103.081 13.3975C110.74 20.1513 114.38 29.6002 114.38 40.1797C114.38 54.7587 107.154 65.7926 96.3604 71.7354C98.9006 73.0403 101.276 74.6716 103.36 76.7334C108.421 81.7391 111.32 88.8234 111.32 98.5V105.16L111.332 106.855C111.433 113.982 112.171 118.351 113.135 123.559L114.465 130.76H74.6338L73.7852 127.896C72.1797 122.478 71.46 115.178 71.46 105.16V100.3C71.46 95.436 69.9352 92.3874 67.8252 90.5049C65.7776 88.6783 62.7066 87.5299 58.6455 87.3936L57.8203 87.3799H40.04V130.76H0V3.05957H70.2402ZM201.482 36.0801H180.422V97.7402H201.482V130.76H119.682V97.7402H140.742V36.0801H119.682V3.05957H201.482V36.0801ZM430.89 36.0801H366.81V50.2197H425.489V81.4395H366.81V97.7402H431.429V130.76H327.129V3.05957H430.89V36.0801ZM617.826 130.76H577.521L569.78 108.26H524.167L516.247 130.76H476.143L519.733 3.05957H574.235L617.826 130.76ZM692.414 3.05957C705.861 3.05957 715.989 6.56869 722.79 12.7939C729.624 19.0501 732.595 27.5896 732.595 36.5801L732.586 37.4814C732.408 46.7318 729.477 53.8529 724.334 59.0742C722.09 61.3519 719.496 63.1942 716.661 64.6846C719.867 66.1081 722.828 67.9419 725.386 70.332C731.173 75.7403 734.395 83.506 734.395 94.1797L734.384 95.2246C734.155 105.965 730.38 114.945 722.938 121.223C715.359 127.616 704.502 130.76 691.154 130.76H618.574V3.05957H692.414ZM930.57 81.2363L930.578 81.2588L930.585 81.2803C931.095 82.9041 931.593 84.5284 932.08 86.1523C932.565 84.5256 933.064 82.9013 933.573 81.2803L933.58 81.2588L933.587 81.2363L959.148 3.05957H999.414L957.936 130.76H905.502L864.023 3.05957H905.01L930.57 81.2363ZM1104.83 36.0801H1040.75V50.2197H1099.43V81.4395H1040.75V97.7402H1105.37V130.76H1001.07V3.05957H1104.83V36.0801ZM257.46 129.725C257.766 129.738 258.073 129.749 258.382 129.76C258.073 129.749 257.766 129.738 257.46 129.725ZM266.865 129.73C266.993 129.726 267.121 129.723 267.248 129.718C267.121 129.723 266.993 129.726 266.865 129.73ZM268.066 129.68C268.37 129.666 268.672 129.653 268.972 129.637C268.672 129.653 268.37 129.666 268.066 129.68ZM801.495 129.609C801.832 129.617 802.171 129.623 802.512 129.628C802.171 129.623 801.832 129.617 801.495 129.609ZM807.26 129.589C806.664 129.607 806.063 129.62 805.457 129.628C806.063 129.62 806.664 129.607 807.26 129.589ZM269.604 129.599C269.941 129.579 270.277 129.56 270.61 129.537C270.277 129.56 269.941 129.579 269.604 129.599ZM799.646 129.551C799.796 129.557 799.947 129.562 800.099 129.567C799.947 129.562 799.796 129.557 799.646 129.551ZM797.601 129.444C798.249 129.485 798.904 129.519 799.565 129.547C798.904 129.519 798.249 129.485 797.601 129.444ZM271.352 129.481C271.648 129.459 271.943 129.438 272.236 129.413C271.943 129.438 271.648 129.459 271.352 129.481ZM811.475 129.369C810.922 129.41 810.365 129.445 809.803 129.477C810.365 129.445 810.922 129.41 811.475 129.369ZM253.132 129.444C253.185 129.449 253.238 129.453 253.291 129.458C253.238 129.453 253.185 129.449 253.132 129.444ZM796.604 129.377C796.638 129.379 796.671 129.381 796.704 129.384C796.671 129.381 796.638 129.379 796.604 129.377ZM811.743 129.348C811.981 129.329 812.218 129.311 812.454 129.291C812.218 129.311 811.981 129.329 811.743 129.348ZM273.12 129.333C273.343 129.312 273.566 129.294 273.787 129.272C273.566 129.294 273.343 129.312 273.12 129.333ZM795.547 129.293C795.674 129.304 795.802 129.314 795.93 129.324C795.802 129.314 795.674 129.304 795.547 129.293ZM812.988 129.243C813.147 129.229 813.305 129.215 813.463 129.2C813.305 129.215 813.147 129.229 812.988 129.243ZM274.612 129.185C274.87 129.157 275.127 129.131 275.382 129.102C275.127 129.131 274.87 129.157 274.612 129.185ZM814.092 129.137C814.212 129.124 814.332 129.112 814.452 129.1C814.332 129.112 814.212 129.124 814.092 129.137ZM793.562 129.103C793.646 129.111 793.73 129.12 793.813 129.129C793.73 129.12 793.646 129.111 793.562 129.103ZM814.917 129.048C815.106 129.027 815.295 129.006 815.483 128.983C815.295 129.006 815.106 129.027 814.917 129.048ZM792.6 128.994C792.689 129.005 792.778 129.015 792.867 129.025C792.778 129.015 792.689 129.005 792.6 128.994ZM276.349 128.983C276.512 128.963 276.675 128.943 276.837 128.922C276.675 128.943 276.512 128.963 276.349 128.983ZM791.528 128.861C791.712 128.885 791.896 128.908 792.081 128.931C791.896 128.908 791.712 128.885 791.528 128.861ZM816.19 128.896C816.255 128.888 816.319 128.88 816.383 128.872C816.319 128.88 816.255 128.888 816.19 128.896ZM277.789 128.79C277.979 128.763 278.168 128.738 278.356 128.71C278.168 128.738 277.979 128.763 277.789 128.79ZM817.177 128.765C817.235 128.756 817.294 128.749 817.353 128.74C817.294 128.749 817.235 128.756 817.177 128.765ZM818.039 128.64C818.14 128.624 818.241 128.61 818.342 128.595C818.241 128.61 818.14 128.624 818.039 128.64ZM279.278 128.565C279.448 128.538 279.617 128.512 279.785 128.484C279.617 128.512 279.448 128.538 279.278 128.565ZM788.711 128.442C788.842 128.464 788.973 128.485 789.104 128.506C788.973 128.485 788.842 128.464 788.711 128.442ZM818.927 128.502C819.06 128.48 819.193 128.459 819.325 128.437C819.193 128.459 819.06 128.48 818.927 128.502ZM819.763 128.362C819.931 128.333 820.099 128.304 820.266 128.274C820.099 128.304 819.931 128.333 819.763 128.362ZM787.854 128.294C787.946 128.31 788.037 128.326 788.129 128.342C788.037 128.326 787.946 128.31 787.854 128.294ZM280.709 128.323C280.881 128.293 281.053 128.263 281.224 128.231C281.053 128.263 280.881 128.293 280.709 128.323ZM820.665 128.202C820.862 128.166 821.058 128.129 821.254 128.092C821.058 128.129 820.862 128.166 820.665 128.202ZM786.875 128.113C786.995 128.136 787.115 128.158 787.235 128.181C787.115 128.158 786.995 128.136 786.875 128.113ZM281.975 128.086C282.198 128.042 282.42 128 282.641 127.955C282.42 128 282.198 128.042 281.975 128.086ZM821.549 128.034C821.736 127.998 821.922 127.961 822.107 127.923C821.922 127.961 821.736 127.998 821.549 128.034ZM785.945 127.93C786.101 127.962 786.257 127.992 786.414 128.023C786.257 127.992 786.101 127.962 785.945 127.93ZM784.992 127.728C785.179 127.768 785.366 127.808 785.554 127.848C785.366 127.808 785.179 127.768 784.992 127.728ZM822.61 127.817C822.742 127.79 822.874 127.762 823.005 127.733C822.874 127.762 822.742 127.79 822.61 127.817ZM283.479 127.776C283.632 127.743 283.786 127.711 283.938 127.677C283.786 127.711 283.632 127.743 283.479 127.776ZM784.134 127.536C784.335 127.582 784.537 127.627 784.739 127.672C784.537 127.627 784.335 127.582 784.134 127.536ZM823.479 127.629C823.618 127.598 823.755 127.567 823.893 127.535C823.755 127.567 823.618 127.598 823.479 127.629ZM284.741 127.49C284.938 127.444 285.135 127.398 285.33 127.35C285.135 127.398 284.938 127.444 284.741 127.49ZM783.282 127.334C783.429 127.37 783.577 127.404 783.725 127.439C783.577 127.404 783.429 127.37 783.282 127.334ZM824.383 127.42C824.523 127.387 824.664 127.353 824.804 127.319C824.664 127.353 824.523 127.387 824.383 127.42ZM782.426 127.119C782.557 127.153 782.688 127.187 782.82 127.22C782.688 127.187 782.557 127.153 782.426 127.119ZM825.283 127.2C825.404 127.17 825.524 127.14 825.645 127.109C825.524 127.14 825.404 127.17 825.283 127.2ZM285.973 127.187C286.184 127.132 286.395 127.079 286.604 127.023C286.395 127.079 286.184 127.132 285.973 127.187ZM826.086 126.994C826.261 126.948 826.436 126.902 826.609 126.854C826.436 126.902 826.261 126.948 826.086 126.994ZM781.569 126.894C781.685 126.925 781.802 126.955 781.918 126.986C781.802 126.955 781.685 126.925 781.569 126.894ZM287.328 126.823C287.512 126.772 287.696 126.721 287.878 126.668C287.696 126.721 287.512 126.772 287.328 126.823ZM826.863 126.784C827.061 126.73 827.259 126.675 827.455 126.619C827.259 126.675 827.061 126.73 826.863 126.784ZM77.374 125.885L77.6201 126.76C77.531 126.459 77.445 126.15 77.3613 125.834C77.3658 125.851 77.3695 125.868 77.374 125.885ZM780.734 126.662C780.839 126.692 780.944 126.721 781.049 126.75C780.944 126.721 780.839 126.692 780.734 126.662ZM693.154 126.732C693.266 126.73 693.378 126.728 693.489 126.725C693.378 126.728 693.266 126.73 693.154 126.732ZM695.154 126.654C695.371 126.643 695.586 126.632 695.801 126.619C695.586 126.632 695.371 126.643 695.154 126.654ZM827.818 126.514C827.949 126.476 828.079 126.438 828.208 126.399C828.079 126.438 827.949 126.476 827.818 126.514ZM779.918 126.425C780.005 126.451 780.092 126.476 780.18 126.502C780.092 126.476 780.005 126.451 779.918 126.425ZM697.597 126.481C697.724 126.47 697.852 126.46 697.979 126.448C697.852 126.46 697.724 126.47 697.597 126.481ZM288.587 126.455C288.748 126.406 288.908 126.359 289.067 126.31C288.908 126.359 288.748 126.406 288.587 126.455ZM698.575 126.387C698.727 126.371 698.879 126.357 699.029 126.34C698.879 126.357 698.727 126.371 698.575 126.387ZM699.569 126.275C699.76 126.252 699.95 126.23 700.139 126.205C699.95 126.23 699.76 126.252 699.569 126.275ZM779.1 126.175C779.167 126.196 779.234 126.216 779.302 126.237C779.234 126.216 779.167 126.196 779.1 126.175ZM828.757 126.233C828.849 126.205 828.941 126.176 829.033 126.147C828.941 126.176 828.849 126.205 828.757 126.233ZM700.511 126.154C700.722 126.125 700.932 126.097 701.142 126.066C700.932 126.097 700.722 126.125 700.511 126.154ZM289.841 126.06C289.985 126.012 290.129 125.966 290.271 125.918C290.129 125.966 289.985 126.012 289.841 126.06ZM701.623 125.991C701.819 125.961 702.013 125.93 702.207 125.897C702.013 125.93 701.819 125.961 701.623 125.991ZM778.249 125.903C778.339 125.933 778.429 125.962 778.52 125.991C778.429 125.962 778.339 125.933 778.249 125.903ZM829.613 125.962C829.699 125.934 829.784 125.908 829.869 125.88C829.784 125.908 829.699 125.934 829.613 125.962ZM702.567 125.834C702.774 125.798 702.979 125.762 703.184 125.724C702.979 125.762 702.774 125.798 702.567 125.834ZM777.382 125.612C777.501 125.653 777.62 125.694 777.74 125.734C777.62 125.694 777.501 125.653 777.382 125.612ZM830.384 125.709C830.484 125.675 830.584 125.641 830.685 125.606C830.584 125.641 830.484 125.675 830.384 125.709ZM290.925 125.69C291.12 125.622 291.314 125.554 291.506 125.484C291.314 125.554 291.12 125.622 290.925 125.69ZM703.73 125.618C703.874 125.59 704.016 125.563 704.158 125.533C704.016 125.563 703.874 125.59 703.73 125.618ZM77.123 124.878C77.1754 125.1 77.2313 125.318 77.2861 125.533C77.2313 125.318 77.1754 125.1 77.123 124.878ZM776.583 125.333C776.718 125.381 776.853 125.429 776.989 125.477C776.853 125.429 776.718 125.381 776.583 125.333ZM831.207 125.426C831.301 125.393 831.394 125.359 831.487 125.325C831.394 125.359 831.301 125.393 831.207 125.426ZM704.729 125.41C704.868 125.38 705.005 125.35 705.143 125.318C705.005 125.35 704.868 125.38 704.729 125.41ZM292.02 125.292C292.225 125.215 292.429 125.138 292.631 125.059C292.429 125.138 292.225 125.215 292.02 125.292ZM705.621 125.206C705.775 125.169 705.929 125.133 706.082 125.095C705.929 125.133 705.775 125.169 705.621 125.206ZM775.795 125.045C775.921 125.092 776.047 125.138 776.173 125.185C776.047 125.138 775.921 125.092 775.795 125.045ZM831.976 125.149C832.096 125.105 832.215 125.06 832.335 125.016C832.215 125.06 832.096 125.105 831.976 125.149ZM706.612 124.958C706.751 124.922 706.89 124.886 707.027 124.849C706.89 124.886 706.751 124.922 706.612 124.958ZM774.944 124.72C775.097 124.779 775.251 124.839 775.405 124.897C775.251 124.839 775.097 124.779 774.944 124.72ZM832.668 124.891C832.832 124.828 832.995 124.766 833.157 124.702C832.995 124.766 832.832 124.828 832.668 124.891ZM293.158 124.848C293.354 124.768 293.549 124.689 293.742 124.608C293.549 124.689 293.354 124.768 293.158 124.848ZM707.497 124.718C707.647 124.675 707.797 124.634 707.945 124.59C707.797 124.634 707.647 124.675 707.497 124.718ZM774.221 124.432C774.371 124.493 774.522 124.553 774.674 124.613C774.522 124.553 774.371 124.493 774.221 124.432ZM833.458 124.584C833.624 124.518 833.79 124.452 833.955 124.385C833.79 124.452 833.624 124.518 833.458 124.584ZM708.409 124.449C708.556 124.404 708.702 124.359 708.848 124.312C708.702 124.359 708.556 124.404 708.409 124.449ZM76.9092 123.919C76.9422 124.076 76.9785 124.231 77.0127 124.385C76.9785 124.231 76.9422 124.076 76.9092 123.919ZM294.325 124.357C294.474 124.293 294.623 124.229 294.771 124.163C294.623 124.229 294.474 124.293 294.325 124.357ZM834.244 124.267C834.387 124.208 834.53 124.148 834.672 124.088C834.53 124.148 834.387 124.208 834.244 124.267ZM773.567 124.163C773.634 124.191 773.701 124.218 773.768 124.246C773.701 124.218 773.634 124.191 773.567 124.163ZM709.325 124.156C709.46 124.112 709.594 124.067 709.728 124.021C709.594 124.067 709.46 124.112 709.325 124.156ZM772.702 123.792C772.819 123.843 772.936 123.894 773.054 123.944C772.936 123.894 772.819 123.843 772.702 123.792ZM835.01 123.944C835.162 123.879 835.314 123.813 835.466 123.746C835.314 123.813 835.162 123.879 835.01 123.944ZM710.136 123.878C710.296 123.821 710.457 123.765 710.615 123.706C710.457 123.765 710.296 123.821 710.136 123.878ZM295.445 123.853C295.564 123.797 295.683 123.742 295.801 123.686C295.683 123.742 295.564 123.797 295.445 123.853ZM771.941 123.452C772.083 123.516 772.224 123.581 772.366 123.645C772.224 123.581 772.083 123.516 771.941 123.452ZM835.771 123.611C835.898 123.555 836.024 123.498 836.15 123.44C836.024 123.498 835.898 123.555 835.771 123.611ZM711.023 123.551C711.162 123.498 711.301 123.445 711.438 123.391C711.301 123.445 711.162 123.498 711.023 123.551ZM771.203 123.109C771.334 123.171 771.465 123.233 771.597 123.294C771.465 123.233 771.334 123.171 771.203 123.109ZM76.707 122.892C76.7316 123.024 76.7579 123.154 76.7832 123.284C76.7579 123.154 76.7316 123.024 76.707 122.892ZM836.518 123.272C836.663 123.205 836.807 123.137 836.951 123.069C836.807 123.137 836.663 123.205 836.518 123.272ZM711.857 123.222C712.004 123.162 712.15 123.102 712.295 123.04C712.15 123.102 712.004 123.162 711.857 123.222ZM770.474 122.76C770.621 122.832 770.769 122.903 770.918 122.975C770.769 122.903 770.621 122.832 770.474 122.76ZM837.238 122.933C837.381 122.864 837.523 122.796 837.664 122.727C837.523 122.796 837.381 122.864 837.238 122.933ZM712.64 122.892C712.799 122.822 712.958 122.752 713.115 122.681C712.958 122.752 712.799 122.822 712.64 122.892ZM769.763 122.404C769.894 122.471 770.025 122.537 770.157 122.603C770.025 122.537 769.894 122.471 769.763 122.404ZM837.988 122.566C838.126 122.498 838.263 122.428 838.4 122.358C838.263 122.428 838.126 122.498 837.988 122.566ZM713.462 122.521C713.609 122.452 713.754 122.383 713.899 122.312C713.754 122.383 713.609 122.452 713.462 122.521ZM769.099 122.062C769.213 122.121 769.327 122.181 769.441 122.24C769.327 122.181 769.213 122.121 769.099 122.062ZM76.501 121.704C76.5302 121.885 76.5613 122.063 76.5918 122.24C76.5613 122.063 76.5302 121.885 76.501 121.704ZM838.647 122.232C838.803 122.152 838.958 122.071 839.112 121.989C838.958 122.071 838.803 122.152 838.647 122.232ZM298.606 122.218C298.629 122.205 298.652 122.192 298.675 122.179C298.652 122.192 298.629 122.205 298.606 122.218ZM714.262 122.135C714.398 122.067 714.533 121.998 714.668 121.929C714.533 121.998 714.398 122.067 714.262 122.135ZM768.314 121.643C768.459 121.721 768.604 121.8 768.75 121.878C768.604 121.8 768.459 121.721 768.314 121.643ZM839.408 121.833C839.521 121.773 839.632 121.712 839.744 121.651C839.632 121.712 839.521 121.773 839.408 121.833ZM715.014 121.748C715.144 121.679 715.274 121.609 715.403 121.538C715.274 121.609 715.144 121.679 715.014 121.748ZM767.71 121.308C767.832 121.376 767.955 121.445 768.078 121.513C767.955 121.445 767.832 121.376 767.71 121.308ZM840.075 121.471C840.209 121.397 840.341 121.323 840.474 121.248C840.341 121.323 840.209 121.397 840.075 121.471ZM715.818 121.308C715.927 121.246 716.034 121.184 716.142 121.122C716.034 121.184 715.927 121.246 715.818 121.308ZM76.3311 120.582C76.3644 120.818 76.3993 121.05 76.4346 121.279C76.3993 121.05 76.3644 120.818 76.3311 120.582ZM767.052 120.933C767.149 120.989 767.246 121.045 767.344 121.101C767.246 121.045 767.149 120.989 767.052 120.933ZM300.45 121.091C300.574 121.01 300.697 120.93 300.818 120.849C300.697 120.93 300.574 121.01 300.45 121.091ZM840.793 121.068C840.911 121.001 841.027 120.932 841.144 120.864C841.027 120.932 840.911 121.001 840.793 121.068ZM716.506 120.906C716.633 120.83 716.759 120.754 716.884 120.677C716.759 120.754 716.633 120.83 716.506 120.906ZM300.883 120.806C300.984 120.738 301.084 120.67 301.184 120.602C301.084 120.67 300.984 120.738 300.883 120.806ZM766.349 120.517C766.454 120.58 766.56 120.644 766.667 120.707C766.56 120.644 766.454 120.58 766.349 120.517ZM841.44 120.691C841.571 120.614 841.701 120.535 841.831 120.457C841.701 120.535 841.571 120.614 841.44 120.691ZM717.208 120.472C717.34 120.387 717.472 120.304 717.603 120.218C717.472 120.304 717.34 120.387 717.208 120.472ZM765.709 120.126C765.815 120.192 765.921 120.258 766.028 120.323C765.921 120.258 765.815 120.192 765.709 120.126ZM842.112 120.287C842.224 120.219 842.335 120.15 842.446 120.081C842.335 120.15 842.224 120.219 842.112 120.287ZM717.912 120.011C718.028 119.932 718.143 119.853 718.257 119.773C718.143 119.853 718.028 119.932 717.912 120.011ZM76.1768 119.41C76.2016 119.613 76.2277 119.813 76.2539 120.011C76.2277 119.813 76.2016 119.613 76.1768 119.41ZM765.096 119.739C765.177 119.791 765.257 119.843 765.339 119.895C765.257 119.843 765.177 119.791 765.096 119.739ZM842.812 119.854C842.884 119.807 842.957 119.76 843.029 119.714C842.957 119.76 842.884 119.807 842.812 119.854ZM302.586 119.591C302.724 119.486 302.862 119.38 302.998 119.273C302.862 119.38 302.724 119.486 302.586 119.591ZM718.602 119.53C718.71 119.453 718.816 119.374 718.923 119.295C718.816 119.374 718.71 119.453 718.602 119.53ZM764.197 119.153C764.374 119.271 764.551 119.389 764.729 119.505C764.551 119.389 764.374 119.271 764.197 119.153ZM843.479 119.424C843.555 119.374 843.632 119.324 843.708 119.273C843.632 119.324 843.555 119.374 843.479 119.424ZM763.715 118.826C763.857 118.923 763.999 119.021 764.143 119.117C763.999 119.021 763.857 118.923 763.715 118.826ZM719.294 119.018C719.38 118.952 719.465 118.886 719.55 118.819C719.465 118.886 719.38 118.952 719.294 119.018ZM844.11 119.006C844.183 118.957 844.255 118.906 844.328 118.856C844.255 118.906 844.183 118.957 844.11 119.006ZM76.0391 118.21C76.0581 118.39 76.0786 118.568 76.0986 118.744C76.0786 118.568 76.0581 118.39 76.0391 118.21ZM763.097 118.396C763.206 118.472 763.314 118.55 763.424 118.626C763.314 118.55 763.206 118.472 763.097 118.396ZM844.709 118.595C844.782 118.544 844.854 118.493 844.927 118.442C844.854 118.493 844.782 118.544 844.709 118.595ZM719.903 118.538C719.999 118.46 720.095 118.382 720.189 118.304C720.095 118.382 719.999 118.46 719.903 118.538ZM762.492 117.962C762.618 118.054 762.745 118.146 762.872 118.237C762.745 118.146 762.618 118.054 762.492 117.962ZM845.363 118.133C845.415 118.096 845.465 118.058 845.517 118.021C845.465 118.058 845.415 118.096 845.363 118.133ZM720.534 118.013C720.617 117.942 720.699 117.87 720.781 117.798C720.699 117.87 720.617 117.942 720.534 118.013ZM762.01 117.606C762.073 117.654 762.137 117.701 762.2 117.748C762.137 117.701 762.073 117.654 762.01 117.606ZM845.926 117.724C846.028 117.648 846.129 117.572 846.23 117.496C846.129 117.572 846.028 117.648 845.926 117.724ZM75.8965 116.725C75.9217 117.013 75.9472 117.297 75.9746 117.577C75.9472 117.297 75.9217 117.013 75.8965 116.725ZM721.132 117.484C721.22 117.404 721.308 117.324 721.395 117.243C721.308 117.324 721.22 117.404 721.132 117.484ZM761.155 116.955C761.312 117.077 761.47 117.199 761.629 117.32C761.47 117.199 761.312 117.077 761.155 116.955ZM846.564 117.243C846.632 117.192 846.699 117.14 846.766 117.089C846.699 117.14 846.632 117.192 846.564 117.243ZM305.517 117.089C305.565 117.042 305.614 116.995 305.662 116.948C305.614 116.995 305.565 117.042 305.517 117.089ZM721.723 116.933C721.809 116.85 721.894 116.766 721.979 116.682C721.894 116.766 721.809 116.85 721.723 116.933ZM760.682 116.581C760.798 116.674 760.915 116.767 761.032 116.859C760.915 116.767 760.798 116.674 760.682 116.581ZM847.146 116.793C847.195 116.754 847.243 116.715 847.292 116.677C847.243 116.715 847.195 116.754 847.146 116.793ZM722.253 116.406C722.354 116.303 722.454 116.198 722.554 116.093C722.454 116.198 722.354 116.303 722.253 116.406ZM847.732 116.325C847.807 116.265 847.882 116.204 847.956 116.143C847.882 116.204 847.807 116.265 847.732 116.325ZM75.792 115.423C75.8119 115.694 75.8319 115.962 75.8535 116.227C75.8318 115.962 75.8119 115.694 75.792 115.423ZM758.948 115.132C759.251 115.396 759.557 115.658 759.867 115.917C759.557 115.658 759.251 115.396 758.948 115.132ZM722.793 115.839C722.885 115.74 722.974 115.639 723.064 115.539C722.974 115.639 722.885 115.74 722.793 115.839ZM848.825 115.414C848.984 115.278 849.141 115.142 849.298 115.004C849.141 115.142 848.984 115.278 848.825 115.414ZM723.346 115.223C723.426 115.13 723.506 115.036 723.585 114.942C723.506 115.036 723.426 115.13 723.346 115.223ZM849.402 114.911C849.571 114.762 849.738 114.613 849.904 114.462C849.738 114.613 849.571 114.762 849.402 114.911ZM75.7002 114.042C75.715 114.29 75.7289 114.536 75.7451 114.779C75.7289 114.536 75.715 114.29 75.7002 114.042ZM723.855 114.618C723.932 114.525 724.006 114.429 724.081 114.335C724.006 114.429 723.932 114.525 723.855 114.618ZM849.925 114.442C850.039 114.339 850.151 114.234 850.264 114.13C850.151 114.234 850.039 114.339 849.925 114.442ZM724.34 114.007C724.418 113.905 724.494 113.803 724.57 113.7C724.494 113.803 724.418 113.905 724.34 114.007ZM308.506 113.778C308.526 113.752 308.547 113.726 308.567 113.7C308.547 113.726 308.526 113.752 308.506 113.778ZM850.993 113.441C851.072 113.366 851.149 113.289 851.227 113.213C851.149 113.289 851.072 113.366 850.993 113.441ZM724.791 113.401C724.879 113.28 724.966 113.158 725.052 113.035C724.966 113.158 724.879 113.28 724.791 113.401ZM75.6123 112.372C75.6279 112.717 75.643 113.056 75.6611 113.392C75.643 113.056 75.6279 112.717 75.6123 112.372ZM756.32 112.662C756.511 112.854 756.703 113.045 756.897 113.234C756.703 113.045 756.511 112.854 756.32 112.662ZM725.249 112.749C725.33 112.629 725.41 112.509 725.489 112.388C725.41 112.509 725.33 112.629 725.249 112.749ZM725.674 112.105C725.757 111.976 725.837 111.844 725.918 111.713C725.837 111.844 725.757 111.976 725.674 112.105ZM75.5547 110.909C75.5664 111.251 75.5779 111.589 75.5918 111.922C75.5779 111.589 75.5664 111.251 75.5547 110.909ZM310.158 111.441C310.181 111.405 310.204 111.368 310.228 111.332C310.204 111.368 310.181 111.405 310.158 111.441ZM726.109 111.399C726.176 111.288 726.24 111.175 726.305 111.062C726.24 111.175 726.176 111.288 726.109 111.399ZM726.506 110.711C726.579 110.58 726.649 110.448 726.72 110.315C726.649 110.448 726.579 110.58 726.506 110.711ZM310.678 110.6C310.69 110.579 310.703 110.558 310.715 110.537C310.703 110.558 310.69 110.579 310.678 110.6ZM75.5088 109.304C75.5164 109.632 75.5227 109.957 75.5322 110.277C75.5227 109.957 75.5164 109.632 75.5088 109.304ZM726.864 110.043C726.933 109.911 727 109.779 727.066 109.646C727 109.779 726.933 109.911 726.864 110.043ZM854.337 109.887C854.381 109.836 854.425 109.786 854.469 109.734L854.483 109.717C854.435 109.774 854.385 109.83 854.337 109.887ZM311.113 109.841C311.177 109.727 311.24 109.612 311.302 109.497C311.24 109.612 311.177 109.727 311.113 109.841ZM727.235 109.304C727.299 109.172 727.361 109.039 727.423 108.905C727.361 109.039 727.299 109.172 727.235 109.304ZM311.569 108.993C311.632 108.872 311.694 108.749 311.756 108.627C311.694 108.749 311.632 108.872 311.569 108.993ZM855.328 108.691C855.345 108.67 855.362 108.648 855.379 108.627C855.362 108.648 855.345 108.67 855.328 108.691ZM727.565 108.598C727.634 108.446 727.699 108.293 727.765 108.14C727.699 108.293 727.634 108.446 727.565 108.598ZM311.996 108.14C312.058 108.011 312.117 107.88 312.178 107.75C312.117 107.88 312.058 108.011 311.996 108.14ZM727.892 107.84C727.955 107.687 728.016 107.534 728.077 107.38C728.016 107.534 727.955 107.687 727.892 107.84ZM751.92 107.585C751.976 107.66 752.034 107.733 752.091 107.808C752.02 107.716 751.95 107.624 751.88 107.531L751.92 107.585ZM856.231 107.531C856.248 107.509 856.265 107.487 856.281 107.465C856.265 107.487 856.248 107.509 856.231 107.531ZM312.393 107.283C312.452 107.15 312.508 107.016 312.565 106.883C312.508 107.016 312.452 107.15 312.393 107.283ZM856.496 107.176C856.564 107.084 856.634 106.993 856.701 106.9C856.634 106.993 856.564 107.084 856.496 107.176ZM728.191 107.09C728.262 106.905 728.331 106.719 728.398 106.531C728.331 106.719 728.262 106.905 728.191 107.09ZM261.003 106.754V106.753V106.754ZM264.52 106.747C263.879 106.768 263.22 106.779 262.542 106.779C263.22 106.779 263.879 106.768 264.52 106.747ZM751.037 106.384C751.118 106.497 751.199 106.609 751.28 106.721C751.199 106.609 751.118 106.497 751.037 106.384ZM265.922 106.683C266.128 106.67 266.331 106.658 266.533 106.644C266.331 106.658 266.128 106.67 265.922 106.683ZM258.805 106.619V106.618V106.619ZM254.796 106.023V106.022V106.023ZM857.031 106.444C857.062 106.401 857.094 106.357 857.125 106.313C857.094 106.357 857.062 106.401 857.031 106.444ZM312.79 106.352C312.845 106.218 312.897 106.083 312.95 105.948C312.897 106.083 312.845 106.218 312.79 106.352ZM728.463 106.352C728.528 106.166 728.591 105.98 728.653 105.792C728.591 105.98 728.528 106.166 728.463 106.352ZM750.632 105.807C750.743 105.967 750.856 106.127 750.969 106.286C750.856 106.127 750.743 105.967 750.632 105.807ZM271.512 105.977C271.054 106.072 270.581 106.159 270.094 106.237C270.581 106.159 271.054 106.072 271.512 105.977ZM857.4 105.922C857.444 105.859 857.489 105.796 857.532 105.733C857.489 105.796 857.444 105.859 857.4 105.922ZM728.736 105.541C728.778 105.411 728.817 105.279 728.857 105.147C728.817 105.279 728.778 105.411 728.736 105.541ZM313.124 105.502C313.18 105.355 313.232 105.206 313.286 105.058C313.232 105.206 313.18 105.355 313.124 105.502ZM750.23 105.219C750.275 105.285 750.321 105.352 750.366 105.418C750.321 105.352 750.275 105.285 750.23 105.219ZM250.224 104.612V104.611V104.612ZM858.171 104.785C858.221 104.71 858.271 104.634 858.32 104.559C858.271 104.634 858.221 104.71 858.171 104.785ZM728.99 104.711C729.034 104.561 729.075 104.411 729.116 104.26C729.075 104.411 729.034 104.561 728.99 104.711ZM313.471 104.544C313.523 104.392 313.572 104.239 313.622 104.086C313.572 104.239 313.523 104.392 313.471 104.544ZM248.252 103.668C248.564 103.837 248.883 104.002 249.212 104.159C248.883 104.002 248.564 103.837 248.252 103.668ZM858.525 104.241C858.58 104.157 858.635 104.073 858.688 103.988C858.635 104.073 858.58 104.157 858.525 104.241ZM729.202 103.945C729.262 103.72 729.319 103.494 729.374 103.266C729.319 103.494 729.262 103.72 729.202 103.945ZM801.907 103.865C802.58 103.887 803.268 103.899 803.971 103.899C803.268 103.899 802.58 103.887 801.907 103.865ZM806.084 103.864C805.395 103.887 804.691 103.899 803.971 103.899C804.69 103.899 805.395 103.887 806.084 103.864ZM313.766 103.644C313.82 103.47 313.873 103.295 313.925 103.119C313.873 103.295 313.82 103.47 313.766 103.644ZM858.965 103.547C859.006 103.481 859.046 103.415 859.086 103.35C859.046 103.415 859.006 103.481 858.965 103.547ZM729.406 103.133C729.461 102.901 729.513 102.668 729.563 102.434C729.513 102.668 729.461 102.901 729.406 103.133ZM859.219 103.133C859.302 102.996 859.386 102.859 859.468 102.722C859.386 102.859 859.302 102.996 859.219 103.133ZM748.706 102.818C748.742 102.879 748.779 102.94 748.815 103C748.779 102.94 748.742 102.879 748.706 102.818ZM314.053 102.687C314.097 102.531 314.138 102.375 314.181 102.219C314.138 102.375 314.097 102.531 314.053 102.687ZM748.351 102.216C748.39 102.283 748.429 102.35 748.469 102.417C748.429 102.35 748.39 102.283 748.351 102.216ZM729.594 102.289C729.642 102.061 729.687 101.832 729.73 101.602C729.687 101.832 729.642 102.061 729.594 102.289ZM245.282 101.682V101.681V101.682ZM747.988 101.583C748.045 101.683 748.102 101.783 748.159 101.883C748.102 101.783 748.045 101.683 747.988 101.583ZM314.309 101.739C314.349 101.582 314.386 101.423 314.425 101.265C314.386 101.423 314.349 101.582 314.309 101.739ZM860.072 101.682C860.102 101.63 860.131 101.578 860.16 101.526C860.131 101.578 860.102 101.63 860.072 101.682ZM729.765 101.425C729.793 101.269 729.818 101.113 729.845 100.956C729.818 101.113 729.793 101.269 729.765 101.425ZM747.657 100.987C747.68 101.028 747.702 101.069 747.725 101.109C747.702 101.069 747.68 101.028 747.657 100.987ZM314.552 100.735C314.587 100.58 314.62 100.424 314.653 100.268C314.62 100.424 314.587 100.58 314.552 100.735ZM747.287 100.3C747.35 100.419 747.414 100.538 747.478 100.656C747.414 100.538 747.35 100.419 747.287 100.3ZM729.913 100.552C729.955 100.288 729.994 100.022 730.03 99.7549C729.994 100.022 729.955 100.288 729.913 100.552ZM860.707 100.53C860.76 100.431 860.813 100.331 860.866 100.231C860.813 100.331 860.76 100.431 860.707 100.53ZM803.971 33.9199C792.344 33.92 786.025 37.0312 782.359 41.9424C778.475 47.1462 776.831 55.2811 776.831 67L776.836 68.0703C776.936 79.0305 778.593 86.7864 782.359 91.832C786.032 96.7526 792.36 99.8994 803.971 99.8994C815.781 99.8994 822.143 96.7415 825.808 91.832C829.69 86.6308 831.291 78.5449 831.291 67C831.291 55.2637 829.687 47.1391 825.808 41.9424C822.15 37.0422 815.797 33.9199 803.971 33.9199ZM861.06 99.8623C861.094 99.7969 861.127 99.7315 861.161 99.666C861.127 99.7315 861.094 99.7969 861.06 99.8623ZM242.596 98.957C242.79 99.2017 242.991 99.4425 243.199 99.6787V99.6777C242.991 99.4415 242.79 99.2007 242.596 98.9561V98.957ZM314.756 99.7852C314.796 99.5888 314.831 99.3912 314.868 99.1934C314.831 99.3912 314.796 99.5888 314.756 99.7852ZM730.201 98.2607C730.154 98.7473 730.102 99.2286 730.038 99.7041C730.102 99.2286 730.154 98.7473 730.201 98.2607ZM282.066 99.4941C282.108 99.4206 282.149 99.3469 282.189 99.2725C282.149 99.3469 282.108 99.4207 282.066 99.4941ZM658.255 99H683.055C687.806 99 690.107 97.7802 691.29 96.5127C692.521 95.194 693.274 93.0455 693.274 89.6797C693.274 86.4037 692.474 84.2174 691.112 82.8291C689.763 81.4544 687.192 80.1797 682.154 80.1797H658.255V99ZM314.946 98.7764C314.973 98.622 314.998 98.4668 315.023 98.3115C314.998 98.4668 314.973 98.622 314.946 98.7764ZM746.34 98.4297C746.382 98.5174 746.425 98.6049 746.468 98.6924C746.425 98.6049 746.382 98.5174 746.34 98.4297ZM861.673 98.6445C861.727 98.5336 861.781 98.4228 861.835 98.3115C861.781 98.4228 861.727 98.5336 861.673 98.6445ZM862.001 97.9629C862.045 97.8689 862.09 97.7749 862.134 97.6807C862.09 97.7749 862.045 97.8689 862.001 97.9629ZM730.234 97.918C730.26 97.6276 730.282 97.3353 730.302 97.041C730.282 97.3353 730.26 97.6276 730.234 97.918ZM862.251 97.4258C862.305 97.3084 862.359 97.191 862.412 97.0732C862.359 97.191 862.305 97.3084 862.251 97.4258ZM745.719 97.1006C745.762 97.1967 745.806 97.2928 745.85 97.3887C745.806 97.2928 745.762 97.1967 745.719 97.1006ZM730.354 96.0781C730.341 96.3875 730.324 96.6948 730.305 97C730.344 96.3869 730.371 95.7654 730.385 95.1357L730.354 96.0781ZM283.26 96.3711C283.218 96.5558 283.171 96.7382 283.122 96.9189C283.167 96.7525 283.211 96.5849 283.25 96.415L283.26 96.3711ZM745.442 96.4805C745.48 96.5666 745.518 96.6524 745.557 96.7383C745.518 96.6524 745.48 96.5666 745.442 96.4805ZM862.562 96.7383C862.619 96.6119 862.674 96.4852 862.729 96.3584C862.674 96.4852 862.619 96.6119 862.562 96.7383ZM75.0342 95.8008H75.0352H75.0342ZM283.535 94.5996C283.484 95.1557 283.402 95.6965 283.291 96.2217C283.401 95.7023 283.483 95.1677 283.534 94.6182L283.535 94.5996ZM862.817 96.1543C862.887 95.9924 862.958 95.8306 863.026 95.668C862.958 95.8306 862.887 95.9924 862.817 96.1543ZM315.37 95.7441C315.391 95.5456 315.408 95.3463 315.427 95.1465C315.408 95.3463 315.391 95.5456 315.37 95.7441ZM744.876 95.1465C744.924 95.2629 744.972 95.3791 745.021 95.4951C744.972 95.3791 744.924 95.2629 744.876 95.1465ZM863.127 95.4268C863.178 95.3048 863.228 95.1828 863.278 95.0605C863.228 95.1828 863.178 95.3048 863.127 95.4268ZM744.622 94.5176C744.666 94.6284 744.71 94.7391 744.755 94.8496C744.71 94.7391 744.666 94.6284 744.622 94.5176ZM863.394 94.7744C863.432 94.6792 863.47 94.5838 863.508 94.4883C863.47 94.5838 863.432 94.6792 863.394 94.7744ZM315.469 94.6924C315.492 94.4124 315.512 94.1311 315.53 93.8486C315.512 94.1311 315.492 94.4124 315.469 94.6924ZM744.336 93.7832C744.384 93.9097 744.433 94.036 744.482 94.1621C744.433 94.036 744.384 93.9097 744.336 93.7832ZM863.649 94.1299C863.705 93.9878 863.76 93.8457 863.814 93.7031C863.76 93.8457 863.705 93.9878 863.649 94.1299ZM744.115 93.1992C744.151 93.2948 744.187 93.39 744.223 93.4854C744.187 93.39 744.151 93.2948 744.115 93.1992ZM864.176 92.7314C864.218 92.6138 864.261 92.4959 864.303 92.3779C864.261 92.4959 864.218 92.6138 864.176 92.7314ZM73.8086 92.0156H73.8096H73.8086ZM743.614 91.7969C743.657 91.92 743.699 92.0432 743.742 92.166C743.699 92.0432 743.657 91.92 743.614 91.7969ZM864.432 92.0107C864.465 91.9158 864.498 91.8207 864.53 91.7256C864.498 91.8207 864.465 91.9158 864.432 92.0107ZM864.644 91.3896C864.684 91.2706 864.724 91.1516 864.764 91.0322C864.724 91.1516 864.684 91.2706 864.644 91.3896ZM73.0264 90.5596H73.0273H73.0264ZM743.15 90.3994C743.187 90.5148 743.224 90.63 743.262 90.7451C743.224 90.63 743.187 90.5148 743.15 90.3994ZM864.89 90.6484C864.927 90.5337 864.963 90.4187 865 90.3037C864.963 90.4187 864.927 90.5337 864.89 90.6484ZM742.939 89.7236C742.978 89.8503 743.017 89.9771 743.057 90.1035C743.017 89.9771 742.978 89.8503 742.939 89.7236ZM865.099 89.9902C865.131 89.8852 865.164 89.7801 865.196 89.6748C865.164 89.7801 865.131 89.8852 865.099 89.9902ZM72.3506 89.5586H72.3496H72.3506ZM865.311 89.2979C865.352 89.1597 865.393 89.0213 865.434 88.8828C865.393 89.0213 865.352 89.1597 865.311 89.2979ZM865.485 88.7051C865.527 88.563 865.567 88.4207 865.607 88.2783C865.567 88.4207 865.527 88.563 865.485 88.7051ZM315.426 85.5361C315.503 86.3753 315.558 87.2305 315.594 88.1016C315.558 87.2305 315.503 86.3753 315.426 85.5361ZM742.412 87.9199C742.425 87.9666 742.439 88.0129 742.452 88.0596C742.401 87.8778 742.351 87.696 742.302 87.5137L742.412 87.9199ZM865.708 87.9199C865.745 87.7866 865.781 87.6531 865.817 87.5195C865.781 87.6531 865.745 87.7866 865.708 87.9199ZM742.182 87.0596C742.217 87.1931 742.251 87.3267 742.287 87.46C742.251 87.3267 742.217 87.1931 742.182 87.0596ZM865.883 87.2754C865.902 87.2028 865.921 87.1303 865.94 87.0576C865.921 87.1303 865.902 87.2028 865.883 87.2754ZM67.9102 85.6953V85.6963V85.6953ZM315.374 85.0234C315.36 84.885 315.346 84.7469 315.331 84.6094C315.346 84.7469 315.36 84.885 315.374 85.0234ZM741.419 83.834C741.468 84.0643 741.515 84.2949 741.566 84.5244C741.515 84.2949 741.468 84.0643 741.419 83.834ZM866.561 84.4941C866.618 84.2347 866.673 83.9743 866.728 83.7139C866.673 83.9743 866.618 84.2347 866.561 84.4941ZM315.279 84.1807C315.259 84.0118 315.239 83.8433 315.217 83.6758C315.239 83.8433 315.259 84.0118 315.279 84.1807ZM279.693 83.6416V83.6406V83.6416ZM314.938 81.8779C315.026 82.3748 315.104 82.8782 315.176 83.3877C315.104 82.8781 315.026 82.3748 314.938 81.8779ZM741.136 82.4365C741.178 82.6583 741.219 82.8804 741.264 83.1016C741.219 82.8804 741.178 82.6583 741.136 82.4365ZM866.873 83.0195C866.923 82.7694 866.97 82.5185 867.018 82.2676C866.97 82.5185 866.923 82.7694 866.873 83.0195ZM740.837 80.7852C740.888 81.0876 740.938 81.39 740.993 81.6914C740.938 81.39 740.888 81.0876 740.837 80.7852ZM867.136 81.6475C867.192 81.3379 867.244 81.0274 867.296 80.7168C867.244 81.0274 867.192 81.3379 867.136 81.6475ZM314.873 81.5332C314.841 81.3593 314.809 81.186 314.774 81.0137C314.809 81.186 314.841 81.3593 314.873 81.5332ZM314.7 80.6572C314.66 80.4659 314.62 80.2753 314.577 80.0859C314.62 80.2753 314.66 80.4659 314.7 80.6572ZM740.581 79.1709C740.634 79.5326 740.689 79.8937 740.747 80.2539C740.689 79.8937 740.634 79.5326 740.581 79.1709ZM867.389 80.168C867.441 79.8447 867.488 79.5206 867.536 79.1963C867.488 79.5206 867.441 79.8447 867.389 80.168ZM314.475 79.6504C314.447 79.5336 314.42 79.4168 314.392 79.3008C314.42 79.4168 314.447 79.5336 314.475 79.6504ZM834.46 79.6504C834.496 79.4162 834.531 79.1806 834.564 78.9434C834.531 79.1806 834.496 79.4162 834.46 79.6504ZM98.6357 77.8975C99.0165 78.1955 99.3881 78.5048 99.749 78.8271C99.3881 78.5048 99.0165 78.1955 98.6357 77.8975ZM314.269 78.8271C314.234 78.6966 314.201 78.5661 314.165 78.4365C314.201 78.5661 314.234 78.6966 314.269 78.8271ZM740.386 77.752C740.432 78.1109 740.478 78.4695 740.529 78.8271C740.478 78.4695 740.432 78.1109 740.386 77.752ZM867.605 78.7295C867.639 78.4948 867.668 78.2596 867.699 78.0244C867.668 78.2596 867.639 78.4948 867.605 78.7295ZM834.604 78.6523C834.631 78.4486 834.66 78.2441 834.686 78.0381C834.66 78.2441 834.631 78.4486 834.604 78.6523ZM314.048 78.0244C314.007 77.8837 313.968 77.7431 313.926 77.6035C313.968 77.7431 314.007 77.8837 314.048 78.0244ZM98.0498 77.4521V77.4512V77.4521ZM740.324 77.2842C740.328 77.3148 740.332 77.3454 740.336 77.376C740.277 76.9014 740.223 76.4258 740.173 75.9492L740.324 77.2842ZM313.826 77.2842C313.776 77.1246 313.727 76.9656 313.675 76.8076C313.727 76.9656 313.776 77.1246 313.826 77.2842ZM867.797 77.2842C867.849 76.8625 867.895 76.4398 867.94 76.0166C867.895 76.4398 867.849 76.8625 867.797 77.2842ZM242.816 76.9541C242.151 76.8659 241.493 76.7692 240.846 76.6621C241.817 76.8228 242.81 76.962 243.822 77.0801L242.816 76.9541ZM773.248 76.2744C773.258 76.3727 773.269 76.4706 773.279 76.5684C773.265 76.4308 773.25 76.2928 773.236 76.1543L773.248 76.2744ZM313.552 76.4424C313.501 76.2927 313.449 76.1434 313.396 75.9951C313.449 76.1434 313.501 76.2927 313.552 76.4424ZM535.034 76.3193H558.916L546.913 41.6602L535.034 76.3193ZM94.7773 75.4189C95.1053 75.5914 95.4291 75.769 95.748 75.9531C95.4291 75.769 95.1053 75.5914 94.7773 75.4189ZM740.073 74.918C740.104 75.2481 740.134 75.578 740.169 75.9072C740.134 75.578 740.104 75.2481 740.073 74.918ZM867.954 75.8887C867.992 75.5269 868.027 75.1645 868.06 74.8018C868.027 75.1645 867.992 75.5269 867.954 75.8887ZM313.315 75.7725C313.246 75.5816 313.175 75.3916 313.103 75.2031C313.175 75.3916 313.246 75.5816 313.315 75.7725ZM773.157 75.3037C773.169 75.4354 773.182 75.5664 773.194 75.6973C773.179 75.5312 773.163 75.3646 773.148 75.1973L773.157 75.3037ZM834.937 75.6826C834.948 75.5566 834.961 75.4305 834.972 75.3037L834.98 75.1973C834.967 75.3597 834.951 75.5214 834.937 75.6826ZM312.993 74.9277C312.926 74.7599 312.859 74.5927 312.79 74.4268C312.859 74.5927 312.926 74.7599 312.993 74.9277ZM835.002 74.918C835.018 74.7187 835.034 74.5185 835.049 74.3174L835.055 74.2246C835.038 74.457 835.02 74.6881 835.002 74.918ZM868.098 74.3828C868.133 73.9667 868.166 73.55 868.195 73.1328C868.166 73.55 868.133 73.9667 868.098 74.3828ZM312.7 74.2178C312.626 74.043 312.551 73.8689 312.474 73.6963C312.551 73.8689 312.626 74.043 312.7 74.2178ZM91.7129 74.0146V74.0156V74.0146ZM312.326 73.376C312.264 73.241 312.201 73.1063 312.137 72.9727C312.201 73.1063 312.264 73.241 312.326 73.376ZM868.347 70.3213C868.314 71.1919 868.269 72.0609 868.21 72.9277C868.269 72.0609 868.314 71.1919 868.347 70.3213ZM85.6182 72.124C86.386 72.3073 87.1453 72.5046 87.8936 72.7197C87.1453 72.5046 86.386 72.3073 85.6182 72.124ZM311.973 72.6387C311.905 72.5014 311.837 72.3643 311.767 72.2285C311.837 72.3643 311.905 72.5014 311.973 72.6387ZM772.878 70.3174C772.897 70.9691 772.921 71.6124 772.952 72.2471C772.921 71.6124 772.897 70.9691 772.878 70.3174ZM311.604 71.9189C311.528 71.7764 311.452 71.6341 311.374 71.4932C311.452 71.6341 311.528 71.7764 311.604 71.9189ZM739.762 70.0039C739.779 70.5009 739.8 70.9974 739.825 71.4932C739.8 70.9974 739.779 70.5009 739.762 70.0039ZM224.933 71.1016V71.1006V71.1016ZM311.221 71.2217C311.143 71.0843 311.064 70.9474 310.984 70.8115C311.064 70.9474 311.143 71.0843 311.221 71.2217ZM717.062 69.3203C717.623 69.6177 718.171 69.9299 718.705 70.2588C718.171 69.9299 717.623 69.6177 717.062 69.3203ZM310.81 70.5205C310.727 70.3847 310.645 70.2494 310.561 70.1152C310.645 70.2494 310.727 70.3847 310.81 70.5205ZM310.37 69.8164C310.293 69.6974 310.216 69.5787 310.138 69.4609C310.216 69.5787 310.293 69.6974 310.37 69.8164ZM309.884 69.0879C309.817 68.9911 309.75 68.8947 309.682 68.7988C309.75 68.8947 309.817 68.9911 309.884 69.0879ZM309.475 68.5117C309.38 68.3817 309.284 68.2524 309.188 68.124C309.284 68.2524 309.38 68.3817 309.475 68.5117ZM714.144 67.9561C714.546 68.122 714.944 68.2941 715.336 68.4727C714.944 68.2941 714.546 68.122 714.144 67.9561ZM308.99 67.8662C308.896 67.7441 308.801 67.6225 308.704 67.502C308.801 67.6225 308.896 67.7441 308.99 67.8662ZM219.264 66.7607H219.265H219.264ZM308.478 67.2227C308.382 67.1069 308.286 66.9923 308.188 66.8779C308.286 66.9923 308.382 67.1069 308.478 67.2227ZM835.259 64.2139C835.28 65.1259 835.291 66.0547 835.291 67L835.286 65.8936C835.281 65.3275 835.271 64.7676 835.259 64.2139ZM307.95 66.6006C307.855 66.4919 307.76 66.3838 307.663 66.2764C307.76 66.3838 307.855 66.4919 307.95 66.6006ZM307.418 66.0078C307.321 65.903 307.224 65.7988 307.125 65.6953C307.224 65.7988 307.321 65.903 307.418 66.0078ZM306.847 65.4072C306.753 65.3113 306.658 65.2159 306.562 65.1211C306.658 65.2159 306.753 65.3113 306.847 65.4072ZM306.272 64.8369C306.171 64.7392 306.069 64.6424 305.966 64.5459C306.069 64.6424 306.171 64.7392 306.272 64.8369ZM705.133 64.665C705.275 64.6307 705.417 64.5959 705.559 64.5605C705.417 64.5959 705.275 64.6307 705.133 64.665ZM705.862 64.4834C705.976 64.4543 706.089 64.4252 706.202 64.3955C706.089 64.4252 705.976 64.4543 705.862 64.4834ZM305.675 64.2764C305.574 64.1847 305.473 64.0934 305.371 64.0029C305.473 64.0934 305.574 64.1847 305.675 64.2764ZM707.251 64.1074C707.328 64.0853 707.405 64.0634 707.482 64.041C707.405 64.0634 707.328 64.0853 707.251 64.1074ZM305.056 63.7275C304.949 63.6354 304.841 63.544 304.732 63.4531C304.841 63.544 304.949 63.6354 305.056 63.7275ZM708.57 63.709C708.626 63.6913 708.682 63.6741 708.737 63.6562C708.682 63.6741 708.626 63.6913 708.57 63.709ZM709.082 63.543C709.172 63.5131 709.263 63.4835 709.353 63.4531C709.263 63.4835 709.172 63.5131 709.082 63.543ZM304.429 63.2021C304.316 63.1106 304.203 63.02 304.089 62.9297C304.203 63.02 304.316 63.1106 304.429 63.2021ZM710.941 62.8809C711.02 62.8509 711.098 62.8214 711.176 62.791C711.098 62.8214 711.02 62.8509 710.941 62.8809ZM303.789 62.6943C303.661 62.5956 303.531 62.4985 303.401 62.4014C303.531 62.4985 303.661 62.5956 303.789 62.6943ZM711.495 62.6641C711.578 62.6309 711.661 62.5981 711.743 62.5645C711.661 62.5981 711.578 62.6309 711.495 62.6641ZM712.135 62.4014C712.199 62.3741 712.264 62.3469 712.328 62.3193C712.264 62.3469 712.199 62.3741 712.135 62.4014ZM868.286 62.4014C868.264 61.993 868.241 61.5847 868.213 61.1768L868.209 61.1309C868.238 61.5541 868.263 61.9776 868.286 62.4014ZM215.294 62.0107H215.295H215.294ZM303.125 62.1963C302.99 62.0981 302.855 62.0009 302.718 61.9043C302.855 62.0009 302.99 62.0981 303.125 62.1963ZM712.671 62.1689C712.752 62.1333 712.833 62.0977 712.913 62.0615C712.833 62.0977 712.752 62.1333 712.671 62.1689ZM713.221 61.9209C713.304 61.8824 713.388 61.8447 713.471 61.8057C713.388 61.8447 713.304 61.8824 713.221 61.9209ZM302.437 61.707C302.299 61.6124 302.161 61.5189 302.021 61.4258C302.161 61.5189 302.299 61.6124 302.437 61.707ZM713.893 61.6035C713.926 61.587 713.96 61.5703 713.994 61.5537C713.96 61.5703 713.926 61.587 713.893 61.6035ZM714.384 61.3584C714.451 61.3244 714.518 61.2913 714.585 61.2568C714.518 61.2913 714.451 61.3244 714.384 61.3584ZM301.714 61.2227C301.585 61.1389 301.456 61.0561 301.325 60.9736C301.456 61.0561 301.585 61.1389 301.714 61.2227ZM714.848 61.1182C714.954 61.0621 715.06 61.0063 715.165 60.9492C715.06 61.0063 714.954 61.0621 714.848 61.1182ZM715.391 60.8242C715.479 60.7753 715.567 60.7265 715.655 60.6768C715.567 60.7265 715.479 60.7753 715.391 60.8242ZM300.971 60.751C300.834 60.6668 300.695 60.5847 300.557 60.502C300.695 60.5847 300.834 60.6668 300.971 60.751ZM40.04 56.7002H61.7803C66.7429 56.7002 69.3504 55.5534 70.7842 54.0938C72.2308 52.6209 73.2607 50.04 73.2607 45.3994C73.2607 41.3378 72.2499 39.0937 70.8574 37.7891C69.4098 36.4328 66.7755 35.3594 61.96 35.3594H40.04V56.7002ZM715.947 60.5088C716.03 60.4607 716.113 60.4131 716.195 60.3643C716.113 60.4131 716.03 60.4607 715.947 60.5088ZM300.231 60.3096C300.089 60.2269 299.946 60.1456 299.802 60.0645C299.946 60.1456 300.089 60.2269 300.231 60.3096ZM716.523 60.167C716.585 60.1296 716.645 60.0915 716.706 60.0537C716.645 60.0915 716.585 60.1296 716.523 60.167ZM299.462 59.874C299.306 59.7882 299.148 59.7042 298.989 59.6201C299.148 59.7042 299.306 59.7882 299.462 59.874ZM717.003 59.8672C717.08 59.8182 717.156 59.7693 717.232 59.7197C717.156 59.7694 717.08 59.8182 717.003 59.8672ZM835.052 59.6299C835.034 59.3764 835.013 59.1245 834.993 58.874C835.013 59.1245 835.034 59.3764 835.052 59.6299ZM717.477 59.5566C717.559 59.5018 717.641 59.4472 717.723 59.3916C717.641 59.4472 717.559 59.5018 717.477 59.5566ZM298.701 59.4678C298.538 59.3831 298.373 59.3007 298.208 59.2178C298.373 59.3007 298.538 59.3831 298.701 59.4678ZM717.975 59.2178C718.054 59.1623 718.132 59.106 718.211 59.0498C718.132 59.106 718.054 59.1623 717.975 59.2178ZM297.834 59.0312C297.718 58.9747 297.601 58.92 297.483 58.8643C297.601 58.92 297.718 58.9747 297.834 59.0312ZM867.79 56.7881C867.881 57.5172 867.958 58.2483 868.028 58.9805C867.958 58.2483 867.881 57.5172 867.79 56.7881ZM718.469 58.8643C718.554 58.8015 718.639 58.7375 718.724 58.6738C718.639 58.7375 718.554 58.8015 718.469 58.8643ZM297.009 58.6406C296.88 58.5813 296.749 58.5241 296.619 58.4658C296.749 58.5241 296.88 58.5813 297.009 58.6406ZM718.891 58.5479C718.99 58.4722 719.088 58.3962 719.186 58.3193C719.088 58.3962 718.99 58.4722 718.891 58.5479ZM296.186 58.2725C296.007 58.1949 295.826 58.1197 295.645 58.0439C295.826 58.1197 296.007 58.1949 296.186 58.2725ZM719.407 58.1416C719.474 58.0881 719.54 58.0345 719.605 57.9805C719.54 58.0346 719.474 58.0881 719.407 58.1416ZM295.353 57.9219C295.171 57.8475 294.987 57.7756 294.803 57.7031C294.987 57.7757 295.171 57.8475 295.353 57.9219ZM72.6611 57.7715C72.6232 57.8013 72.5843 57.83 72.5459 57.8594C72.576 57.8364 72.6069 57.8143 72.6367 57.791L72.6611 57.7715ZM719.874 57.7559C719.944 57.6963 720.014 57.6364 720.084 57.5762C720.014 57.6364 719.944 57.6963 719.874 57.7559ZM212.677 57.1836H212.678H212.677ZM294.421 57.5527C294.285 57.5008 294.149 57.4513 294.012 57.4004C294.149 57.4513 294.285 57.5008 294.421 57.5527ZM720.285 57.4004C720.369 57.3258 720.453 57.2505 720.536 57.1748C720.453 57.2505 720.369 57.3258 720.285 57.4004ZM293.476 57.2031C293.361 57.162 293.245 57.1225 293.13 57.082C293.245 57.1225 293.361 57.162 293.476 57.2031ZM720.733 56.9941C720.808 56.9247 720.882 56.8546 720.956 56.7842C720.882 56.8546 720.808 56.9247 720.733 56.9941ZM292.56 56.8848C292.442 56.8454 292.324 56.8073 292.206 56.7686C292.324 56.8073 292.442 56.8454 292.56 56.8848ZM834.787 56.6855C834.766 56.4928 834.743 56.3012 834.72 56.1104C834.743 56.3012 834.766 56.4928 834.787 56.6855ZM721.169 56.5781C721.236 56.5129 721.302 56.4478 721.368 56.3818C721.302 56.4478 721.236 56.5129 721.169 56.5781ZM291.611 56.5762C291.492 56.5387 291.372 56.5026 291.252 56.4658C291.372 56.5026 291.492 56.5387 291.611 56.5762ZM74.4082 56.0146C74.3275 56.1182 74.2454 56.2202 74.1611 56.3203C74.2454 56.2202 74.3275 56.1182 74.4082 56.0146ZM290.669 56.2891C290.505 56.2408 290.34 56.1955 290.174 56.1484C290.34 56.1955 290.505 56.2408 290.669 56.2891ZM721.599 56.1484C721.667 56.0778 721.735 56.0061 721.803 55.9346C721.735 56.0061 721.667 56.0778 721.599 56.1484ZM289.685 56.0107C289.505 55.9616 289.325 55.914 289.144 55.8662C289.325 55.914 289.505 55.9616 289.685 56.0107ZM721.97 55.7568C722.055 55.665 722.14 55.5728 722.224 55.4795C722.14 55.5728 722.055 55.665 721.97 55.7568ZM288.695 55.748C288.535 55.7071 288.373 55.6688 288.211 55.6289C288.373 55.6688 288.535 55.7071 288.695 55.748ZM287.619 55.4844C287.504 55.4572 287.388 55.4319 287.271 55.4053C287.388 55.4319 287.504 55.4572 287.619 55.4844ZM682.889 55.4688C682.648 55.4751 682.403 55.4795 682.154 55.4795L682.63 55.4756C682.717 55.4741 682.803 55.471 682.889 55.4688ZM685.475 55.2617C685.125 55.311 684.764 55.3521 684.392 55.3848C684.764 55.3521 685.125 55.311 685.475 55.2617ZM286.595 55.252C286.443 55.2189 286.291 55.1875 286.138 55.1553C286.291 55.1875 286.443 55.2189 286.595 55.252ZM722.428 55.249C722.473 55.1971 722.518 55.1442 722.562 55.0918C722.518 55.1442 722.473 55.1971 722.428 55.249ZM285.532 55.0293C285.388 55.0002 285.242 54.9726 285.097 54.9443C285.242 54.9726 285.388 55.0002 285.532 55.0293ZM867.548 55.0205C867.491 54.6362 867.434 54.2522 867.371 53.8691C867.434 54.2522 867.491 54.6362 867.548 55.0205ZM722.786 54.8291C722.842 54.7623 722.896 54.6945 722.951 54.627C722.896 54.6945 722.842 54.7623 722.786 54.8291ZM723.163 54.3633C723.219 54.2927 723.274 54.2217 723.329 54.1504C723.274 54.2217 723.219 54.2927 723.163 54.3633ZM210.733 51.0664C210.843 51.5695 210.962 52.0661 211.091 52.5557C211.162 52.8252 211.235 53.093 211.312 53.3584H211.312C211.096 52.6108 210.904 51.8466 210.733 51.0664ZM723.543 53.8691C723.591 53.8051 723.637 53.7404 723.685 53.6758C723.637 53.7404 723.591 53.8051 723.543 53.8691ZM690.768 53.4697C690.822 53.4356 690.876 53.4011 690.929 53.3662C690.876 53.4011 690.822 53.4356 690.768 53.4697ZM867.302 53.4697C867.243 53.1191 867.184 52.7684 867.12 52.4189C867.184 52.7684 867.243 53.1191 867.302 53.4697ZM723.858 53.4336C723.918 53.3498 723.977 53.2655 724.035 53.1807C723.977 53.2655 723.918 53.3498 723.858 53.4336ZM691.232 53.1592C691.279 53.1259 691.326 53.0934 691.372 53.0596L691.409 53.0312C691.351 53.0746 691.292 53.1169 691.232 53.1592ZM724.202 52.9355C724.26 52.8498 724.317 52.7635 724.373 52.6768C724.317 52.7635 724.26 52.8498 724.202 52.9355ZM724.533 52.4277C724.591 52.336 724.648 52.2433 724.705 52.1504C724.648 52.2433 724.591 52.336 724.533 52.4277ZM866.847 51.0068C866.942 51.4764 867.034 51.9471 867.12 52.4189C867.034 51.9471 866.942 51.4764 866.847 51.0068ZM692.765 51.7861C692.715 51.8419 692.665 51.8975 692.614 51.9521C692.665 51.8975 692.715 51.8419 692.765 51.7861ZM724.838 51.9336C724.901 51.8274 724.963 51.72 725.025 51.6123C724.963 51.72 724.901 51.8274 724.838 51.9336ZM658.255 51.4795H682.154C686.616 51.4795 688.686 50.3168 689.717 49.1953C690.806 48.0106 691.475 46.0762 691.475 43.0596C691.475 39.7843 690.676 37.9439 689.602 36.8809C688.585 35.8753 686.694 34.9435 683.08 34.8311L682.335 34.8193H658.255V51.4795ZM725.168 51.3643C725.219 51.2738 725.268 51.1823 725.317 51.0908C725.268 51.1823 725.219 51.2738 725.168 51.3643ZM725.446 50.8516C725.497 50.7548 725.548 50.6575 725.598 50.5596C725.548 50.6575 725.497 50.7548 725.446 50.8516ZM866.75 50.5547C866.681 50.2265 866.613 49.8983 866.539 49.5713C866.613 49.8983 866.681 50.2265 866.75 50.5547ZM725.741 50.2734C725.782 50.1912 725.822 50.1084 725.861 50.0254C725.822 50.1084 725.782 50.1912 725.741 50.2734ZM246.544 48.957C246.874 49.169 247.222 49.3704 247.59 49.5605C247.222 49.3704 246.874 49.169 246.544 48.957ZM726.021 49.6885C726.064 49.5947 726.105 49.5 726.147 49.4053C726.105 49.5 726.064 49.5947 726.021 49.6885ZM775.086 47.8711H775.087H775.086ZM726.258 49.1533C726.309 49.0347 726.359 48.9151 726.408 48.7949C726.359 48.9151 726.309 49.0347 726.258 49.1533ZM866.386 48.916C866.332 48.686 866.279 48.4559 866.223 48.2266C866.279 48.4559 866.332 48.686 866.386 48.916ZM726.498 48.5791C726.55 48.4502 726.599 48.3201 726.649 48.1895C726.599 48.3201 726.55 48.4502 726.498 48.5791ZM726.736 47.9619C726.777 47.8533 726.815 47.7436 726.854 47.6338C726.815 47.7436 726.777 47.8533 726.736 47.9619ZM210.117 47.3945C209.979 46.2475 209.885 45.0701 209.838 43.8623C209.885 45.0701 209.979 46.2475 210.117 47.3945ZM726.955 47.3496C726.996 47.2316 727.034 47.1125 727.073 46.9932C727.034 47.1125 726.996 47.2316 726.955 47.3496ZM244.075 46.7705C244.233 46.9648 244.401 47.1523 244.576 47.3369C244.401 47.1523 244.233 46.9648 244.075 46.7705ZM727.156 46.7402C727.165 46.7135 727.174 46.687 727.183 46.6602L727.337 46.1475C727.279 46.3469 727.218 46.5444 727.156 46.7402ZM727.345 46.1182C727.396 45.9425 727.445 45.7654 727.493 45.5869C727.445 45.7654 727.396 45.9425 727.345 46.1182ZM865.552 45.6982C865.521 45.5898 865.49 45.4813 865.458 45.373C865.49 45.4813 865.521 45.5898 865.552 45.6982ZM727.527 45.458C727.565 45.3154 727.601 45.1718 727.637 45.0273C727.601 45.1718 727.565 45.3154 727.527 45.458ZM865.384 45.1221C865.344 44.9875 865.304 44.853 865.264 44.7188C865.304 44.853 865.344 44.9875 865.384 45.1221ZM777.169 42.7188C776.933 43.1699 776.709 43.6327 776.495 44.1064C776.709 43.6327 776.933 43.1698 777.169 42.7188ZM727.706 44.7432C727.722 44.6744 727.738 44.6053 727.754 44.5361C727.738 44.6053 727.722 44.6744 727.706 44.7432ZM865.152 44.3564C865.118 44.2463 865.084 44.1363 865.05 44.0264C865.084 44.1363 865.118 44.2463 865.152 44.3564ZM727.993 43.3945C728.013 43.2899 728.031 43.1846 728.05 43.0791C728.031 43.1846 728.013 43.2899 727.993 43.3945ZM864.682 42.8906C864.659 42.8233 864.637 42.7558 864.614 42.6885C864.637 42.7558 864.659 42.8233 864.682 42.8906ZM314.106 38.9678C314.311 40.2556 314.462 41.5609 314.562 42.8799L314.479 41.9023C314.384 40.9153 314.26 39.9367 314.106 38.9678ZM864.415 42.1094C864.4 42.0661 864.385 42.0227 864.37 41.9795C864.385 42.0227 864.4 42.0661 864.415 42.1094ZM728.227 41.9834C728.244 41.8626 728.259 41.7411 728.275 41.6191C728.259 41.7411 728.244 41.8626 728.227 41.9834ZM864.198 41.4971C864.172 41.4231 864.145 41.3492 864.118 41.2754C864.145 41.3492 864.172 41.4231 864.198 41.4971ZM863.997 40.9473C863.948 40.8143 863.899 40.6814 863.849 40.5488C863.899 40.6814 863.948 40.8143 863.997 40.9473ZM728.404 40.5215C728.427 40.291 728.448 40.0586 728.467 39.8242C728.448 40.0586 728.427 40.291 728.404 40.5215ZM863.747 40.2842C863.7 40.162 863.653 40.0399 863.605 39.918C863.653 40.0399 863.7 40.162 863.747 40.2842ZM210.248 35.8438C210.149 36.5032 210.066 37.1703 210 37.8447C209.967 38.1821 209.938 38.5213 209.913 38.8623H209.914C209.988 37.8396 210.099 36.833 210.248 35.8438ZM863.51 39.6738C863.454 39.534 863.399 39.3943 863.343 39.2549C863.399 39.3943 863.454 39.534 863.51 39.6738ZM863.215 38.9424C863.168 38.8276 863.12 38.7131 863.072 38.5986C863.12 38.7131 863.168 38.8276 863.215 38.9424ZM728.563 38.2041C728.558 38.3559 728.55 38.5069 728.542 38.6572C728.563 38.2438 728.579 37.8246 728.587 37.3994L728.563 38.2041ZM314.008 38.3857C313.986 38.2558 313.965 38.1257 313.941 37.9961C313.965 38.1257 313.986 38.2558 314.008 38.3857ZM862.906 38.2041C862.861 38.0966 862.815 37.9891 862.769 37.8818C862.815 37.9891 862.861 38.0966 862.906 38.2041ZM313.879 37.6709C313.839 37.4599 313.8 37.249 313.758 37.0391C313.8 37.249 313.839 37.4599 313.879 37.6709ZM862.632 37.5693C862.596 37.4886 862.561 37.4077 862.525 37.3271C862.561 37.4077 862.596 37.4886 862.632 37.5693ZM862.322 36.875C862.285 36.792 862.247 36.7088 862.209 36.626C862.247 36.7088 862.285 36.792 862.322 36.875ZM862.034 36.251C861.989 36.1535 861.943 36.0562 861.896 35.959C861.943 36.0562 861.989 36.1535 862.034 36.251ZM313.462 35.6992C313.421 35.5241 313.379 35.3491 313.336 35.1748C313.379 35.3491 313.421 35.5241 313.462 35.6992ZM861.723 35.5967C861.678 35.5041 861.633 35.4116 861.588 35.3193C861.633 35.4116 861.678 35.5041 861.723 35.5967ZM313.211 34.6904C313.169 34.5311 313.128 34.3716 313.085 34.2129C313.128 34.3716 313.169 34.5311 313.211 34.6904ZM73.1084 34.4443C73.1404 34.4706 73.1716 34.4978 73.2031 34.5244C73.0895 34.4285 72.9741 34.3338 72.8555 34.2422L73.1084 34.4443ZM861.087 34.3213C861.033 34.2173 860.98 34.1134 860.926 34.0098C860.98 34.1134 861.033 34.2173 861.087 34.3213ZM312.948 33.7344C312.906 33.5861 312.864 33.4377 312.819 33.29C312.864 33.4377 312.906 33.5861 312.948 33.7344ZM860.781 33.7344C860.716 33.6114 860.651 33.4887 860.585 33.3662C860.651 33.4887 860.716 33.6114 860.781 33.7344ZM71.4678 33.334C71.567 33.3889 71.6651 33.4447 71.7617 33.502L71.4688 33.334C71.3695 33.2791 71.2689 33.2255 71.167 33.1729L71.4678 33.334ZM860.44 33.0996C860.386 32.9998 860.331 32.9002 860.276 32.8008C860.331 32.9002 860.386 32.9998 860.44 33.0996ZM312.703 32.9121C312.645 32.7246 312.587 32.5371 312.526 32.3506C312.587 32.5371 312.645 32.7246 312.703 32.9121ZM727.801 29.2373C727.961 29.9423 728.097 30.6572 728.208 31.3809C728.097 30.6572 727.961 29.9423 727.801 29.2373ZM860.079 32.4463C860.031 32.3613 859.984 32.2762 859.936 32.1914C859.984 32.2762 860.031 32.3613 860.079 32.4463ZM791.096 31.5439C790.541 31.7093 790.002 31.888 789.478 32.0781C790.002 31.888 790.541 31.7093 791.096 31.5439ZM211.591 30.1191C211.491 30.425 211.396 30.733 211.305 31.043H211.306C211.488 30.4233 211.687 29.8118 211.902 29.209V29.208C211.794 29.5096 211.69 29.8133 211.591 30.1191ZM312.374 31.8975C312.327 31.76 312.282 31.6222 312.233 31.4854C312.282 31.6222 312.327 31.76 312.374 31.8975ZM859.653 31.7021C859.619 31.6438 859.585 31.5856 859.551 31.5273C859.585 31.5856 859.619 31.6438 859.653 31.7021ZM65.666 31.5791H65.667H65.666ZM276.517 31.1338C276.691 31.2597 276.861 31.3894 277.029 31.5205C276.97 31.4745 276.912 31.4272 276.853 31.3818L276.517 31.1338ZM859.364 31.2119C859.299 31.1027 859.234 30.9936 859.168 30.8848C859.234 30.9936 859.299 31.1027 859.364 31.2119ZM796.517 30.3936V30.3945V30.3936ZM312.043 30.9609C311.997 30.8348 311.951 30.7086 311.903 30.583C311.951 30.7086 311.997 30.8348 312.043 30.9609ZM108.989 29.9717V29.9707V29.9717ZM858.957 30.5391C858.907 30.4578 858.856 30.377 858.806 30.2959C858.856 30.377 858.907 30.4578 858.957 30.5391ZM311.739 30.1621C311.675 29.9991 311.612 29.8359 311.546 29.6738C311.612 29.8359 311.675 29.9991 311.739 30.1621ZM807.985 30.0459C807.781 30.0327 807.575 30.0179 807.367 30.0068L807.333 30.0059C807.552 30.0174 807.769 30.032 807.985 30.0459ZM858.603 29.9717C858.54 29.8722 858.477 29.7729 858.413 29.6738C858.477 29.7729 858.54 29.8722 858.603 29.9717ZM858.244 29.4131C858.182 29.317 858.12 29.2207 858.057 29.125C858.12 29.2207 858.182 29.317 858.244 29.4131ZM311.389 29.2998C311.318 29.1308 311.246 28.9619 311.173 28.7939C311.246 28.9619 311.318 29.1308 311.389 29.2998ZM857.8 28.7402C857.754 28.6719 857.708 28.6033 857.662 28.5352C857.708 28.6033 857.754 28.6719 857.8 28.7402ZM310.974 28.3506C310.917 28.2255 310.861 28.1001 310.803 27.9756C310.861 28.1001 310.917 28.2255 310.974 28.3506ZM857.414 28.1729C857.332 28.0541 857.25 27.9355 857.167 27.8174C857.25 27.9355 857.332 28.0541 857.414 28.1729ZM252.636 28.0342C252.489 28.0725 252.343 28.1129 252.199 28.1533C252.488 28.0724 252.782 27.9952 253.081 27.9229L252.636 28.0342ZM857.07 27.6807C856.973 27.5423 856.875 27.4041 856.775 27.2666C856.875 27.4041 856.973 27.5423 857.07 27.6807ZM310.558 27.4639C310.495 27.3355 310.434 27.2067 310.37 27.0791C310.434 27.2067 310.495 27.3355 310.558 27.4639ZM213.833 24.8496C213.534 25.4082 213.252 25.9761 212.986 26.5527C213.252 25.9761 213.534 25.4082 213.833 24.8496ZM257.975 27.167C257.622 27.195 257.275 27.2275 256.933 27.2646C257.275 27.2275 257.622 27.195 257.975 27.167ZM856.623 27.0576C856.536 26.9378 856.448 26.8184 856.359 26.6992C856.448 26.8184 856.536 26.9378 856.623 27.0576ZM310.164 26.6768C310.086 26.5254 310.008 26.374 309.928 26.2236C310.008 26.374 310.086 26.5254 310.164 26.6768ZM856.175 26.4512C856.107 26.3612 856.04 26.2712 855.972 26.1816C856.04 26.2712 856.107 26.3612 856.175 26.4512ZM309.719 25.8398C309.632 25.6812 309.545 25.5227 309.455 25.3652C309.545 25.5227 309.632 25.6812 309.719 25.8398ZM855.71 25.8398C855.647 25.7582 855.583 25.677 855.52 25.5957C855.583 25.677 855.647 25.7582 855.71 25.8398ZM855.272 25.2822C855.192 25.1811 855.111 25.0801 855.03 24.9795C855.111 25.0801 855.192 25.1811 855.272 25.2822ZM309.276 25.0566C309.18 24.8905 309.083 24.7244 308.983 24.5596C309.083 24.7244 309.18 24.8905 309.276 25.0566ZM106.887 24.6758V24.6748V24.6758ZM854.854 24.7617C854.766 24.6539 854.677 24.5466 854.588 24.4395C854.677 24.5466 854.766 24.6539 854.854 24.7617ZM308.768 24.209C308.674 24.057 308.58 23.9047 308.483 23.7539C308.58 23.9047 308.674 24.057 308.768 24.209ZM854.332 24.1338C854.266 24.0558 854.2 23.9781 854.134 23.9004C854.2 23.9781 854.266 24.0558 854.332 24.1338ZM853.902 23.6299C853.816 23.5303 853.73 23.4311 853.643 23.332C853.73 23.4311 853.816 23.5303 853.902 23.6299ZM308.24 23.3818C308.143 23.2333 308.044 23.0848 307.944 22.9375C308.044 23.0848 308.143 23.2333 308.24 23.3818ZM853.416 23.0752C853.334 22.9831 853.252 22.8914 853.169 22.7998C853.252 22.8914 853.334 22.9831 853.416 23.0752ZM307.661 22.5283C307.575 22.406 307.49 22.2836 307.402 22.1621C307.49 22.2836 307.575 22.406 307.661 22.5283ZM852.922 22.5283C852.839 22.4378 852.756 22.3478 852.672 22.2578C852.756 22.3478 852.839 22.4378 852.922 22.5283ZM307.14 21.8027C307.034 21.6596 306.927 21.5169 306.819 21.375C306.927 21.5169 307.034 21.6596 307.14 21.8027ZM851.849 21.3926C851.798 21.3403 851.746 21.2884 851.695 21.2363C851.746 21.2884 851.798 21.3403 851.849 21.3926ZM306.549 21.0254C306.445 20.8921 306.34 20.7591 306.233 20.627C306.34 20.7591 306.445 20.8921 306.549 21.0254ZM103.826 19.9473C104.109 20.3001 104.38 20.6606 104.645 21.0254C104.38 20.6605 104.109 20.3001 103.826 19.9473ZM851.416 20.9541C851.32 20.8579 851.224 20.7616 851.127 20.666C851.224 20.7616 851.32 20.8579 851.416 20.9541ZM850.852 20.3965C850.784 20.3309 850.716 20.2655 850.648 20.2002C850.716 20.2655 850.784 20.3309 850.852 20.3965ZM305.884 20.2002C305.795 20.0928 305.705 19.9855 305.614 19.8789C305.705 19.9855 305.795 20.0928 305.884 20.2002ZM850.3 19.8682C850.23 19.8021 850.159 19.7366 850.089 19.6709C850.159 19.7366 850.23 19.8021 850.3 19.8682ZM305.287 19.501C305.177 19.3756 305.067 19.2502 304.955 19.126C305.067 19.2502 305.177 19.3756 305.287 19.501ZM849.817 19.4189C849.711 19.3209 849.604 19.2232 849.496 19.126C849.604 19.2232 849.711 19.3209 849.817 19.4189ZM849.258 18.9111C849.141 18.807 849.023 18.7039 848.905 18.6006C849.023 18.7039 849.141 18.807 849.258 18.9111ZM304.632 18.7725C304.513 18.6444 304.393 18.5174 304.272 18.3906C304.393 18.5174 304.513 18.6444 304.632 18.7725ZM848.705 18.4258C848.594 18.3299 848.483 18.2348 848.371 18.1396C848.483 18.2348 848.594 18.3299 848.705 18.4258ZM303.96 18.0664C303.833 17.9368 303.705 17.8079 303.576 17.6797C303.705 17.8079 303.833 17.9368 303.96 18.0664ZM848.128 17.9326C848.024 17.8452 847.919 17.7586 847.814 17.6719C847.919 17.7586 848.024 17.8452 848.128 17.9326ZM847.531 17.4395C847.436 17.3621 847.342 17.2848 847.246 17.208C847.342 17.2848 847.436 17.3621 847.531 17.4395ZM303.264 17.3721C303.119 17.2322 302.973 17.0932 302.826 16.9551C302.973 17.0932 303.119 17.2322 303.264 17.3721ZM846.961 16.9795C846.838 16.8818 846.713 16.7852 846.589 16.6885C846.713 16.7852 846.838 16.8818 846.961 16.9795ZM302.528 16.6797C302.388 16.5512 302.247 16.4229 302.104 16.2959C302.247 16.4229 302.388 16.5512 302.528 16.6797ZM846.391 16.5342C846.268 16.4398 846.144 16.3465 846.021 16.2529C846.144 16.3465 846.268 16.4398 846.391 16.5342ZM301.754 15.9883C301.62 15.8725 301.485 15.7579 301.35 15.6436C301.485 15.7579 301.62 15.8725 301.754 15.9883ZM845.119 15.5859C845.003 15.5017 844.885 15.4184 844.768 15.335C844.885 15.4184 845.003 15.5017 845.119 15.5859ZM300.934 15.2979C300.812 15.1985 300.69 15.1002 300.566 15.002C300.69 15.1002 300.812 15.1985 300.934 15.2979ZM844.537 15.1719C844.399 15.0749 844.26 14.9788 844.12 14.8828C844.26 14.9788 844.399 15.0749 844.537 15.1719ZM843.888 14.7236C843.755 14.6334 843.621 14.5443 843.487 14.4551C843.621 14.5443 843.755 14.6334 843.888 14.7236ZM300.155 14.6777C300.009 14.5646 299.862 14.4525 299.714 14.3408C299.862 14.4525 300.009 14.5646 300.155 14.6777ZM843.252 14.2979C843.125 14.2145 842.998 14.1323 842.87 14.0498C842.998 14.1323 843.125 14.2145 843.252 14.2979ZM94.8057 12.4609C95.3277 12.7486 95.8366 13.0463 96.332 13.3545C95.8366 13.0463 95.3276 12.7486 94.8057 12.4609ZM299.315 14.0439C299.17 13.937 299.022 13.8311 298.874 13.7256C299.022 13.8311 299.17 13.937 299.315 14.0439ZM842.565 13.8535C842.433 13.7691 842.3 13.6851 842.166 13.6016C842.3 13.6851 842.433 13.7691 842.565 13.8535ZM841.94 13.4619C841.796 13.3725 841.65 13.2837 841.504 13.1953C841.65 13.2837 841.796 13.3725 841.94 13.4619ZM298.456 13.4316C298.305 13.3269 298.152 13.2233 297.999 13.1201C298.152 13.2233 298.305 13.3269 298.456 13.4316ZM841.275 13.0576C841.145 12.9799 841.015 12.903 840.884 12.8262C841.015 12.903 841.145 12.9799 841.275 13.0576ZM297.555 12.8252C297.404 12.7266 297.252 12.6294 297.099 12.5322C297.252 12.6294 297.404 12.7266 297.555 12.8252ZM840.516 12.6123C840.453 12.5764 840.391 12.5406 840.328 12.5049C840.391 12.5406 840.453 12.5764 840.516 12.6123ZM296.66 12.2559C296.485 12.1476 296.308 12.041 296.13 11.9346C296.308 12.041 296.485 12.1476 296.66 12.2559ZM839.823 12.2197C839.753 12.1804 839.681 12.1417 839.61 12.1025C839.681 12.1417 839.753 12.1804 839.823 12.2197ZM839.114 11.832C839.027 11.7853 838.94 11.7397 838.853 11.6934C838.94 11.7397 839.027 11.7853 839.114 11.832ZM295.721 11.6924C295.549 11.5921 295.375 11.4931 295.2 11.3945C295.375 11.4931 295.549 11.5921 295.721 11.6924ZM838.487 11.5C838.354 11.4307 838.221 11.3624 838.087 11.2939C838.221 11.3624 838.354 11.4307 838.487 11.5ZM294.751 11.1426C294.569 11.0429 294.386 10.9455 294.201 10.8477C294.386 10.9455 294.569 11.0429 294.751 11.1426ZM837.698 11.0967C837.598 11.0466 837.498 10.9978 837.397 10.9482C837.498 10.9978 837.598 11.0466 837.698 11.0967ZM837.013 10.7588C836.905 10.7066 836.797 10.6552 836.688 10.6035C836.797 10.6552 836.905 10.7066 837.013 10.7588ZM293.77 10.6201C293.584 10.524 293.396 10.4302 293.207 10.3359C293.396 10.4302 293.584 10.524 293.77 10.6201ZM292.718 10.0938C292.538 10.0063 292.356 9.92073 292.173 9.83496C292.356 9.92073 292.538 10.0063 292.718 10.0938ZM834.771 9.73047C834.612 9.66145 834.452 9.59427 834.291 9.52637C834.452 9.59427 834.612 9.66145 834.771 9.73047ZM707.979 9.12012C708.537 9.28834 709.082 9.46721 709.615 9.6543C709.082 9.4672 708.537 9.28835 707.979 9.12012ZM291.676 9.60352C291.493 9.52006 291.308 9.43823 291.122 9.35645C291.308 9.43824 291.493 9.52006 291.676 9.60352ZM834.003 9.4043C833.865 9.3468 833.726 9.29104 833.587 9.23438C833.726 9.29105 833.865 9.3468 834.003 9.4043ZM290.612 9.13379C290.405 9.04539 290.196 8.95939 289.986 8.87305C290.196 8.95939 290.405 9.04539 290.612 9.13379ZM833.193 9.07422C833.098 9.03598 833.001 8.99879 832.905 8.96094C833.001 8.99879 833.098 9.03598 833.193 9.07422ZM289.521 8.68262C289.314 8.60027 289.106 8.52082 288.897 8.44043C289.106 8.52082 289.314 8.60027 289.521 8.68262ZM831.647 8.48047C831.478 8.41811 831.308 8.35707 831.138 8.2959C831.308 8.35707 831.478 8.41811 831.647 8.48047ZM288.333 8.22461C288.18 8.16784 288.026 8.11335 287.872 8.05762C288.026 8.11335 288.18 8.16784 288.333 8.22461ZM830.815 8.17969C830.682 8.1326 830.547 8.08738 830.413 8.04102C830.547 8.08738 830.682 8.1326 830.815 8.17969ZM699.213 7.40234C700.584 7.54702 701.902 7.73707 703.169 7.96875C701.902 7.73705 700.584 7.54704 699.213 7.40234ZM829.997 7.89746C829.874 7.8561 829.751 7.81614 829.628 7.77539C829.751 7.81614 829.874 7.8561 829.997 7.89746ZM287.176 7.80957C286.991 7.74576 286.806 7.68442 286.619 7.62207C286.806 7.68442 286.991 7.74576 287.176 7.80957ZM286.025 7.4248C285.803 7.35307 285.578 7.2845 285.353 7.21484C285.578 7.2845 285.803 7.35307 286.025 7.4248ZM827.486 7.10742C827.286 7.04862 827.084 6.99085 826.882 6.93359C827.084 6.99085 827.286 7.04862 827.486 7.10742ZM284.82 7.05078C284.593 6.98296 284.364 6.91826 284.134 6.85254C284.364 6.91826 284.593 6.98296 284.82 7.05078ZM826.674 6.875C826.478 6.82036 826.282 6.76705 826.085 6.71387C826.282 6.76705 826.478 6.82036 826.674 6.875ZM283.551 6.68652C283.346 6.63025 283.14 6.57709 282.933 6.52246C283.14 6.57709 283.346 6.63025 283.551 6.68652ZM825.765 6.62695C825.641 6.59421 825.517 6.56244 825.393 6.53027C825.517 6.56244 825.641 6.59421 825.765 6.62695ZM784.017 6.18652C783.704 6.26106 783.393 6.33791 783.084 6.41602C783.393 6.33791 783.704 6.26106 784.017 6.18652ZM282.271 6.34961C282.049 6.29353 281.825 6.24072 281.601 6.18652C281.825 6.24072 282.049 6.29353 282.271 6.34961ZM823.973 6.17773C823.851 6.14899 823.729 6.12195 823.607 6.09375C823.729 6.12195 823.851 6.14899 823.973 6.17773ZM280.985 6.03906C280.752 5.9852 280.517 5.93467 280.281 5.88281C280.517 5.93467 280.752 5.9852 280.985 6.03906ZM823.065 5.96973C822.978 5.95015 822.89 5.93141 822.802 5.91211C822.89 5.93141 822.978 5.95015 823.065 5.96973ZM822.15 5.77148C822.073 5.75519 821.995 5.73972 821.917 5.72363C821.995 5.73972 822.073 5.75519 822.15 5.77148ZM279.636 5.74121C279.424 5.69689 279.212 5.656 278.998 5.61328C279.212 5.656 279.424 5.69689 279.636 5.74121ZM821.221 5.58203C821.169 5.5718 821.117 5.5619 821.064 5.55176C821.117 5.5619 821.169 5.5718 821.221 5.58203ZM278.279 5.4707C278.012 5.4201 277.743 5.37331 277.473 5.3252C277.743 5.37331 278.012 5.4201 278.279 5.4707ZM819.369 5.24121C819.219 5.21551 819.069 5.19095 818.918 5.16602C819.069 5.19095 819.219 5.21551 819.369 5.24121ZM276.913 5.22559C276.632 5.17784 276.35 5.13296 276.065 5.08789C276.35 5.13296 276.632 5.17784 276.913 5.22559ZM275.478 4.99414C275.244 4.95888 275.008 4.92799 274.771 4.89453C275.008 4.92799 275.244 4.95888 275.478 4.99414ZM794.464 4.45605C793.475 4.55441 792.501 4.66887 791.542 4.79785C792.826 4.62506 794.138 4.47892 795.478 4.36133L794.464 4.45605ZM273.975 4.7832C273.848 4.76657 273.721 4.75148 273.594 4.73535C273.721 4.75148 273.848 4.76657 273.975 4.7832ZM815.539 4.67969C815.316 4.65225 815.091 4.62641 814.866 4.60059C815.091 4.62641 815.316 4.65225 815.539 4.67969ZM271.032 4.44824C270.706 4.41676 270.377 4.38957 270.046 4.36133C270.377 4.38957 270.706 4.41676 271.032 4.44824ZM267.92 4.20117C267.644 4.18388 267.367 4.17037 267.088 4.15527C267.367 4.17037 267.644 4.18388 267.92 4.20117ZM806.475 4.03027C807.031 4.04365 807.584 4.06172 808.132 4.08398C807.584 4.06172 807.031 4.04365 806.475 4.03027ZM76.9678 49.543C76.978 49.4768 76.9884 49.4105 76.998 49.3438C76.9884 49.4105 76.978 49.4768 76.9678 49.543ZM77.0225 49.1689C77.0328 49.0935 77.0431 49.0176 77.0527 48.9414C77.0431 49.0176 77.0328 49.0935 77.0225 49.1689Z" fill="#3A3A39"/>
</svg>
