<svg width="1243" height="134" viewBox="0 0 1243 134" fill="none" xmlns="http://www.w3.org/2000/svg">
<path d="M758.481 0C779.758 0 795.174 4.94704 805.547 13.4629C815.659 21.7647 820.514 33.0769 821.599 45.207L821.692 46.3838L821.988 50.6602H782.535L782.059 47.2061C781.481 43.0197 779.471 39.4757 775.885 36.9062C772.229 34.2872 766.64 32.4795 758.661 32.4795C748.65 32.4796 741.696 35.1545 737.149 40.2715C732.516 45.4865 729.722 53.9694 729.722 67L729.729 68.1426C729.87 79.8389 732.191 87.9401 736.3 93.1084C740.39 98.2526 746.801 101.16 756.682 101.16C766.843 101.16 772.948 98.6697 776.729 95.2109C779.558 92.6233 781.414 89.1948 782.559 85.04H744.762V57.0596H821.521V130.76H787.062V119.438C785.193 121.549 783.016 123.524 780.479 125.293C773.046 130.476 762.879 133.64 749.121 133.64C728.513 133.64 713.191 126.035 703.106 113.596C693.121 101.278 688.602 84.6351 688.602 67C688.602 48.9278 693.614 32.0908 705.134 19.7432C716.703 7.34207 734.34 1.67029e-05 758.481 0ZM1049.19 0C1073.9 0 1091.2 8.28158 1102.26 21.1475C1113.22 33.9055 1117.63 50.6809 1117.63 67L1117.61 68.5547C1117.34 84.6187 1112.88 100.675 1102.24 112.895C1091.17 125.608 1073.87 133.64 1049.19 133.64C1024.68 133.64 1007.43 125.652 996.356 112.965C985.371 100.376 980.926 83.6737 980.926 67C980.926 50.5858 985.377 33.8108 996.34 21.0771C1007.39 8.23781 1024.65 4.45286e-05 1049.19 0ZM1162.89 77.0801L1162.9 78.0176C1163.01 87.5619 1164.86 92.6349 1167.59 95.4414C1170.36 98.2911 1174.93 99.7197 1182.83 99.7197C1190.73 99.7197 1195.31 98.2912 1198.08 95.4414C1200.89 92.5444 1202.77 87.2323 1202.77 77.0801V3.05957H1242.45V81.2197L1242.44 82.7783C1242.14 98.7767 1237.19 111.583 1227.11 120.389C1216.81 129.392 1201.8 133.64 1182.83 133.64C1163.87 133.64 1148.82 129.442 1138.47 120.467C1128.02 111.401 1123.03 98.0418 1123.03 81.2197V3.05957H1162.89V77.0801ZM39.6807 49.6797H81.7207V3.05957H121.4V130.76H81.7207V82.3398H39.6807V130.76H0V3.05957H39.6807V49.6797ZM236.651 36.0801H172.571V50.2197H231.251V81.4395H172.571V97.7402H237.19V130.76H132.891V3.05957H236.651V36.0801ZM286.485 97.7402H340.306V130.76H246.445V3.05957H286.485V97.7402ZM417.425 3.05957C432.111 3.05957 442.947 7.84987 450.042 16.0801C457.05 24.209 459.945 35.1579 459.945 46.6602L459.937 47.7979C459.762 59.5331 456.857 70.3971 450.074 78.4619C442.973 86.906 432.114 91.7002 417.425 91.7002H386.505V130.76H346.465V3.05957H417.425ZM542.322 36.0801H521.262V97.7402H542.322V130.76H460.521V97.7402H481.582V36.0801H460.521V3.05957H542.322V36.0801ZM643.561 79.8301V3.05957H681.801V130.76H623.138L590.721 54.7119V130.76H552.48V3.05957H611.154L643.561 79.8301ZM925.102 44.7021L925.112 44.7246L925.121 44.7471C926.611 48.2845 928.06 51.7956 929.442 55.3213C930.875 51.7851 932.38 48.2496 933.983 44.666L952.497 3.05957H997.001L949.555 93.1895V130.76H909.875V93.1914L862.236 3.05957H906.955L925.102 44.7021ZM1046.71 129.609C1047.05 129.617 1047.39 129.623 1047.73 129.628C1047.39 129.623 1047.05 129.617 1046.71 129.609ZM1052.47 129.589C1051.88 129.607 1051.28 129.62 1050.67 129.628C1051.28 129.62 1051.88 129.607 1052.47 129.589ZM1177.85 129.535C1178.92 129.581 1180.01 129.612 1181.12 129.628C1180.01 129.612 1178.92 129.581 1177.85 129.535ZM1187.9 129.53C1187.02 129.569 1186.13 129.594 1185.22 129.612C1186.13 129.594 1187.02 129.569 1187.9 129.53ZM1044.86 129.551C1045.01 129.557 1045.16 129.562 1045.31 129.567C1045.16 129.562 1045.01 129.557 1044.86 129.551ZM1042.82 129.444C1043.46 129.485 1044.12 129.519 1044.78 129.547C1044.12 129.519 1043.46 129.485 1042.82 129.444ZM1187.92 129.529C1188.44 129.506 1188.97 129.479 1189.48 129.448C1188.97 129.479 1188.44 129.506 1187.92 129.529ZM1176.21 129.452C1176.45 129.466 1176.7 129.477 1176.94 129.489C1176.7 129.477 1176.45 129.466 1176.21 129.452ZM743.796 129.454C743.965 129.466 744.134 129.477 744.304 129.487C744.134 129.477 743.965 129.466 743.796 129.454ZM1056.69 129.369C1056.14 129.41 1055.58 129.445 1055.02 129.477C1055.58 129.445 1056.14 129.41 1056.69 129.369ZM742.944 129.39C743.139 129.406 743.334 129.42 743.53 129.435C743.334 129.42 743.139 129.406 742.944 129.39ZM1174.55 129.342C1174.92 129.369 1175.29 129.393 1175.65 129.416C1175.29 129.393 1174.92 129.369 1174.55 129.342ZM1190.12 129.406C1190.45 129.385 1190.78 129.364 1191.11 129.339C1190.78 129.364 1190.45 129.385 1190.12 129.406ZM1041.82 129.377C1041.85 129.379 1041.89 129.381 1041.92 129.384C1041.89 129.381 1041.85 129.379 1041.82 129.377ZM741.258 129.229C741.735 129.28 742.216 129.326 742.701 129.368C742.216 129.326 741.735 129.28 741.258 129.229ZM1056.96 129.348C1057.2 129.329 1057.43 129.311 1057.67 129.291C1057.43 129.311 1057.2 129.329 1056.96 129.348ZM1040.76 129.293C1040.89 129.304 1041.02 129.314 1041.14 129.324C1041.02 129.314 1040.89 129.304 1040.76 129.293ZM1173.03 129.216C1173.42 129.251 1173.82 129.283 1174.22 129.314C1173.82 129.283 1173.42 129.251 1173.03 129.216ZM1191.58 129.3C1191.94 129.271 1192.31 129.242 1192.67 129.209C1192.31 129.242 1191.94 129.271 1191.58 129.3ZM1058.2 129.243C1058.36 129.229 1058.52 129.215 1058.68 129.2C1058.52 129.215 1058.36 129.229 1058.2 129.243ZM740.438 129.136C740.564 129.151 740.69 129.164 740.816 129.179C740.69 129.164 740.564 129.151 740.438 129.136ZM1171.49 129.064C1171.81 129.099 1172.14 129.13 1172.46 129.161C1172.14 129.13 1171.81 129.099 1171.49 129.064ZM1193.26 129.15C1193.58 129.119 1193.9 129.088 1194.22 129.053C1193.9 129.088 1193.58 129.119 1193.26 129.15ZM1059.31 129.137C1059.43 129.124 1059.55 129.112 1059.67 129.1C1059.55 129.112 1059.43 129.124 1059.31 129.137ZM1038.78 129.103C1038.85 129.111 1038.93 129.119 1039.01 129.127C1038.93 129.119 1038.85 129.111 1038.78 129.103ZM739.637 129.034C739.711 129.044 739.786 129.053 739.861 129.062C739.786 129.053 739.711 129.044 739.637 129.034ZM1060.13 129.048C1060.32 129.027 1060.51 129.006 1060.7 128.983C1060.51 129.006 1060.32 129.027 1060.13 129.048ZM1037.81 128.994C1037.9 129.005 1037.99 129.015 1038.08 129.025C1037.99 129.015 1037.9 129.005 1037.81 128.994ZM1169.97 128.888C1170.29 128.928 1170.61 128.964 1170.93 129.001C1170.61 128.964 1170.29 128.928 1169.97 128.888ZM1194.94 128.97C1195.19 128.94 1195.44 128.911 1195.69 128.88C1195.44 128.911 1195.19 128.94 1194.94 128.97ZM738.773 128.914C738.899 128.932 739.025 128.949 739.15 128.967C739.025 128.949 738.899 128.932 738.773 128.914ZM1036.74 128.861C1036.93 128.885 1037.11 128.908 1037.3 128.931C1037.11 128.908 1036.93 128.885 1036.74 128.861ZM1061.37 128.9C1061.44 128.891 1061.52 128.882 1061.6 128.872C1061.52 128.882 1061.44 128.891 1061.37 128.9ZM737.964 128.79C738.111 128.813 738.258 128.836 738.406 128.858C738.258 128.836 738.111 128.813 737.964 128.79ZM1168.54 128.697C1168.81 128.735 1169.07 128.77 1169.34 128.806C1169.07 128.77 1168.81 128.735 1168.54 128.697ZM1062.43 128.759C1062.47 128.753 1062.52 128.748 1062.56 128.742C1062.52 128.748 1062.47 128.753 1062.43 128.759ZM1196.8 128.732C1196.92 128.716 1197.03 128.701 1197.15 128.684C1197.03 128.701 1196.92 128.716 1196.8 128.732ZM737.171 128.658C737.298 128.68 737.426 128.701 737.554 128.723C737.426 128.701 737.298 128.68 737.171 128.658ZM1063.28 128.637C1063.37 128.623 1063.46 128.609 1063.55 128.595C1063.46 128.609 1063.37 128.623 1063.28 128.637ZM1167.06 128.473C1167.3 128.512 1167.55 128.55 1167.8 128.588C1167.55 128.55 1167.3 128.512 1167.06 128.473ZM1198.11 128.538C1198.3 128.509 1198.48 128.481 1198.67 128.451C1198.48 128.481 1198.3 128.509 1198.11 128.538ZM1033.91 128.439C1034.05 128.463 1034.19 128.486 1034.34 128.509C1034.19 128.486 1034.05 128.463 1033.91 128.439ZM1064.17 128.498C1064.29 128.478 1064.42 128.457 1064.54 128.437C1064.42 128.457 1064.29 128.478 1064.17 128.498ZM735.607 128.368C735.694 128.385 735.78 128.402 735.866 128.419C735.78 128.402 735.694 128.385 735.607 128.368ZM1165.62 128.228C1165.88 128.274 1166.14 128.319 1166.41 128.363C1166.14 128.319 1165.88 128.274 1165.62 128.228ZM1065 128.358C1065.16 128.331 1065.32 128.305 1065.47 128.276C1065.32 128.305 1065.16 128.331 1065 128.358ZM1033.07 128.294C1033.16 128.311 1033.26 128.327 1033.35 128.344C1033.26 128.327 1033.16 128.311 1033.07 128.294ZM1199.43 128.319C1199.66 128.28 1199.88 128.243 1200.11 128.202C1199.88 128.243 1199.66 128.28 1199.43 128.319ZM734.841 128.21C734.918 128.226 734.995 128.243 735.072 128.259C734.995 128.243 734.918 128.226 734.841 128.21ZM1065.9 128.197C1066.09 128.162 1066.28 128.128 1066.47 128.092C1066.28 128.128 1066.09 128.162 1065.9 128.197ZM1032.09 128.113C1032.21 128.136 1032.32 128.158 1032.44 128.18C1032.32 128.158 1032.21 128.136 1032.09 128.113ZM733.992 128.023C734.119 128.052 734.246 128.08 734.374 128.108C734.246 128.08 734.119 128.052 733.992 128.023ZM1164.23 127.965C1164.47 128.012 1164.71 128.058 1164.95 128.104C1164.71 128.058 1164.47 128.012 1164.23 127.965ZM1200.85 128.061C1201.07 128.016 1201.3 127.974 1201.53 127.928C1201.3 127.974 1201.07 128.016 1200.85 128.061ZM1066.76 128.034C1066.95 127.998 1067.14 127.961 1067.32 127.923C1067.14 127.961 1066.95 127.998 1066.76 128.034ZM1031.16 127.93C1031.32 127.962 1031.47 127.992 1031.63 128.023C1031.47 127.992 1031.32 127.962 1031.16 127.93ZM733.296 127.86C733.415 127.889 733.535 127.917 733.655 127.945C733.535 127.917 733.415 127.889 733.296 127.86ZM1030.21 127.728C1030.39 127.768 1030.58 127.808 1030.77 127.848C1030.58 127.808 1030.39 127.768 1030.21 127.728ZM1162.8 127.664C1163.06 127.722 1163.32 127.778 1163.59 127.833C1163.32 127.778 1163.06 127.722 1162.8 127.664ZM1067.83 127.817C1067.96 127.79 1068.09 127.762 1068.22 127.733C1068.09 127.762 1067.96 127.79 1067.83 127.817ZM1202.27 127.771C1202.48 127.726 1202.69 127.683 1202.9 127.637C1202.69 127.683 1202.48 127.726 1202.27 127.771ZM1029.34 127.535C1029.53 127.579 1029.73 127.622 1029.92 127.664C1029.73 127.622 1029.53 127.579 1029.34 127.535ZM1068.69 127.629C1068.83 127.598 1068.97 127.567 1069.11 127.535C1068.97 127.567 1068.83 127.598 1068.69 127.629ZM731.688 127.447C731.842 127.489 731.996 127.531 732.151 127.571C731.996 127.531 731.842 127.489 731.688 127.447ZM1161.47 127.355C1161.72 127.417 1161.97 127.476 1162.23 127.535C1161.97 127.476 1161.72 127.417 1161.47 127.355ZM1203.62 127.468C1203.85 127.415 1204.07 127.363 1204.29 127.308C1204.07 127.363 1203.85 127.415 1203.62 127.468ZM1028.5 127.334C1028.64 127.37 1028.79 127.404 1028.94 127.439C1028.79 127.404 1028.64 127.37 1028.5 127.334ZM1069.6 127.42C1069.74 127.387 1069.88 127.353 1070.02 127.319C1069.88 127.353 1069.74 127.387 1069.6 127.42ZM730.998 127.255C731.133 127.293 731.268 127.332 731.403 127.369C731.268 127.332 731.133 127.293 730.998 127.255ZM1027.64 127.119C1027.76 127.15 1027.88 127.181 1028 127.212C1027.88 127.181 1027.76 127.15 1027.64 127.119ZM1160.09 127.008C1160.36 127.077 1160.62 127.145 1160.88 127.212C1160.62 127.145 1160.36 127.077 1160.09 127.008ZM1070.5 127.2C1070.62 127.17 1070.74 127.14 1070.86 127.109C1070.74 127.14 1070.62 127.17 1070.5 127.2ZM730.247 127.035C730.388 127.078 730.53 127.119 730.672 127.16C730.53 127.119 730.388 127.078 730.247 127.035ZM1204.9 127.154C1205.14 127.092 1205.38 127.03 1205.62 126.966C1205.38 127.03 1205.14 127.092 1204.9 127.154ZM1071.3 126.994C1071.48 126.948 1071.65 126.902 1071.82 126.854C1071.65 126.902 1071.48 126.948 1071.3 126.994ZM1026.76 126.887C1026.89 126.922 1027.02 126.957 1027.15 126.992C1027.02 126.957 1026.89 126.922 1026.76 126.887ZM729.57 126.826C729.669 126.857 729.767 126.888 729.866 126.919C729.767 126.888 729.669 126.857 729.57 126.826ZM1072.12 126.774C1072.3 126.725 1072.48 126.674 1072.66 126.623C1072.48 126.674 1072.3 126.725 1072.12 126.774ZM1025.94 126.66C1026.06 126.692 1026.17 126.724 1026.28 126.756C1026.17 126.724 1026.06 126.692 1025.94 126.66ZM728.798 126.576C728.918 126.616 729.038 126.656 729.159 126.695C729.038 126.656 728.918 126.616 728.798 126.576ZM1206.69 126.669C1206.74 126.656 1206.78 126.644 1206.82 126.631C1206.78 126.644 1206.74 126.656 1206.69 126.669ZM1073.03 126.514C1073.16 126.476 1073.29 126.438 1073.42 126.399C1073.29 126.438 1073.16 126.476 1073.03 126.514ZM1025.13 126.425C1025.22 126.451 1025.31 126.476 1025.39 126.502C1025.31 126.476 1025.22 126.451 1025.13 126.425ZM728.133 126.352C728.245 126.391 728.359 126.428 728.472 126.467C728.359 126.428 728.245 126.391 728.133 126.352ZM1207.96 126.288C1208.02 126.271 1208.07 126.254 1208.12 126.237C1208.07 126.254 1208.02 126.271 1207.96 126.288ZM1024.31 126.175C1024.38 126.196 1024.45 126.216 1024.52 126.237C1024.45 126.216 1024.38 126.196 1024.31 126.175ZM1073.97 126.233C1074.07 126.204 1074.16 126.174 1074.26 126.145C1074.16 126.174 1074.07 126.204 1073.97 126.233ZM727.398 126.091C727.486 126.123 727.573 126.154 727.661 126.186C727.573 126.154 727.486 126.123 727.398 126.091ZM1023.46 125.903C1023.55 125.933 1023.64 125.962 1023.73 125.991C1023.64 125.962 1023.55 125.933 1023.46 125.903ZM726.682 125.825C726.82 125.878 726.958 125.929 727.097 125.98C726.958 125.929 726.82 125.878 726.682 125.825ZM1074.83 125.962C1074.91 125.934 1075 125.908 1075.08 125.88C1075 125.908 1074.91 125.934 1074.83 125.962ZM1209.23 125.876C1209.3 125.853 1209.37 125.829 1209.44 125.806C1209.37 125.829 1209.3 125.853 1209.23 125.876ZM1022.6 125.612C1022.72 125.653 1022.84 125.694 1022.96 125.734C1022.84 125.694 1022.72 125.653 1022.6 125.612ZM1075.57 125.718C1075.68 125.681 1075.79 125.644 1075.9 125.606C1075.79 125.644 1075.68 125.681 1075.57 125.718ZM1209.75 125.701C1209.92 125.641 1210.09 125.58 1210.26 125.519C1210.09 125.58 1209.92 125.641 1209.75 125.701ZM726.133 125.612C726.161 125.624 726.19 125.635 726.219 125.646C726.19 125.635 726.161 125.624 726.133 125.612ZM1155.39 125.559C1155.45 125.579 1155.51 125.599 1155.57 125.62C1155.51 125.599 1155.45 125.579 1155.39 125.559ZM1210.33 125.494C1210.48 125.439 1210.63 125.384 1210.79 125.327C1210.63 125.384 1210.48 125.439 1210.33 125.494ZM1021.8 125.333C1021.93 125.381 1022.07 125.429 1022.2 125.477C1022.07 125.429 1021.93 125.381 1021.8 125.333ZM1076.41 125.429C1076.51 125.395 1076.61 125.36 1076.7 125.325C1076.61 125.36 1076.51 125.395 1076.41 125.429ZM725.271 125.266C725.384 125.312 725.496 125.359 725.609 125.404C725.496 125.359 725.384 125.312 725.271 125.266ZM1211.02 125.238C1211.08 125.216 1211.14 125.193 1211.2 125.17C1211.14 125.193 1211.08 125.216 1211.02 125.238ZM1021.01 125.045C1021.14 125.092 1021.26 125.138 1021.39 125.185C1021.26 125.138 1021.14 125.092 1021.01 125.045ZM724.634 124.997C724.77 125.055 724.906 125.113 725.043 125.17C724.906 125.113 724.77 125.055 724.634 124.997ZM1154.23 125.131C1154.26 125.143 1154.29 125.154 1154.32 125.166C1154.29 125.154 1154.26 125.143 1154.23 125.131ZM1077.21 125.142C1077.32 125.1 1077.44 125.058 1077.55 125.016C1077.44 125.058 1077.32 125.1 1077.21 125.142ZM1211.68 124.985C1211.72 124.968 1211.77 124.951 1211.81 124.934C1211.77 124.951 1211.72 124.968 1211.68 124.985ZM1020.16 124.72C1020.31 124.779 1020.47 124.839 1020.62 124.897C1020.47 124.839 1020.31 124.779 1020.16 124.72ZM1077.88 124.891C1078.05 124.827 1078.22 124.764 1078.38 124.699C1078.22 124.764 1078.05 124.827 1077.88 124.891ZM723.897 124.674C724.049 124.742 724.202 124.809 724.354 124.876C724.202 124.809 724.049 124.742 723.897 124.674ZM1212.17 124.792C1212.28 124.744 1212.4 124.696 1212.52 124.647C1212.4 124.696 1212.28 124.744 1212.17 124.792ZM1019.4 124.418C1019.56 124.483 1019.72 124.548 1019.88 124.612C1019.72 124.548 1019.56 124.483 1019.4 124.418ZM1078.67 124.584C1078.84 124.518 1079 124.452 1079.17 124.385C1079 124.452 1078.84 124.518 1078.67 124.584ZM723.335 124.417C723.45 124.471 723.566 124.523 723.683 124.576C723.566 124.523 723.45 124.471 723.335 124.417ZM1212.77 124.544C1212.87 124.503 1212.96 124.462 1213.06 124.421C1212.96 124.462 1212.87 124.503 1212.77 124.544ZM1152.42 124.401C1152.51 124.438 1152.6 124.475 1152.68 124.512C1152.6 124.475 1152.51 124.438 1152.42 124.401ZM1151.84 124.15C1151.97 124.208 1152.1 124.264 1152.24 124.321C1152.1 124.264 1151.97 124.208 1151.84 124.15ZM1079.45 124.271C1079.59 124.211 1079.74 124.15 1079.89 124.088C1079.74 124.15 1079.59 124.211 1079.45 124.271ZM1213.43 124.263C1213.48 124.242 1213.52 124.222 1213.57 124.201C1213.52 124.222 1213.48 124.242 1213.43 124.263ZM722.608 124.073C722.73 124.132 722.853 124.191 722.976 124.249C722.853 124.191 722.73 124.132 722.608 124.073ZM1018.76 124.154C1018.84 124.186 1018.91 124.218 1018.99 124.249C1018.91 124.218 1018.84 124.186 1018.76 124.154ZM1151.29 123.903C1151.39 123.949 1151.49 123.993 1151.59 124.038C1151.49 123.993 1151.39 123.949 1151.29 123.903ZM1213.97 124.023C1214.09 123.97 1214.21 123.917 1214.33 123.862C1214.21 123.917 1214.09 123.97 1213.97 124.023ZM721.938 123.742C722.091 123.819 722.245 123.896 722.399 123.972C722.245 123.896 722.091 123.819 721.938 123.742ZM1017.87 123.771C1018.01 123.831 1018.14 123.89 1018.28 123.949C1018.14 123.89 1018.01 123.831 1017.87 123.771ZM1080.23 123.939C1080.37 123.881 1080.51 123.823 1080.64 123.764C1080.51 123.823 1080.37 123.881 1080.23 123.939ZM1214.45 123.806C1214.62 123.726 1214.79 123.646 1214.96 123.564C1214.79 123.646 1214.62 123.726 1214.45 123.806ZM1017.12 123.438C1017.29 123.513 1017.45 123.587 1017.62 123.661C1017.45 123.587 1017.29 123.513 1017.12 123.438ZM721.382 123.458C721.497 123.518 721.613 123.578 721.729 123.637C721.613 123.578 721.497 123.518 721.382 123.458ZM1081.03 123.592C1081.13 123.544 1081.24 123.496 1081.35 123.448C1081.24 123.496 1081.13 123.544 1081.03 123.592ZM1215.02 123.538C1215.15 123.473 1215.29 123.409 1215.42 123.343C1215.29 123.409 1215.15 123.473 1215.02 123.538ZM1150.21 123.397C1150.28 123.428 1150.34 123.459 1150.4 123.489C1150.34 123.459 1150.28 123.428 1150.21 123.397ZM720.754 123.128C720.85 123.179 720.946 123.23 721.042 123.281C720.946 123.23 720.85 123.179 720.754 123.128ZM1016.52 123.157C1016.61 123.199 1016.69 123.24 1016.78 123.281C1016.69 123.24 1016.61 123.199 1016.52 123.157ZM1081.75 123.267C1081.89 123.201 1082.03 123.135 1082.17 123.069C1082.03 123.135 1081.89 123.201 1081.75 123.267ZM1149.61 123.098C1149.7 123.146 1149.8 123.194 1149.89 123.241C1149.8 123.194 1149.7 123.146 1149.61 123.098ZM1215.63 123.241C1215.76 123.178 1215.88 123.114 1216.01 123.05C1215.88 123.114 1215.76 123.178 1215.63 123.241ZM1149.08 122.827C1149.18 122.882 1149.29 122.936 1149.4 122.99C1149.29 122.936 1149.18 122.882 1149.08 122.827ZM1216.14 122.98C1216.26 122.919 1216.38 122.858 1216.5 122.796C1216.38 122.858 1216.26 122.919 1216.14 122.98ZM720.059 122.747C720.188 122.819 720.319 122.892 720.449 122.963C720.319 122.892 720.188 122.819 720.059 122.747ZM1015.72 122.775C1015.83 122.831 1015.95 122.886 1016.06 122.94C1015.95 122.886 1015.83 122.831 1015.72 122.775ZM1082.45 122.933C1082.58 122.871 1082.71 122.809 1082.83 122.747C1082.71 122.809 1082.58 122.871 1082.45 122.933ZM1148.47 122.503C1148.6 122.574 1148.73 122.644 1148.86 122.714C1148.73 122.644 1148.6 122.574 1148.47 122.503ZM1216.71 122.686C1216.79 122.642 1216.87 122.597 1216.96 122.553C1216.87 122.597 1216.79 122.642 1216.71 122.686ZM719.469 122.412C719.585 122.479 719.701 122.546 719.818 122.612C719.701 122.546 719.585 122.479 719.469 122.412ZM1014.94 122.388C1015.09 122.46 1015.23 122.531 1015.37 122.603C1015.23 122.531 1015.09 122.46 1014.94 122.388ZM1083.23 122.553C1083.37 122.483 1083.51 122.412 1083.65 122.342C1083.51 122.412 1083.37 122.483 1083.23 122.553ZM1148.03 122.266C1148.14 122.324 1148.24 122.382 1148.35 122.439C1148.24 122.382 1148.14 122.324 1148.03 122.266ZM1217.26 122.388C1217.38 122.32 1217.51 122.253 1217.63 122.185C1217.51 122.253 1217.38 122.32 1217.26 122.388ZM718.936 122.101C719.022 122.152 719.108 122.202 719.194 122.253C719.108 122.202 719.022 122.152 718.936 122.101ZM1014.3 122.054C1014.42 122.116 1014.54 122.178 1014.66 122.24C1014.54 122.178 1014.42 122.116 1014.3 122.054ZM1083.87 122.229C1084.01 122.157 1084.15 122.085 1084.29 122.012C1084.15 122.085 1084.01 122.157 1083.87 122.229ZM1147.48 121.957C1147.57 122.005 1147.65 122.053 1147.74 122.101C1147.65 122.053 1147.57 122.005 1147.48 121.957ZM1217.79 122.094C1217.88 122.044 1217.97 121.993 1218.06 121.942C1217.97 121.993 1217.88 122.044 1217.79 122.094ZM1013.49 121.623C1013.65 121.709 1013.81 121.794 1013.96 121.878C1013.81 121.794 1013.65 121.709 1013.49 121.623ZM718.391 121.771C718.436 121.799 718.481 121.827 718.526 121.854C718.481 121.827 718.436 121.799 718.391 121.771ZM1146.98 121.662C1147.07 121.719 1147.17 121.776 1147.27 121.833C1147.17 121.776 1147.07 121.719 1146.98 121.662ZM1084.69 121.8C1084.8 121.741 1084.9 121.682 1085.01 121.623C1084.9 121.682 1084.8 121.741 1084.69 121.8ZM1218.3 121.8C1218.38 121.755 1218.45 121.71 1218.53 121.665C1218.45 121.71 1218.38 121.755 1218.3 121.8ZM717.698 121.34C717.791 121.399 717.883 121.457 717.976 121.516C717.883 121.457 717.791 121.399 717.698 121.34ZM1146.37 121.294C1146.49 121.368 1146.61 121.442 1146.73 121.516C1146.61 121.442 1146.49 121.368 1146.37 121.294ZM1012.9 121.294C1013.03 121.367 1013.16 121.44 1013.29 121.513C1013.16 121.44 1013.03 121.367 1012.9 121.294ZM1218.82 121.493C1218.9 121.442 1218.99 121.391 1219.07 121.34C1218.99 121.391 1218.9 121.442 1218.82 121.493ZM1085.31 121.462C1085.44 121.391 1085.56 121.319 1085.69 121.248C1085.56 121.319 1085.44 121.391 1085.31 121.462ZM1145.98 121.054C1146.06 121.108 1146.15 121.162 1146.24 121.216C1146.15 121.162 1146.06 121.108 1145.98 121.054ZM1219.32 121.187C1219.38 121.148 1219.44 121.109 1219.5 121.07C1219.44 121.109 1219.38 121.148 1219.32 121.187ZM717.136 120.977C717.219 121.031 717.303 121.086 717.387 121.141C717.303 121.086 717.219 121.031 717.136 120.977ZM1012.18 120.884C1012.31 120.958 1012.44 121.032 1012.57 121.105C1012.44 121.032 1012.31 120.958 1012.18 120.884ZM1086.01 121.068C1086.15 120.99 1086.28 120.91 1086.42 120.83C1086.28 120.91 1086.15 120.99 1086.01 121.068ZM1145.47 120.728C1145.55 120.78 1145.63 120.832 1145.71 120.884C1145.63 120.832 1145.55 120.78 1145.47 120.728ZM716.54 120.579C716.629 120.639 716.718 120.7 716.808 120.76C716.718 120.7 716.629 120.639 716.54 120.579ZM1011.48 120.467C1011.63 120.555 1011.77 120.643 1011.92 120.729C1011.77 120.643 1011.63 120.555 1011.48 120.467ZM1086.66 120.691C1086.8 120.607 1086.94 120.523 1087.08 120.438C1086.94 120.523 1086.8 120.607 1086.66 120.691ZM1144.96 120.389C1145.05 120.455 1145.15 120.521 1145.25 120.587C1145.15 120.521 1145.05 120.455 1144.96 120.389ZM715.924 120.155C716.033 120.232 716.142 120.307 716.252 120.383C716.142 120.307 716.033 120.232 715.924 120.155ZM1010.91 120.118C1011.02 120.187 1011.13 120.255 1011.24 120.323C1011.13 120.255 1011.02 120.187 1010.91 120.118ZM1087.33 120.287C1087.46 120.204 1087.6 120.122 1087.73 120.038C1087.6 120.122 1087.46 120.204 1087.33 120.287ZM1144.56 120.118C1144.61 120.158 1144.67 120.197 1144.73 120.236C1144.67 120.197 1144.61 120.158 1144.56 120.118ZM715.412 119.791C715.496 119.852 715.58 119.912 715.665 119.973C715.58 119.912 715.496 119.852 715.412 119.791ZM1010.31 119.738C1010.39 119.791 1010.47 119.843 1010.55 119.895C1010.47 119.843 1010.39 119.791 1010.31 119.738ZM1221.29 119.885C1221.42 119.792 1221.55 119.698 1221.68 119.604C1221.55 119.698 1221.42 119.792 1221.29 119.885ZM1088.03 119.854C1088.1 119.807 1088.17 119.76 1088.24 119.714C1088.17 119.76 1088.1 119.807 1088.03 119.854ZM1143.58 119.423C1143.65 119.474 1143.72 119.526 1143.79 119.577C1143.72 119.526 1143.65 119.474 1143.58 119.423ZM1009.43 119.163C1009.6 119.278 1009.77 119.392 1009.94 119.505C1009.77 119.392 1009.6 119.278 1009.43 119.163ZM1088.7 119.423C1088.74 119.392 1088.79 119.359 1088.84 119.328C1088.79 119.359 1088.74 119.392 1088.7 119.423ZM1142.55 118.647C1142.81 118.848 1143.07 119.045 1143.33 119.239C1143.07 119.045 1142.81 118.848 1142.55 118.647ZM1008.88 118.79C1009.04 118.9 1009.2 119.009 1009.36 119.117C1009.2 119.009 1009.04 118.9 1008.88 118.79ZM1089.31 119.013C1089.4 118.954 1089.49 118.896 1089.57 118.837C1089.49 118.896 1089.4 118.954 1089.31 119.013ZM1222.93 118.66C1222.82 118.746 1222.71 118.831 1222.6 118.916C1222.71 118.831 1222.82 118.746 1222.93 118.66ZM713.77 118.551C713.844 118.61 713.919 118.669 713.994 118.728C713.919 118.669 713.844 118.61 713.77 118.551ZM1008.26 118.36C1008.4 118.456 1008.53 118.55 1008.67 118.645C1008.53 118.55 1008.4 118.456 1008.26 118.36ZM1089.92 118.595C1090 118.544 1090.07 118.493 1090.14 118.442C1090.07 118.493 1090 118.544 1089.92 118.595ZM1007.72 117.971C1007.84 118.06 1007.96 118.149 1008.09 118.237C1007.96 118.149 1007.84 118.06 1007.72 117.971ZM1090.58 118.133C1090.63 118.096 1090.68 118.058 1090.73 118.021C1090.68 118.058 1090.63 118.096 1090.58 118.133ZM1224.04 117.755C1224.18 117.635 1224.32 117.513 1224.46 117.391C1224.32 117.513 1224.18 117.635 1224.04 117.755ZM712.616 117.61C712.72 117.698 712.824 117.785 712.929 117.872C712.824 117.785 712.72 117.698 712.616 117.61ZM1007.23 117.61C1007.29 117.656 1007.35 117.702 1007.42 117.748C1007.35 117.702 1007.29 117.656 1007.23 117.61ZM1091.14 117.724C1091.21 117.669 1091.29 117.614 1091.36 117.56C1091.29 117.614 1091.21 117.669 1091.14 117.724ZM712.063 117.138C712.178 117.237 712.293 117.337 712.409 117.436C712.293 117.337 712.178 117.237 712.063 117.138ZM1224.46 117.391C1224.47 117.388 1224.47 117.386 1224.47 117.383L1224.48 117.377C1224.47 117.382 1224.47 117.386 1224.46 117.391ZM1006.44 117.006C1006.57 117.111 1006.71 117.216 1006.84 117.32C1006.71 117.216 1006.57 117.111 1006.44 117.006ZM1225.32 116.622C1225.09 116.838 1224.85 117.052 1224.61 117.263C1224.85 117.052 1225.09 116.838 1225.32 116.622ZM711.479 116.622C711.625 116.752 711.77 116.882 711.917 117.011C711.77 116.882 711.625 116.752 711.479 116.622ZM1005.95 116.622C1006.05 116.701 1006.15 116.781 1006.25 116.859C1006.15 116.781 1006.05 116.701 1005.95 116.622ZM1140.24 116.677C1140.3 116.733 1140.36 116.79 1140.42 116.846C1140.36 116.79 1140.3 116.733 1140.24 116.677ZM710.956 116.145C711.098 116.276 711.24 116.407 711.384 116.536C711.24 116.407 711.098 116.276 710.956 116.145ZM710.837 116.036C710.854 116.052 710.872 116.068 710.89 116.084C710.727 115.933 710.566 115.782 710.406 115.629L710.837 116.036ZM1004.13 115.104C1004.44 115.378 1004.76 115.649 1005.08 115.917C1004.76 115.649 1004.44 115.378 1004.13 115.104ZM1139.01 115.495C1139.1 115.584 1139.19 115.673 1139.28 115.761C1139.19 115.673 1139.1 115.584 1139.01 115.495ZM1226.44 115.537C1226.48 115.491 1226.53 115.446 1226.57 115.4C1226.53 115.446 1226.48 115.491 1226.44 115.537ZM1094.04 115.414C1094.16 115.311 1094.28 115.208 1094.4 115.104C1094.28 115.208 1094.16 115.311 1094.04 115.414ZM1138.63 115.104C1138.72 115.194 1138.81 115.283 1138.89 115.372C1138.81 115.283 1138.72 115.194 1138.63 115.104ZM1094.62 114.911C1094.77 114.778 1094.92 114.645 1095.06 114.511C1094.92 114.645 1094.77 114.778 1094.62 114.911ZM1227.24 114.7C1227.27 114.667 1227.3 114.635 1227.33 114.602C1227.3 114.635 1227.27 114.667 1227.24 114.7ZM1095.14 114.441C1095.23 114.363 1095.31 114.284 1095.4 114.205C1095.31 114.284 1095.23 114.363 1095.14 114.441ZM1137.84 114.257C1137.89 114.311 1137.94 114.364 1137.99 114.418C1137.94 114.364 1137.89 114.311 1137.84 114.257ZM1227.58 114.326C1227.64 114.27 1227.69 114.214 1227.74 114.158C1227.69 114.214 1227.64 114.27 1227.58 114.326ZM1227.91 113.961C1227.97 113.892 1228.03 113.824 1228.09 113.755C1228.03 113.824 1227.97 113.892 1227.91 113.961ZM1137.13 113.438C1137.16 113.475 1137.19 113.512 1137.22 113.549C1137.19 113.512 1137.16 113.475 1137.13 113.438ZM1096.21 113.438C1096.29 113.364 1096.36 113.288 1096.44 113.213C1096.36 113.288 1096.29 113.364 1096.21 113.438ZM1136.75 112.991C1136.8 113.049 1136.85 113.107 1136.9 113.165C1136.85 113.107 1136.8 113.049 1136.75 112.991ZM1001.83 112.959C1001.84 112.97 1001.85 112.98 1001.86 112.991C1001.69 112.819 1001.52 112.646 1001.35 112.472L1001.83 112.959ZM1228.74 112.991C1228.77 112.949 1228.8 112.907 1228.84 112.865C1228.8 112.907 1228.77 112.949 1228.74 112.991ZM706.651 111.608C706.943 111.958 707.239 112.304 707.54 112.646C707.239 112.304 706.943 111.958 706.651 111.608ZM1229.1 112.54C1229.12 112.513 1229.14 112.485 1229.17 112.458C1229.14 112.485 1229.12 112.513 1229.1 112.54ZM1136.04 112.099C1136.09 112.161 1136.14 112.223 1136.19 112.285C1136.14 112.223 1136.09 112.161 1136.04 112.099ZM1229.42 112.134C1229.46 112.085 1229.49 112.036 1229.53 111.986C1229.49 112.036 1229.46 112.085 1229.42 112.134ZM1135.67 111.608C1135.75 111.72 1135.84 111.831 1135.92 111.941C1135.84 111.831 1135.75 111.72 1135.67 111.608ZM1229.67 111.808C1229.74 111.708 1229.82 111.61 1229.89 111.51C1229.82 111.61 1229.74 111.708 1229.67 111.808ZM1229.98 111.384C1230.07 111.26 1230.16 111.136 1230.25 111.012C1230.16 111.136 1230.07 111.26 1229.98 111.384ZM1135.04 110.736C1135.1 110.816 1135.15 110.895 1135.21 110.974C1135.15 110.895 1135.1 110.816 1135.04 110.736ZM1230.32 110.921C1230.4 110.806 1230.48 110.691 1230.56 110.575C1230.48 110.691 1230.4 110.806 1230.32 110.921ZM1230.72 110.335C1230.77 110.263 1230.82 110.19 1230.87 110.117C1230.82 110.19 1230.77 110.263 1230.72 110.335ZM1134.36 109.726C1134.42 109.816 1134.47 109.906 1134.53 109.995C1134.47 109.906 1134.42 109.816 1134.36 109.726ZM1231.02 109.896C1231.08 109.804 1231.14 109.712 1231.2 109.619C1231.14 109.712 1231.08 109.804 1231.02 109.896ZM1099.55 109.887C1099.6 109.836 1099.64 109.786 1099.68 109.734L1099.7 109.717C1099.65 109.774 1099.6 109.83 1099.55 109.887ZM1231.31 109.445C1231.38 109.339 1231.45 109.233 1231.51 109.126C1231.45 109.233 1231.38 109.339 1231.31 109.445ZM1231.6 108.989C1231.66 108.887 1231.73 108.785 1231.79 108.683C1231.73 108.785 1231.66 108.887 1231.6 108.989ZM1133.45 108.273C1133.51 108.371 1133.57 108.468 1133.63 108.564C1133.57 108.468 1133.51 108.371 1133.45 108.273ZM1231.94 108.425C1231.99 108.344 1232.04 108.262 1232.09 108.181C1232.04 108.262 1231.99 108.344 1231.94 108.425ZM1232.24 107.91C1232.28 107.844 1232.32 107.779 1232.36 107.713C1232.32 107.779 1232.28 107.844 1232.24 107.91ZM996.252 106.384C996.571 106.832 996.899 107.274 997.233 107.713C996.899 107.274 996.571 106.832 996.252 106.384ZM1232.56 107.348C1232.6 107.288 1232.63 107.229 1232.66 107.169C1232.63 107.229 1232.6 107.288 1232.56 107.348ZM1232.79 106.936C1232.85 106.824 1232.91 106.714 1232.97 106.602C1232.91 106.714 1232.85 106.824 1232.79 106.936ZM1132.3 106.172C1132.37 106.317 1132.45 106.462 1132.52 106.605C1132.45 106.462 1132.37 106.317 1132.3 106.172ZM1233.09 106.371C1233.13 106.289 1233.17 106.207 1233.21 106.125C1233.17 106.207 1233.13 106.289 1233.09 106.371ZM1132 105.579C1132.08 105.75 1132.17 105.92 1132.25 106.089C1132.17 105.92 1132.08 105.75 1132 105.579ZM1233.34 105.869C1233.38 105.799 1233.41 105.728 1233.45 105.657C1233.41 105.728 1233.38 105.799 1233.34 105.869ZM1102.65 105.866C1102.68 105.831 1102.7 105.795 1102.73 105.76C1102.7 105.795 1102.68 105.831 1102.65 105.866ZM702.297 105.531C702.344 105.608 702.392 105.684 702.439 105.76C702.371 105.65 702.303 105.54 702.235 105.43L702.297 105.531ZM995.458 105.237C995.494 105.291 995.531 105.345 995.567 105.398C995.531 105.345 995.494 105.291 995.458 105.237ZM701.893 104.861C701.997 105.038 702.103 105.214 702.21 105.389C702.103 105.214 701.997 105.038 701.893 104.861ZM1233.6 105.333C1233.65 105.234 1233.7 105.136 1233.75 105.037C1233.7 105.136 1233.65 105.234 1233.6 105.333ZM1233.82 104.886C1233.88 104.753 1233.94 104.619 1234 104.484C1233.94 104.619 1233.88 104.753 1233.82 104.886ZM995.048 104.619C995.102 104.703 995.158 104.786 995.213 104.869C995.158 104.786 995.102 104.703 995.048 104.619ZM1103.44 104.701C1103.48 104.651 1103.51 104.601 1103.54 104.551C1103.51 104.601 1103.48 104.651 1103.44 104.701ZM1234.06 104.362C1234.13 104.212 1234.19 104.062 1234.26 103.91C1234.19 104.062 1234.13 104.212 1234.06 104.362ZM994.687 104.06C994.722 104.115 994.758 104.169 994.793 104.225C994.758 104.169 994.722 104.115 994.687 104.06ZM1048.04 103.89L1049.19 103.899C1048.48 103.899 1047.8 103.887 1047.12 103.865C1047.43 103.875 1047.73 103.884 1048.04 103.89ZM1051.3 103.864C1050.61 103.887 1049.91 103.899 1049.19 103.899C1049.91 103.899 1050.61 103.887 1051.3 103.864ZM1183.79 103.712C1183.47 103.716 1183.16 103.72 1182.83 103.72C1183.16 103.72 1183.47 103.716 1183.79 103.712ZM1234.34 103.716C1234.39 103.613 1234.43 103.51 1234.47 103.406C1234.43 103.51 1234.39 103.613 1234.34 103.716ZM994.278 103.406C994.329 103.489 994.381 103.572 994.433 103.654C994.381 103.572 994.329 103.489 994.278 103.406ZM1104.2 103.509C1104.24 103.448 1104.28 103.388 1104.32 103.327C1104.28 103.388 1104.24 103.448 1104.2 103.509ZM700.919 103.155C700.957 103.224 700.995 103.292 701.033 103.36C700.969 103.244 700.904 103.128 700.841 103.011L700.919 103.155ZM1234.57 103.18C1234.61 103.07 1234.66 102.961 1234.7 102.851C1234.66 102.961 1234.61 103.07 1234.57 103.18ZM993.921 102.819C993.993 102.94 994.067 103.059 994.14 103.179C994.067 103.059 993.993 102.94 993.921 102.819ZM1104.44 103.117C1104.52 102.986 1104.6 102.854 1104.68 102.722C1104.6 102.854 1104.52 102.986 1104.44 103.117ZM700.537 102.443C700.618 102.597 700.7 102.749 700.782 102.901C700.7 102.749 700.618 102.597 700.537 102.443ZM1234.78 102.65C1234.84 102.52 1234.89 102.39 1234.94 102.259C1234.89 102.39 1234.84 102.52 1234.78 102.65ZM993.554 102.196C993.618 102.306 993.682 102.416 993.747 102.525C993.682 102.416 993.618 102.306 993.554 102.196ZM1234.98 102.145C1235.04 101.998 1235.09 101.851 1235.15 101.704C1235.09 101.851 1235.04 101.998 1234.98 102.145ZM993.201 101.58C993.264 101.691 993.328 101.802 993.392 101.913C993.328 101.802 993.264 101.691 993.201 101.58ZM1235.19 101.58C1235.25 101.44 1235.3 101.299 1235.35 101.158C1235.3 101.299 1235.25 101.44 1235.19 101.58ZM699.957 101.318C699.992 101.389 700.029 101.458 700.064 101.528C699.999 101.399 699.934 101.27 699.869 101.141L699.957 101.318ZM992.869 100.982C992.92 101.076 992.973 101.169 993.024 101.262C992.973 101.169 992.92 101.076 992.869 100.982ZM699.604 100.599C699.66 100.716 699.718 100.833 699.775 100.949C699.718 100.833 699.66 100.716 699.604 100.599ZM1235.44 100.899C1235.48 100.775 1235.53 100.65 1235.57 100.525C1235.53 100.65 1235.48 100.775 1235.44 100.899ZM992.578 100.445C992.613 100.511 992.649 100.576 992.685 100.642C992.618 100.517 992.55 100.393 992.484 100.268L992.578 100.445ZM1105.92 100.525C1105.98 100.423 1106.03 100.32 1106.09 100.217C1106.03 100.32 1105.98 100.423 1105.92 100.525ZM1235.62 100.357C1235.67 100.235 1235.71 100.113 1235.75 99.9902C1235.71 100.113 1235.67 100.235 1235.62 100.357ZM1049.19 33.9199C1037.56 33.92 1031.24 37.0312 1027.57 41.9424C1023.69 47.1462 1022.05 55.2811 1022.05 67L1022.05 68.0703C1022.15 79.0305 1023.81 86.7864 1027.57 91.832C1031.25 96.7526 1037.58 99.8994 1049.19 99.8994C1061 99.8994 1067.36 96.7415 1071.02 91.832C1074.9 86.6308 1076.51 78.5449 1076.51 67C1076.51 55.2637 1074.9 47.1391 1071.02 41.9424C1067.36 37.0422 1061.01 33.9199 1049.19 33.9199ZM1106.29 99.8359C1106.32 99.7667 1106.36 99.6974 1106.4 99.6279C1106.36 99.6974 1106.32 99.7667 1106.29 99.8359ZM1235.82 99.7773C1235.86 99.6479 1235.9 99.518 1235.94 99.3877C1235.9 99.518 1235.86 99.6479 1235.82 99.7773ZM698.994 99.3018C699.026 99.3729 699.059 99.4437 699.092 99.5146C699.059 99.4437 699.026 99.3729 698.994 99.3018ZM1235.99 99.2256C1236.04 99.077 1236.08 98.928 1236.13 98.7783C1236.08 98.928 1236.04 99.077 1235.99 99.2256ZM698.7 98.6445C698.741 98.7365 698.781 98.8283 698.822 98.9199C698.781 98.8283 698.741 98.7365 698.7 98.6445ZM991.546 98.4111C991.588 98.4975 991.63 98.5837 991.672 98.6699C991.63 98.5837 991.588 98.4975 991.546 98.4111ZM1106.89 98.6445C1106.94 98.5288 1107 98.413 1107.06 98.2969C1107 98.413 1106.94 98.5288 1106.89 98.6445ZM1236.18 98.6016C1236.22 98.4614 1236.26 98.3207 1236.3 98.1797C1236.26 98.3207 1236.22 98.4614 1236.18 98.6016ZM1129.2 98.2295C1129.23 98.3504 1129.27 98.4706 1129.3 98.5908C1129.27 98.4706 1129.23 98.3504 1129.2 98.2295ZM698.406 97.9668C698.45 98.0683 698.493 98.1694 698.537 98.2705C698.493 98.1694 698.45 98.0683 698.406 97.9668ZM1236.33 98.0635C1236.37 97.9151 1236.41 97.7665 1236.46 97.6172C1236.41 97.7665 1236.37 97.9151 1236.33 98.0635ZM991.269 97.8271C991.303 97.9005 991.337 97.9737 991.372 98.0469C991.337 97.9737 991.303 97.9005 991.269 97.8271ZM1129.03 97.6172C1129.07 97.7501 1129.1 97.8826 1129.14 98.0146C1129.1 97.8826 1129.07 97.7501 1129.03 97.6172ZM1107.2 97.9912C1107.25 97.8933 1107.3 97.7955 1107.34 97.6973C1107.3 97.7955 1107.25 97.8933 1107.2 97.9912ZM698.147 97.3516C698.197 97.4716 698.247 97.5913 698.298 97.7109C698.247 97.5913 698.197 97.4716 698.147 97.3516ZM990.937 97.1074C990.986 97.2173 991.036 97.327 991.087 97.4365C991.036 97.327 990.986 97.2173 990.937 97.1074ZM1236.51 97.4033C1236.55 97.276 1236.58 97.1485 1236.61 97.0205C1236.58 97.1485 1236.55 97.276 1236.51 97.4033ZM1107.48 97.3945C1107.53 97.2778 1107.59 97.1611 1107.64 97.0439C1107.59 97.1611 1107.53 97.2778 1107.48 97.3945ZM1128.87 97.0205C1128.9 97.1455 1128.94 97.2702 1128.97 97.3945C1128.94 97.2702 1128.9 97.1455 1128.87 97.0205ZM1236.66 96.833C1236.7 96.6847 1236.74 96.536 1236.77 96.3867C1236.74 96.536 1236.7 96.6847 1236.66 96.833ZM990.682 96.5361C990.714 96.6088 990.746 96.6813 990.778 96.7539C990.746 96.6813 990.714 96.6088 990.682 96.5361ZM1107.77 96.7539C1107.83 96.6224 1107.89 96.4904 1107.94 96.3584C1107.89 96.4904 1107.83 96.6224 1107.77 96.7539ZM1128.74 96.4863C1128.76 96.5758 1128.78 96.6648 1128.8 96.7539C1128.78 96.6648 1128.76 96.5758 1128.74 96.4863ZM697.63 96.0596C697.669 96.1594 697.708 96.2589 697.747 96.3584C697.708 96.2589 697.669 96.1594 697.63 96.0596ZM1236.82 96.2051C1236.85 96.0465 1236.89 95.8872 1236.93 95.7275C1236.89 95.8872 1236.85 96.0465 1236.82 96.2051ZM1108.03 96.1602C1108.09 96.0083 1108.16 95.8566 1108.23 95.7041C1108.16 95.8566 1108.09 96.0083 1108.03 96.1602ZM697.352 95.3311C697.398 95.4557 697.446 95.5799 697.493 95.7041C697.446 95.5799 697.398 95.4557 697.352 95.3311ZM1236.96 95.5869C1236.99 95.449 1237.02 95.3107 1237.05 95.1719C1237.02 95.3107 1236.99 95.449 1236.96 95.5869ZM1108.32 95.4814C1108.39 95.3184 1108.45 95.155 1108.52 94.9912C1108.45 95.155 1108.39 95.3184 1108.32 95.4814ZM990.106 95.1846C990.142 95.2703 990.177 95.3559 990.213 95.4414C990.177 95.3559 990.142 95.2703 990.106 95.1846ZM697.11 94.6738C697.159 94.8095 697.209 94.9449 697.259 95.0801C697.209 94.9449 697.159 94.8095 697.11 94.6738ZM1237.31 93.9004C1237.24 94.2545 1237.17 94.6061 1237.1 94.9551C1237.17 94.6061 1237.24 94.2545 1237.31 93.9004ZM989.837 94.5176C989.879 94.6239 989.922 94.7299 989.965 94.8359C989.922 94.7299 989.879 94.6239 989.837 94.5176ZM1128.32 94.6348C1128.33 94.6922 1128.34 94.7493 1128.35 94.8066C1128.34 94.7493 1128.33 94.6922 1128.32 94.6348ZM1108.63 94.7295C1108.67 94.6287 1108.71 94.5278 1108.75 94.4268C1108.71 94.5278 1108.67 94.6287 1108.63 94.7295ZM696.875 94.0137C696.916 94.1314 696.958 94.2488 697 94.3662C696.958 94.2488 696.916 94.1314 696.875 94.0137ZM989.556 93.7969C989.603 93.9201 989.65 94.0432 989.698 94.166C989.65 94.0432 989.603 93.9201 989.556 93.7969ZM1108.88 94.0938C1108.92 93.9892 1108.96 93.8841 1109 93.7793C1108.96 93.8841 1108.92 93.9892 1108.88 94.0938ZM1237.34 93.7451C1237.36 93.647 1237.38 93.5487 1237.4 93.4502C1237.38 93.5487 1237.36 93.647 1237.34 93.7451ZM696.613 93.251C696.655 93.3762 696.698 93.5011 696.741 93.626C696.698 93.5011 696.655 93.3762 696.613 93.251ZM989.311 93.1455C989.353 93.2606 989.396 93.3755 989.439 93.4902C989.396 93.3755 989.353 93.2606 989.311 93.1455ZM696.403 92.6162C696.442 92.7365 696.482 92.8567 696.521 92.9766C696.482 92.8567 696.442 92.7365 696.403 92.6162ZM989.071 92.4863C989.117 92.6154 989.164 92.7443 989.211 92.873C989.164 92.7443 989.117 92.6154 989.071 92.4863ZM1109.39 92.7314C1109.43 92.6144 1109.47 92.4972 1109.52 92.3799C1109.47 92.4972 1109.43 92.6144 1109.39 92.7314ZM1237.59 92.3633C1237.6 92.284 1237.62 92.2045 1237.63 92.125C1237.62 92.2045 1237.6 92.284 1237.59 92.3633ZM1127.85 92.0791C1127.86 92.1541 1127.87 92.229 1127.89 92.3037C1127.87 92.229 1127.86 92.1541 1127.85 92.0791ZM696.231 92.0791C696.254 92.1501 696.276 92.2211 696.299 92.292C696.276 92.2211 696.254 92.1501 696.231 92.0791ZM988.841 91.832C988.872 91.921 988.903 92.0098 988.934 92.0986C988.903 92.0098 988.872 91.921 988.841 91.832ZM1109.62 92.0938C1109.66 91.9712 1109.7 91.8485 1109.75 91.7256C1109.7 91.8485 1109.66 91.9712 1109.62 92.0938ZM988.606 91.1396C988.639 91.2384 988.673 91.337 988.706 91.4355C988.673 91.337 988.639 91.2384 988.606 91.1396ZM1109.86 91.3896C1109.9 91.2793 1109.93 91.1691 1109.97 91.0586C1109.93 91.1691 1109.9 91.2793 1109.86 91.3896ZM695.799 90.6602C695.822 90.7407 695.846 90.821 695.87 90.9014C695.846 90.821 695.822 90.7407 695.799 90.6602ZM988.349 90.3486C988.404 90.5224 988.46 90.6959 988.517 90.8691C988.46 90.6959 988.404 90.5224 988.349 90.3486ZM1110.1 90.6602C1110.14 90.5538 1110.17 90.4474 1110.2 90.3408C1110.17 90.4474 1110.14 90.5538 1110.1 90.6602ZM988.146 89.6992C988.203 89.8845 988.261 90.0693 988.319 90.2539C988.261 90.0693 988.203 89.8845 988.146 89.6992ZM1110.29 90.0693C1110.33 89.9363 1110.37 89.8033 1110.41 89.6699C1110.37 89.8033 1110.33 89.9363 1110.29 90.0693ZM642.843 88.459H642.844H642.843ZM1237.96 89.7236C1238.01 89.3602 1238.05 88.9943 1238.09 88.626C1238.05 88.9943 1238.01 89.3602 1237.96 89.7236ZM1127.42 88.8408C1127.45 89.1283 1127.48 89.4147 1127.52 89.6992C1127.48 89.4147 1127.45 89.1283 1127.42 88.8408ZM695.418 89.3135C695.432 89.3665 695.446 89.4197 695.461 89.4727C695.446 89.4197 695.432 89.3665 695.418 89.3135ZM987.98 89.1504C988.012 89.2579 988.045 89.3653 988.077 89.4727C988.045 89.3653 988.012 89.2579 987.98 89.1504ZM1110.5 89.3789C1110.55 89.216 1110.6 89.0531 1110.65 88.8896C1110.6 89.0531 1110.55 89.216 1110.5 89.3789ZM1110.7 88.7188C1110.74 88.5514 1110.79 88.3837 1110.84 88.2158C1110.79 88.3837 1110.74 88.5514 1110.7 88.7188ZM1127.3 87.5137C1127.32 87.8041 1127.34 88.0934 1127.37 88.3809C1127.34 88.0934 1127.32 87.8041 1127.3 87.5137ZM1238.39 84.3057C1238.34 85.6945 1238.24 87.0523 1238.11 88.3789C1238.24 87.0523 1238.34 85.6945 1238.39 84.3057ZM694.887 87.2275C694.962 87.5396 695.036 87.8512 695.115 88.1611C695.036 87.8512 694.962 87.5396 694.887 87.2275ZM987.526 87.5498C987.577 87.7364 987.629 87.9225 987.681 88.1084C987.629 87.9225 987.577 87.7364 987.526 87.5498ZM1110.92 87.9199C1110.96 87.7909 1110.99 87.6616 1111.03 87.5322C1110.99 87.6616 1110.96 87.7909 1110.92 87.9199ZM419.955 87.6475C419.128 87.6818 418.284 87.6992 417.425 87.6992V87.7002L418.704 87.6865C419.125 87.6779 419.542 87.6646 419.955 87.6475ZM422.055 87.5195C422.138 87.5129 422.222 87.507 422.306 87.5C422.222 87.507 422.138 87.5129 422.055 87.5195ZM987.404 87.0908C987.436 87.2101 987.467 87.3292 987.499 87.4482C987.467 87.3292 987.436 87.2101 987.404 87.0908ZM422.989 87.4355C423.161 87.419 423.331 87.4039 423.501 87.3857C423.331 87.4039 423.161 87.419 422.989 87.4355ZM1111.09 87.3125C1111.11 87.2275 1111.13 87.1427 1111.16 87.0576C1111.13 87.1427 1111.11 87.2275 1111.09 87.3125ZM424.15 87.3096C424.305 87.291 424.46 87.2748 424.613 87.2549C424.46 87.2748 424.305 87.291 424.15 87.3096ZM425.278 87.1621C425.438 87.1391 425.598 87.1172 425.757 87.0928C425.598 87.1172 425.438 87.1391 425.278 87.1621ZM426.303 87.0039C426.49 86.9729 426.676 86.9422 426.86 86.9092C426.676 86.9422 426.49 86.9729 426.303 87.0039ZM427.444 86.7998C427.606 86.7688 427.766 86.7376 427.926 86.7051C427.766 86.7376 427.606 86.7688 427.444 86.7998ZM694.561 85.8105C694.627 86.1118 694.693 86.4125 694.763 86.7119C694.693 86.4125 694.627 86.1118 694.561 85.8105ZM428.514 86.5801C428.661 86.5479 428.809 86.5169 428.955 86.4834C428.809 86.5169 428.661 86.5479 428.514 86.5801ZM429.559 86.3389C429.707 86.3025 429.855 86.2663 430.002 86.2285C429.855 86.2663 429.707 86.3025 429.559 86.3389ZM430.572 86.0762C430.715 86.0372 430.858 85.9993 431 85.959C430.858 85.9993 430.715 86.0372 430.572 86.0762ZM987.06 85.7227C987.074 85.7826 987.089 85.8425 987.104 85.9023C987.089 85.8425 987.074 85.7826 987.06 85.7227ZM431.517 85.8066C431.692 85.754 431.867 85.7012 432.041 85.6465C431.867 85.7012 431.692 85.754 431.517 85.8066ZM1127.12 84.9229C1127.13 85.1342 1127.14 85.3449 1127.15 85.5547C1127.14 85.3449 1127.13 85.1342 1127.12 84.9229ZM432.484 85.5039C432.645 85.4511 432.805 85.3974 432.964 85.3428C432.805 85.3974 432.645 85.4511 432.484 85.5039ZM694.258 84.3721C694.318 84.6726 694.378 84.9727 694.441 85.2715C694.378 84.9727 694.318 84.6726 694.258 84.3721ZM433.455 85.1699C433.613 85.1133 433.77 85.0565 433.926 84.998C433.77 85.0565 433.613 85.1133 433.455 85.1699ZM434.39 84.8193C434.537 84.7619 434.683 84.7045 434.828 84.6455C434.683 84.7045 434.537 84.7619 434.39 84.8193ZM986.65 83.916C986.695 84.1229 986.738 84.3299 986.784 84.5361C986.738 84.3299 986.695 84.1229 986.65 83.916ZM1111.78 84.4941C1111.84 84.2197 1111.89 83.9444 1111.95 83.6689C1111.89 83.9444 1111.84 84.2197 1111.78 84.4941ZM435.283 84.457C435.444 84.3888 435.604 84.3192 435.764 84.249C435.604 84.3192 435.444 84.3888 435.283 84.457ZM436.18 84.0615C436.324 83.9953 436.468 83.9282 436.611 83.8604C436.468 83.9282 436.324 83.9953 436.18 84.0615ZM693.955 82.7783C694.018 83.128 694.08 83.4768 694.147 83.8242C694.08 83.4768 694.018 83.128 693.955 82.7783ZM437.043 83.6523C437.192 83.5791 437.339 83.5048 437.486 83.4297C437.339 83.5048 437.192 83.5791 437.043 83.6523ZM437.902 83.2139C438.029 83.1469 438.154 83.079 438.279 83.0107C438.154 83.079 438.029 83.1469 437.902 83.2139ZM986.351 82.4365C986.391 82.6489 986.431 82.8614 986.474 83.0732C986.431 82.8614 986.391 82.6489 986.351 82.4365ZM1112.09 83.0195C1112.14 82.7792 1112.18 82.538 1112.23 82.2969C1112.18 82.538 1112.14 82.7792 1112.09 83.0195ZM438.74 82.7549C438.861 82.6865 438.98 82.6165 439.099 82.5469C438.98 82.6165 438.861 82.6865 438.74 82.7549ZM693.75 81.584C693.793 81.8449 693.835 82.1055 693.88 82.3652C693.835 82.1055 693.793 81.8449 693.75 81.584ZM439.536 82.2861C439.666 82.2074 439.794 82.1272 439.922 82.0469C439.794 82.1272 439.666 82.2074 439.536 82.2861ZM440.306 81.8047C440.428 81.7252 440.549 81.6434 440.67 81.5625C440.549 81.6434 440.428 81.7252 440.306 81.8047ZM986.071 80.8975C986.117 81.1646 986.161 81.4319 986.209 81.6982C986.161 81.4319 986.117 81.1646 986.071 80.8975ZM1112.35 81.6445C1112.4 81.3492 1112.45 81.0531 1112.5 80.7568C1112.45 81.0531 1112.4 81.3492 1112.35 81.6445ZM441.091 81.2783C441.217 81.1911 441.342 81.1025 441.466 81.0137C441.342 81.1025 441.217 81.191 441.091 81.2783ZM693.538 80.2148C693.568 80.4215 693.597 80.6281 693.629 80.834C693.597 80.6281 693.568 80.4215 693.538 80.2148ZM441.822 80.7568C441.951 80.6616 442.078 80.5628 442.205 80.4658C442.078 80.5628 441.951 80.6616 441.822 80.7568ZM985.788 79.1172C985.844 79.4968 985.901 79.8759 985.962 80.2539C985.901 79.8759 985.844 79.4968 985.788 79.1172ZM442.534 80.2148C442.677 80.1031 442.817 79.989 442.957 79.875C442.817 79.989 442.677 80.1031 442.534 80.2148ZM1112.6 80.168C1112.64 79.9113 1112.68 79.6539 1112.72 79.3965C1112.68 79.6539 1112.64 79.9113 1112.6 80.168ZM443.219 79.6611C443.362 79.5419 443.503 79.4204 443.644 79.2988C443.503 79.4204 443.362 79.5419 443.219 79.6611ZM1079.67 79.6504C1079.71 79.4162 1079.75 79.1806 1079.78 78.9434C1079.75 79.1806 1079.71 79.4162 1079.67 79.6504ZM443.899 79.0781C444.059 78.9372 444.215 78.7933 444.371 78.6494C444.215 78.7933 444.059 78.9372 443.899 79.0781ZM985.604 77.7734C985.649 78.1281 985.695 78.4825 985.745 78.8359C985.695 78.4825 985.649 78.1281 985.604 77.7734ZM1112.82 78.7295C1112.86 78.4464 1112.9 78.1627 1112.93 77.8789C1112.9 78.1627 1112.86 78.4464 1112.82 78.7295ZM1079.82 78.6523C1079.85 78.4486 1079.87 78.2441 1079.9 78.0381C1079.87 78.2441 1079.85 78.4486 1079.82 78.6523ZM444.553 78.4834C444.696 78.3491 444.836 78.2121 444.977 78.0752C444.836 78.2121 444.696 78.3491 444.553 78.4834ZM1206.77 77.0801H1206.77V7.05957H1206.77V77.0801ZM445.212 77.8457C445.352 77.706 445.49 77.5642 445.627 77.4219C445.49 77.5642 445.352 77.706 445.212 77.8457ZM985.539 77.2842C985.543 77.3148 985.547 77.3454 985.551 77.376C985.492 76.9014 985.438 76.4258 985.388 75.9492L985.539 77.2842ZM1113.01 77.2842C1113.05 76.9651 1113.08 76.6452 1113.12 76.3252C1113.08 76.6452 1113.05 76.9651 1113.01 77.2842ZM445.825 77.2158C445.957 77.0764 446.087 76.9348 446.216 76.793C446.087 76.9348 445.957 77.0764 445.825 77.2158ZM692.938 75.0186C692.976 75.475 693.017 75.9302 693.062 76.3838C693.017 75.9302 692.976 75.475 692.938 75.0186ZM1018.37 75.3037C1018.4 75.605 1018.43 75.9042 1018.46 76.2012C1018.42 75.8693 1018.39 75.5346 1018.36 75.1973L1018.37 75.3037ZM985.283 74.8633C985.315 75.2117 985.347 75.5598 985.384 75.9072C985.347 75.5598 985.315 75.2117 985.283 74.8633ZM1113.17 75.8857C1113.2 75.5552 1113.23 75.2239 1113.26 74.8926C1113.23 75.2239 1113.2 75.5552 1113.17 75.8857ZM1080.15 75.6973C1080.16 75.5664 1080.18 75.4354 1080.19 75.3037L1080.2 75.1973C1080.18 75.3646 1080.17 75.5312 1080.15 75.6973ZM1080.33 73.2461C1080.3 73.7918 1080.26 74.3308 1080.22 74.8633C1080.26 74.3308 1080.3 73.7918 1080.33 73.2461ZM1113.31 74.3828C1113.35 73.9667 1113.38 73.55 1113.41 73.1328C1113.38 73.55 1113.35 73.9667 1113.31 74.3828ZM448.414 74.0859C448.489 73.9819 448.566 73.8785 448.64 73.7734C448.566 73.8785 448.489 73.9819 448.414 74.0859ZM449.002 73.2461C449.047 73.1787 449.094 73.1117 449.139 73.0439C449.094 73.1117 449.047 73.1787 449.002 73.2461ZM1113.57 70.2246C1113.53 71.1276 1113.49 72.0288 1113.42 72.9277C1113.49 72.0288 1113.53 71.1276 1113.57 70.2246ZM449.323 72.7598C449.433 72.5909 449.543 72.4222 449.65 72.251C449.543 72.4222 449.433 72.5909 449.323 72.7598ZM725.834 71.6104C725.839 71.7174 725.847 71.8241 725.853 71.9307C725.845 71.7898 725.836 71.6486 725.829 71.5068L725.834 71.6104ZM449.854 71.918C449.93 71.7917 450.008 71.6656 450.083 71.5381C450.008 71.6656 449.93 71.7917 449.854 71.918ZM984.977 70.0039C984.993 70.5009 985.015 70.9974 985.04 71.4932C985.015 70.9974 984.993 70.5009 984.977 70.0039ZM725.784 70.4854C725.793 70.714 725.804 70.9415 725.814 71.168C725.803 70.9183 725.791 70.6674 725.782 70.415L725.784 70.4854ZM450.354 71.0684C450.418 70.9555 450.482 70.8423 450.545 70.7285C450.482 70.8423 450.418 70.9555 450.354 71.0684ZM450.716 70.415C450.807 70.2459 450.898 70.0763 450.987 69.9053C450.898 70.0763 450.807 70.2459 450.716 70.415ZM451.106 69.6729C451.202 69.4867 451.296 69.2997 451.388 69.1113C451.296 69.2997 451.202 69.4867 451.106 69.6729ZM451.541 68.792C451.619 68.6293 451.696 68.4661 451.771 68.3018C451.696 68.4661 451.619 68.6293 451.541 68.792ZM451.918 67.9756C451.999 67.7942 452.08 67.612 452.158 67.4287C452.08 67.612 451.999 67.7942 451.918 67.9756ZM452.278 67.1455C452.356 66.9605 452.433 66.7748 452.508 66.5879C452.433 66.7748 452.356 66.9605 452.278 67.1455ZM725.798 63.3047C725.764 64.1032 725.742 64.9166 725.73 65.7451C725.742 64.9166 725.764 64.1032 725.798 63.3047ZM1080.48 64.3223C1080.49 65.1995 1080.51 66.0922 1080.51 67L1080.5 65.8936C1080.5 65.3644 1080.49 64.8407 1080.48 64.3223ZM929.354 66.6377L929.355 66.6396C929.67 65.7846 929.988 64.9321 930.309 64.082L929.354 66.6377ZM452.622 66.2969C452.701 66.0954 452.779 65.8931 452.855 65.6895C452.779 65.8931 452.701 66.0954 452.622 66.2969ZM452.958 65.4121C453.027 65.2238 453.095 65.0348 453.161 64.8447C453.095 65.0348 453.027 65.2238 452.958 65.4121ZM453.292 64.4629C453.346 64.3036 453.399 64.1439 453.451 63.9834C453.399 64.1439 453.346 64.3036 453.292 64.4629ZM453.597 63.5273C453.646 63.3687 453.695 63.2096 453.743 63.0498C453.695 63.2096 453.646 63.3687 453.597 63.5273ZM407.815 63.2002C407.485 63.2125 407.148 63.2197 406.805 63.2197C407.148 63.2197 407.485 63.2125 407.815 63.2002ZM409.589 63.0693C409.344 63.0968 409.095 63.1207 408.843 63.1406C409.095 63.1207 409.344 63.0968 409.589 63.0693ZM453.847 62.6963C453.904 62.5001 453.96 62.3033 454.015 62.1055C453.96 62.3033 453.904 62.5001 453.847 62.6963ZM1113.5 62.3896C1113.48 61.9852 1113.46 61.5808 1113.43 61.1768L1113.42 61.1309C1113.45 61.5502 1113.48 61.9698 1113.5 62.3896ZM454.108 61.7666C454.162 61.567 454.213 61.3663 454.265 61.165C454.213 61.3663 454.162 61.567 454.108 61.7666ZM454.342 60.8574C454.401 60.6198 454.458 60.3814 454.514 60.1416C454.458 60.3814 454.401 60.6198 454.342 60.8574ZM417.7 59.9248C417.753 59.8819 417.805 59.8395 417.856 59.7959C417.805 59.8395 417.752 59.8819 417.7 59.9248ZM454.562 59.9248C454.62 59.6688 454.677 59.4118 454.731 59.1533C454.677 59.4118 454.62 59.6688 454.562 59.9248ZM417.983 59.6855C418.032 59.6429 418.082 59.6009 418.13 59.5576C418.082 59.6009 418.032 59.6429 417.983 59.6855ZM1080.27 59.6318C1080.25 59.3701 1080.23 59.1101 1080.21 58.8516C1080.23 59.1101 1080.25 59.3701 1080.27 59.6318ZM419.257 58.3945C418.941 58.7666 418.602 59.1207 418.24 59.4551C418.602 59.1207 418.941 58.7666 419.257 58.3945ZM386.505 59.2197H406.805C411.723 59.2197 414.505 57.7527 416.128 55.9023C417.833 53.9579 418.825 50.9451 418.825 46.8398C418.825 42.8076 417.871 40.0738 416.3 38.3613C414.788 36.7135 412.104 35.3594 407.165 35.3594H386.505V59.2197ZM1113 56.7881C1113.1 57.5243 1113.17 58.2626 1113.25 59.002C1113.17 58.2626 1113.1 57.5243 1113 56.7881ZM454.771 58.9619C454.823 58.7118 454.872 58.4604 454.92 58.208C454.872 58.4604 454.823 58.7118 454.771 58.9619ZM454.964 57.9775C455 57.782 455.034 57.5855 455.068 57.3887C455.034 57.5855 455 57.782 454.964 57.9775ZM455.147 56.9268C455.173 56.7709 455.197 56.6146 455.222 56.458C455.197 56.6146 455.173 56.7709 455.147 56.9268ZM1080 56.7051C1079.98 56.486 1079.95 56.2683 1079.93 56.0518C1079.95 56.2683 1079.98 56.486 1080 56.7051ZM726.559 55.4619H726.56H726.559ZM1112.93 56.2227C1112.89 55.9181 1112.85 55.6135 1112.81 55.3096C1112.85 55.6135 1112.89 55.9181 1112.93 56.2227ZM455.295 55.9805C455.32 55.8081 455.344 55.6352 455.368 55.4619C455.344 55.6352 455.32 55.8081 455.295 55.9805ZM455.436 54.959C455.458 54.783 455.479 54.6065 455.5 54.4297C455.479 54.6065 455.458 54.783 455.436 54.959ZM1112.75 54.9268C1112.7 54.5836 1112.65 54.2406 1112.59 53.8984C1112.65 54.2406 1112.7 54.5836 1112.75 54.9268ZM421.528 54.5381C421.542 54.5036 421.556 54.4693 421.569 54.4346L421.64 54.2451C421.603 54.3434 421.566 54.441 421.528 54.5381ZM455.556 53.9561C455.581 53.7257 455.605 53.4945 455.628 53.2627C455.605 53.4945 455.581 53.7257 455.556 53.9561ZM1112.47 53.2217C1112.43 52.9542 1112.38 52.6867 1112.33 52.4199C1112.38 52.6867 1112.43 52.9542 1112.47 53.2217ZM455.657 52.9746C455.683 52.7 455.705 52.4241 455.728 52.1475C455.705 52.4241 455.683 52.7 455.657 52.9746ZM1112.32 52.332C1112.24 51.8939 1112.15 51.4566 1112.06 51.0205C1112.15 51.4566 1112.24 51.8939 1112.32 52.332ZM455.743 51.958C455.763 51.7004 455.782 51.4419 455.799 51.1826C455.782 51.4419 455.763 51.7004 455.743 51.958ZM422.614 50.1836C422.551 50.6658 422.472 51.139 422.379 51.6025C422.472 51.139 422.551 50.6658 422.614 50.1836ZM455.906 48.9736C455.885 49.614 455.858 50.2499 455.819 50.8809C455.858 50.2499 455.885 49.614 455.906 48.9736ZM1111.96 50.5156C1111.89 50.2089 1111.83 49.9023 1111.76 49.5967C1111.83 49.9023 1111.89 50.2089 1111.96 50.5156ZM1111.58 48.8203C1111.53 48.6223 1111.49 48.424 1111.44 48.2266C1111.49 48.424 1111.53 48.6223 1111.58 48.8203ZM729.386 45.2822C729.155 45.8218 728.935 46.375 728.726 46.9424C728.935 46.375 729.155 45.8218 729.386 45.2822ZM785.455 43.9219C785.66 44.6556 785.825 45.4066 785.948 46.1729C785.974 46.3345 785.999 46.4972 786.021 46.6602H817.701L786.021 46.6592C785.892 45.7238 785.703 44.8103 785.455 43.9219ZM1110.79 45.7803C1110.75 45.6441 1110.71 45.508 1110.67 45.3721C1110.71 45.508 1110.75 45.6441 1110.79 45.7803ZM1110.61 45.1455C1110.56 44.994 1110.52 44.8425 1110.47 44.6914C1110.52 44.8425 1110.56 44.994 1110.61 45.1455ZM1110.36 44.3369C1110.33 44.2333 1110.3 44.1298 1110.26 44.0264C1110.3 44.1298 1110.33 44.2333 1110.36 44.3369ZM785.178 43.0166C785.253 43.244 785.325 43.4731 785.393 43.7041C785.325 43.4731 785.253 43.244 785.178 43.0166ZM785.146 42.917C785.11 42.811 785.072 42.7058 785.034 42.6006C785.072 42.7058 785.11 42.811 785.146 42.917ZM784.987 42.4678C784.943 42.348 784.898 42.229 784.852 42.1104C784.898 42.229 784.943 42.348 784.987 42.4678ZM1109.66 42.209C1109.64 42.1335 1109.61 42.0578 1109.59 41.9824C1109.61 42.0578 1109.64 42.1335 1109.66 42.209ZM1109.41 41.4922C1109.38 41.4163 1109.36 41.3404 1109.33 41.2646C1109.36 41.3404 1109.38 41.4163 1109.41 41.4922ZM784.244 40.7188C784.199 40.6261 784.152 40.5343 784.105 40.4424C784.152 40.5343 784.199 40.6261 784.244 40.7188ZM816.918 40.5488C816.899 40.4475 816.88 40.3462 816.86 40.2451C816.88 40.3462 816.899 40.4475 816.918 40.5488ZM784.041 40.3154C783.979 40.1955 783.915 40.0765 783.851 39.958C783.915 40.0765 783.979 40.1955 784.041 40.3154ZM732.667 39.4629V39.4639V39.4629ZM1108.9 40.1191C1108.87 40.0559 1108.85 39.9929 1108.82 39.9297C1108.85 39.9929 1108.87 40.0559 1108.9 40.1191ZM1108.72 39.6602C1108.67 39.525 1108.61 39.3897 1108.56 39.2549C1108.61 39.3897 1108.67 39.525 1108.72 39.6602ZM1108.39 38.8545C1108.35 38.7469 1108.3 38.6395 1108.26 38.5322C1108.3 38.6395 1108.35 38.7469 1108.39 38.8545ZM783.06 38.6416C782.997 38.5462 782.932 38.4517 782.867 38.3574C782.932 38.4517 782.997 38.5462 783.06 38.6416ZM816.459 38.4033C816.441 38.3291 816.424 38.2547 816.406 38.1807C816.424 38.2547 816.441 38.3291 816.459 38.4033ZM1108.14 38.2549C1108.09 38.1382 1108.04 38.0216 1107.99 37.9053C1108.04 38.0216 1108.09 38.1382 1108.14 38.2549ZM816.216 37.4326C816.194 37.348 816.173 37.2631 816.15 37.1787C816.173 37.2631 816.194 37.348 816.216 37.4326ZM1107.54 36.875C1107.5 36.792 1107.46 36.7088 1107.42 36.626C1107.46 36.7088 1107.5 36.792 1107.54 36.875ZM815.891 36.251C815.882 36.223 815.874 36.195 815.866 36.167C815.874 36.195 815.882 36.223 815.891 36.251ZM1107.25 36.251C1107.2 36.1486 1107.15 36.0464 1107.1 35.9443C1107.15 36.0464 1107.2 36.1486 1107.25 36.251ZM736.959 34.9277C736.56 35.2536 736.171 35.5926 735.792 35.9443C736.171 35.5926 736.56 35.2536 736.959 34.9277ZM1106.92 35.5596C1106.89 35.4895 1106.85 35.4196 1106.82 35.3496C1106.85 35.4196 1106.89 35.4895 1106.92 35.5596ZM815.629 35.3877C815.606 35.3148 815.584 35.2417 815.561 35.1689C815.584 35.2417 815.606 35.3148 815.629 35.3877ZM815.313 34.4229C815.285 34.3396 815.258 34.2559 815.229 34.1729C815.258 34.2559 815.285 34.3396 815.313 34.4229ZM1106.28 34.2773C1106.23 34.188 1106.19 34.0988 1106.14 34.0098C1106.19 34.0988 1106.23 34.188 1106.28 34.2773ZM1105.98 33.709C1105.92 33.5946 1105.86 33.4802 1105.8 33.3662C1105.86 33.4802 1105.92 33.5946 1105.98 33.709ZM814.982 33.4834C814.944 33.3792 814.907 33.2747 814.868 33.1709C814.907 33.2747 814.944 33.3792 814.982 33.4834ZM1105.62 33.0391C1105.57 32.9521 1105.53 32.865 1105.48 32.7783C1105.53 32.865 1105.57 32.9521 1105.62 33.0391ZM415.127 32.7783C415.19 32.8053 415.252 32.8336 415.313 32.8613C415.135 32.7812 414.953 32.703 414.767 32.6289L415.127 32.7783ZM814.613 32.5107C814.573 32.4072 814.533 32.3033 814.491 32.2002C814.533 32.3033 814.573 32.4072 814.613 32.5107ZM1105.29 32.4307C1105.24 32.3459 1105.19 32.2613 1105.14 32.1768C1105.19 32.2613 1105.24 32.3459 1105.29 32.4307ZM1036.31 31.5449C1035.76 31.7103 1035.22 31.888 1034.69 32.0781C1035.22 31.888 1035.76 31.7103 1036.31 31.5449ZM1104.88 31.7227C1104.84 31.6562 1104.8 31.5897 1104.76 31.5234C1104.8 31.5897 1104.84 31.6562 1104.88 31.7227ZM814.188 31.4736C814.156 31.3973 814.125 31.3203 814.092 31.2441C814.125 31.3203 814.156 31.3973 814.188 31.4736ZM1104.61 31.2646C1104.53 31.1378 1104.46 31.011 1104.38 30.8848C1104.46 31.011 1104.53 31.1378 1104.61 31.2646ZM1041.73 30.3936C1041.08 30.4836 1040.45 30.5868 1039.83 30.7021C1040.45 30.5868 1041.08 30.4835 1041.73 30.3936ZM813.822 30.6396C813.763 30.5096 813.705 30.3794 813.645 30.25C813.705 30.3794 813.763 30.5096 813.822 30.6396ZM1104.21 30.5938C1104.14 30.4942 1104.08 30.3951 1104.02 30.2959C1104.08 30.3951 1104.14 30.4942 1104.21 30.5938ZM1053.22 30.0469C1053.01 30.0332 1052.8 30.0183 1052.58 30.0068L1052.55 30.0059C1052.77 30.0178 1053 30.0325 1053.22 30.0469ZM1103.84 30.0059C1103.77 29.895 1103.7 29.7842 1103.63 29.6738C1103.7 29.7842 1103.77 29.895 1103.84 30.0059ZM813.392 29.7207C813.324 29.5802 813.256 29.4395 813.187 29.2998C813.256 29.4395 813.324 29.5802 813.392 29.7207ZM1103.46 29.4131C1103.4 29.317 1103.33 29.2207 1103.27 29.125C1103.33 29.2207 1103.4 29.317 1103.46 29.4131ZM452.305 27.2314C452.51 27.706 452.709 28.1855 452.896 28.6719C452.709 28.1855 452.51 27.706 452.305 27.2314ZM812.925 28.7861C812.858 28.6564 812.791 28.5265 812.723 28.3975C812.791 28.5265 812.858 28.6564 812.925 28.7861ZM1103.01 28.7402C1102.96 28.6608 1102.91 28.5811 1102.85 28.502C1102.91 28.5811 1102.96 28.6608 1103.01 28.7402ZM1102.65 28.1963C1102.56 28.0719 1102.47 27.9479 1102.39 27.8242C1102.47 27.9479 1102.56 28.0719 1102.65 28.1963ZM812.411 27.8242C812.346 27.7069 812.282 27.5894 812.216 27.4727C812.282 27.5894 812.346 27.7069 812.411 27.8242ZM1102.29 27.6807C1102.19 27.5423 1102.09 27.4041 1101.99 27.2666C1102.09 27.4041 1102.19 27.5423 1102.29 27.6807ZM1101.84 27.0537C1101.76 26.9542 1101.69 26.855 1101.62 26.7559C1101.69 26.855 1101.76 26.9542 1101.84 27.0537ZM811.882 26.8955C811.815 26.7827 811.749 26.6698 811.682 26.5576C811.749 26.6698 811.815 26.7827 811.882 26.8955ZM1101.33 26.3672C1101.28 26.3 1101.23 26.233 1101.17 26.166C1101.23 26.233 1101.28 26.3 1101.33 26.3672ZM811.359 26.0332C811.284 25.9123 811.209 25.7911 811.132 25.6709C811.209 25.7911 811.284 25.9123 811.359 26.0332ZM1100.92 25.8398C1100.86 25.7582 1100.8 25.677 1100.73 25.5957C1100.8 25.677 1100.86 25.7582 1100.92 25.8398ZM1100.51 25.3076C1100.42 25.1979 1100.33 25.0886 1100.25 24.9795C1100.33 25.0886 1100.42 25.1979 1100.51 25.3076ZM810.817 25.1904C810.722 25.0462 810.627 24.9019 810.529 24.7588C810.627 24.9019 810.722 25.0462 810.817 25.1904ZM1100.07 24.7617C1099.98 24.6539 1099.89 24.5466 1099.8 24.4395C1099.89 24.5466 1099.98 24.6539 1100.07 24.7617ZM810.228 24.3232C810.129 24.182 810.03 24.0405 809.929 23.9004C810.03 24.0405 810.129 24.182 810.228 24.3232ZM1099.55 24.1338C1099.48 24.0558 1099.41 23.9781 1099.35 23.9004C1099.41 23.9781 1099.48 24.0558 1099.55 24.1338ZM1099.12 23.6328C1099.02 23.5238 1098.93 23.415 1098.83 23.3066C1098.93 23.415 1099.02 23.5238 1099.12 23.6328ZM809.436 23.2295C809.414 23.201 809.392 23.173 809.37 23.1445C809.392 23.173 809.414 23.201 809.436 23.2295ZM1098.57 23.0098C1098.51 22.9397 1098.45 22.8696 1098.38 22.7998C1098.45 22.8696 1098.51 22.9397 1098.57 23.0098ZM1098.14 22.5283C1098.05 22.435 1097.97 22.3419 1097.88 22.249C1097.97 22.3419 1098.05 22.4349 1098.14 22.5283ZM1001.71 21.1475C1001.42 21.4404 1001.14 21.7355 1000.86 22.0342C1001.14 21.7355 1001.42 21.4405 1001.71 21.1475ZM1097.59 21.9404C1097.55 21.8949 1097.5 21.8491 1097.46 21.8037C1097.5 21.8491 1097.55 21.8949 1097.59 21.9404ZM808.099 21.5586C808.083 21.5401 808.067 21.5214 808.052 21.5029C808.067 21.5214 808.083 21.5401 808.099 21.5586ZM1097.06 21.3926C1097 21.3296 1096.94 21.2668 1096.88 21.2041C1096.94 21.2668 1097 21.3296 1097.06 21.3926ZM1096.63 20.9541C1096.53 20.8579 1096.44 20.7616 1096.34 20.666C1096.44 20.7616 1096.53 20.8579 1096.63 20.9541ZM1096.05 20.377C1096 20.3311 1095.95 20.2859 1095.9 20.2402C1095.95 20.2859 1096 20.3311 1096.05 20.377ZM1095.48 19.832C1095.43 19.7905 1095.39 19.7494 1095.34 19.708C1095.39 19.7494 1095.43 19.7905 1095.48 19.832ZM1095.03 19.4189C1094.93 19.3209 1094.82 19.2232 1094.71 19.126C1094.82 19.2232 1094.93 19.3209 1095.03 19.4189ZM1094.47 18.9111C1094.37 18.8162 1094.26 18.7222 1094.15 18.6279C1094.26 18.7222 1094.37 18.8162 1094.47 18.9111ZM1093.91 18.416C1093.81 18.328 1093.71 18.2407 1093.6 18.1533C1093.71 18.2407 1093.81 18.328 1093.91 18.416ZM1093.3 17.8965C1093.22 17.8283 1093.14 17.7611 1093.05 17.6934C1093.14 17.7611 1093.22 17.8283 1093.3 17.8965ZM803.878 17.2891C804.081 17.4655 804.281 17.644 804.479 17.8232C804.416 17.7658 804.353 17.7075 804.289 17.6504L803.878 17.2891ZM1092.73 17.4287C1092.66 17.3692 1092.59 17.3101 1092.51 17.251C1092.59 17.3101 1092.66 17.3692 1092.73 17.4287ZM1092.13 16.9414C1092.05 16.8763 1091.96 16.8118 1091.88 16.7471C1091.96 16.8118 1092.05 16.8763 1092.13 16.9414ZM1091.54 16.4854C1091.45 16.418 1091.37 16.3511 1091.28 16.2842C1091.37 16.3511 1091.45 16.418 1091.54 16.4854ZM1090.33 15.5859C1090.22 15.5017 1090.1 15.4184 1089.98 15.335C1090.1 15.4184 1090.22 15.5017 1090.33 15.5859ZM1089.75 15.1719C1089.61 15.0749 1089.47 14.9788 1089.33 14.8828C1089.47 14.9788 1089.61 15.0749 1089.75 15.1719ZM1089.1 14.7236C1088.97 14.6334 1088.84 14.5443 1088.7 14.4551C1088.84 14.5443 1088.97 14.6334 1089.1 14.7236ZM1088.47 14.2979C1088.34 14.2145 1088.21 14.1323 1088.08 14.0498C1088.21 14.1323 1088.34 14.2145 1088.47 14.2979ZM799.408 13.9053C799.359 13.8731 799.311 13.8406 799.262 13.8086C799.311 13.8406 799.359 13.8731 799.408 13.9053ZM1087.78 13.8535C1087.65 13.7691 1087.51 13.6851 1087.38 13.6016C1087.51 13.6851 1087.65 13.7691 1087.78 13.8535ZM1087.16 13.4619C1086.98 13.3566 1086.81 13.2523 1086.64 13.1484C1086.81 13.2523 1086.98 13.3566 1087.16 13.4619ZM1012.01 13.0615C1011.93 13.1125 1011.84 13.1645 1011.76 13.2158C1012.07 13.0284 1012.38 12.8426 1012.69 12.6602L1012.01 13.0615ZM1086.49 13.0576C1086.35 12.9756 1086.21 12.8946 1086.08 12.8135C1086.21 12.8946 1086.35 12.9756 1086.49 13.0576ZM1085.73 12.6123C1085.67 12.5764 1085.61 12.5406 1085.54 12.5049C1085.61 12.5406 1085.67 12.5764 1085.73 12.6123ZM796.831 12.3262C796.792 12.3041 796.754 12.2817 796.715 12.2598C796.754 12.2817 796.792 12.3041 796.831 12.3262ZM796.366 12.0654C796.303 12.0306 796.241 11.9955 796.178 11.9609C796.241 11.9955 796.303 12.0306 796.366 12.0654ZM795.853 11.7842C795.774 11.742 795.696 11.7 795.617 11.6582C795.696 11.7 795.774 11.742 795.853 11.7842ZM433.432 9.56445C433.986 9.76131 434.53 9.96629 435.062 10.1846C434.53 9.96629 433.986 9.76132 433.432 9.56445ZM1083.7 11.5C1083.57 11.4307 1083.44 11.3624 1083.3 11.2939C1083.44 11.3624 1083.57 11.4307 1083.7 11.5ZM794.732 11.1992C794.657 11.1609 794.581 11.1221 794.505 11.084C794.581 11.1221 794.657 11.1609 794.732 11.1992ZM1082.92 11.1016C1082.82 11.0497 1082.72 10.9996 1082.61 10.9482C1082.72 10.9996 1082.82 11.0497 1082.92 11.1016ZM794.134 10.9014C794.072 10.8709 794.01 10.8398 793.947 10.8096C794.01 10.8398 794.072 10.8709 794.134 10.9014ZM1082.23 10.7588C1082.12 10.7066 1082.01 10.6552 1081.9 10.6035C1082.01 10.6552 1082.12 10.7066 1082.23 10.7588ZM793.674 10.6787C793.551 10.6202 793.428 10.5618 793.305 10.5039C793.428 10.5618 793.551 10.6202 793.674 10.6787ZM1081.42 10.375C1081.38 10.3558 1081.34 10.3365 1081.3 10.3174C1081.34 10.3365 1081.38 10.3558 1081.42 10.375ZM1019.25 9.41406C1018.65 9.66281 1018.07 9.92062 1017.49 10.1846C1018.07 9.92062 1018.65 9.66281 1019.25 9.41406ZM792.389 10.0859C792.324 10.057 792.259 10.0278 792.193 9.99902C792.259 10.0278 792.324 10.057 792.389 10.0859ZM1080.67 10.0312C1080.6 10.0029 1080.54 9.97545 1080.48 9.94727C1080.54 9.97545 1080.6 10.0029 1080.67 10.0312ZM791.882 9.86328C791.779 9.81875 791.676 9.77455 791.572 9.73047C791.676 9.77455 791.779 9.81875 791.882 9.86328ZM1079.99 9.73047C1079.83 9.66411 1079.68 9.59951 1079.52 9.53418C1079.68 9.59951 1079.83 9.66411 1079.99 9.73047ZM791.199 9.57324C791.132 9.5453 791.065 9.51701 790.998 9.48926C791.065 9.51701 791.132 9.5453 791.199 9.57324ZM1079.22 9.4043C1079.09 9.35218 1078.97 9.30144 1078.84 9.25C1078.97 9.30144 1079.09 9.35217 1079.22 9.4043ZM790.673 9.35645C790.563 9.31187 790.453 9.2677 790.342 9.22363C790.453 9.2677 790.563 9.31188 790.673 9.35645ZM1078.41 9.07422C1078.32 9.03831 1078.23 9.00334 1078.14 8.96777C1078.23 9.00334 1078.32 9.03831 1078.41 9.07422ZM789.353 8.83984C789.286 8.81488 789.22 8.79042 789.153 8.76562C789.22 8.79042 789.286 8.81488 789.353 8.83984ZM1076.86 8.48047C1076.71 8.42336 1076.55 8.36764 1076.4 8.31152C1076.55 8.36764 1076.71 8.42336 1076.86 8.48047ZM1076.03 8.17969C1075.87 8.12234 1075.7 8.06701 1075.54 8.01074C1075.7 8.06701 1075.87 8.12234 1076.03 8.17969ZM787.481 8.16992C787.357 8.12769 787.233 8.08559 787.107 8.04395C787.233 8.08559 787.357 8.12769 787.481 8.16992ZM786.893 7.97363C786.758 7.92925 786.622 7.88452 786.486 7.84082C786.622 7.88452 786.758 7.92925 786.893 7.97363ZM1075.21 7.89746C1075.09 7.8561 1074.97 7.81614 1074.84 7.77539C1074.97 7.81614 1075.09 7.8561 1075.21 7.89746ZM786.145 7.73242C786.052 7.70326 785.959 7.67436 785.866 7.64551C785.959 7.67436 786.052 7.70326 786.145 7.73242ZM424.738 7.51855V7.51758V7.51855ZM785.451 7.51855C785.336 7.48354 785.22 7.44859 785.104 7.41406C785.22 7.44859 785.336 7.48354 785.451 7.51855ZM784.89 7.35059C784.729 7.30331 784.567 7.25631 784.404 7.20996C784.567 7.2563 784.729 7.30332 784.89 7.35059ZM734.235 7.07129H734.236H734.235ZM784.089 7.12109C784.012 7.09953 783.935 7.078 783.857 7.05664C783.935 7.078 784.012 7.09953 784.089 7.12109ZM1026.79 6.81641C1026.44 6.91243 1026.09 7.01076 1025.75 7.11133C1026.09 7.01075 1026.44 6.91243 1026.79 6.81641ZM1072.7 7.10742C1072.5 7.04862 1072.3 6.99085 1072.1 6.93359C1072.3 6.99085 1072.5 7.04862 1072.7 7.10742ZM783.357 6.9209C783.291 6.90312 783.225 6.88579 783.158 6.86816C783.225 6.88579 783.291 6.90312 783.357 6.9209ZM1071.89 6.875C1071.69 6.82036 1071.5 6.76705 1071.3 6.71387C1071.5 6.76705 1071.69 6.82036 1071.89 6.875ZM1070.98 6.62695C1070.86 6.59421 1070.73 6.56244 1070.61 6.53027C1070.73 6.56244 1070.86 6.59421 1070.98 6.62695ZM781.951 6.55957C781.878 6.54162 781.805 6.52363 781.732 6.50586C781.805 6.52363 781.878 6.54162 781.951 6.55957ZM736.826 6.39355C736.796 6.40082 736.766 6.40872 736.736 6.41602C737.059 6.33752 737.383 6.26039 737.709 6.18555L736.826 6.39355ZM1029.23 6.18652C1028.92 6.26106 1028.61 6.33791 1028.3 6.41602C1028.61 6.33791 1028.92 6.26106 1029.23 6.18652ZM1069.19 6.17773C1069.06 6.148 1068.94 6.11998 1068.81 6.09082C1068.94 6.11998 1069.06 6.148 1069.19 6.17773ZM1068.28 5.96973C1068.19 5.95015 1068.1 5.93141 1068.02 5.91211C1068.1 5.93141 1068.19 5.95015 1068.28 5.96973ZM778.986 5.8916C778.935 5.8811 778.884 5.87077 778.832 5.86035C778.884 5.87077 778.935 5.8811 778.986 5.8916ZM1067.37 5.77148C1067.29 5.75519 1067.21 5.73972 1067.13 5.72363C1067.21 5.73972 1067.29 5.75519 1067.37 5.77148ZM777.468 5.59668C777.414 5.58678 777.36 5.57719 777.307 5.56738C777.36 5.57719 777.414 5.58679 777.468 5.59668ZM775.934 5.32812C775.862 5.31635 775.791 5.3046 775.72 5.29297C775.791 5.30459 775.862 5.31635 775.934 5.32812ZM1064.58 5.24121C1064.43 5.21551 1064.28 5.19095 1064.13 5.16602C1064.28 5.19095 1064.43 5.21551 1064.58 5.24121ZM774.404 5.08984C774.072 5.04087 773.737 4.99598 773.4 4.9502C773.737 4.99598 774.072 5.04087 774.404 5.08984ZM1063.66 5.08789C1063.54 5.06949 1063.42 5.05213 1063.31 5.03418C1063.42 5.05213 1063.54 5.06949 1063.66 5.08789ZM772.764 4.8623C772.468 4.82418 772.17 4.79056 771.871 4.75488C772.17 4.79056 772.468 4.82418 772.764 4.8623ZM1039.68 4.45605C1038.67 4.55621 1037.68 4.67278 1036.7 4.80469C1038.01 4.62877 1039.33 4.48053 1040.69 4.36133L1039.68 4.45605ZM1060.75 4.67969C1060.53 4.65225 1060.31 4.62641 1060.08 4.60059C1060.31 4.62641 1060.53 4.65225 1060.75 4.67969ZM771.09 4.66113C770.8 4.62889 770.507 4.60124 770.214 4.57129C770.507 4.60124 770.8 4.62889 771.09 4.66113ZM769.397 4.48828C769.171 4.46698 768.943 4.44963 768.714 4.42969C768.943 4.44963 769.171 4.46698 769.397 4.48828ZM764.13 4.12402C763.594 4.09974 763.053 4.08073 762.508 4.06348C763.053 4.08073 763.594 4.09974 764.13 4.12402ZM1051.69 4.03027C1052.25 4.04365 1052.8 4.06172 1053.35 4.08398C1052.8 4.06172 1052.25 4.04365 1051.69 4.03027Z" fill="#3A3A39"/>
</svg>
