<svg width="30" height="19" viewBox="0 0 30 19" fill="none" xmlns="http://www.w3.org/2000/svg">
<path d="M10.841 18.1125C11.6356 17.9478 12.3254 17.6407 12.9105 17.1911C13.4316 16.798 13.8721 16.3076 14.2077 15.747C14.7511 14.8821 15.0227 13.9057 15.0227 12.8179C15.0227 11.7638 14.785 10.8673 14.3095 10.1282C13.834 9.3891 13.1287 8.84898 12.1936 8.50782C12.8087 8.19285 13.2745 7.84411 13.5911 7.4616C14.1557 6.78173 14.4385 5.88064 14.4395 4.7583C14.4395 3.67047 14.1588 2.73609 13.5973 1.95515C12.6664 0.685246 11.0844 0.0335281 8.85144 0H0V18.3621H8.25317C9.18292 18.3621 10.0455 18.2789 10.841 18.1125ZM3.65298 3.18896H7.63915C8.51642 3.18896 9.23784 3.28465 9.8034 3.47603C10.46 3.7494 10.7882 4.31399 10.788 5.16981C10.788 5.94218 10.5396 6.48059 10.0429 6.78504C9.54613 7.08948 8.90038 7.24109 8.10561 7.23987H3.65298V3.18896ZM3.65298 15.1732V10.2783H8.16053C8.94846 10.286 9.55699 10.3885 9.99123 10.5893C10.7689 10.9461 11.1578 11.6018 11.1578 12.5565C11.1578 13.686 10.7565 14.4504 9.95388 14.8498C9.51452 15.066 8.89208 15.1732 8.10012 15.1732H3.65298Z" fill="#3A3A39"/>
<path d="M18.1241 17.1515C19.502 18.2665 21.092 18.8237 22.8942 18.8229C25.0786 18.8229 26.7767 18.1622 27.9887 16.8406C28.7698 16.0085 29.2078 15.1906 29.3027 14.3869H25.6871C25.4769 14.7849 25.2339 15.0959 24.9581 15.3201C24.4536 15.7361 23.7981 15.9442 22.9916 15.9442C22.2307 15.9442 21.5802 15.7738 21.0401 15.4332C20.1508 14.8847 19.6786 13.9294 19.6235 12.5672H29.4869C29.5045 11.395 29.4657 10.4968 29.3705 9.87276C29.2062 8.80818 28.8464 7.87258 28.2911 7.06595C27.6774 6.15139 26.8972 5.48181 25.9504 5.0572C25.0072 4.63308 23.9454 4.42126 22.7649 4.42175C20.7812 4.42175 19.1671 5.04924 17.9227 6.30422C16.6783 7.5592 16.0559 9.3625 16.0554 11.7141C16.0569 14.2253 16.7464 16.0378 18.1241 17.1515ZM20.6538 8.12502C21.1551 7.60839 21.8596 7.34996 22.7671 7.34971C23.6029 7.34971 24.3033 7.59347 24.8684 8.08097C25.4335 8.56847 25.7479 9.2837 25.8116 10.2266H19.7106C19.84 9.34268 20.1544 8.64214 20.6538 8.12502Z" fill="#3A3A39"/>
<path d="M26.5149 1.05469H18.5561V2.90779H26.5149V1.05469Z" fill="#3A3A39"/>
</svg>
