<svg width="810" height="91" viewBox="0 0 810 91" fill="none" xmlns="http://www.w3.org/2000/svg">
<g filter="url(#filter0_n_7472_3209)">
<g clip-path="url(#clip0_7472_3209)">
<path d="M50.25 35.06L34.25 33.41C28.8 32.77 26.15 30.41 26.15 26.18C26.15 21.18 30.89 18.18 38.82 18.18C47.26 18.18 52.39 21.82 53.26 28.44L53.38 29.31H77.38L77.29 28.24C76.49 17.69 70.42 -0.0200043 38.85 -0.0200043C15.56 -0.0200043 1.66 10.34 1.66 27.68C1.66 42.37 10.47 51.48 26.46 53.35L44.78 55.35C50.83 56.2 53.53 58.74 53.53 63.59C53.53 69.39 49.02 72.21 39.73 72.21C26.82 72.21 24.19 64.46 23.73 59.83L23.65 58.92H-1.90735e-06L0.0599995 59.98C0.599999 69.13 5.5 90.41 39.27 90.41C64.95 90.41 77.98 80.75 77.98 61.7C77.98 45.57 68.91 36.85 50.25 35.06Z" fill="#3A3A39"/>
<path d="M128.98 1.52588e-05C113.34 1.52588e-05 101.31 4.77999 93.2 14.19C84.61 24.19 82.81 36.61 82.81 45.29C82.81 73.49 100.07 90.29 128.98 90.29C157.89 90.29 175.27 73.46 175.27 45.29C175.27 36.62 173.47 24.21 164.91 14.24C156.79 4.79001 144.7 1.52588e-05 128.98 1.52588e-05ZM128.98 20.22C146.48 20.22 149.98 29.81 149.98 45.29C149.98 60.77 146.47 70.23 128.98 70.23C111.64 70.23 108.09 60.23 108.09 45.29C108.09 27.02 113.75 20.22 128.98 20.22Z" fill="#3A3A39"/>
<path d="M240.06 59.73L223.74 2.14999H183.64V88.29H207.91V24.22L226.53 88.29H252.96L271.45 24.6V88.29H295.72V2.14999H256.51L240.06 59.73Z" fill="#3A3A39"/>
<path d="M331.65 53.62H372.9V35.3H331.65V21.74H376.69V2.14999H307.38V88.29H377.07V68.7H331.65V53.62Z" fill="#3A3A39"/>
<path d="M381.65 21.74H408.72V88.29H432.99V21.74H460.07V2.14999H381.65V21.74Z" fill="#3A3A39"/>
<path d="M523.61 34.92H490.43V2.14999H466.16V88.29H490.43V54.26H523.61V88.29H547.88V2.14999H523.61V34.92Z" fill="#3A3A39"/>
<path d="M558.78 21.74H573.58V68.7H558.78V88.29H612.65V68.7H597.85V21.74H612.65V2.14999H558.78V21.74Z" fill="#3A3A39"/>
<path d="M687.45 63.55C686.84 61.93 686.2 60.32 685.57 58.82L661.65 2.15999H623.43V88.33H646.65V27.33C647.29 29.1 648 30.92 648.78 32.82L672.48 88.33H710.71V2.15999H687.45V63.55Z" fill="#3A3A39"/>
<path d="M758.55 56.16H785.55C783.65 66.35 777.12 71.11 765.09 71.11C750.93 71.11 744.33 62.91 744.33 45.29C744.33 27.5 751.33 19.21 766.48 19.21C777.03 19.21 783.68 23.55 784.72 31.13L784.84 31.99H809.05L808.98 30.92C808.18 19.37 801.58 1.52588e-05 766.36 1.52588e-05C750.59 1.52588e-05 738.42 4.48001 730.18 13.31C722.9 21.11 719.05 32.17 719.05 45.31C719.05 67.08 729.75 90.31 759.78 90.31C773.57 90.31 783.13 85.65 788.26 76.45V88.33H808.86V40.11H758.55V56.16Z" fill="#3A3A39"/>
</g>
</g>
<defs>
<filter id="filter0_n_7472_3209" x="0" y="0" width="809.08" height="90.44" filterUnits="userSpaceOnUse" color-interpolation-filters="sRGB">
<feFlood flood-opacity="0" result="BackgroundImageFix"/>
<feBlend mode="normal" in="SourceGraphic" in2="BackgroundImageFix" result="shape"/>
<feTurbulence type="fractalNoise" baseFrequency="2 2" stitchTiles="stitch" numOctaves="3" result="noise" seed="1954" />
<feColorMatrix in="noise" type="luminanceToAlpha" result="alphaNoise" />
<feComponentTransfer in="alphaNoise" result="coloredNoise1">
<feFuncA type="discrete" tableValues="1 1 1 1 1 1 1 1 1 1 1 1 1 1 1 1 1 1 1 1 1 1 1 1 1 1 1 1 1 1 1 1 1 1 1 1 1 1 1 1 1 1 1 1 1 1 1 1 1 1 1 0 0 0 0 0 0 0 0 0 0 0 0 0 0 0 0 0 0 0 0 0 0 0 0 0 0 0 0 0 0 0 0 0 0 0 0 0 0 0 0 0 0 0 0 0 0 0 0 0 "/>
</feComponentTransfer>
<feComposite operator="in" in2="shape" in="coloredNoise1" result="noise1Clipped" />
<feFlood flood-color="rgba(255, 255, 255, 0.05)" result="color1Flood" />
<feComposite operator="in" in2="noise1Clipped" in="color1Flood" result="color1" />
<feMerge result="effect1_noise_7472_3209">
<feMergeNode in="shape" />
<feMergeNode in="color1" />
</feMerge>
</filter>
<clipPath id="clip0_7472_3209">
<rect width="809.08" height="90.44" fill="white"/>
</clipPath>
</defs>
</svg>
