<svg width="810" height="91" viewBox="0 0 810 91" fill="none" xmlns="http://www.w3.org/2000/svg">
<g clip-path="url(#clip0_7469_3619)">
<path d="M50.25 35.06L34.25 33.41C28.8 32.77 26.15 30.41 26.15 26.18C26.15 21.18 30.89 18.18 38.82 18.18C47.26 18.18 52.39 21.82 53.26 28.44L53.38 29.31H77.38L77.29 28.24C76.49 17.69 70.42 -0.0200195 38.85 -0.0200195C15.56 -0.0200195 1.66 10.34 1.66 27.68C1.66 42.37 10.47 51.48 26.46 53.35L44.78 55.35C50.83 56.2 53.53 58.74 53.53 63.59C53.53 69.39 49.02 72.21 39.73 72.21C26.82 72.21 24.19 64.46 23.73 59.83L23.65 58.92H0L0.0600014 59.98C0.600001 69.13 5.5 90.41 39.27 90.41C64.95 90.41 77.98 80.75 77.98 61.7C77.98 45.57 68.91 36.85 50.25 35.06Z" fill="#231F20"/>
<path d="M128.98 0C113.34 0 101.31 4.77997 93.2001 14.19C84.6101 24.19 82.8101 36.61 82.8101 45.29C82.8101 73.49 100.07 90.29 128.98 90.29C157.89 90.29 175.27 73.46 175.27 45.29C175.27 36.62 173.47 24.21 164.91 14.24C156.79 4.78999 144.7 0 128.98 0ZM128.98 20.22C146.48 20.22 149.98 29.81 149.98 45.29C149.98 60.77 146.47 70.23 128.98 70.23C111.64 70.23 108.09 60.23 108.09 45.29C108.09 27.02 113.75 20.22 128.98 20.22Z" fill="#231F20"/>
<path d="M240.06 59.7299L223.74 2.1499H183.64V88.2899H207.91V24.2199L226.53 88.2899H252.96L271.45 24.5999V88.2899H295.72V2.1499H256.51L240.06 59.7299Z" fill="#231F20"/>
<path d="M331.65 53.6199H372.9V35.2999H331.65V21.7399H376.69V2.1499H307.38V88.2899H377.07V68.6999H331.65V53.6199Z" fill="#231F20"/>
<path d="M381.65 21.7399H408.72V88.2899H432.99V21.7399H460.07V2.1499H381.65V21.7399Z" fill="#231F20"/>
<path d="M523.61 34.9199H490.43V2.1499H466.16V88.2899H490.43V54.2599H523.61V88.2899H547.88V2.1499H523.61V34.9199Z" fill="#231F20"/>
<path d="M558.78 21.7399H573.58V68.6999H558.78V88.2899H612.65V68.6999H597.85V21.7399H612.65V2.1499H558.78V21.7399Z" fill="#231F20"/>
<path d="M687.45 63.5501C686.84 61.9301 686.2 60.3202 685.57 58.8202L661.65 2.16016H623.43V88.3302H646.65V27.3302C647.29 29.1002 648 30.9202 648.78 32.8202L672.48 88.3302H710.71V2.16016H687.45V63.5501Z" fill="#231F20"/>
<path d="M758.55 56.16H785.55C783.65 66.35 777.12 71.11 765.09 71.11C750.93 71.11 744.33 62.91 744.33 45.29C744.33 27.5 751.33 19.21 766.48 19.21C777.03 19.21 783.68 23.55 784.72 31.13L784.84 31.99H809.05L808.98 30.92C808.18 19.37 801.58 0 766.36 0C750.59 0 738.42 4.48 730.18 13.31C722.9 21.11 719.05 32.17 719.05 45.31C719.05 67.08 729.75 90.31 759.78 90.31C773.57 90.31 783.13 85.65 788.26 76.45V88.33H808.86V40.11H758.55V56.16Z" fill="#231F20"/>
</g>
<defs>
<clipPath id="clip0_7469_3619">
<rect width="809.08" height="90.44" fill="white"/>
</clipPath>
</defs>
</svg>
