<svg width="1251" height="133" viewBox="0 0 1251 133" fill="none" xmlns="http://www.w3.org/2000/svg">
<g clip-path="url(#clip0_8043_1570)">
<path d="M0 34.28H38.8V129.64H76.7V34.28H115.5V3.07996H0V34.28Z" fill="#3A3A39"/>
<path d="M203.41 50.04H159.01V3.07996H121.1V129.64H159.01V80.87H203.41V129.64H241.32V3.07996H203.41V50.04Z" fill="#3A3A39"/>
<path d="M425.03 44.38C423.08 48.74 421.25 53.07 419.5 57.49C417.77 52.95 415.96 48.57 414.2 44.4L396.2 3.07996H254.89V129.64H357.89V98.44H292.8V79.97H351.9V50.58H292.8V34.28H357.34V10.28L400.84 92.58V129.64H438.73V92.57L485.85 3.07996H443.4L425.03 44.38Z" fill="#3A3A39"/>
<path d="M599.93 50.22L576.93 47.87C567.77 46.79 566.71 42.33 566.71 39.07C566.73 29.92 579.43 29.22 583.31 29.22C591.24 29.22 601 31.54 602.46 42.57L602.8 45.18H640.21L639.97 41.95C639.03 29.68 633.97 19.42 625.39 12.27C615.6 4.12 601.45 0 583.31 0C548.97 0 528.47 15.42 528.47 41.25C528.47 62.87 541.92 76.85 565.4 79.58L591.6 82.47C601.44 83.85 602.79 88.22 602.79 92.74C602.79 95.74 602.79 103.52 584.58 103.52C568.2 103.52 563.96 94.65 563.28 87.21L563.03 84.48H526.11L526.3 87.66C527.09 101.21 534.3 132.72 584.04 132.72C631.17 132.72 641.04 109.5 641.04 90.02C641.06 66.22 627.23 52.85 599.93 50.22Z" fill="#3A3A39"/>
<path d="M680.16 3.07996L636.96 129.64H675.18L683.18 106.98H730.58L738.38 129.64H776.8L733.58 3.07996H680.16ZM720.33 76.87H693.39L706.79 37.77L720.33 76.87Z" fill="#3A3A39"/>
<path d="M778.84 34.28H800.05V98.44H778.84V129.64H859.17V98.44H837.96V34.28H859.17V3.07996H778.84V34.28Z" fill="#3A3A39"/>
<path d="M935.39 3.07996H871.48V129.64H935.39C954.46 129.64 970.21 122.86 980.93 110.05C990.32 98.82 995.5 83.21 995.5 66.05C995.5 48.89 990.32 33.45 980.92 22.35C970.22 9.75995 954.48 3.07996 935.39 3.07996ZM909.39 34.28H928.15C947.77 34.28 956.15 43.79 956.15 66.09C956.15 88.39 947.51 98.44 928.15 98.44H909.38L909.39 34.28Z" fill="#3A3A39"/>
<path d="M1049.87 34.28H1071.08V98.44H1049.87V129.64H1130.2V98.44H1108.99V34.28H1130.2V3.07996H1049.87V34.28Z" fill="#3A3A39"/>
<path d="M1134.54 3.07996V34.28H1173.33V129.64H1211.24V34.28H1250.03V3.07996H1134.54Z" fill="#3A3A39"/>
</g>
<defs>
<clipPath id="clip0_8043_1570">
<rect width="1250.03" height="132.72" fill="white"/>
</clipPath>
</defs>
</svg>
