<svg width="144" height="137" viewBox="0 0 144 137" fill="none" xmlns="http://www.w3.org/2000/svg">
<path d="M45.9523 135L2.75235 2H38.9523L66.3524 85.8C68.5524 92.8 70.5524 99.8 72.3524 106.8C73.9524 99.8 75.9523 92.8 78.1523 85.8L105.552 2H140.952L97.7523 135H45.9523Z" fill="#3A3A39"/>
<path d="M40.4023 0L68.2529 85.1787L68.2607 85.2002C69.6837 89.7277 71.0218 94.256 72.2783 98.7842C73.4838 94.2482 74.8238 89.7194 76.2441 85.2002L76.248 85.1895L76.251 85.1787L104.103 0H143.705L99.2061 137H44.499L0 0H40.4023ZM2.75195 2L45.9521 135H97.752L140.952 2H105.553L78.1523 85.7998C75.9524 92.7997 73.9525 99.7999 72.3525 106.8C70.7775 100.675 69.0492 94.5498 67.168 88.4248L66.3525 85.7998L38.9521 2H2.75195Z" fill="#3A3A39"/>
</svg>
