<svg width="1382" height="144" viewBox="0 0 1382 144" fill="none" xmlns="http://www.w3.org/2000/svg">
<path d="M344.154 0C368.169 5.11152e-05 385.34 4.78522 396.863 14.7637C408.06 24.4588 413.578 38.7517 415.203 57.251L415.349 59.0537L415.506 61.2002H375.324L375.162 59.3779C374.379 50.5717 372.156 44.0457 367.661 39.6855C363.184 35.3433 356.089 32.8008 344.754 32.8008C333.04 32.8008 325.054 36.1247 319.927 42.3916C314.729 48.744 312.154 58.4901 312.154 72L312.161 73.2393C312.306 85.936 314.693 95.2362 319.526 101.39C324.433 107.636 332.155 111 343.754 111C355.42 111 362.922 108.543 367.692 104.11C372.458 99.6823 374.876 92.9314 375.56 83.4561L375.693 81.6006H416.317L416.147 83.7568C414.529 104.386 409.088 119.523 397.45 129.424C385.856 139.286 368.517 143.601 343.954 143.601C317.801 143.601 299.553 135.186 287.874 121.843C276.237 108.547 271.354 90.6213 271.354 72C271.354 53.865 276.294 35.8525 287.966 22.3428C299.682 8.78212 317.974 0 344.154 0ZM495.131 0C519.146 5.11152e-05 536.316 4.78522 547.84 14.7637C559.036 24.4588 564.555 38.7517 566.18 57.251L566.325 59.0537L566.482 61.2002H526.301L526.139 59.3779C525.356 50.5717 523.133 44.0457 518.638 39.6855C514.161 35.3433 507.066 32.8008 495.73 32.8008C484.016 32.8008 476.031 36.1247 470.903 42.3916C465.706 48.744 463.131 58.4901 463.131 72L463.138 73.2393C463.282 85.936 465.67 95.2362 470.503 101.39C475.409 107.636 483.132 111 494.73 111C506.397 111 513.899 108.543 518.669 104.11C523.434 99.6823 525.852 92.9314 526.536 83.4561L526.67 81.6006H567.294L567.124 83.7568C565.506 104.386 560.065 119.523 548.427 129.424C536.833 139.286 519.494 143.601 494.931 143.601C468.777 143.601 450.529 135.186 438.851 121.843C427.213 108.547 422.33 90.6213 422.33 72C422.33 53.865 427.27 35.8525 438.942 22.3428C450.659 8.78212 468.951 0 495.131 0ZM346.219 141.588L343.954 141.601C345.479 141.601 346.974 141.584 348.439 141.55C347.707 141.567 346.966 141.579 346.219 141.588ZM497.195 141.588L494.931 141.601C496.456 141.601 497.95 141.584 499.416 141.55C498.683 141.567 497.943 141.579 497.195 141.588ZM340.853 141.558C341.482 141.574 342.116 141.588 342.755 141.595L341.568 141.576C341.329 141.571 341.09 141.564 340.853 141.558ZM491.829 141.558C492.458 141.574 493.092 141.588 493.731 141.595L492.545 141.576C492.306 141.571 492.067 141.564 491.829 141.558ZM339.253 141.505C339.267 141.505 339.282 141.506 339.296 141.507C339.282 141.506 339.267 141.505 339.253 141.505ZM490.229 141.505C490.244 141.505 490.258 141.506 490.272 141.507C490.258 141.506 490.244 141.505 490.229 141.505ZM486.805 141.311C487.163 141.337 487.522 141.361 487.884 141.384C487.522 141.361 487.163 141.337 486.805 141.311ZM335.828 141.311C336.176 141.336 336.525 141.359 336.876 141.381C336.525 141.359 336.176 141.336 335.828 141.311ZM333.605 141.122C334.27 141.186 334.942 141.243 335.619 141.294C334.942 141.243 334.27 141.186 333.605 141.122ZM484.582 141.122C485.247 141.186 485.918 141.243 486.596 141.294C485.918 141.243 485.247 141.186 484.582 141.122ZM332.554 141.017C332.875 141.051 333.198 141.083 333.522 141.114C333.198 141.083 332.875 141.051 332.554 141.017ZM483.53 141.017C483.852 141.051 484.175 141.083 484.499 141.114C484.175 141.083 483.852 141.051 483.53 141.017ZM330.397 140.762C330.968 140.836 331.543 140.904 332.123 140.969C331.543 140.904 330.968 140.836 330.397 140.762ZM481.374 140.762C481.944 140.836 482.52 140.904 483.1 140.969C482.52 140.904 481.944 140.836 481.374 140.762ZM361.814 140.676H361.815H361.814ZM512.791 140.676H512.792H512.791ZM329.353 140.62C329.439 140.632 329.525 140.643 329.611 140.655C329.525 140.643 329.439 140.632 329.353 140.62ZM480.329 140.62C480.415 140.632 480.502 140.643 480.588 140.655C480.502 140.643 480.415 140.632 480.329 140.62ZM68.2529 88.5791L68.2607 88.6006C69.6837 93.1281 71.0218 97.6564 72.2783 102.185C73.4838 97.6486 74.8238 93.1198 76.2441 88.6006L76.248 88.5898L76.251 88.5791L104.103 3.40039H143.705L99.2061 140.4H44.499L0 3.40039H40.4023L68.2529 88.5791ZM275.916 140.4H236.293L227.692 115.4H173.535L164.735 140.4H125.323L172.089 3.40039H229.15L275.916 140.4ZM712.439 140.4H672.816L664.216 115.4H610.059L601.259 140.4H561.847L608.612 3.40039H665.674L712.439 140.4ZM794.732 3.40039C810.057 3.40046 821.733 7.33513 829.604 14.2754C837.504 21.241 841.332 31.0254 841.332 42.2002C841.332 59.5046 831.666 71.9776 817.778 77.3555C822.287 78.9536 826.448 81.2245 829.813 84.5537C834.887 89.5728 837.932 96.7719 837.932 107V114.4L837.945 116.329C838.061 124.441 838.909 129.449 839.987 135.276L840.935 140.4H801.438L801.015 138.969C799.332 133.29 798.532 125.459 798.532 114.4V109C798.532 103.048 796.642 98.9391 793.676 96.293C790.673 93.6138 786.303 92.2002 780.932 92.2002H758.732V140.4H719.132V3.40039H794.732ZM966.251 35.2002H895.051V55.8008H960.251V85.6006H895.051V108.601H966.851V140.4H855.851V3.40039H966.251V35.2002ZM1099.26 34.0059L1027.56 108.601H1099.86V140.4H975.26V109.798L1046.58 35.2002H977.26V3.40039H1099.26V34.0059ZM1229.92 34.0059L1158.22 108.601H1230.52V140.4H1105.92V109.798L1177.25 35.2002H1107.92V3.40039H1229.92V34.0059ZM1381.38 140.4H1341.76L1333.16 115.4H1279L1270.2 140.4H1230.79L1277.56 3.40039H1334.62L1381.38 140.4ZM326.199 140.117C326.73 140.212 327.266 140.301 327.806 140.387C327.266 140.301 326.73 140.212 326.199 140.117ZM477.176 140.117C477.707 140.212 478.242 140.301 478.782 140.387C478.242 140.301 477.707 140.212 477.176 140.117ZM325.173 139.927C325.415 139.973 325.658 140.018 325.902 140.062C325.658 140.018 325.415 139.973 325.173 139.927ZM476.149 139.927C476.392 139.973 476.635 140.018 476.879 140.062C476.635 140.018 476.392 139.973 476.149 139.927ZM324.179 139.731C324.445 139.786 324.713 139.838 324.981 139.89C324.713 139.838 324.445 139.786 324.179 139.731ZM475.155 139.731C475.422 139.786 475.689 139.838 475.958 139.89C475.689 139.838 475.422 139.786 475.155 139.731ZM370.034 139.418C369.456 139.531 368.871 139.64 368.279 139.744C368.871 139.64 369.456 139.531 370.034 139.418ZM521.011 139.418C520.433 139.531 519.848 139.64 519.256 139.744C519.848 139.64 520.433 139.531 521.011 139.418ZM323.213 139.528C323.433 139.576 323.655 139.622 323.877 139.668C323.655 139.622 323.433 139.576 323.213 139.528ZM474.189 139.528C474.41 139.576 474.631 139.622 474.854 139.668C474.631 139.622 474.41 139.576 474.189 139.528ZM322.235 139.311C322.394 139.347 322.554 139.382 322.714 139.418C322.554 139.382 322.394 139.347 322.235 139.311ZM473.212 139.311C473.371 139.347 473.531 139.382 473.69 139.418C473.531 139.382 473.371 139.347 473.212 139.311ZM321.224 139.071C321.444 139.125 321.665 139.177 321.887 139.229C321.665 139.177 321.444 139.125 321.224 139.071ZM472.2 139.071C472.42 139.125 472.641 139.177 472.863 139.229C472.641 139.177 472.42 139.125 472.2 139.071ZM320.315 138.844C320.544 138.902 320.774 138.96 321.005 139.017C320.774 138.96 320.544 138.902 320.315 138.844ZM471.292 138.844C471.521 138.902 471.751 138.96 471.981 139.017C471.751 138.96 471.521 138.902 471.292 138.844ZM319.354 138.591C319.525 138.637 319.696 138.682 319.867 138.727C319.696 138.682 319.525 138.637 319.354 138.591ZM470.331 138.591C470.501 138.637 470.672 138.682 470.844 138.727C470.672 138.682 470.501 138.637 470.331 138.591ZM318.415 138.331C318.597 138.383 318.78 138.433 318.963 138.483C318.78 138.433 318.597 138.383 318.415 138.331ZM469.392 138.331C469.574 138.383 469.756 138.433 469.939 138.483C469.756 138.433 469.574 138.383 469.392 138.331ZM317.483 138.06C317.682 138.119 317.882 138.176 318.082 138.234C317.882 138.176 317.682 138.119 317.483 138.06ZM468.46 138.06C468.659 138.119 468.858 138.176 469.059 138.234C468.858 138.176 468.659 138.119 468.46 138.06ZM376.656 137.84C376.393 137.915 376.129 137.989 375.863 138.062C376.396 137.916 376.921 137.766 377.44 137.611L376.656 137.84ZM527.633 137.84C527.37 137.915 527.106 137.989 526.84 138.062C527.372 137.916 527.898 137.766 528.417 137.611L527.633 137.84ZM316.687 137.818C316.847 137.868 317.008 137.916 317.17 137.965C316.949 137.898 316.728 137.831 316.509 137.762L316.687 137.818ZM467.663 137.818C467.824 137.868 467.985 137.916 468.146 137.965C467.925 137.898 467.705 137.831 467.485 137.762L467.663 137.818ZM315.698 137.502C315.96 137.588 316.223 137.672 316.487 137.755C316.223 137.672 315.96 137.588 315.698 137.502ZM466.675 137.502C466.936 137.588 467.199 137.672 467.464 137.755C467.199 137.672 466.936 137.588 466.675 137.502ZM802.658 137.429C802.672 137.481 802.688 137.533 802.702 137.585C802.682 137.511 802.661 137.436 802.642 137.361L802.658 137.429ZM314.774 137.192C314.941 137.249 315.108 137.305 315.275 137.361C315.108 137.305 314.941 137.249 314.774 137.192ZM465.751 137.192C465.917 137.249 466.084 137.305 466.252 137.361C466.084 137.305 465.917 137.249 465.751 137.192ZM313.872 136.876C314.066 136.945 314.261 137.014 314.456 137.082C314.261 137.014 314.066 136.945 313.872 136.876ZM464.849 136.876C465.043 136.945 465.237 137.014 465.433 137.082C465.237 137.014 465.043 136.945 464.849 136.876ZM313.065 136.582C313.238 136.646 313.411 136.709 313.585 136.772C313.411 136.709 313.238 136.646 313.065 136.582ZM464.042 136.582C464.214 136.646 464.388 136.709 464.562 136.772C464.388 136.709 464.214 136.646 464.042 136.582ZM312.19 136.249C312.292 136.288 312.393 136.327 312.495 136.366C312.393 136.327 312.292 136.288 312.19 136.249ZM463.167 136.249C463.268 136.288 463.37 136.327 463.472 136.366C463.37 136.327 463.268 136.288 463.167 136.249ZM384.754 134.945H384.755H384.754ZM535.73 134.945H535.731H535.73ZM311.322 135.905C311.481 135.969 311.64 136.032 311.8 136.095C311.64 136.032 311.481 135.969 311.322 135.905ZM462.299 135.905C462.457 135.969 462.617 136.032 462.776 136.095C462.617 136.032 462.457 135.969 462.299 135.905ZM310.489 135.562C310.654 135.632 310.82 135.699 310.985 135.768C310.82 135.699 310.654 135.632 310.489 135.562ZM461.466 135.562C461.63 135.632 461.796 135.699 461.962 135.768C461.796 135.699 461.63 135.632 461.466 135.562ZM309.624 135.19C309.803 135.269 309.983 135.346 310.163 135.423C309.983 135.346 309.803 135.269 309.624 135.19ZM460.601 135.19C460.779 135.269 460.959 135.346 461.14 135.423C460.959 135.346 460.779 135.269 460.601 135.19ZM308.866 134.853C308.987 134.907 309.108 134.961 309.229 135.016C309.108 134.961 308.987 134.907 308.866 134.853ZM459.843 134.853C459.963 134.907 460.085 134.961 460.206 135.016C460.085 134.961 459.963 134.907 459.843 134.853ZM801.899 134.007C801.946 134.261 801.996 134.512 802.045 134.759C801.996 134.512 801.946 134.261 801.899 134.007ZM308.043 134.473C308.178 134.536 308.314 134.598 308.45 134.661C308.314 134.598 308.178 134.536 308.043 134.473ZM459.02 134.473C459.155 134.536 459.291 134.598 459.427 134.661C459.291 134.598 459.155 134.536 459.02 134.473ZM307.229 134.082C307.371 134.152 307.515 134.22 307.658 134.289C307.515 134.22 307.371 134.152 307.229 134.082ZM458.205 134.082C458.348 134.152 458.491 134.22 458.635 134.289C458.491 134.22 458.348 134.152 458.205 134.082ZM306.417 133.678C306.594 133.767 306.771 133.856 306.949 133.944C306.771 133.856 306.594 133.767 306.417 133.678ZM457.394 133.678C457.57 133.767 457.748 133.856 457.926 133.944C457.748 133.856 457.57 133.767 457.394 133.678ZM305.635 133.273C305.816 133.369 305.998 133.464 306.182 133.558C305.998 133.464 305.816 133.369 305.635 133.273ZM456.611 133.273C456.793 133.369 456.975 133.464 457.158 133.558C456.975 133.464 456.793 133.369 456.611 133.273ZM801.698 132.845C801.737 133.086 801.778 133.323 801.819 133.558C801.778 133.323 801.737 133.086 801.698 132.845ZM304.92 132.893C305.062 132.97 305.205 133.046 305.349 133.122C305.205 133.046 305.062 132.97 304.92 132.893ZM455.896 132.893C456.039 132.97 456.182 133.046 456.325 133.122C456.182 133.046 456.039 132.97 455.896 132.893ZM304.124 132.452C304.277 132.538 304.43 132.623 304.584 132.708C304.43 132.623 304.277 132.538 304.124 132.452ZM455.101 132.452C455.253 132.538 455.407 132.623 455.561 132.708C455.407 132.623 455.253 132.538 455.101 132.452ZM801.5 131.538C801.536 131.79 801.573 132.038 801.61 132.283C801.573 132.038 801.536 131.79 801.5 131.538ZM303.45 132.067C303.566 132.135 303.683 132.201 303.8 132.268C303.683 132.201 303.566 132.135 303.45 132.067ZM454.427 132.067C454.543 132.135 454.66 132.201 454.776 132.268C454.66 132.201 454.543 132.135 454.427 132.067ZM302.67 131.607C302.791 131.68 302.912 131.751 303.033 131.823C302.912 131.751 302.791 131.68 302.67 131.607ZM453.646 131.607C453.767 131.68 453.888 131.751 454.01 131.823C453.888 131.751 453.767 131.68 453.646 131.607ZM301.983 131.188C302.087 131.253 302.192 131.316 302.296 131.38C302.192 131.316 302.087 131.253 301.983 131.188ZM452.96 131.188C453.064 131.253 453.168 131.316 453.272 131.38C453.168 131.316 453.064 131.253 452.96 131.188ZM801.322 130.189C801.358 130.48 801.395 130.766 801.433 131.049C801.395 130.766 801.358 130.48 801.322 130.189ZM301.221 130.707C301.336 130.781 301.452 130.854 301.567 130.927C301.452 130.854 301.336 130.781 301.221 130.707ZM452.197 130.707C452.312 130.781 452.428 130.854 452.544 130.927C452.428 130.854 452.312 130.781 452.197 130.707ZM300.497 130.234C300.638 130.328 300.78 130.421 300.922 130.514C300.78 130.421 300.638 130.328 300.497 130.234ZM451.474 130.234C451.615 130.328 451.756 130.421 451.898 130.514C451.756 130.421 451.615 130.328 451.474 130.234ZM299.832 129.788C299.967 129.881 300.104 129.972 300.24 130.063C300.104 129.972 299.967 129.881 299.832 129.788ZM450.809 129.788C450.944 129.881 451.08 129.972 451.217 130.063C451.08 129.972 450.944 129.881 450.809 129.788ZM299.156 129.319C299.272 129.401 299.388 129.481 299.504 129.562C299.388 129.481 299.272 129.401 299.156 129.319ZM450.133 129.319C450.248 129.401 450.364 129.481 450.48 129.562C450.364 129.481 450.248 129.401 450.133 129.319ZM801.161 128.767C801.189 129.035 801.218 129.3 801.248 129.562C801.218 129.3 801.189 129.035 801.161 128.767ZM298.439 128.806C298.564 128.896 298.688 128.986 298.813 129.075C298.688 128.986 298.564 128.896 298.439 128.806ZM449.416 128.806C449.54 128.896 449.665 128.986 449.79 129.075C449.665 128.986 449.54 128.896 449.416 128.806ZM297.806 128.337C297.929 128.43 298.054 128.522 298.179 128.614C298.054 128.522 297.929 128.43 297.806 128.337ZM448.782 128.337C448.906 128.43 449.03 128.522 449.155 128.614C449.03 128.522 448.906 128.43 448.782 128.337ZM801.022 127.328C801.05 127.637 801.078 127.942 801.107 128.243C801.078 127.942 801.05 127.637 801.022 127.328ZM297.147 127.835C297.261 127.923 297.375 128.011 297.49 128.099C297.375 128.011 297.261 127.923 297.147 127.835ZM448.124 127.835C448.238 127.923 448.352 128.011 448.467 128.099C448.352 128.011 448.238 127.923 448.124 127.835ZM296.494 127.321C296.611 127.415 296.729 127.508 296.847 127.601C296.729 127.508 296.611 127.415 296.494 127.321ZM447.471 127.321C447.588 127.415 447.705 127.508 447.823 127.601C447.705 127.508 447.588 127.415 447.471 127.321ZM398.16 126.078C397.837 126.392 397.508 126.7 397.174 127.004C397.508 126.7 397.837 126.392 398.16 126.078ZM549.137 126.078C548.814 126.392 548.485 126.7 548.15 127.004C548.485 126.7 548.813 126.392 549.137 126.078ZM295.862 126.81C295.976 126.903 296.091 126.997 296.206 127.09C296.091 126.997 295.976 126.903 295.862 126.81ZM446.839 126.81C446.953 126.903 447.068 126.997 447.183 127.09C447.068 126.997 446.953 126.903 446.839 126.81ZM800.906 125.885C800.926 126.146 800.945 126.404 800.966 126.659C800.945 126.404 800.926 126.146 800.906 125.885ZM295.249 126.299C295.356 126.389 295.463 126.479 295.571 126.569C295.463 126.479 295.356 126.389 295.249 126.299ZM446.226 126.299C446.333 126.389 446.44 126.479 446.548 126.569C446.44 126.479 446.333 126.389 446.226 126.299ZM294.59 125.732C294.708 125.835 294.826 125.938 294.945 126.04C294.826 125.938 294.708 125.835 294.59 125.732ZM445.566 125.732C445.684 125.835 445.803 125.938 445.922 126.04C445.803 125.938 445.684 125.835 445.566 125.732ZM294.013 125.22C294.125 125.321 294.238 125.422 294.352 125.522C294.238 125.422 294.125 125.321 294.013 125.22ZM444.989 125.22C445.102 125.321 445.215 125.422 445.328 125.522C445.215 125.422 445.102 125.321 444.989 125.22ZM800.79 124.135C800.809 124.465 800.829 124.791 800.851 125.113C800.829 124.791 800.809 124.465 800.79 124.135ZM293.368 124.632C293.498 124.752 293.628 124.871 293.759 124.99C293.628 124.871 293.498 124.752 293.368 124.632ZM444.345 124.632C444.474 124.752 444.605 124.871 444.735 124.99C444.605 124.871 444.474 124.752 444.345 124.632ZM292.79 124.087C292.92 124.212 293.052 124.335 293.184 124.459C293.052 124.335 292.92 124.212 292.79 124.087ZM443.767 124.087C443.897 124.212 444.028 124.335 444.16 124.459C444.028 124.335 443.897 124.212 443.767 124.087ZM292.247 123.562C292.347 123.659 292.447 123.756 292.547 123.854C292.447 123.756 292.347 123.659 292.247 123.562ZM443.224 123.562C443.323 123.659 443.423 123.756 443.523 123.854C443.423 123.756 443.323 123.659 443.224 123.562ZM800.695 122.299C800.715 122.74 800.736 123.174 800.759 123.602C800.736 123.174 800.715 122.74 800.695 122.299ZM291.673 122.989C291.771 123.088 291.869 123.187 291.968 123.285C291.869 123.187 291.771 123.088 291.673 122.989ZM442.649 122.989C442.747 123.088 442.846 123.187 442.944 123.285C442.846 123.187 442.747 123.088 442.649 122.989ZM291.161 122.465C291.237 122.544 291.313 122.622 291.39 122.7C291.313 122.622 291.237 122.544 291.161 122.465ZM442.138 122.465C442.214 122.544 442.29 122.622 442.366 122.7C442.29 122.622 442.214 122.544 442.138 122.465ZM290.571 121.843C290.654 121.931 290.736 122.019 290.819 122.106C290.736 122.019 290.654 121.931 290.571 121.843ZM441.548 121.843C441.63 121.931 441.713 122.019 441.796 122.106C441.713 122.019 441.63 121.931 441.548 121.843ZM800.638 120.846C800.65 121.189 800.661 121.529 800.675 121.864C800.661 121.529 800.65 121.189 800.638 120.846ZM289.99 121.211C290.107 121.34 290.225 121.469 290.343 121.597C290.225 121.469 290.107 121.34 289.99 121.211ZM440.967 121.211C441.084 121.34 441.201 121.469 441.319 121.597C441.201 121.469 441.084 121.34 440.967 121.211ZM289.498 120.66C289.605 120.782 289.713 120.902 289.821 121.022C289.713 120.902 289.605 120.782 289.498 120.66ZM440.475 120.66C440.582 120.782 440.69 120.902 440.798 121.022C440.69 120.902 440.582 120.782 440.475 120.66ZM403.79 119.315C403.535 119.696 403.275 120.071 403.01 120.44C403.275 120.071 403.535 119.696 403.79 119.315ZM554.767 119.315C554.512 119.696 554.251 120.071 553.986 120.44C554.251 120.071 554.512 119.696 554.767 119.315ZM289 120.086C289.058 120.153 289.116 120.221 289.174 120.288C289.116 120.221 289.058 120.153 289 120.086ZM439.977 120.086C440.034 120.153 440.092 120.221 440.15 120.288C440.092 120.221 440.034 120.153 439.977 120.086ZM800.541 116.423C800.553 117.702 800.577 118.933 800.612 120.117C800.577 118.933 800.553 117.702 800.541 116.423ZM288.396 119.369C288.518 119.517 288.641 119.665 288.766 119.812C288.641 119.665 288.518 119.517 288.396 119.369ZM439.372 119.369C439.495 119.517 439.618 119.665 439.742 119.812C439.618 119.665 439.495 119.517 439.372 119.369ZM287.951 118.826C288.056 118.956 288.162 119.086 288.269 119.215C288.162 119.086 288.056 118.956 287.951 118.826ZM438.928 118.826C439.033 118.956 439.139 119.086 439.245 119.215C439.139 119.086 439.033 118.956 438.928 118.826ZM835.986 118.221C835.992 118.396 836 118.569 836.006 118.741C835.999 118.532 835.99 118.321 835.983 118.107L835.986 118.221ZM287.522 118.288C287.583 118.365 287.644 118.442 287.705 118.519C287.644 118.442 287.583 118.365 287.522 118.288ZM438.499 118.288C438.56 118.365 438.621 118.442 438.682 118.519C438.621 118.442 438.56 118.365 438.499 118.288ZM286.981 117.59C287.056 117.688 287.132 117.786 287.207 117.884C287.132 117.786 287.056 117.688 286.981 117.59ZM437.958 117.59C438.033 117.688 438.108 117.786 438.184 117.884C438.108 117.786 438.033 117.688 437.958 117.59ZM286.518 116.972C286.603 117.087 286.689 117.203 286.775 117.317C286.689 117.203 286.603 117.087 286.518 116.972ZM437.494 116.972C437.58 117.087 437.665 117.203 437.752 117.317C437.665 117.203 437.58 117.087 437.494 116.972ZM286.109 116.414C286.154 116.476 286.199 116.538 286.244 116.6C286.199 116.538 286.154 116.476 286.109 116.414ZM437.086 116.414C437.131 116.476 437.176 116.538 437.221 116.6C437.176 116.538 437.131 116.476 437.086 116.414ZM285.615 115.719C285.671 115.798 285.725 115.877 285.781 115.956C285.725 115.877 285.671 115.798 285.615 115.719ZM436.592 115.719C436.647 115.798 436.702 115.877 436.758 115.956C436.702 115.877 436.647 115.798 436.592 115.719ZM285.153 115.05C285.225 115.155 285.297 115.26 285.369 115.364C285.297 115.26 285.225 115.155 285.153 115.05ZM436.13 115.05C436.201 115.155 436.274 115.26 436.346 115.364C436.274 115.26 436.201 115.155 436.13 115.05ZM284.649 114.295C284.743 114.438 284.838 114.581 284.933 114.723C284.838 114.581 284.743 114.438 284.649 114.295ZM435.626 114.295C435.72 114.438 435.814 114.581 435.909 114.723C435.814 114.581 435.72 114.438 435.626 114.295ZM284.223 113.635C284.325 113.796 284.428 113.956 284.532 114.116C284.428 113.956 284.325 113.796 284.223 113.635ZM435.199 113.635C435.302 113.796 435.405 113.956 435.509 114.116C435.405 113.956 435.302 113.796 435.199 113.635ZM283.806 112.972C283.895 113.115 283.984 113.259 284.074 113.401C283.984 113.259 283.895 113.115 283.806 112.972ZM434.782 112.972C434.871 113.115 434.961 113.259 435.051 113.401C434.961 113.259 434.871 113.115 434.782 112.972ZM407.547 112.567H407.548H407.547ZM558.523 112.567H558.524H558.523ZM348.04 112.883C346.669 112.961 345.241 113 343.754 113C342.736 113 341.745 112.973 340.778 112.923C341.745 112.973 342.736 113.001 343.754 113.001C345.241 113.001 346.669 112.961 348.04 112.883ZM499.017 112.883C497.646 112.961 496.218 113 494.73 113C493.713 113 492.721 112.973 491.755 112.923C492.721 112.973 493.713 113.001 494.73 113.001C496.218 113.001 497.646 112.961 499.017 112.883ZM337.846 112.684C338.707 112.78 339.59 112.857 340.496 112.909C339.59 112.857 338.707 112.78 337.846 112.684ZM488.822 112.684C489.683 112.78 490.567 112.857 491.473 112.909C490.567 112.857 489.683 112.78 488.822 112.684ZM366.933 107.309C366.557 107.578 366.169 107.838 365.771 108.089C364.773 108.716 363.702 109.283 362.555 109.791C361.178 110.4 359.69 110.923 358.086 111.359C357.819 111.432 357.548 111.502 357.274 111.57C356.179 111.842 355.03 112.075 353.827 112.27C352.925 112.415 351.992 112.539 351.028 112.642V112.643C357.778 111.927 362.985 110.142 366.933 107.309ZM517.909 107.309C517.533 107.578 517.146 107.838 516.747 108.089C515.749 108.716 514.679 109.283 513.531 109.791C512.154 110.4 510.667 110.923 509.062 111.359C508.795 111.432 508.525 111.502 508.251 111.57C507.155 111.842 506.007 112.075 504.804 112.27C503.902 112.415 502.969 112.539 502.005 112.642V112.643C508.754 111.927 513.961 110.142 517.909 107.309ZM283.425 112.347C283.492 112.459 283.56 112.572 283.628 112.684C283.56 112.572 283.492 112.459 283.425 112.347ZM434.401 112.347C434.469 112.459 434.536 112.572 434.604 112.684C434.536 112.572 434.469 112.459 434.401 112.347ZM282.968 111.575C283.055 111.725 283.142 111.874 283.23 112.022C283.142 111.874 283.055 111.725 282.968 111.575ZM433.944 111.575C434.031 111.725 434.119 111.874 434.207 112.022C434.119 111.874 434.031 111.725 433.944 111.575ZM282.656 111.032C282.702 111.114 282.748 111.195 282.795 111.276C282.748 111.195 282.702 111.114 282.656 111.032ZM433.633 111.032C433.679 111.114 433.725 111.195 433.771 111.276C433.725 111.195 433.679 111.114 433.633 111.032ZM281.847 109.562C281.921 109.702 281.997 109.841 282.072 109.98C281.997 109.841 281.921 109.702 281.847 109.562ZM432.823 109.562C432.898 109.702 432.973 109.841 433.049 109.98C432.973 109.841 432.898 109.702 432.823 109.562ZM281.425 108.754C281.523 108.945 281.622 109.135 281.722 109.325C281.622 109.135 281.523 108.945 281.425 108.754ZM432.401 108.754C432.499 108.945 432.598 109.135 432.698 109.325C432.598 109.135 432.499 108.945 432.401 108.754ZM281.126 108.164C281.197 108.306 281.268 108.448 281.34 108.589C281.268 108.448 281.197 108.306 281.126 108.164ZM280.706 107.309C280.792 107.487 280.878 107.665 280.966 107.842C280.878 107.665 280.792 107.487 280.706 107.309ZM431.683 107.309C431.768 107.487 431.855 107.665 431.942 107.842C431.855 107.665 431.768 107.487 431.683 107.309ZM280.431 106.73C280.508 106.895 280.586 107.059 280.664 107.223C280.586 107.059 280.508 106.895 280.431 106.73ZM431.407 106.73C431.484 106.895 431.562 107.059 431.641 107.223C431.562 107.059 431.484 106.895 431.407 106.73ZM71.5283 107.055C71.3611 106.425 71.193 105.796 71.0225 105.166C71.193 105.796 71.3611 106.425 71.5283 107.055ZM280.077 105.963C280.141 106.104 280.205 106.246 280.271 106.387C280.205 106.246 280.141 106.104 280.077 105.963ZM431.055 105.966C431.118 106.106 431.182 106.247 431.247 106.387C431.182 106.247 431.118 106.106 431.055 105.966ZM279.776 105.29C279.839 105.433 279.902 105.575 279.966 105.717C279.902 105.575 279.839 105.433 279.776 105.29ZM430.753 105.29C430.816 105.433 430.879 105.575 430.942 105.717C430.879 105.575 430.816 105.433 430.753 105.29ZM370.015 104.623C369.705 104.95 369.385 105.267 369.054 105.575C369.385 105.267 369.705 104.95 370.015 104.623ZM520.991 104.623C520.682 104.95 520.362 105.267 520.03 105.575C520.362 105.267 520.682 104.95 520.991 104.623ZM279.444 104.521C279.505 104.663 279.565 104.806 279.627 104.948C279.565 104.806 279.505 104.663 279.444 104.521ZM430.421 104.521C430.482 104.663 430.542 104.806 430.604 104.948C430.542 104.806 430.482 104.663 430.421 104.521ZM279.278 104.13C279.302 104.187 279.327 104.244 279.352 104.302C279.256 104.075 279.162 103.849 279.069 103.621L279.278 104.13ZM430.255 104.13C430.279 104.187 430.304 104.244 430.328 104.302C430.233 104.075 430.139 103.849 430.046 103.621L430.255 104.13ZM70.7324 104.104C70.6119 103.664 70.4913 103.224 70.3691 102.783C70.4913 103.224 70.6119 103.664 70.7324 104.104ZM278.833 103.031C278.908 103.221 278.984 103.411 279.061 103.601C278.984 103.411 278.908 103.221 278.833 103.031ZM429.81 103.031C429.885 103.221 429.96 103.411 430.037 103.601C429.96 103.411 429.885 103.221 429.81 103.031ZM372.52 101.428V101.429V101.428ZM523.496 101.428V101.429V101.428ZM278.242 101.488C278.301 101.648 278.361 101.808 278.421 101.967C278.361 101.808 278.301 101.648 278.242 101.488ZM429.222 101.495C429.28 101.653 429.338 101.81 429.397 101.967C429.338 101.81 429.28 101.653 429.222 101.495ZM70.0273 101.561C69.8929 101.081 69.7575 100.602 69.6211 100.123C69.7574 100.602 69.8929 101.081 70.0273 101.561ZM277.755 100.123C277.889 100.511 278.026 100.898 278.167 101.283C278.026 100.898 277.889 100.511 277.755 100.123ZM428.731 100.123C428.866 100.511 429.003 100.898 429.144 101.283C429.003 100.898 428.866 100.511 428.731 100.123ZM69.3613 99.2139C69.2284 98.751 69.0946 98.2881 68.96 97.8252C69.0946 98.2881 69.2285 98.751 69.3613 99.2139ZM428.162 98.4033C428.227 98.6078 428.292 98.812 428.358 99.0156C428.292 98.812 428.227 98.6078 428.162 98.4033ZM277.186 98.4033C277.247 98.5983 277.31 98.7931 277.373 98.9873C277.31 98.7931 277.247 98.5983 277.186 98.4033ZM427.976 97.8066C428.02 97.9523 428.066 98.0979 428.111 98.2432C428.066 98.0979 428.02 97.9523 427.976 97.8066ZM276.999 97.8066C277.042 97.9455 277.084 98.0842 277.128 98.2227C277.084 98.0842 277.042 97.9455 276.999 97.8066ZM412.846 94.458C412.702 95.3121 412.548 96.1535 412.386 96.9824C412.548 96.1538 412.702 95.3128 412.846 94.459V94.458ZM563.822 94.458C563.678 95.3121 563.525 96.1535 563.362 96.9824C563.525 96.1538 563.678 95.3128 563.822 94.459V94.458ZM427.457 96.0459C427.521 96.2732 427.585 96.5002 427.651 96.7266C427.585 96.5002 427.521 96.2732 427.457 96.0459ZM276.48 96.0459C276.541 96.2628 276.603 96.4793 276.666 96.6953C276.603 96.4793 276.541 96.2628 276.48 96.0459ZM68.5967 96.5801C68.4438 96.0605 68.2889 95.5411 68.1338 95.0215C68.2889 95.5411 68.4438 96.0605 68.5967 96.5801ZM67.876 94.1562C67.6423 93.3793 67.4066 92.6022 67.168 91.8252C67.4066 92.6022 67.6423 93.3793 67.876 94.1562ZM793.639 93.7129H793.638H793.639ZM275.892 93.8203C275.874 93.7477 275.855 93.6752 275.837 93.6025C275.855 93.6752 275.874 93.7477 275.892 93.8203ZM426.868 93.8203C426.85 93.7477 426.831 93.6752 426.813 93.6025C426.831 93.6752 426.85 93.7477 426.868 93.8203ZM275.611 92.6582C275.634 92.7557 275.658 92.8529 275.681 92.9502C275.607 92.6391 275.535 92.3273 275.465 92.0146L275.611 92.6582ZM426.588 92.6582C426.611 92.7557 426.634 92.8529 426.657 92.9502C426.584 92.6391 426.511 92.3273 426.441 92.0146L426.588 92.6582ZM413.604 89.1826C413.531 89.7859 413.455 90.3836 413.375 90.9756C413.455 90.3839 413.531 89.7866 413.604 89.1836V89.1826ZM564.58 89.1826C564.508 89.7859 564.432 90.3836 564.352 90.9756C564.432 90.3839 564.508 89.7866 564.58 89.1836V89.1826ZM275.317 91.3428C275.363 91.5573 275.41 91.7715 275.458 91.9854C275.41 91.7715 275.363 91.5573 275.317 91.3428ZM426.294 91.3428C426.34 91.5573 426.387 91.7715 426.435 91.9854C426.387 91.7715 426.34 91.5573 426.294 91.3428ZM789.68 91.6416C789.967 91.7491 790.251 91.8627 790.529 91.9824C790.251 91.8627 789.967 91.7491 789.68 91.6416ZM275.153 90.5586C275.195 90.761 275.236 90.9632 275.279 91.165C275.236 90.9632 275.195 90.761 275.153 90.5586ZM426.13 90.5586C426.171 90.761 426.213 90.9632 426.256 91.165C426.213 90.9632 426.171 90.761 426.13 90.5586ZM274.828 88.8809C274.916 89.359 275.007 89.8356 275.103 90.3105C275.007 89.8356 274.916 89.359 274.828 88.8809ZM425.805 88.8809C425.892 89.359 425.984 89.8356 426.079 90.3105C425.984 89.8356 425.892 89.359 425.805 88.8809ZM783.031 90.2705H783.03H783.031ZM274.409 86.3809C274.53 87.1755 274.662 87.9663 274.805 88.7529C274.662 87.9663 274.53 87.1755 274.409 86.3809ZM425.486 87.0303C425.579 87.6067 425.677 88.1808 425.781 88.7529C425.635 87.9476 425.5 87.1379 425.377 86.3242L425.486 87.0303ZM274.09 84.0791C274.145 84.5176 274.202 84.9552 274.264 85.3916C274.202 84.9552 274.145 84.5176 274.09 84.0791ZM377.482 84.5029H377.483H377.482ZM425.066 84.0791C425.121 84.5176 425.179 84.9552 425.24 85.3916C425.179 84.9552 425.121 84.5176 425.066 84.0791ZM528.459 84.5029H528.46H528.459ZM183.92 84.8008H217.311L200.528 36.3389L183.92 84.8008ZM620.443 84.8008H653.834L637.052 36.3389L620.443 84.8008ZM1289.39 84.8008H1322.78L1306 36.3389L1289.39 84.8008ZM310.875 83.7012C310.898 83.869 310.923 84.0358 310.947 84.2021C310.916 83.9858 310.885 83.7685 310.855 83.5498L310.875 83.7012ZM461.852 83.7012C461.874 83.869 461.9 84.0358 461.924 84.2021C461.893 83.9858 461.861 83.7685 461.832 83.5498L461.852 83.7012ZM310.723 82.4971C310.761 82.8189 310.801 83.1382 310.843 83.4551C310.801 83.1382 310.761 82.8189 310.723 82.4971ZM461.699 82.4971C461.737 82.8189 461.777 83.1382 461.819 83.4551C461.777 83.1382 461.737 82.8189 461.699 82.4971ZM273.848 81.9492C273.879 82.2583 273.912 82.5669 273.946 82.875C273.912 82.5669 273.879 82.2583 273.848 81.9492ZM424.824 81.9492C424.856 82.2583 424.888 82.5669 424.923 82.875C424.888 82.5669 424.856 82.2583 424.824 81.9492ZM310.332 78.0898C310.337 78.1694 310.344 78.2488 310.349 78.3281C310.342 78.2248 310.334 78.1213 310.328 78.0176L310.332 78.0898ZM461.309 78.0898C461.313 78.1694 461.32 78.2488 461.325 78.3281C461.319 78.2248 461.311 78.1213 461.305 78.0176L461.309 78.0898ZM273.472 76.9014C273.448 76.4058 273.426 75.9094 273.409 75.4121C273.426 75.9094 273.448 76.4058 273.472 76.9014ZM424.446 76.8545C424.423 76.3745 424.402 75.8937 424.386 75.4121C424.402 75.8937 424.423 76.3745 424.446 76.8545ZM273.646 64.5195C273.58 65.3462 273.526 66.1748 273.482 67.0049C273.396 68.665 273.354 70.3312 273.354 72C273.354 72.8969 273.368 73.7915 273.392 74.6836C273.368 73.7918 273.354 72.8975 273.354 72.001C273.354 69.4976 273.449 66.9995 273.646 64.5195ZM424.622 64.5195C424.557 65.3462 424.502 66.1748 424.459 67.0049C424.372 68.665 424.33 70.3312 424.33 72C424.33 72.8969 424.345 73.7915 424.368 74.6836C424.345 73.7918 424.33 72.8975 424.33 72.001C424.33 69.4976 424.426 66.9995 424.622 64.5195ZM821.378 73.502C821.599 73.3826 821.818 73.2612 822.035 73.1377C821.818 73.2612 821.599 73.3826 821.378 73.502ZM310.531 63.498C310.314 65.7876 310.193 68.1968 310.162 70.7256C310.172 69.8825 310.193 69.0528 310.224 68.2363C310.27 67.0117 310.339 65.8171 310.432 64.6523C310.494 63.876 310.566 63.113 310.648 62.3633L310.531 63.498ZM461.508 63.498C461.291 65.7876 461.169 68.1968 461.139 70.7256C461.149 69.8825 461.169 69.0528 461.2 68.2363C461.246 67.0117 461.315 65.8171 461.408 64.6523C461.47 63.876 461.542 63.113 461.625 62.3633L461.508 63.498ZM786.92 64.9668C786.405 64.989 785.876 65 785.332 65C785.876 65 786.405 64.989 786.92 64.9668ZM274.976 54.7217C274.452 57.4025 274.06 60.124 273.792 62.8701C274.06 60.124 274.452 57.4025 274.976 54.7217ZM425.952 54.7217C425.428 57.4025 425.036 60.124 424.769 62.8701C425.036 60.124 425.428 57.4025 425.952 54.7217ZM758.732 63H785.332C791.168 63 794.837 61.6575 797.08 59.374C799.33 57.0838 800.532 53.4554 800.532 48C800.532 43.1093 799.312 39.8421 797.09 37.7598C794.98 35.7833 791.636 34.5602 786.568 34.415L785.532 34.4004H758.732V63ZM797.499 61.6826C797.562 61.6325 797.625 61.5835 797.687 61.5322L797.704 61.5166C797.637 61.573 797.568 61.6276 797.499 61.6826ZM376.708 55.417C376.831 56.24 376.937 57.0816 377.029 57.9414C376.937 57.0816 376.831 56.24 376.708 55.417ZM527.685 55.417C527.807 56.24 527.914 57.0816 528.006 57.9414C527.914 57.0816 527.807 56.24 527.685 55.417ZM312.107 54.1992C311.972 54.7242 311.844 55.2581 311.723 55.8008C311.844 55.2582 311.972 54.7242 312.107 54.1992ZM463.084 54.1992C462.948 54.7242 462.82 55.2581 462.699 55.8008C462.82 55.2582 462.948 54.7242 463.084 54.1992ZM376.313 53.1182C376.4 53.5598 376.481 54.0075 376.557 54.4609C376.481 54.0075 376.4 53.5599 376.313 53.1182ZM527.29 53.1182C527.376 53.5598 527.457 54.0075 527.533 54.4609C527.457 54.0075 527.376 53.5599 527.29 53.1182ZM275.306 53.1191V53.1182V53.1191ZM426.282 53.1191V53.1182V53.1191ZM412.681 52.5938C412.67 52.5094 412.66 52.425 412.648 52.3408C412.66 52.425 412.67 52.5094 412.681 52.5938ZM563.657 52.5938C563.646 52.5094 563.636 52.425 563.625 52.3408C563.636 52.425 563.646 52.5094 563.657 52.5938ZM312.697 52.1133H312.698H312.697ZM412.485 51.1982C412.46 51.0217 412.435 50.8455 412.408 50.6699C412.435 50.8455 412.46 51.0217 412.485 51.1982ZM563.462 51.1982C563.436 51.0217 563.411 50.8455 563.385 50.6699C563.411 50.8455 563.436 51.0217 563.462 51.1982ZM276.062 49.9443V49.9434V49.9443ZM427.038 49.9443V49.9434V49.9443ZM412.214 49.457C412.192 49.3273 412.172 49.1976 412.15 49.0684C412.172 49.1976 412.192 49.3273 412.214 49.457ZM563.19 49.457C563.169 49.3273 563.149 49.1976 563.127 49.0684C563.149 49.1976 563.169 49.3273 563.19 49.457ZM411.983 48.127C411.941 47.8938 411.901 47.6611 411.857 47.4297C411.901 47.6611 411.941 47.8938 411.983 48.127ZM562.96 48.127C562.918 47.8938 562.878 47.6611 562.834 47.4297C562.878 47.6611 562.918 47.8938 562.96 48.127ZM411.438 45.3535C411.421 45.2743 411.404 45.1952 411.387 45.1162C411.404 45.1952 411.421 45.2743 411.438 45.3535ZM562.415 45.3535C562.398 45.2743 562.381 45.1952 562.363 45.1162C562.381 45.1952 562.398 45.2743 562.415 45.3535ZM562.291 44.791C562.252 44.6177 562.214 44.4447 562.175 44.2725C562.214 44.4447 562.252 44.6177 562.291 44.791ZM562.121 44.043C562.088 43.9 562.054 43.7574 562.021 43.6152C562.054 43.7574 562.088 43.9 562.121 44.043ZM278.238 42.9863C278.331 42.7338 278.426 42.4817 278.521 42.2305C278.33 42.7328 278.143 43.2377 277.963 43.7451L278.238 42.9863ZM429.215 42.9863C429.308 42.7338 429.402 42.4817 429.498 42.2305C429.306 42.7328 429.12 43.2377 428.939 43.7451L429.215 42.9863ZM410.795 42.6035C410.749 42.4203 410.702 42.2376 410.654 42.0557C410.702 42.2376 410.749 42.4203 410.795 42.6035ZM561.739 42.4766C561.703 42.3359 561.667 42.1956 561.631 42.0557C561.667 42.1956 561.703 42.3359 561.739 42.4766ZM410.555 41.6816C410.525 41.5711 410.496 41.4607 410.466 41.3506C410.496 41.4607 410.525 41.5711 410.555 41.6816ZM561.531 41.6816C561.502 41.5711 561.472 41.4607 561.442 41.3506C561.472 41.4607 561.502 41.5711 561.531 41.6816ZM410.317 40.8135C410.298 40.7444 410.279 40.6753 410.26 40.6064C410.279 40.6753 410.298 40.7444 410.317 40.8135ZM561.294 40.8135C561.275 40.7444 561.256 40.6753 561.236 40.6064C561.256 40.6753 561.275 40.7444 561.294 40.8135ZM839.236 39.252C839.27 39.7685 839.293 40.2891 839.309 40.8135C839.293 40.2891 839.27 39.7685 839.236 39.252ZM561.111 40.1738C561.076 40.0515 561.04 39.9294 561.004 39.8076C561.04 39.9294 561.076 40.0515 561.111 40.1738ZM410.128 40.1504C410.095 40.0359 410.061 39.9216 410.027 39.8076C410.061 39.9216 410.095 40.0359 410.128 40.1504ZM280.065 38.5166C279.845 39.0049 279.631 39.4961 279.422 39.9902L279.739 39.252C279.847 39.0061 279.955 38.761 280.065 38.5166ZM431.042 38.5166C430.822 39.0049 430.607 39.4961 430.398 39.9902L430.716 39.252C430.823 39.0061 430.932 38.761 431.042 38.5166ZM409.687 38.6973C409.665 38.6291 409.643 38.5612 409.621 38.4932C409.643 38.5612 409.665 38.6291 409.687 38.6973ZM560.663 38.6973C560.642 38.6291 560.619 38.5612 560.598 38.4932C560.619 38.5612 560.642 38.6291 560.663 38.6973ZM367.863 37.1836C368.111 37.3895 368.354 37.599 368.59 37.8145C368.354 37.599 368.111 37.3895 367.863 37.1836ZM518.84 37.1836C519.087 37.3895 519.33 37.599 519.566 37.8145C519.33 37.599 519.088 37.3895 518.84 37.1836ZM409.222 37.2842C409.197 37.2125 409.173 37.1408 409.148 37.0693C409.173 37.1408 409.197 37.2125 409.222 37.2842ZM560.198 37.2842C560.174 37.2125 560.15 37.1408 560.125 37.0693C560.15 37.1408 560.174 37.2125 560.198 37.2842ZM408.985 36.6025C408.954 36.5144 408.922 36.4266 408.891 36.3389C408.922 36.4266 408.954 36.5144 408.985 36.6025ZM559.962 36.6025C559.931 36.5144 559.899 36.4266 559.867 36.3389C559.899 36.4266 559.931 36.5144 559.962 36.6025ZM838.975 36.5742C838.967 36.5172 838.961 36.4602 838.953 36.4033C838.961 36.4602 838.967 36.5172 838.975 36.5742ZM408.72 35.8711C408.704 35.8294 408.689 35.7877 408.674 35.7461C408.689 35.7877 408.704 35.8294 408.72 35.8711ZM559.696 35.8711C559.681 35.8294 559.666 35.7877 559.65 35.7461C559.666 35.7877 559.681 35.8294 559.696 35.8711ZM838.876 35.8711C838.855 35.7285 838.834 35.5862 838.812 35.4443C838.834 35.5862 838.855 35.7285 838.876 35.8711ZM281.824 34.9131V34.9141V34.9131ZM432.801 34.9131V34.9141V34.9131ZM326.006 34.8369V34.8379V34.8369ZM476.982 34.8369V34.8379V34.8369ZM408.467 35.1973C408.435 35.1154 408.404 35.0337 408.372 34.9521C408.404 35.0337 408.435 35.1154 408.467 35.1973ZM559.443 35.1973C559.412 35.1154 559.38 35.0337 559.349 34.9521C559.38 35.0337 559.412 35.1154 559.443 35.1973ZM838.699 34.7803C838.687 34.7093 838.675 34.6382 838.662 34.5674C838.675 34.6382 838.687 34.7093 838.699 34.7803ZM408.23 34.5908C408.199 34.5116 408.167 34.4325 408.136 34.3535C408.167 34.4325 408.199 34.5115 408.23 34.5908ZM559.207 34.5908C559.176 34.5116 559.144 34.4325 559.112 34.3535C559.144 34.4325 559.176 34.5115 559.207 34.5908ZM407.94 33.8721C407.908 33.7928 407.875 33.7138 407.842 33.6348C407.875 33.7138 407.908 33.7928 407.94 33.8721ZM558.917 33.8721C558.884 33.7928 558.851 33.7138 558.818 33.6348C558.851 33.7138 558.884 33.7928 558.917 33.8721ZM838.508 33.7754C838.498 33.7285 838.489 33.6815 838.479 33.6348C838.489 33.6815 838.498 33.7285 838.508 33.7754ZM407.681 33.251C407.645 33.1661 407.608 33.0816 407.571 32.9971C407.608 33.0816 407.645 33.1661 407.681 33.251ZM558.657 33.251C558.628 33.1814 558.597 33.1123 558.567 33.043C558.597 33.1123 558.628 33.1814 558.657 33.251ZM838.35 33.0439C838.324 32.9315 838.3 32.819 838.273 32.707C838.3 32.819 838.324 32.9315 838.35 33.0439ZM407.397 32.5977C407.357 32.5066 407.317 32.4158 407.276 32.3252C407.317 32.4158 407.357 32.5066 407.397 32.5977ZM558.374 32.5977C558.341 32.5239 558.308 32.4505 558.275 32.377C558.308 32.4505 558.341 32.5239 558.374 32.5977ZM838.154 32.2236C838.122 32.0952 838.091 31.9666 838.058 31.8389C838.091 31.9666 838.122 32.0952 838.154 32.2236ZM407.126 31.9922C407.089 31.9119 407.053 31.8319 407.016 31.752C407.053 31.8319 407.089 31.9119 407.126 31.9922ZM558.103 31.9922C558.066 31.9119 558.029 31.8319 557.992 31.752C558.029 31.8319 558.066 31.9119 558.103 31.9922ZM557.817 31.376C557.756 31.2466 557.695 31.1178 557.633 30.9893C557.695 31.1178 557.756 31.2466 557.817 31.376ZM406.809 31.3076C406.758 31.2005 406.707 31.0939 406.655 30.9873C406.707 31.0939 406.758 31.2005 406.809 31.3076ZM837.905 31.2822C837.872 31.162 837.839 31.0415 837.805 30.9219C837.839 31.0415 837.872 31.162 837.905 31.2822ZM340.377 30.9619V30.9629V30.9619ZM491.354 30.9619V30.9629V30.9619ZM406.565 30.8008C406.498 30.6626 406.43 30.5249 406.362 30.3877C406.43 30.5249 406.498 30.6626 406.565 30.8008ZM557.542 30.8008C557.475 30.6626 557.407 30.5249 557.339 30.3877C557.407 30.5249 557.475 30.6626 557.542 30.8008ZM837.659 30.4404C837.622 30.3195 837.586 30.1984 837.548 30.0781C837.586 30.1984 837.622 30.3195 837.659 30.4404ZM406.207 30.0771C406.176 30.0151 406.144 29.9534 406.112 29.8916C406.144 29.9534 406.176 30.0151 406.207 30.0771ZM557.184 30.0771C557.152 30.0151 557.12 29.9534 557.089 29.8916C557.12 29.9534 557.152 30.0151 557.184 30.0771ZM837.391 29.6025C837.347 29.4715 837.304 29.3402 837.259 29.21C837.304 29.3402 837.347 29.4715 837.391 29.6025ZM285.549 28.7441V28.7451V28.7441ZM436.525 28.7441V28.7451V28.7441ZM405.558 28.8359C405.519 28.7648 405.48 28.6939 405.441 28.623C405.48 28.6939 405.519 28.7648 405.558 28.8359ZM556.534 28.8359C556.496 28.7648 556.457 28.6939 556.418 28.623C556.457 28.6939 556.496 28.7648 556.534 28.8359ZM837.125 28.8359C837.066 28.6734 837.008 28.5109 836.947 28.3496C837.008 28.5109 837.066 28.6734 837.125 28.8359ZM405.211 28.2061C405.161 28.117 405.111 28.0281 405.061 27.9395C405.111 28.0281 405.161 28.117 405.211 28.2061ZM556.188 28.2061C556.138 28.117 556.087 28.0281 556.037 27.9395C556.087 28.0281 556.138 28.117 556.188 28.2061ZM836.787 27.9395C836.735 27.807 836.684 27.6745 836.63 27.543C836.684 27.6745 836.735 27.807 836.787 27.9395ZM404.93 27.71C404.86 27.5881 404.789 27.4667 404.718 27.3457C404.789 27.4667 404.86 27.5881 404.93 27.71ZM555.906 27.71C555.836 27.5881 555.765 27.4667 555.694 27.3457C555.765 27.4667 555.836 27.5881 555.906 27.71ZM288.955 24.2646C288.263 25.0892 287.596 25.9313 286.953 26.7891C287.596 25.9313 288.263 25.0892 288.955 24.2646ZM439.932 24.2646C439.239 25.0892 438.572 25.9313 437.93 26.7891C438.572 25.9313 439.239 25.0892 439.932 24.2646ZM836.45 27.1143C836.39 26.9736 836.331 26.8329 836.27 26.6934C836.331 26.8329 836.39 26.9736 836.45 27.1143ZM404.58 27.1133C404.52 27.0127 404.46 26.9125 404.399 26.8125C404.46 26.9125 404.52 27.0127 404.58 27.1133ZM555.557 27.1133C555.497 27.0127 555.436 26.9125 555.376 26.8125C555.436 26.9125 555.497 27.0127 555.557 27.1133ZM404.195 26.4775C404.15 26.4041 404.104 26.331 404.059 26.2578C404.104 26.331 404.15 26.4041 404.195 26.4775ZM555.172 26.4775C555.127 26.4041 555.081 26.331 555.035 26.2578C555.081 26.331 555.127 26.4041 555.172 26.4775ZM836.104 26.3281C836.037 26.1812 835.969 26.0344 835.9 25.8887C835.969 26.0344 836.037 26.1812 836.104 26.3281ZM403.839 25.9082C403.788 25.8285 403.737 25.7493 403.686 25.6699C403.737 25.7493 403.788 25.8285 403.839 25.9082ZM554.815 25.9082C554.765 25.8285 554.713 25.7493 554.662 25.6699C554.713 25.7493 554.765 25.8285 554.815 25.9082ZM835.686 25.4463C835.63 25.3343 835.575 25.2225 835.519 25.1113C835.575 25.2225 835.63 25.3343 835.686 25.4463ZM403.503 25.3877C403.424 25.268 403.345 25.1491 403.266 25.0303C403.345 25.1491 403.424 25.268 403.503 25.3877ZM554.479 25.3877C554.401 25.268 554.322 25.1491 554.242 25.0303C554.322 25.1491 554.401 25.268 554.479 25.3877ZM403.121 24.8145C403.068 24.7361 403.014 24.6581 402.961 24.5801C403.014 24.6581 403.068 24.7361 403.121 24.8145ZM554.098 24.8145C554.045 24.7361 553.991 24.6581 553.938 24.5801C553.991 24.6581 554.045 24.7361 554.098 24.8145ZM835.292 24.6758C835.228 24.5541 835.164 24.4322 835.099 24.3115C835.164 24.4323 835.228 24.5541 835.292 24.6758ZM834.889 23.9346C834.81 23.7938 834.731 23.6531 834.649 23.5137C834.731 23.6531 834.81 23.7938 834.889 23.9346ZM402.334 23.6885C402.272 23.6021 402.208 23.5165 402.146 23.4307C402.208 23.5165 402.272 23.6021 402.334 23.6885ZM553.311 23.6885C553.248 23.6021 553.185 23.5165 553.122 23.4307C553.185 23.5165 553.248 23.6021 553.311 23.6885ZM834.464 23.2012C834.374 23.0515 834.284 22.9021 834.192 22.7539C834.284 22.9021 834.374 23.0515 834.464 23.2012ZM401.949 23.1641C401.847 23.0266 401.743 22.89 401.64 22.7539C401.743 22.89 401.847 23.0266 401.949 23.1641ZM552.926 23.1641C552.823 23.0266 552.72 22.89 552.616 22.7539C552.72 22.89 552.823 23.0266 552.926 23.1641ZM441.531 22.4395C441.896 22.0404 442.268 21.6459 442.646 21.2559C442.268 21.6459 441.896 22.0404 441.531 22.4395ZM290.555 22.4395C290.92 22.0404 291.291 21.6459 291.669 21.2559C291.291 21.6459 290.92 22.0404 290.555 22.4395ZM401.546 22.6309C401.471 22.5337 401.396 22.4373 401.32 22.3408C401.396 22.4373 401.471 22.5337 401.546 22.6309ZM552.522 22.6309C552.448 22.5337 552.372 22.4373 552.297 22.3408C552.372 22.4373 552.448 22.5337 552.522 22.6309ZM833.969 22.4004C833.884 22.2686 833.799 22.1374 833.713 22.0068C833.799 22.1374 833.884 22.2686 833.969 22.4004ZM401.12 22.0859C401.01 21.9472 400.899 21.8092 400.787 21.6719C400.899 21.8092 401.01 21.9472 401.12 22.0859ZM552.097 22.0859C551.987 21.9472 551.875 21.8092 551.764 21.6719C551.875 21.8092 551.987 21.9472 552.097 22.0859ZM833.496 21.6846C833.407 21.5533 833.318 21.422 833.227 21.292C833.318 21.422 833.407 21.5533 833.496 21.6846ZM400.737 21.6104L400.671 21.5283C400.591 21.4306 400.509 21.3343 400.428 21.2373C400.531 21.3613 400.635 21.4852 400.737 21.6104ZM551.714 21.6104L551.647 21.5283C551.567 21.4306 551.485 21.3343 551.404 21.2373C551.508 21.3613 551.612 21.4852 551.714 21.6104ZM832.968 20.9297C832.88 20.808 832.791 20.6869 832.701 20.5664C832.791 20.6869 832.88 20.808 832.968 20.9297ZM832.432 20.2119C832.347 20.1012 832.261 19.9905 832.175 19.8809C832.261 19.9905 832.347 20.1012 832.432 20.2119ZM831.87 19.5029C831.782 19.3944 831.693 19.2862 831.603 19.1787C831.693 19.2862 831.782 19.3944 831.87 19.5029ZM398.491 19.0703C398.359 18.932 398.225 18.7949 398.091 18.6582C398.225 18.7949 398.359 18.932 398.491 19.0703ZM549.468 19.0703C549.335 18.932 549.202 18.7949 549.067 18.6582C549.202 18.7949 549.335 18.932 549.468 19.0703ZM831.297 18.8203C831.205 18.7145 831.114 18.6087 831.021 18.5039C831.114 18.6087 831.205 18.7145 831.297 18.8203ZM830.712 18.1621C830.612 18.0531 830.512 17.9447 830.41 17.8369C830.512 17.9447 830.612 18.0531 830.712 18.1621ZM397.543 18.1094C397.458 18.0257 397.371 17.9434 397.285 17.8604C397.371 17.9434 397.458 18.0257 397.543 18.1094ZM548.52 18.1094C548.434 18.0257 548.348 17.9434 548.262 17.8604C548.348 17.9434 548.434 18.0257 548.52 18.1094ZM830.077 17.4893C829.977 17.3865 829.877 17.2843 829.775 17.1826C829.877 17.2843 829.977 17.3865 830.077 17.4893ZM829.418 16.8301C829.334 16.7485 829.249 16.6677 829.164 16.5869C829.249 16.6677 829.334 16.7485 829.418 16.8301ZM298.486 15.2607C297.858 15.7304 297.243 16.2111 296.64 16.7012C297.243 16.2112 297.858 15.7304 298.486 15.2607ZM449.463 15.2607C448.834 15.7304 448.219 16.2111 447.616 16.7012C448.219 16.2112 448.834 15.7304 449.463 15.2607ZM828.774 16.2217C828.672 16.1272 828.568 16.0329 828.464 15.9395C828.568 16.0329 828.672 16.1272 828.774 16.2217ZM828.094 15.6143C827.986 15.521 827.878 15.4281 827.77 15.3359C827.878 15.4281 827.986 15.521 828.094 15.6143ZM393.452 14.5664C393.811 14.8407 394.165 15.1191 394.514 15.4023C394.165 15.1191 393.811 14.8407 393.452 14.5664ZM544.429 14.5664C544.788 14.8407 545.142 15.1191 545.49 15.4023C545.142 15.1191 544.788 14.8407 544.429 14.5664ZM827.4 15.0283C827.283 14.9321 827.165 14.8371 827.046 14.7422C827.165 14.8371 827.283 14.9321 827.4 15.0283ZM826.688 14.46C826.556 14.3576 826.423 14.2561 826.289 14.1553C826.423 14.2561 826.556 14.3576 826.688 14.46ZM392.335 13.7393C392.655 13.9683 392.97 14.2018 393.281 14.4375C392.97 14.2018 392.655 13.9683 392.335 13.7393ZM543.312 13.7393C543.631 13.9683 543.946 14.2018 544.258 14.4375C543.946 14.2018 543.631 13.9683 543.312 13.7393ZM304.197 11.4971C303.694 11.7881 303.198 12.0852 302.709 12.3877C302.464 12.539 302.221 12.6915 301.979 12.8457C301.497 13.1539 301.021 13.4678 300.552 13.7871C301.959 12.8292 303.428 11.9212 304.957 11.0654L304.197 11.4971ZM455.174 11.4971C454.671 11.7881 454.175 12.0852 453.686 12.3877C453.441 12.539 453.197 12.6915 452.956 12.8457C452.473 13.1539 451.998 13.4678 451.528 13.7871C452.936 12.8292 454.404 11.9212 455.934 11.0654L455.174 11.4971ZM825.947 13.9004C825.812 13.8009 825.675 13.7024 825.537 13.6045C825.675 13.7024 825.812 13.8009 825.947 13.9004ZM391.846 13.3945C391.828 13.3821 391.81 13.3698 391.792 13.3574C391.81 13.3698 391.828 13.3821 391.846 13.3945ZM542.822 13.3945C542.804 13.3821 542.786 13.3698 542.769 13.3574C542.786 13.3698 542.804 13.3821 542.822 13.3945ZM825.164 13.3418C825.033 13.2514 824.901 13.1623 824.769 13.0732C824.901 13.1623 825.033 13.2514 825.164 13.3418ZM391.462 13.1309C391.368 13.067 391.275 13.0027 391.181 12.9395C391.275 13.0027 391.368 13.067 391.462 13.1309ZM542.438 13.1309C542.345 13.067 542.251 13.0027 542.157 12.9395C542.251 13.0027 542.345 13.067 542.438 13.1309ZM824.364 12.8047C824.244 12.7264 824.123 12.6495 824.001 12.5723C824.123 12.6495 824.244 12.7264 824.364 12.8047ZM390.823 12.7031C390.757 12.6596 390.691 12.6155 390.625 12.5723C390.691 12.6155 390.757 12.6596 390.823 12.7031ZM541.8 12.7031C541.734 12.6596 541.668 12.6155 541.602 12.5723C541.668 12.6155 541.734 12.6596 541.8 12.7031ZM823.52 12.2715C823.415 12.2074 823.31 12.1443 823.204 12.0811C823.31 12.1443 823.415 12.2074 823.52 12.2715ZM389.623 11.9385C389.565 11.9028 389.507 11.8666 389.449 11.8311C389.507 11.8666 389.565 11.9028 389.623 11.9385ZM540.6 11.9385C540.542 11.9028 540.484 11.8666 540.426 11.8311C540.484 11.8666 540.542 11.9028 540.6 11.9385ZM822.686 11.7754C822.576 11.7119 822.465 11.6496 822.354 11.5869C822.465 11.6496 822.576 11.7119 822.686 11.7754ZM389.043 11.5869C388.98 11.5496 388.918 11.5117 388.855 11.4746C388.918 11.5117 388.98 11.5496 389.043 11.5869ZM540.02 11.5869C539.957 11.5496 539.895 11.5117 539.832 11.4746C539.895 11.5117 539.957 11.5496 540.02 11.5869ZM821.845 11.3037C821.722 11.237 821.599 11.1712 821.475 11.1055C821.599 11.1712 821.722 11.237 821.845 11.3037ZM388.463 11.2461C388.373 11.1944 388.284 11.1421 388.194 11.0908C388.284 11.1421 388.373 11.1944 388.463 11.2461ZM539.439 11.2461C539.35 11.1944 539.261 11.1421 539.171 11.0908C539.261 11.1421 539.35 11.1944 539.439 11.2461ZM387.953 10.9551C387.833 10.8873 387.712 10.819 387.591 10.752C387.712 10.819 387.833 10.8873 387.953 10.9551ZM538.93 10.9551C538.809 10.8873 538.689 10.819 538.567 10.752C538.689 10.819 538.809 10.8873 538.93 10.9551ZM820.955 10.834C820.838 10.7743 820.72 10.716 820.603 10.6572C820.72 10.716 820.838 10.7743 820.955 10.834ZM387.31 10.5986C387.182 10.5295 387.055 10.4609 386.927 10.3926C387.055 10.4609 387.182 10.5295 387.31 10.5986ZM538.286 10.5986C538.159 10.5295 538.031 10.4609 537.903 10.3926C538.031 10.4609 538.159 10.5295 538.286 10.5986ZM820.064 10.3926C819.937 10.3314 819.808 10.272 819.68 10.2119C819.808 10.272 819.937 10.3314 820.064 10.3926ZM386.488 10.1621C386.434 10.1338 386.38 10.1053 386.325 10.0771C386.38 10.1053 386.434 10.1338 386.488 10.1621ZM537.465 10.1621C537.411 10.1338 537.356 10.1053 537.302 10.0771C537.356 10.1053 537.411 10.1338 537.465 10.1621ZM819.143 9.96484C819.011 9.90577 818.879 9.84805 818.746 9.79004C818.879 9.84805 819.011 9.90577 819.143 9.96484ZM818.208 9.55762C818.057 9.4941 817.905 9.43326 817.752 9.37109C817.905 9.43326 818.057 9.4941 818.208 9.55762ZM385.271 9.54785C385.187 9.50689 385.103 9.46544 385.019 9.4248C385.103 9.46544 385.187 9.50689 385.271 9.54785ZM536.247 9.54785C536.163 9.50689 536.079 9.46544 535.995 9.4248C536.079 9.46544 536.163 9.50689 536.247 9.54785ZM310.564 8.29004C309.727 8.6541 308.905 9.03277 308.099 9.4248L308.91 9.03809C309.727 8.65532 310.559 8.28615 311.407 7.93164L310.564 8.29004ZM461.541 8.29004C460.703 8.6541 459.882 9.03277 459.075 9.4248L459.887 9.03809C460.703 8.65532 461.536 8.28615 462.384 7.93164L461.541 8.29004ZM384.668 9.25781C384.561 9.20713 384.453 9.1566 384.346 9.10645C384.453 9.1566 384.561 9.20713 384.668 9.25781ZM535.645 9.25781C535.537 9.20713 535.43 9.1566 535.322 9.10645C535.43 9.1566 535.537 9.20713 535.645 9.25781ZM817.21 9.15332C817.091 9.10657 816.971 9.06058 816.851 9.01465C816.971 9.06059 817.091 9.10657 817.21 9.15332ZM384.001 8.94727C383.883 8.89317 383.764 8.8396 383.645 8.78613C383.764 8.8396 383.883 8.89317 384.001 8.94727ZM534.978 8.94727C534.859 8.89317 534.74 8.8396 534.621 8.78613C534.74 8.8396 534.859 8.89317 534.978 8.94727ZM816.255 8.79102C816.084 8.72863 815.913 8.66819 815.74 8.60742C815.913 8.66819 816.084 8.72863 816.255 8.79102ZM383.353 8.65625C383.231 8.60275 383.11 8.54895 382.988 8.49609C383.11 8.54895 383.231 8.60275 383.353 8.65625ZM534.329 8.65625C534.208 8.60275 534.087 8.54895 533.965 8.49609C534.087 8.54895 534.208 8.60275 534.329 8.65625ZM815.282 8.44727C815.112 8.38937 814.941 8.33368 814.77 8.27734C814.941 8.33368 815.112 8.38937 815.282 8.44727ZM382.642 8.34766C382.517 8.29449 382.391 8.24195 382.266 8.18945C382.391 8.24195 382.517 8.29449 382.642 8.34766ZM533.618 8.34766C533.493 8.29449 533.368 8.24195 533.242 8.18945C533.368 8.24195 533.493 8.29449 533.618 8.34766ZM814.201 8.09277C814.045 8.0438 813.889 7.99693 813.731 7.94922C813.889 7.99693 814.045 8.0438 814.201 8.09277ZM381.961 8.06348C381.824 8.00732 381.687 7.95088 381.55 7.89551C381.687 7.95088 381.824 8.00732 381.961 8.06348ZM532.938 8.06348C532.801 8.00732 532.664 7.95088 532.526 7.89551C532.664 7.95088 532.801 8.00732 532.938 8.06348ZM813.188 7.78613C813.014 7.73572 812.84 7.68756 812.665 7.63867C812.84 7.68757 813.014 7.73572 813.188 7.78613ZM381.263 7.78125C381.129 7.72842 380.996 7.67613 380.861 7.62402C380.996 7.67613 381.129 7.72842 381.263 7.78125ZM532.239 7.78125C532.106 7.72842 531.972 7.67613 531.838 7.62402C531.972 7.67613 532.106 7.72842 532.239 7.78125ZM313.125 7.24219V7.24121V7.24219ZM464.102 7.24219V7.24121V7.24219ZM812.067 7.47363C811.948 7.44175 811.827 7.41204 811.707 7.38086C811.827 7.41204 811.948 7.44175 812.067 7.47363ZM380.418 7.4541C380.35 7.42819 380.281 7.40171 380.213 7.37598C380.281 7.40171 380.35 7.42819 380.418 7.4541ZM531.395 7.4541C531.326 7.42819 531.258 7.40171 531.189 7.37598C531.258 7.40171 531.326 7.42819 531.395 7.4541ZM379.724 7.19531C379.628 7.16023 379.532 7.12457 379.436 7.08984C379.532 7.12457 379.628 7.16023 379.724 7.19531ZM530.7 7.19531C530.604 7.16023 530.508 7.12457 530.412 7.08984C530.508 7.12457 530.604 7.16023 530.7 7.19531ZM810.979 7.19531C810.839 7.16124 810.698 7.12982 810.558 7.09668C810.698 7.12982 810.839 7.16124 810.979 7.19531ZM379.06 6.95605C378.913 6.90425 378.766 6.85275 378.618 6.80176C378.766 6.85275 378.913 6.90424 379.06 6.95605ZM530.036 6.95605C529.89 6.90425 529.742 6.85275 529.595 6.80176C529.742 6.85275 529.89 6.90424 530.036 6.95605ZM809.853 6.93359C809.723 6.9049 809.593 6.8785 809.463 6.85059C809.593 6.8785 809.723 6.9049 809.853 6.93359ZM378.421 6.73438C378.248 6.67542 378.075 6.61645 377.901 6.55859C378.075 6.61645 378.248 6.67542 378.421 6.73438ZM529.397 6.73438C529.225 6.67542 529.052 6.61645 528.878 6.55859C529.052 6.61645 529.225 6.67542 529.397 6.73438ZM808.722 6.69434C808.595 6.66884 808.467 6.64586 808.339 6.62109C808.467 6.64586 808.595 6.66884 808.722 6.69434ZM377.552 6.44336C377.436 6.40554 377.32 6.36839 377.203 6.33105C377.32 6.36839 377.436 6.40554 377.552 6.44336ZM528.528 6.44336C528.412 6.40554 528.296 6.36839 528.18 6.33105C528.296 6.36839 528.412 6.40554 528.528 6.44336ZM806.361 6.27051C806.282 6.25788 806.203 6.24674 806.123 6.23438C806.203 6.24674 806.282 6.25788 806.361 6.27051ZM527.786 6.20605C527.631 6.15748 527.476 6.10926 527.32 6.06152C527.476 6.10926 527.631 6.15748 527.786 6.20605ZM317.384 5.75879C316.92 5.90366 316.461 6.05251 316.006 6.20508C316.461 6.05251 316.92 5.90365 317.384 5.75879ZM376.805 6.20508C376.652 6.15701 376.498 6.10877 376.344 6.06152C376.498 6.10877 376.652 6.15701 376.805 6.20508ZM468.36 5.75879C467.897 5.90366 467.438 6.05251 466.982 6.20508C467.438 6.05251 467.897 5.90365 468.36 5.75879ZM376.133 5.99707C375.95 5.9418 375.767 5.88713 375.583 5.83301C375.767 5.88713 375.95 5.9418 376.133 5.99707ZM527.109 5.99707C526.927 5.9418 526.744 5.88713 526.56 5.83301C526.744 5.88713 526.927 5.9418 527.109 5.99707ZM802.692 5.79199C802.599 5.78242 802.505 5.77388 802.411 5.76465C802.505 5.77388 802.599 5.78242 802.692 5.79199ZM375.236 5.73242C375.131 5.70204 375.026 5.67161 374.92 5.6416C375.026 5.67161 375.131 5.70204 375.236 5.73242ZM526.213 5.73242C526.108 5.70204 526.002 5.67161 525.896 5.6416C526.002 5.67161 526.108 5.70204 526.213 5.73242ZM325.339 3.74219C324.665 3.87586 323.998 4.01684 323.339 4.16504C322.68 4.31318 322.028 4.46846 321.384 4.63086C320.418 4.87441 319.468 5.13427 318.534 5.40918C320.713 4.76757 322.981 4.20984 325.339 3.74219ZM476.315 3.74219C475.641 3.87586 474.975 4.01684 474.315 4.16504C473.656 4.31318 473.005 4.46846 472.36 4.63086C471.394 4.87441 470.444 5.13427 469.511 5.40918C471.69 4.76757 473.957 4.20984 476.315 3.74219ZM374.4 5.49609C374.316 5.4727 374.231 5.44991 374.146 5.42676C374.231 5.44991 374.316 5.4727 374.4 5.49609ZM525.377 5.49609C525.292 5.4727 525.207 5.44991 525.122 5.42676C525.207 5.44991 525.292 5.4727 525.377 5.49609ZM373.585 5.27637C373.516 5.25817 373.447 5.23973 373.378 5.22168C373.447 5.23973 373.516 5.25817 373.585 5.27637ZM524.562 5.27637C524.493 5.25817 524.424 5.23973 524.354 5.22168C524.424 5.23973 524.493 5.25817 524.562 5.27637ZM372.756 5.0625C372.688 5.04545 372.621 5.02863 372.553 5.01172C372.621 5.02863 372.688 5.04545 372.756 5.0625ZM523.732 5.0625C523.665 5.04545 523.597 5.02863 523.529 5.01172C523.597 5.02863 523.665 5.04545 523.732 5.0625ZM371.98 4.87109C371.873 4.8452 371.766 4.81949 371.658 4.79395C371.766 4.81949 371.873 4.8452 371.98 4.87109ZM522.957 4.87109C522.85 4.8452 522.742 4.81949 522.635 4.79395C522.742 4.81949 522.85 4.8452 522.957 4.87109ZM371.241 4.69531C371.111 4.66516 370.98 4.63609 370.85 4.60645C370.98 4.63609 371.111 4.66516 371.241 4.69531ZM522.218 4.69531C522.088 4.66516 521.957 4.63609 521.826 4.60645C521.957 4.63609 522.088 4.66516 522.218 4.69531ZM368.733 4.1543C368.568 4.12109 368.401 4.08908 368.234 4.05664C368.401 4.08908 368.568 4.12109 368.733 4.1543ZM519.71 4.1543C519.544 4.12109 519.378 4.08908 519.211 4.05664C519.378 4.08908 519.544 4.12109 519.71 4.1543ZM366.9 3.80664C366.767 3.78278 366.634 3.75971 366.5 3.73633C366.634 3.75971 366.767 3.78278 366.9 3.80664ZM517.877 3.80664C517.744 3.78278 517.61 3.75971 517.477 3.73633C517.61 3.75971 517.744 3.78278 517.877 3.80664ZM366.098 3.66602C365.969 3.64415 365.841 3.62299 365.712 3.60156C365.841 3.62299 365.969 3.64415 366.098 3.66602ZM517.074 3.66602C516.946 3.64415 516.817 3.62299 516.688 3.60156C516.817 3.62299 516.946 3.64415 517.074 3.66602ZM361.465 2.9873C361.352 2.9733 361.239 2.95902 361.126 2.94531C361.239 2.95902 361.352 2.9733 361.465 2.9873ZM512.441 2.9873C512.329 2.9733 512.216 2.95902 512.103 2.94531C512.216 2.95902 512.329 2.9733 512.441 2.9873ZM360.59 2.88086C360.445 2.86399 360.299 2.84842 360.153 2.83203C360.299 2.84842 360.445 2.86399 360.59 2.88086ZM511.566 2.88086C511.421 2.86399 511.276 2.84842 511.13 2.83203C511.276 2.84842 511.421 2.86399 511.566 2.88086ZM339.429 2.09961C338.271 2.14923 337.13 2.21689 336.007 2.30273C337.505 2.18828 339.033 2.10645 340.593 2.05664L339.429 2.09961ZM490.405 2.09961C489.247 2.14923 488.107 2.21689 486.983 2.30273C488.481 2.18828 490.01 2.10645 491.569 2.05664L490.405 2.09961ZM352.744 2.22363C352.096 2.18869 351.442 2.15758 350.782 2.13086C351.442 2.15758 352.096 2.18869 352.744 2.22363ZM503.721 2.22363C503.073 2.18869 502.419 2.15758 501.759 2.13086C502.419 2.15758 503.073 2.18869 503.721 2.22363ZM350.652 2.125C350.022 2.10003 349.386 2.08097 348.744 2.06348C349.386 2.08097 350.022 2.10003 350.652 2.125ZM501.629 2.125C500.998 2.10003 500.362 2.08097 499.721 2.06348C500.362 2.08097 500.998 2.10003 501.629 2.125ZM342.955 2.00586C343.353 2.00168 343.753 2.00098 344.154 2.00098C344.898 2.00098 345.635 2.00537 346.364 2.01465L344.154 2C343.753 2 343.353 2.00167 342.955 2.00586ZM493.932 2.00586C494.329 2.00168 494.729 2.00098 495.131 2.00098C495.875 2.00098 496.611 2.00537 497.341 2.01465L495.131 2C494.729 2 494.329 2.00167 493.932 2.00586Z" fill="#3A3A39"/>
</svg>
