<svg width="292" height="89" viewBox="0 0 292 89" fill="none" xmlns="http://www.w3.org/2000/svg">
<g clip-path="url(#clip0_7733_859)">
<path d="M52.5653 50.956C52.0039 49.4215 51.4051 47.8871 50.8063 46.4649L31.1949 0H-0.0562134V70.5113H18.8067V19.836C19.3868 21.4827 20.0418 23.1856 20.7716 24.9821L39.99 70.0809L40.1772 70.5113H71.4282V0H52.5653V50.956Z" fill="#3A3A39"/>
<path d="M127.456 47.6064L113.963 0H81.2528V70.4926H100.939V17.16L116.303 70.0061L116.452 70.4926H137.973L153.355 17.4781V70.4926H173.06V0H141.06L127.456 47.6064Z" fill="#3A3A39"/>
<path d="M180.882 69.6693H187.076V78.4458H180.938V88.9813H185.579C196.994 88.9813 198.454 82.4504 198.454 76.7429V53.5198H180.938L180.882 69.6693Z" fill="#3A3A39"/>
<path d="M245.592 0H206.294V70.5113H226.186V47.9619H245.648C260.226 47.9619 268.591 39.0731 268.591 23.6347C268.534 8.51446 260.17 0 245.592 0ZM226.13 15.4384H239.66C245.274 15.4384 248.006 18.1331 248.006 23.6722C248.006 27.6581 246.528 32.43 239.454 32.43H226.13V15.4384Z" fill="#3A3A39"/>
<path d="M291.496 53.5198H273.157V70.5114H291.496V53.5198Z" fill="#3A3A39"/>
</g>
<defs>
<clipPath id="clip0_7733_859">
<rect width="291.496" height="89" fill="white"/>
</clipPath>
</defs>
</svg>
