<svg width="373" height="73" viewBox="0 0 373 73" fill="none" xmlns="http://www.w3.org/2000/svg">
<g clip-path="url(#clip0_7741_4586)">
<path d="M49.8491 35.4006C57.8863 32.8693 61.8033 27.5666 61.8033 19.2523C61.8033 8.27734 53.84 1.73669 40.5001 1.73669H-3.05176e-05V71.3371H39.7795C54.4313 71.3371 62.838 64.316 62.838 52.0847C62.838 40.8696 56.0757 37.0265 49.8491 35.4006ZM19.4371 42.514H34.6431C39.9828 42.514 42.5694 44.8051 42.5694 49.5165C42.5694 54.228 40.223 56.4267 35.1789 56.4267H19.4371V42.514ZM34.6431 29.3403H19.4371V16.6656H34.754C39.3915 16.6656 41.5532 18.661 41.5532 22.9475C41.5532 27.2341 39.3546 29.3403 34.6431 29.3403Z" fill="#3A3A39"/>
<path d="M132.291 21.3031C132.291 9.05332 123.477 1.73669 108.715 1.73669H70.2655V71.3371H89.9244V46.6157H101.638C107.588 46.6157 111.006 49.8861 111.006 55.5768V58.3482C110.844 62.5558 111.267 66.7654 112.262 70.8567L112.41 71.3371H132.013L131.699 69.6742C130.91 65.9509 130.52 62.1542 130.535 58.3482V54.5421C130.535 44.6203 124.845 40.9805 119.45 39.3545C123.253 38.1377 126.56 35.721 128.875 32.4667C131.19 29.2124 132.389 25.2956 132.291 21.3031ZM89.9244 16.9797H104.003C109.546 16.9797 112.022 19.2338 112.022 24.3702C112.022 29.9131 109.602 32.4074 103.892 32.4074H89.9244V16.9797Z" fill="#3A3A39"/>
<path d="M173.751 0C146.24 0 136.429 18.9013 136.429 36.5832C136.429 59.383 150.379 72.9815 173.751 72.9815C197.124 72.9815 211.184 59.383 211.184 36.5832C211.184 28.0102 208.487 0 173.751 0ZM173.751 16.1484C188.052 16.1484 190.916 23.9638 190.916 36.5832C190.916 49.2025 188.052 56.9071 173.751 56.9071C159.451 56.9071 156.698 48.7776 156.698 36.5832C156.698 24.3888 159.598 16.1484 173.751 16.1484Z" fill="#3A3A39"/>
<path d="M261.44 1.73669L237.643 30.6706V1.73669H218.205V71.3555H237.643V56.1495L247.01 45.8397L263.232 71.3555H285.958V69.5264L259.98 31.4282L286.716 1.73669H261.44Z" fill="#3A3A39"/>
<path d="M310.162 43.253H343.604V28.6198H310.162V17.3862H346.69V1.73669H290.725V71.3555H347.004V55.7061H310.162V43.253Z" fill="#3A3A39"/>
<path d="M372.631 54.5791H354.524V71.3556H372.631V54.5791Z" fill="#3A3A39"/>
</g>
<defs>
<clipPath id="clip0_7741_4586">
<rect width="372.631" height="73" fill="white"/>
</clipPath>
</defs>
</svg>
