<svg width="853" height="91" viewBox="0 0 853 91" fill="none" xmlns="http://www.w3.org/2000/svg">
<g clip-path="url(#clip0_7685_2332)">
<path d="M0 88.3139H24.0565V55.4306H64.0516V37.3196H24.0565V21.5182H68.6251V2.14954H0V88.3139Z" fill="#3A3A39"/>
<path d="M154.972 26.389C154.972 11.2279 144.065 2.17242 125.794 2.17242H78.2065V88.314H102.515V57.6945H117.035C124.399 57.6945 128.606 61.742 128.606 68.7852V72.1924C128.41 77.4011 128.941 82.6117 130.184 87.6736L130.367 88.2911H154.721L154.332 86.233C153.354 81.6174 152.871 76.9105 152.891 72.1924V67.5274C152.891 55.2248 145.825 50.7428 139.171 48.7076C143.858 47.1865 147.928 44.1922 150.775 40.1705C153.623 36.1489 155.095 31.315 154.972 26.389ZM102.515 21.1066H119.94C126.8 21.1066 129.887 23.8965 129.887 30.2536C129.887 37.2282 126.868 40.178 119.825 40.178H102.515V21.1066Z" fill="#3A3A39"/>
<path d="M206.287 0C172.237 0 160.095 23.4162 160.095 45.3003C160.095 73.5187 177.36 90.3492 206.287 90.3492C235.214 90.3492 252.593 73.5187 252.593 45.3003C252.593 34.6899 249.255 0 206.287 0ZM206.287 20.009C223.963 20.009 227.531 29.6819 227.531 45.3003C227.531 60.9188 223.963 70.4545 206.287 70.4545C188.61 70.4545 185.18 60.3928 185.18 45.3003C185.18 30.2078 188.77 20.009 206.287 20.009Z" fill="#3A3A39"/>
<path d="M305.44 19.0028C316.119 19.0028 322.842 23.3934 323.894 31.0768V31.8086H347.905V30.8939C347.104 19.4602 340.496 0 305.28 0C275.552 0 257.944 16.9447 257.944 45.3003C257.944 67.093 268.646 90.3492 298.671 90.3492C312.712 90.3492 322.339 85.5242 327.393 76.0113V88.314H347.79V40.2924H297.482V56.0937H324.649C322.773 66.5213 316.165 71.392 303.931 71.392C289.616 71.392 282.961 63.1141 282.961 45.3232C282.961 27.5324 290.187 19.0028 305.44 19.0028Z" fill="#3A3A39"/>
<path d="M453.621 43.8368C463.591 40.704 468.439 34.1411 468.439 23.8508C468.439 10.2675 458.583 2.17242 442.05 2.17242H391.925V88.314H441.158C459.315 88.314 469.719 79.6243 469.719 64.4861C469.719 50.6056 461.35 45.8492 453.621 43.8368ZM416.004 52.6408H434.824C441.432 52.6408 444.634 55.4763 444.634 61.3075C444.634 67.1387 441.707 69.8371 435.487 69.8371H416.027L416.004 52.6408ZM434.824 36.3134H416.004V20.6493H434.938C440.678 20.6493 443.353 23.119 443.353 28.4242C443.353 33.7295 440.563 36.3134 434.824 36.3134Z" fill="#3A3A39"/>
<path d="M535.875 2.17242H500.225L470.817 88.314H494.965L500.568 72.444H535.532L540.997 88.314H565.282L536.058 2.81271L535.875 2.17242ZM529.22 53.8528H506.879L518.015 21.4039L529.22 53.8528Z" fill="#3A3A39"/>
<path d="M645.044 21.0151V2.14954H568.415V21.5182H612.984L567.386 69.2196L567.157 69.4712V88.3139H645.433V68.9452H598.966L645.044 21.0151Z" fill="#3A3A39"/>
<path d="M711.588 2.17242H675.938L646.53 88.314H670.701L676.281 72.444H711.245L716.71 88.314H740.995L711.771 2.81271L711.588 2.17242ZM704.934 53.8528H682.592L693.706 21.4039L704.934 53.8528Z" fill="#3A3A39"/>
<path d="M822.929 26.389C822.929 11.2279 812.022 2.17242 793.751 2.17242H746.164V88.314H770.472V57.6945H784.992C792.356 57.6945 796.563 61.742 796.563 68.7852V72.1924C796.365 77.4011 796.896 82.612 798.141 87.6736L798.324 88.2911H822.586L822.198 86.233C821.218 81.6176 820.735 76.9106 820.757 72.1924V67.5274C820.757 55.2248 813.691 50.7428 807.037 48.7076C811.741 47.2026 815.831 44.2152 818.696 40.1921C821.56 36.169 823.046 31.3265 822.929 26.389ZM770.472 21.1066H787.897C794.757 21.1066 797.844 23.8965 797.844 30.2536C797.844 37.2282 794.825 40.178 787.782 40.178H770.472V21.1066Z" fill="#3A3A39"/>
<path d="M853 67.5504H830.59V88.314H853V67.5504Z" fill="#3A3A39"/>
</g>
<defs>
<clipPath id="clip0_7685_2332">
<rect width="853" height="90.3491" fill="white"/>
</clipPath>
</defs>
</svg>
