<svg width="680" height="73" viewBox="0 0 680 73" fill="none" xmlns="http://www.w3.org/2000/svg">
<g clip-path="url(#clip0_7705_884)">
<path d="M0 70.4025H19.1775V44.1883H51.0611V29.7505H19.1775V17.1538H54.707V1.71338H0V70.4025Z" fill="#3A3A39"/>
<path d="M123.542 21.0368C123.542 8.9506 114.846 1.73169 100.281 1.73169H62.3452V70.4026H81.7232V45.9931H93.299C99.169 45.9931 102.523 49.2198 102.523 54.8345V57.5507C102.366 61.703 102.79 65.8568 103.781 69.8921L103.927 70.3843H123.341L123.031 68.7437C122.252 65.0642 121.867 61.3119 121.883 57.5507V53.8318C121.883 44.0243 116.25 40.4513 110.945 38.8289C114.682 37.6163 117.926 35.2293 120.196 32.0232C122.466 28.8172 123.639 24.9638 123.542 21.0368ZM81.7232 16.8258H95.6142C101.083 16.8258 103.544 19.0498 103.544 24.1176C103.544 29.6776 101.138 32.0293 95.5231 32.0293H81.7232V16.8258Z" fill="#3A3A39"/>
<path d="M164.449 -0.00012207C137.305 -0.00012207 127.625 18.667 127.625 36.1127C127.625 58.608 141.389 72.025 164.449 72.025C187.51 72.025 201.364 58.608 201.364 36.1127C201.364 27.6542 198.702 -0.00012207 164.449 -0.00012207ZM164.449 15.9508C178.541 15.9508 181.384 23.6619 181.384 36.1127C181.384 48.5635 178.541 56.1652 164.449 56.1652C150.358 56.1652 147.623 48.1442 147.623 36.1127C147.623 24.0812 150.485 15.9508 164.449 15.9508Z" fill="#3A3A39"/>
<path d="M243.493 15.1487C252.006 15.1487 257.365 18.6487 258.204 24.7739V25.3572H277.345V24.6281C276.707 15.5133 271.439 -0.00012207 243.365 -0.00012207C219.666 -0.00012207 205.63 13.508 205.63 36.1127C205.63 53.4855 214.161 72.025 238.097 72.025C249.29 72.025 256.964 68.1786 260.993 60.5951V70.4026H277.254V32.1205H237.149V44.7171H258.805C257.311 53.0297 252.042 56.9127 242.289 56.9127C230.878 56.9127 225.573 50.3136 225.573 36.1309C225.573 21.9483 231.333 15.1487 243.493 15.1487Z" fill="#3A3A39"/>
<path d="M361.62 34.946C369.568 32.4485 373.433 27.2167 373.433 19.0134C373.433 8.18498 365.576 1.73169 352.396 1.73169H312.437V70.4026H351.685C366.159 70.4026 374.454 63.4753 374.454 51.4073C374.454 40.342 367.782 36.5502 361.62 34.946ZM331.632 41.9644H346.635C351.904 41.9644 354.456 44.2248 354.456 48.8734C354.456 53.5219 352.123 55.673 347.164 55.673H331.651L331.632 41.9644ZM346.635 28.9484H331.632V16.4612H346.727C351.302 16.4612 353.435 18.43 353.435 22.6593C353.435 26.8885 351.211 28.9484 346.635 28.9484Z" fill="#3A3A39"/>
<path d="M427.192 1.73169H398.772L375.329 70.4026H394.579L399.045 57.7512H426.919L431.275 70.4026H450.635L427.338 2.24212L427.192 1.73169ZM421.887 42.9306H404.077L412.955 17.0628L421.887 42.9306Z" fill="#3A3A39"/>
<path d="M514.22 16.7528V1.71338H453.133V17.1538H488.662L452.312 55.1808L452.13 55.3813V70.4025H514.53V54.962H477.487L514.22 16.7528Z" fill="#3A3A39"/>
<path d="M567.268 1.73169H538.848L515.405 70.4026H534.674L539.122 57.7512H566.995L571.352 70.4026H590.712L567.414 2.24212L567.268 1.73169ZM561.963 42.9306H544.153L553.013 17.0628L561.963 42.9306Z" fill="#3A3A39"/>
<path d="M656.028 21.0368C656.028 8.9506 647.333 1.73169 632.767 1.73169H594.831V70.4026H614.209V45.9931H625.785C631.655 45.9931 635.009 49.2198 635.009 54.8345V57.5507C634.851 61.703 635.275 65.857 636.267 69.8921L636.413 70.3843H655.755L655.445 68.7437C654.664 65.0643 654.279 61.3119 654.296 57.5507V53.8318C654.296 44.0243 648.663 40.4513 643.359 38.8289C647.109 37.6292 650.369 35.2476 652.653 32.0404C654.937 28.8333 656.121 24.9729 656.028 21.0368ZM614.209 16.8258H628.1C633.569 16.8258 636.03 19.0498 636.03 24.1176C636.03 29.6776 633.624 32.0293 628.009 32.0293H614.209V16.8258Z" fill="#3A3A39"/>
<path d="M680 53.8501H662.135V70.4026H680V53.8501Z" fill="#3A3A39"/>
</g>
<defs>
<clipPath id="clip0_7705_884">
<rect width="680" height="72.0251" fill="white"/>
</clipPath>
</defs>
</svg>
